<svg width="30" height="30" viewBox="0 0 30 30" fill="none" xmlns="http://www.w3.org/2000/svg">
<path d="M30 6.04999V24.1362L24.3516 30H6.62046L0 24.0138V6.04999L6.25563 0H23.7469L30 6.04999Z" fill="url(#paint0_linear)"/>
<path d="M29.3775 6.64844V23.5231L26.2012 21.6408V8.49251L29.3775 6.64844Z" fill="#3164DE"/>
<path d="M8.47017 4.09717L3.79885 8.49438L0.622559 6.65031L6.62052 1.00586L8.47017 4.09717Z" fill="#78A1FC"/>
<path d="M23.3848 1.00586L21.5326 4.09717H8.47025L6.62061 1.00586H23.3848Z" fill="#1B3579"/>
<path d="M29.3773 6.65031L26.201 8.49438L21.5322 4.09717L23.3844 1.00586L29.3773 6.65031Z" fill="#78A1FC"/>
<path d="M29.3774 23.5249L23.9636 28.9959L21.9839 25.9046L26.2011 21.6426L29.3774 23.5249Z" fill="#9EBFEA"/>
<path d="M23.9636 28.9956H6.96729L8.7404 25.9043H21.9839L23.9636 28.9956Z" fill="#2B4C90"/>
<path d="M8.74059 25.904L6.96748 28.9953L0.622559 23.4096L3.79885 21.5527L8.74059 25.904Z" fill="#3D63A7"/>
<path d="M3.79885 8.49251V21.5515L0.622559 23.4083V6.64844L3.79885 8.49251Z" fill="#527BBD"/>
<path d="M26.2012 8.49291V21.6412L21.984 25.9032H8.74057L3.79883 21.5519V8.49291L8.47014 4.0957H21.5325L26.2012 8.49291Z" fill="#C3DAF7"/>
<path d="M25.9587 8.63682V21.4969L21.8333 25.6671H8.87816L4.04102 21.4102V8.63682L8.61283 4.33398H21.3894L25.9587 8.63682Z" stroke="white" stroke-miterlimit="10"/>
<path d="M17.0292 10.73H18.1977V8.68957C17.6327 8.62636 17.0646 8.5957 16.496 8.59775C14.8122 8.59775 13.6591 9.65625 13.6591 11.6023V13.3878H11.8018V15.6603H13.6591V21.394H15.9373V15.6756H17.7232L18.0064 13.4031H15.9399V11.837C15.9399 11.1789 16.1159 10.73 17.0318 10.73H17.0292Z" fill="#12154B"/>
<path d="M5.07105 6.01465C5.80541 5.38849 6.2258 4.67584 6.01002 4.4229C5.79424 4.16996 5.024 4.47251 4.28964 5.09867C3.55528 5.72482 3.13489 6.43747 3.35067 6.69041C3.56645 6.94335 4.33669 6.6408 5.07105 6.01465Z" fill="white"/>
<defs>
<linearGradient id="paint0_linear" x1="0" y1="15" x2="30" y2="15" gradientUnits="userSpaceOnUse">
<stop stop-color="#FFD64C"/>
<stop offset="0.29" stop-color="#FCD74E"/>
<stop offset="0.61" stop-color="#F69E1C"/>
<stop offset="1" stop-color="#F7650F"/>
</linearGradient>
</defs>
</svg>
