<svg width="30" height="30" viewBox="0 0 30 30" fill="none" xmlns="http://www.w3.org/2000/svg">
<path d="M30 6.04999V24.1362L24.3516 30H6.62046L0 24.0138V6.04999L6.25563 0H23.7469L30 6.04999Z" fill="url(#paint0_linear)"/>
<path d="M29.3775 6.64844V23.5231L26.2012 21.6408V8.49251L29.3775 6.64844Z" fill="#3164DE"/>
<path d="M8.47017 4.09717L3.79885 8.49438L0.622559 6.65031L6.62052 1.00586L8.47017 4.09717Z" fill="#30438E"/>
<path d="M23.3848 1.00586L21.5326 4.09717H8.47025L6.62061 1.00586H23.3848Z" fill="#3164DE"/>
<path d="M29.3773 6.65031L26.201 8.49438L21.5322 4.09717L23.3844 1.00586L29.3773 6.65031Z" fill="#78A1FC"/>
<path d="M29.3774 23.5249L23.9636 28.9959L21.9839 25.9046L26.2011 21.6426L29.3774 23.5249Z" fill="#A4B7EA"/>
<path d="M23.9636 28.9956H6.96729L8.7404 25.9043H21.9839L23.9636 28.9956Z" fill="#839BDE"/>
<path d="M8.74059 25.904L6.96748 28.9953L0.622559 23.4096L3.79885 21.5527L8.74059 25.904Z" fill="#667CC4"/>
<path d="M3.79885 8.49251V21.5515L0.622559 23.4083V6.64844L3.79885 8.49251Z" fill="#4A5EA9"/>
<path d="M26.2012 8.49291V21.6412L21.984 25.9032H8.74058L3.79883 21.5519V8.49291L8.47014 4.0957H21.5325L26.2012 8.49291Z" fill="#A1C3F8"/>
<path d="M25.9587 8.63682V21.4969L21.8333 25.6671H8.87816L4.04102 21.4102V8.63682L8.61283 4.33398H21.3894L25.9587 8.63682Z" stroke="white" stroke-miterlimit="10"/>
<path d="M12.0382 12.754C12.7179 11.8598 13.7926 11.2812 15 11.2812C15.9933 11.2812 16.9271 11.6681 17.6295 12.3704L17.9196 12.6604L20.2397 10.3403L19.9497 10.0503C18.6276 8.72814 16.8698 8 15 8C13.1302 8 11.3724 8.72814 10.0502 10.0502C9.9302 10.1703 9.81522 10.294 9.70508 10.4209L12.0382 12.754Z" fill="#12154B"/>
<path d="M19.579 20.2958C19.706 20.1857 19.8297 20.0707 19.9498 19.9507C21.2719 18.6285 22 16.8707 22 15.0009C22 14.575 21.9614 14.1484 21.8854 13.7328L21.8238 13.3965H14.5898V16.6777H18.321C18.0629 17.1911 17.6938 17.6287 17.2491 17.9659L19.579 20.2958Z" fill="#12154B"/>
<path d="M16.5203 18.3964C16.053 18.6049 15.5374 18.7189 15 18.7189C13.7926 18.7189 12.7179 18.1403 12.0382 17.2461L9.70508 19.5792C9.81522 19.7061 9.9302 19.8299 10.0502 19.9499C11.3724 21.272 13.1302 22.0001 15 22.0001C16.4196 22.0001 17.7744 21.5801 18.9232 20.7993L16.5203 18.3964Z" fill="#12154B"/>
<path d="M11.6056 16.5179C11.3973 16.054 11.2812 15.54 11.2812 14.9994C11.2812 14.4588 11.3973 13.9449 11.6056 13.481L9.2008 11.0762C8.42008 12.225 8 13.5798 8 14.9994C8 16.419 8.42008 17.7738 9.2008 18.9227L11.6056 16.5179Z" fill="#12154B"/>
<path d="M25.8469 25.7334C26.5813 25.1072 27.0017 24.3946 26.7859 24.1416C26.5701 23.8887 25.7999 24.1913 25.0655 24.8174C24.3312 25.4436 23.9108 26.1562 24.1265 26.4092C24.3423 26.6621 25.1126 26.3596 25.8469 25.7334Z" fill="white"/>
<defs>
<linearGradient id="paint0_linear" x1="0" y1="15" x2="30" y2="15" gradientUnits="userSpaceOnUse">
<stop stop-color="#FFD64C"/>
<stop offset="0.29" stop-color="#FCD74E"/>
<stop offset="0.61" stop-color="#F69E1C"/>
<stop offset="1" stop-color="#F7650F"/>
</linearGradient>
</defs>
</svg>
