<svg width="30" height="30" viewBox="0 0 30 30" fill="none" xmlns="http://www.w3.org/2000/svg">
<path d="M30 6.04999V24.1362L24.3516 30H6.62046L0 24.0138V6.04999L6.25563 0H23.7469L30 6.04999Z" fill="url(#paint0_linear)"/>
<path d="M29.3775 6.64844V23.5231L26.2012 21.6408V8.49251L29.3775 6.64844Z" fill="#3164DE"/>
<path d="M8.47017 4.09717L3.79885 8.49438L0.622559 6.65031L6.62052 1.00586L8.47017 4.09717Z" fill="#30438E"/>
<path d="M23.3848 1.00586L21.5326 4.09717H8.47025L6.62061 1.00586H23.3848Z" fill="#3164DE"/>
<path d="M29.3773 6.65031L26.201 8.49438L21.5322 4.09717L23.3844 1.00586L29.3773 6.65031Z" fill="#78A1FC"/>
<path d="M29.3774 23.5249L23.9636 28.9959L21.9839 25.9046L26.2011 21.6426L29.3774 23.5249Z" fill="#A4B7EA"/>
<path d="M23.9636 28.9956H6.96729L8.7404 25.9043H21.9839L23.9636 28.9956Z" fill="#839BDE"/>
<path d="M8.74059 25.904L6.96748 28.9953L0.622559 23.4096L3.79885 21.5527L8.74059 25.904Z" fill="#667CC4"/>
<path d="M3.79885 8.49251V21.5515L0.622559 23.4083V6.64844L3.79885 8.49251Z" fill="#4A5EA9"/>
<path d="M26.2012 8.49291V21.6412L21.984 25.9032H8.74057L3.79883 21.5519V8.49291L8.47014 4.0957H21.5325L26.2012 8.49291Z" fill="#A1C3F8"/>
<path d="M25.9587 8.63682V21.4969L21.8333 25.6671H8.87816L4.04102 21.4102V8.63682L8.61283 4.33398H21.3894L25.9587 8.63682Z" stroke="white" stroke-miterlimit="10"/>
<path d="M25.8469 25.7334C26.5813 25.1072 27.0017 24.3946 26.7859 24.1416C26.5701 23.8887 25.7999 24.1913 25.0655 24.8174C24.3312 25.4436 23.9108 26.1562 24.1265 26.4092C24.3423 26.6621 25.1126 26.3596 25.8469 25.7334Z" fill="white"/>
<g clip-path="url(#clip0)">
<path d="M21.9967 21.001V21.0004H21.9999V16.2327C21.9999 13.9002 21.4978 12.1035 18.7711 12.1035C17.4602 12.1035 16.5806 12.8229 16.2214 13.5048H16.1835V12.3213H13.5981V21.0004H16.2902V16.7028C16.2902 15.5713 16.5047 14.4771 17.906 14.4771C19.2867 14.4771 19.3073 15.7684 19.3073 16.7754V21.001H21.9967Z" fill="#12154B"/>
<path d="M9.21436 12.3203H11.9097V20.9994H9.21436V12.3203Z" fill="#12154B"/>
<path d="M10.5611 8C9.69929 8 9 8.69929 9 9.56108C9 10.4229 9.69929 11.1368 10.5611 11.1368C11.4229 11.1368 12.1222 10.4229 12.1222 9.56108C12.1216 8.69929 11.4223 8 10.5611 8V8Z" fill="#12154B"/>
</g>
<defs>
<linearGradient id="paint0_linear" x1="0" y1="15" x2="30" y2="15" gradientUnits="userSpaceOnUse">
<stop stop-color="#FFD64C"/>
<stop offset="0.29" stop-color="#FCD74E"/>
<stop offset="0.61" stop-color="#F69E1C"/>
<stop offset="1" stop-color="#F7650F"/>
</linearGradient>
<clipPath id="clip0">
<rect width="13" height="13" fill="white" transform="translate(9 8)"/>
</clipPath>
</defs>
</svg>
