<svg width="30" height="30" viewBox="0 0 30 30" fill="none" xmlns="http://www.w3.org/2000/svg">
<path d="M30 6.04999V24.1362L24.3516 30H6.62046L0 24.0138V6.04999L6.25563 0H23.7469L30 6.04999Z" fill="url(#paint0_linear)"/>
<path d="M29.3775 6.64844V23.5231L26.2012 21.6408V8.49251L29.3775 6.64844Z" fill="#2FBADD"/>
<path d="M8.47017 4.09717L3.79885 8.49438L0.622559 6.65031L6.62052 1.00586L8.47017 4.09717Z" fill="#6DF2F7"/>
<path d="M23.3848 1.00586L21.5326 4.09717H8.47025L6.62061 1.00586H23.3848Z" fill="#A2FAF8"/>
<path d="M29.3773 6.65031L26.201 8.49438L21.5322 4.09717L23.3844 1.00586L29.3773 6.65031Z" fill="#45DFFA"/>
<path d="M29.3774 23.5249L23.9636 28.9959L21.9839 25.9046L26.2011 21.6426L29.3774 23.5249Z" fill="#98F8FC"/>
<path d="M23.9636 28.9956H6.96729L8.7404 25.9043H21.9839L23.9636 28.9956Z" fill="#6DF2F7"/>
<path d="M8.74059 25.904L6.96748 28.9953L0.622559 23.4096L3.79885 21.5527L8.74059 25.904Z" fill="#A2FAF8"/>
<path d="M3.79885 8.49251V21.5515L0.622559 23.4083V6.64844L3.79885 8.49251Z" fill="#45DFFA"/>
<path d="M26.2012 8.49291V21.6412L21.984 25.9032H8.74057L3.79883 21.5519V8.49291L8.47014 4.0957H21.5325L26.2012 8.49291Z" fill="#BCFCFB"/>
<path d="M25.9587 8.63682V21.4969L21.8333 25.6671H8.87816L4.04102 21.4102V8.63682L8.61283 4.33398H21.3894L25.9587 8.63682Z" stroke="white" stroke-miterlimit="10"/>
<path d="M22.3768 10.5128C21.8221 10.7555 21.2352 10.917 20.6344 10.9923C21.2675 10.6163 21.7405 10.0208 21.9635 9.31913C21.3719 9.67182 20.7237 9.91948 20.0476 10.0512C19.6326 9.60885 19.0942 9.30146 18.5023 9.16888C17.9103 9.0363 17.2922 9.08464 16.7281 9.30764C16.164 9.53063 15.68 9.91799 15.3389 10.4194C14.9977 10.9209 14.8152 11.5132 14.815 12.1197C14.8129 12.3511 14.836 12.582 14.8839 12.8083C13.6808 12.7494 12.5038 12.4372 11.4298 11.8922C10.3558 11.3472 9.40892 10.5816 8.6512 9.64561C8.26281 10.3112 8.14265 11.0997 8.31516 11.8507C8.48768 12.6017 8.93991 13.2588 9.57985 13.6883C9.10167 13.6748 8.63367 13.5471 8.21493 13.3159V13.3491C8.2155 14.0474 8.45649 14.7242 8.8974 15.2658C9.3383 15.8073 9.95225 16.1807 10.6361 16.323C10.3779 16.3908 10.112 16.4242 9.84517 16.4225C9.65246 16.4254 9.46 16.4075 9.27115 16.369C9.46763 16.9686 9.84469 17.4929 10.3507 17.87C10.8567 18.2472 11.467 18.4587 12.0979 18.4757C11.0276 19.3135 9.70696 19.768 8.3476 19.7663C8.10549 19.7669 7.86356 19.7533 7.62305 19.7255C9.00691 20.615 10.6186 21.0854 12.2637 21.0799C17.828 21.0799 20.8716 16.471 20.8716 12.4768C20.8716 12.3441 20.8716 12.2217 20.8716 12.0865C21.4646 11.6574 21.9746 11.1242 22.3768 10.5128Z" fill="#12154B"/>
<path d="M26.692 6.60205C26.945 6.38632 26.6424 5.61628 26.0161 4.8821C25.3898 4.14793 24.6769 3.72765 24.4239 3.94338C24.1709 4.1591 24.4736 4.92915 25.0999 5.66332C25.7262 6.39749 26.439 6.81777 26.692 6.60205Z" fill="white"/>
<defs>
<linearGradient id="paint0_linear" x1="0" y1="15" x2="30" y2="15" gradientUnits="userSpaceOnUse">
<stop stop-color="#FFD64C"/>
<stop offset="0.29" stop-color="#FCD74E"/>
<stop offset="0.61" stop-color="#F69E1C"/>
<stop offset="1" stop-color="#F7650F"/>
</linearGradient>
</defs>
</svg>
