<svg width="431" height="56" viewBox="0 0 431 56" fill="none" xmlns="http://www.w3.org/2000/svg">
<path d="M89.7427 56H125.167L100.835 44V9H89.7427V56Z" fill="#4A26CA"/>
<path d="M349.523 56H312.918L333.582 42.5V9H349.523V56Z" fill="#4A26CA"/>
<path d="M335.904 45.1518H99.9534V0H335.904V45.1518Z" fill="#683EFE"/>
<path d="M90.5293 56H72.0303L85.2938 33.7173L72.0303 9.67539H90.5293V56Z" fill="#683EFE"/>
<path d="M351.611 33.4241L364.874 55.7068H346.375V8.5H364.874L351.611 33.4241Z" fill="#683EFE"/>
<path d="M43.6904 23L46.0575 30.384L54.3178 32.5L46.0575 34.616L43.6904 42L41.3233 34.616L33.063 32.5L41.3233 30.384L43.6904 23Z" fill="#45516C"/>
<path d="M387.31 24L384.942 30.9954L376.682 33L384.942 35.0046L387.31 42L389.677 35.0046L397.937 33L389.677 30.9954L387.31 24Z" fill="#45516C"/>
<path d="M14.1699 37L14.959 39.7204L17.7124 40.5L14.959 41.2796L14.1699 44L13.3809 41.2796L10.6274 40.5L13.3809 39.7204L14.1699 37Z" fill="#45516C"/>
<path d="M416.83 38L416.041 40.3318L413.288 41L416.041 41.6682L416.83 44L417.619 41.6682L420.373 41L417.619 40.3318L416.83 38Z" fill="#45516C"/>
<path d="M5.3137 16L6.49726 19.4977L10.6274 20.5L6.49726 21.5023L5.3137 25L4.13013 21.5023L0 20.5L4.13013 19.4977L5.3137 16Z" fill="#45516C"/>
<path d="M425.686 17L424.503 20.4977L420.373 21.5L424.503 22.5023L425.686 26L426.87 22.5023L431 21.5L426.87 20.4977L425.686 17Z" fill="#45516C"/>
<path d="M20.6645 23L21.322 24.5545L23.6165 25L21.322 25.4455L20.6645 27L20.0069 25.4455L17.7124 25L20.0069 24.5545L20.6645 23Z" fill="#45516C"/>
<path d="M410.336 23L409.678 24.9432L407.383 25.5L409.678 26.0568L410.336 28L410.993 26.0568L413.288 25.5L410.993 24.9432L410.336 23Z" fill="#45516C"/>
<path d="M112.56 15.2H123.096L125.496 17.6V22.304L124.536 23.288L126.24 25.016V29.408L123.648 32H112.56V15.2ZM121.416 22.232L122.28 21.368V18.776L121.44 17.936H115.752V22.232H121.416ZM121.992 29.264L123.024 28.232V25.88L121.992 24.848H115.752V29.264H121.992ZM128.758 15.2H132.022V32H128.758V15.2ZM135.031 29.24V17.96L137.791 15.2H146.143L148.855 17.912V20.48H145.591V19.112L144.463 17.984H139.519L138.295 19.208V27.992L139.519 29.216H144.511L145.687 28.04V25.424H142.087V22.64H148.855V29.24L146.095 32H137.791L135.031 29.24ZM151.25 29.24V17.96L154.01 15.2H162.362L165.074 17.912V20.48H161.81V19.112L160.682 17.984H155.738L154.514 19.208V27.992L155.738 29.216H160.73L161.906 28.04V25.424H158.306V22.64H165.074V29.24L162.314 32H154.01L151.25 29.24ZM167.708 15.2H179.852V17.96H170.972V22.208H179.156V24.92H170.972V29.24H179.852V32H167.708V15.2ZM181.903 29.408V27.008H185.119V28.424L185.911 29.216H190.879L191.695 28.4V25.616L190.903 24.824H184.543L181.951 22.232V17.792L184.543 15.2H192.127L194.719 17.792V20.216H191.503V18.776L190.711 17.984H185.959L185.167 18.776V21.248L185.959 22.04H192.319L194.911 24.632V29.36L192.271 32H184.495L181.903 29.408ZM200.751 17.96H195.735V15.2H209.031V17.96H204.015V32H200.751V17.96ZM216.53 15.2H219.818L221.858 27.056H221.954L225.29 15.2H227.738L231.002 27.056H231.098L233.138 15.2H236.426L232.946 32H229.898L226.562 20.192H226.466L223.058 32H220.01L216.53 15.2ZM238.703 15.2H241.967V32H238.703V15.2ZM245.216 15.2H248.144L255.632 26.6H255.68V15.2H258.824V32H255.896L248.408 20.624H248.36V32H245.216V15.2ZM261.951 15.2H264.879L272.367 26.6H272.415V15.2H275.559V32H272.631L265.143 20.624H265.095V32H261.951V15.2ZM278.685 15.2H290.829V17.96H281.949V22.208H290.133V24.92H281.949V29.24H290.829V32H278.685V15.2ZM306.44 26.432V32H303.176V27.176L301.736 25.568H296.504V32H293.24V15.2H303.776L306.344 17.792V22.88L304.712 24.536L306.44 26.432ZM296.504 22.88H302.288L303.128 22.04V18.776L302.288 17.936H296.504V22.88ZM309.075 29.408V27.008H312.291V28.424L313.083 29.216H318.051L318.867 28.4V25.616L318.075 24.824H311.715L309.123 22.232V17.792L311.715 15.2H319.299L321.891 17.792V20.216H318.675V18.776L317.883 17.984H313.131L312.339 18.776V21.248L313.131 22.04H319.491L322.083 24.632V29.36L319.443 32H311.667L309.075 29.408Z" fill="white"/>
</svg>
