<svg width="148" height="152" viewBox="0 0 148 152" fill="none" xmlns="http://www.w3.org/2000/svg">
<g clip-path="url(#clip0)">
<path opacity="0.12" d="M38.7531 144.871C39.1385 145.106 39.4168 145.482 39.5287 145.919C39.6406 146.357 39.5772 146.821 39.3522 147.212C39.1271 147.604 38.7582 147.892 38.3239 148.015C37.8895 148.138 37.4242 148.087 37.027 147.873L4.11207 128.925C2.8604 128.201 1.82124 127.161 1.09937 125.909C0.377501 124.657 -0.00166263 123.236 5.48035e-06 121.791V46.1145C-0.00148688 44.6691 0.377754 43.2488 1.09961 41.9966C1.82148 40.7444 2.86055 39.7045 4.11207 38.9814L69.942 1.08545C71.1762 0.374294 72.5756 0 74 0C75.4244 0 76.8238 0.374294 78.058 1.08545L143.888 38.9814C145.139 39.7045 146.179 40.7444 146.9 41.9966C147.622 43.2488 148.001 44.6691 148 46.1145V121.791C148.002 123.236 147.622 124.657 146.901 125.909C146.179 127.161 145.14 128.201 143.888 128.925L110.973 147.873C110.576 148.087 110.11 148.138 109.676 148.015C109.242 147.892 108.873 147.604 108.648 147.212C108.423 146.821 108.359 146.357 108.471 145.919C108.583 145.482 108.862 145.106 109.247 144.871L142.162 125.921C142.886 125.502 143.487 124.9 143.904 124.175C144.321 123.45 144.54 122.628 144.539 121.792V46.1145C144.539 44.4055 143.631 42.8294 142.162 41.9844L76.332 4.08838C75.6229 3.67952 74.8186 3.46436 74 3.46436C73.1814 3.46436 72.3772 3.67952 71.668 4.08838L5.83802 41.9834C5.11396 42.4026 4.5131 43.0053 4.09583 43.7305C3.67856 44.4556 3.45964 45.2778 3.46107 46.1145V121.791C3.46107 123.501 4.36902 125.076 5.83802 125.921L38.7531 144.871Z" fill="white"/>
<path d="M76.269 23.9717L124.823 50.9429C125.552 51.3479 126.159 51.9404 126.582 52.6592C127.005 53.378 127.228 54.1968 127.228 55.0308V108.661C127.228 110.36 126.308 111.925 124.823 112.749L76.269 139.719C75.575 140.104 74.794 140.307 74 140.307C73.206 140.307 72.425 140.104 71.731 139.719L23.177 112.749C22.448 112.344 21.8406 111.751 21.4177 111.032C20.9949 110.313 20.7719 109.495 20.772 108.661V55.0308C20.772 53.3328 21.692 51.7679 23.177 50.9429L71.731 23.9727C72.425 23.587 73.206 23.3848 74 23.3848C74.794 23.3848 75.575 23.587 76.269 23.9727V23.9717Z" fill="#9012FE"/>
<g opacity="0.8">
<path opacity="0.4" d="M76.7307 12.4036L134.737 44.7585C135.609 45.2453 136.335 45.956 136.841 46.8174C137.347 47.6788 137.614 48.6596 137.614 49.6584V114.033C137.614 115.033 137.348 116.014 136.842 116.876C136.336 117.737 135.609 118.449 134.737 118.936L76.7307 151.291C75.8958 151.756 74.9558 152.001 73.9998 152.001C73.0438 152.001 72.1037 151.756 71.2688 151.291L13.2627 118.936C12.3902 118.449 11.6635 117.737 11.1577 116.876C10.6519 116.014 10.3855 115.033 10.3857 114.033V49.6594C10.3856 48.6604 10.6522 47.6794 11.158 46.8179C11.6637 45.9563 12.3903 45.2454 13.2627 44.7585L71.2688 12.4036C72.1037 11.9378 73.0438 11.6934 73.9998 11.6934C74.9558 11.6934 75.8958 11.9378 76.7307 12.4036Z" fill="#129AFE"/>
</g>
<path d="M116.44 85.2871H30.687C29.789 85.2871 29.061 86.2192 29.061 87.3672V151.922C29.061 153.072 29.789 154.002 30.687 154.002H116.441C117.339 154.002 118.067 153.071 118.067 151.922V87.3682C118.067 86.2182 117.339 85.2871 116.441 85.2871H116.44Z" fill="#F7434C"/>
<path d="M116.44 85.2871H30.687C29.789 85.2871 29.061 86.0163 29.061 86.9143V93.4243H118.067V86.9143C118.067 86.0163 117.339 85.2871 116.441 85.2871H116.44Z" fill="#DB2E37"/>
<path d="M81.8829 85.2871H65.2579C64.3589 85.2871 63.6309 86.2192 63.6309 87.3672V151.922C63.6309 153.072 64.3589 154.002 65.2579 154.002H81.8829C82.7819 154.002 83.5099 153.071 83.5099 151.922V87.3682C83.5099 86.2182 82.7819 85.2871 81.8829 85.2871Z" fill="#FFDB57"/>
<path d="M81.8829 85.2871H65.2579C64.3589 85.2871 63.6309 86.0151 63.6309 86.9121V93.3752H83.5109V86.9121C83.5109 86.0141 82.7809 85.2871 81.8829 85.2871Z" fill="#F5BA3D"/>
<path d="M113.26 55.2273C111.667 51.0693 109.152 47.0073 106.533 44.3623C105.573 43.3923 104.278 42.8992 102.805 42.9312C97.9251 43.0452 89.972 49.1762 79.168 61.1562C78.898 61.4552 78.748 61.8433 78.748 62.2463V70.8542C78.748 71.7522 79.476 72.4812 80.374 72.4812H105.378C110.95 72.4812 113.249 69.7672 114.197 67.4912C115.461 64.4572 115.128 60.1013 113.26 55.2273Z" fill="#FFDB57"/>
<path d="M114.204 58.0638C114.158 57.8968 114.086 57.7382 113.991 57.5939C111.536 53.8779 106.23 55.2677 102.211 57.0887C90.5369 62.3767 85.7159 69.6609 85.5169 69.9689C85.3578 70.2144 85.268 70.4983 85.2566 70.7906C85.2452 71.083 85.3128 71.3728 85.4523 71.63C85.5918 71.8871 85.798 72.1019 86.0492 72.2518C86.3004 72.4017 86.5874 72.4812 86.8799 72.4818H105.388C108.935 72.4818 111.565 71.3918 113.205 69.2438C115.155 66.6918 115.499 62.8258 114.204 58.0638Z" fill="#EF9325"/>
<path d="M67.9598 61.1563C57.1508 49.1763 49.1959 43.0452 44.3129 42.9312C42.8359 42.8992 41.5449 43.3913 40.5839 44.3613C37.9649 47.0073 35.4489 51.0693 33.8539 55.2283C31.9859 60.1013 31.6539 64.4572 32.9169 67.4922C33.8659 69.7682 36.1659 72.4822 41.7389 72.4822H66.7529C67.6509 72.4822 68.3789 71.7523 68.3789 70.8542V62.2473C68.3789 61.8443 68.2289 61.4553 67.9589 61.1563H67.9598Z" fill="#FFDB57"/>
<path d="M61.6109 69.9683C61.4109 69.6603 56.591 62.3761 44.9159 57.0881C40.8979 55.2681 35.5919 53.8783 33.1359 57.5923C33.0408 57.7367 32.9692 57.8953 32.9239 58.0623C31.6279 62.8253 31.9739 66.6912 33.9229 69.2432C35.5629 71.3912 38.1929 72.4812 41.7399 72.4812H60.2469C60.5399 72.4818 60.8277 72.403 61.0796 72.2534C61.3316 72.1038 61.5384 71.8889 61.6782 71.6313C61.8179 71.3738 61.8856 71.0833 61.8737 70.7905C61.8619 70.4977 61.771 70.2137 61.6109 69.9683Z" fill="#EF9325"/>
<path d="M80.363 59.0117H66.752C65.854 59.0117 65.127 59.7407 65.127 60.6387V70.8547C65.127 71.7537 65.854 72.4817 66.752 72.4817H80.363C81.261 72.4817 81.988 71.7537 81.988 70.8547V60.6387C81.988 59.7397 81.261 59.0117 80.363 59.0117Z" fill="#F5BA3D"/>
<path d="M123.431 69.2305H23.6959C22.7979 69.2305 22.0698 69.9584 22.0698 70.8574V86.9146C22.0698 87.8136 22.7979 88.5415 23.6959 88.5415H123.431C124.33 88.5415 125.057 87.8136 125.057 86.9146V70.8574C125.057 69.9584 124.33 69.2305 123.431 69.2305Z" fill="#F7434C"/>
<path d="M61.0698 88.5386V69.2324H86.0599V88.5386H61.0698Z" fill="#FFDB57"/>
</g>
<defs>
<clipPath id="clip0">
<rect width="148" height="152" fill="white"/>
</clipPath>
</defs>
</svg>
