<svg width="81" height="80" viewBox="0 0 81 80" fill="none" xmlns="http://www.w3.org/2000/svg">
<g clip-path="url(#clip0)">
<path d="M80.6665 39.9998C80.6665 40.483 80.6583 40.9646 80.6404 41.443C80.5947 42.7557 80.4836 44.0503 80.3139 45.3271C78.882 56.0976 73.1629 65.5131 64.9295 71.8036C63.9091 72.584 62.8511 73.3155 61.7572 73.9947C55.6348 77.8003 48.4071 79.9995 40.6667 79.9995C39.9157 79.9995 39.168 79.9783 38.4268 79.9375C35.4815 79.7742 32.6211 79.2942 29.8799 78.5269C19.9175 75.7448 11.5241 69.2012 6.32737 60.5237C2.73229 54.5238 0.666992 47.5018 0.666992 39.9998C0.666992 37.0283 0.990256 34.132 1.60576 31.3451C3.04086 24.8407 6.05798 18.9289 10.2359 14.0391C17.573 5.4465 28.484 0 40.6667 0C46.8234 0 52.6536 1.39101 57.8617 3.87426C65.6184 7.5722 71.9972 13.6962 76.0151 21.2635C77.0159 23.146 77.8698 25.1198 78.5637 27.1672C79.9269 31.1949 80.6665 35.5116 80.6665 39.9998Z" fill="#935AA8"/>
<path d="M64.9297 71.8045C63.9093 72.5849 62.8513 73.3163 61.7575 73.9955C55.635 77.8012 48.4073 80.0003 40.667 80.0003C39.916 80.0003 39.1682 79.9791 38.427 79.9383C35.4817 79.775 32.6213 79.295 29.8801 78.5277C29.3903 77.7146 29.1274 76.8559 29.1274 75.9677C29.1274 70.9147 37.6058 66.8184 48.0628 66.8184C55.4179 66.8184 61.7934 68.8445 64.9297 71.8045Z" fill="#43CAED"/>
<path d="M80.6666 39.9992C80.6666 40.4824 80.6584 40.9641 80.6404 41.4424C80.5947 42.7551 80.4837 44.0498 80.3139 45.3265C78.1605 46.804 75.5531 47.6693 72.7434 47.6693C65.341 47.6693 59.3394 41.6677 59.3394 34.2653C59.3394 26.8613 65.341 20.8613 72.7434 20.8613C73.8715 20.8613 74.9686 21.0001 76.0152 21.263C77.016 23.1454 77.8699 25.1193 78.5637 27.1666C79.927 31.1943 80.6666 35.511 80.6666 39.9992Z" fill="#43CAED"/>
<path d="M78.5637 27.1679C65.798 24.4708 49.9382 29.8559 34.6096 34.5311C8.89356 42.3745 6.83789 20.5422 0.666504 15.543C2.1016 9.03856 12.3197 20.2238 34.6096 11.9501C42.4476 9.04068 49.8291 4.8905 57.8617 3.875C67.5499 8.49375 75.0861 16.8953 78.5637 27.1679Z" fill="#8EE7FE"/>
<path d="M11.6076 41.3447C5.93682 41.3447 1.68167 54.424 16.1493 54.424C30.617 54.424 44.3343 36.3393 80.666 41.4456" fill="#43CAED"/>
<path d="M40.666 70.4043C56.7146 70.4043 69.7246 57.3943 69.7246 41.3457C69.7246 25.2971 56.7146 12.2871 40.666 12.2871C24.6174 12.2871 11.6074 25.2971 11.6074 41.3457C11.6074 57.3943 24.6174 70.4043 40.666 70.4043Z" fill="#FA883A"/>
<path d="M40.6661 64.5197C53.4652 64.5197 63.841 54.1439 63.841 41.3448C63.841 28.5457 53.4652 18.1699 40.6661 18.1699C27.867 18.1699 17.4912 28.5457 17.4912 41.3448C17.4912 54.1439 27.867 64.5197 40.6661 64.5197Z" fill="#F27824"/>
<path d="M40.6664 61.0222C51.5332 61.0222 60.3425 52.2129 60.3425 41.346C60.3425 30.4792 51.5332 21.6699 40.6664 21.6699C29.7995 21.6699 20.9902 30.4792 20.9902 41.346C20.9902 52.2129 29.7995 61.0222 40.6664 61.0222Z" fill="#FA883A"/>
<path d="M39.8393 45.6402V44.9661C39.8393 42.3405 38.207 41.5954 35.9362 41.5954C34.9071 41.5954 34.5525 40.7083 34.5525 39.7857C34.5525 38.8987 34.9071 37.9761 35.9362 37.9761C37.7102 37.9761 39.2005 37.5503 39.2005 34.4989C39.2005 32.1572 37.9941 31.3765 36.0782 31.3765C33.7718 31.3765 32.9202 32.3345 32.9202 33.7539C32.9202 34.8184 32.4234 35.528 30.7202 35.528C28.6622 35.528 28.3431 35.0313 28.3431 33.541C28.3431 31.0219 30.1171 27.3672 36.1136 27.3672C40.4068 27.3672 43.6003 28.9993 43.6003 33.7185C43.6003 36.5216 42.5714 38.7924 40.8328 39.6084C42.9262 40.4246 44.4519 42.0213 44.4519 44.9663V45.6404C44.4519 51.353 40.6199 53.5174 35.9362 53.5174C30.1171 53.5174 27.7754 49.9338 27.7754 47.0596C27.7754 45.6404 28.3785 45.25 29.9752 45.25C31.8557 45.25 32.3527 45.7467 32.3527 46.8822C32.3527 48.4789 33.7719 49.4724 36.0428 49.4724C38.7038 49.4724 39.8393 48.337 39.8393 45.6402Z" fill="#693718"/>
<path d="M80.6407 41.4424C80.4807 45.9714 79.568 50.3077 78.0219 54.3305C77.235 56.3811 76.2848 58.3517 75.1844 60.2227C71.893 65.8308 67.2726 70.5638 61.7575 73.994C52.2457 74.794 44.7633 77.2936 38.427 79.9369C24.7798 79.1842 12.9545 71.5892 6.32764 60.5231V47.9697C6.38641 50.3991 7.84763 52.8154 11.5994 53.8701L11.6076 53.8929V53.8717C12.8566 54.2227 14.3602 54.4235 16.1496 54.4235C30.6148 54.4235 44.3274 36.3469 80.6407 41.4424Z" fill="#8EE7FE"/>
<path d="M78.0213 54.3312C77.2344 56.3818 76.2842 58.3524 75.1838 60.2234C63.4794 54.9092 40.5815 62.5597 40.2632 62.6659C49.2917 57.3679 67.0075 53.4414 78.0213 54.3312Z" fill="#43CAED"/>
</g>
<defs>
<clipPath id="clip0">
<rect width="80" height="80" fill="white" transform="translate(0.666504)"/>
</clipPath>
</defs>
</svg>
