<svg width="697" height="697" viewBox="0 0 697 697" fill="none" xmlns="http://www.w3.org/2000/svg">
<g opacity="0.69">
<path opacity="0.05" d="M348.485 696.971C540.948 696.971 696.971 540.948 696.971 348.485C696.971 156.022 540.948 0 348.485 0C156.022 0 0 156.022 0 348.485C0 540.948 156.022 696.971 348.485 696.971Z" fill="url(#paint0_radial)"/>
<path opacity="0.1" d="M348.485 632.425C505.219 632.425 632.278 505.367 632.278 348.633C632.278 191.898 505.219 64.8398 348.485 64.8398C191.751 64.8398 64.6924 191.898 64.6924 348.633C64.6924 505.367 191.751 632.425 348.485 632.425Z" fill="url(#paint1_radial)"/>
<path opacity="0.15" d="M348.485 567.821C469.475 567.821 567.556 469.74 567.556 348.75C567.556 227.761 469.475 129.68 348.485 129.68C227.496 129.68 129.415 227.761 129.415 348.75C129.415 469.74 227.496 567.821 348.485 567.821Z" fill="url(#paint2_radial)"/>
<g style="mix-blend-mode:overlay" opacity="0.2">
<path d="M348.485 503.217C433.73 503.217 502.834 434.112 502.834 348.868C502.834 263.624 433.73 194.52 348.485 194.52C263.241 194.52 194.137 263.624 194.137 348.868C194.137 434.112 263.241 503.217 348.485 503.217Z" fill="url(#paint3_radial)"/>
</g>
<path opacity="0.05" d="M348.485 438.642C397.985 438.642 438.112 398.515 438.112 349.015C438.112 299.516 397.985 259.389 348.485 259.389C298.986 259.389 258.859 299.516 258.859 349.015C258.859 398.515 298.986 438.642 348.485 438.642Z" fill="#030345"/>
</g>
<path d="M242.661 342.146L219.963 355.387C212.701 359.626 203.323 360.784 193 358.924L215.697 345.685C226.031 347.545 235.398 346.376 242.661 342.146Z" fill="#EB82B9"/>
<path d="M368.14 374.914C364.69 380.557 360.275 384.923 355.099 387.952L332.401 401.19C337.578 398.163 341.993 393.795 345.443 388.153C352.251 384.18 361.334 378.878 368.14 374.914Z" fill="#A62F00"/>
<path d="M309.631 217.621C307.56 216.21 305.438 214.877 303.268 213.624C283.122 201.948 264.566 200.725 251.13 208.556L228.433 221.786C241.869 213.955 260.424 215.176 280.571 226.854C282.678 228.075 284.796 229.403 286.934 230.849C293.434 235.258 299.659 240.475 305.524 246.308L328.221 233.069C322.356 227.247 316.131 222.03 309.631 217.621Z" fill="#EB82B9"/>
<path d="M280.571 226.854C282.737 228.111 284.859 229.444 286.934 230.848C293.434 235.257 299.659 240.475 305.522 246.307C309.091 263.054 317.061 280.065 327.584 294.431C324.048 305.628 314.859 311.696 303.268 312.035C305.29 313.418 307.354 314.725 309.439 315.935C323.774 324.243 339.326 328.303 350.514 326.827C344.532 334.816 341.147 346.281 341.325 360.677C341.431 369.582 342.882 378.859 345.464 388.154C333.069 408.427 308.191 412.318 280.274 396.135C278.109 394.876 275.987 393.543 273.911 392.14C272.657 391.284 271.419 390.406 270.197 389.505C257.652 393.361 237.125 387.699 216.967 376.02C208.47 371.089 200.453 365.37 193.021 358.936C209.44 361.889 223.467 357.193 230.403 344.656C214.449 318.261 205.29 287.768 207.376 261.916C210.764 219.735 242.893 205.019 280.571 226.854Z" fill="#D70073"/>
<path d="M460.251 463.838L482.948 450.598C484.293 470.064 487.533 493.057 503 508.76L480.303 522.001C464.836 506.284 461.596 483.292 460.251 463.838Z" fill="#FFC882"/>
<path d="M405.013 322.99C439.568 343.018 467.791 391.375 468.266 431.719C468.426 445.137 465.505 455.986 460.253 463.828C461.598 483.292 464.837 506.285 480.303 521.99C474.672 520.757 469.082 518.484 463.63 515.328C450.132 507.507 437.504 494.247 427.308 477.758C420.564 476.833 413.281 474.303 405.659 470.043C405.289 469.831 404.918 469.628 404.548 469.406C377.617 453.797 354.528 420.976 345.434 388.143C342.862 378.858 341.401 369.571 341.295 360.668C341.125 346.259 344.502 334.804 350.505 326.878C353.956 326.347 356.952 325.37 359.386 323.852C360.318 324.372 361.261 324.871 362.202 325.349C379.617 334.105 394.628 332.299 403.943 322.385C404.316 322.586 404.664 322.789 405.013 322.99Z" fill="#FF8C00"/>
<path d="M427.71 309.75C427.362 309.549 427.011 309.346 426.662 309.156L403.965 322.395C404.314 322.598 404.664 322.788 405.013 322.989C439.566 343.019 467.791 391.374 468.266 431.718C468.426 445.138 465.503 455.985 460.253 463.827L482.95 450.589C488.2 442.757 491.123 431.897 490.964 418.48C490.488 378.146 462.263 329.779 427.71 309.75Z" fill="#FFC882"/>
<path d="M436.613 274.124C434.77 239.296 410.528 199.366 381.659 182.641C380.441 181.935 379.202 181.266 377.944 180.634C363.928 173.589 351.467 173.375 342.279 178.742L319.582 191.98C328.77 186.627 341.231 186.828 355.247 193.872C356.496 194.499 357.725 195.169 358.962 195.882C387.83 212.605 412.073 252.545 413.916 287.363C414.742 302.93 410.952 314.946 403.965 322.395C402.179 324.301 400.129 325.941 397.878 327.262L420.575 314.023C422.828 312.706 424.879 311.066 426.662 309.156C433.66 301.707 437.439 289.692 436.613 274.124Z" fill="#82D7F0"/>
<path d="M358.962 195.869C387.833 212.595 412.075 252.535 413.916 287.353C414.742 302.92 410.952 314.936 403.965 322.385C394.649 332.309 379.628 334.104 362.223 325.349C361.275 324.869 360.336 324.37 359.408 323.852C356.973 325.37 353.977 326.347 350.589 326.805C339.326 328.302 323.775 324.234 309.44 315.925C307.334 314.705 305.275 313.404 303.269 312.026C314.859 311.695 324.05 305.618 327.584 294.419C317.061 280.053 309.091 263.032 305.522 246.298C304.494 241.54 303.84 236.708 303.566 231.848C301.637 195.541 324.791 178.52 355.269 193.852C356.506 194.489 357.735 195.159 358.962 195.869Z" fill="#00AFE1"/>
<path d="M309.631 284.356L309.577 301.475L278.826 283.656L278.761 304.748L307.502 321.408L307.462 338.386L278.707 321.736L278.613 358.862L260.436 348.332L260.7 255.998L309.631 284.356ZM367.929 224.399L384.942 298.318L371.444 290.498L367.211 271.606L351.33 262.405L347.329 276.536L334.328 269.003L351.457 214.867L367.929 224.399ZM353.183 252.641L365.443 259.748L362.023 244.172C361.048 239.806 360.075 234.483 359.26 230.21L359.089 230.115C358.254 233.431 357.417 237.797 356.507 240.975L353.183 252.641ZM418.554 432.397C423.561 436.977 429.161 441.546 434.265 445.733L429.988 456.4C420.735 447.921 413.029 440.228 404.357 430.962C402.995 429.545 401.475 428.29 399.826 427.223C385.164 417.618 371.509 397.218 371.571 372.748C371.636 350.274 384.032 340.52 403.416 351.752C423.285 363.271 434.138 386.933 434.073 407.395C434.022 424.419 427.14 432.462 418.544 431.93L418.554 432.397ZM402.166 413.038C402.166 413.038 404.221 415.78 404.886 416.512C413.516 420.072 418.511 412.688 418.554 399.087C418.597 385.403 413.029 370.815 403.003 365.001C392.966 359.19 387.155 367.181 387.112 381.195C386.985 394.062 391.877 407.078 400.123 413.643C401.066 413.293 402.166 413.038 402.166 413.038Z" fill="white"/>
<defs>
<radialGradient id="paint0_radial" cx="0" cy="0" r="1" gradientUnits="userSpaceOnUse" gradientTransform="translate(348.498 348.498) scale(348.498)">
<stop stop-color="#877DFE"/>
<stop offset="1" stop-color="#605BFF"/>
</radialGradient>
<radialGradient id="paint1_radial" cx="0" cy="0" r="1" gradientUnits="userSpaceOnUse" gradientTransform="translate(348.498 348.624) scale(283.778)">
<stop stop-color="#877DFE"/>
<stop offset="1" stop-color="#605BFF"/>
</radialGradient>
<radialGradient id="paint2_radial" cx="0" cy="0" r="1" gradientUnits="userSpaceOnUse" gradientTransform="translate(348.498 348.75) scale(219.058)">
<stop stop-color="#877DFE"/>
<stop offset="1" stop-color="#605BFF"/>
</radialGradient>
<radialGradient id="paint3_radial" cx="0" cy="0" r="1" gradientUnits="userSpaceOnUse" gradientTransform="translate(348.498 348.876) scale(154.338)">
<stop stop-color="#877DFE"/>
<stop offset="1" stop-color="#605BFF"/>
</radialGradient>
</defs>
</svg>
