<svg width="148" height="152" viewBox="0 0 148 152" fill="none" xmlns="http://www.w3.org/2000/svg">
<g clip-path="url(#clip0)">
<path opacity="0.12" d="M38.7531 144.871C39.1385 145.106 39.4168 145.482 39.5287 145.919C39.6406 146.357 39.5772 146.821 39.3522 147.212C39.1271 147.604 38.7582 147.892 38.3239 148.015C37.8895 148.138 37.4242 148.087 37.027 147.873L4.11207 128.925C2.8604 128.201 1.82124 127.161 1.09937 125.909C0.377501 124.657 -0.00166263 123.236 5.48035e-06 121.791V46.1145C-0.00148688 44.6691 0.377754 43.2488 1.09961 41.9966C1.82148 40.7444 2.86055 39.7045 4.11207 38.9814L69.942 1.08545C71.1762 0.374294 72.5756 0 74 0C75.4244 0 76.8238 0.374294 78.058 1.08545L143.888 38.9814C145.139 39.7045 146.179 40.7444 146.9 41.9966C147.622 43.2488 148.001 44.6691 148 46.1145V121.791C148.002 123.236 147.622 124.657 146.901 125.909C146.179 127.161 145.14 128.201 143.888 128.925L110.973 147.873C110.576 148.087 110.11 148.138 109.676 148.015C109.242 147.892 108.873 147.604 108.648 147.212C108.423 146.821 108.359 146.357 108.471 145.919C108.583 145.482 108.862 145.106 109.247 144.871L142.162 125.921C142.886 125.502 143.487 124.9 143.904 124.175C144.321 123.45 144.54 122.628 144.539 121.792V46.1145C144.539 44.4055 143.631 42.8294 142.162 41.9844L76.332 4.08838C75.6229 3.67952 74.8186 3.46436 74 3.46436C73.1814 3.46436 72.3772 3.67952 71.668 4.08838L5.83802 41.9834C5.11396 42.4026 4.5131 43.0053 4.09583 43.7305C3.67856 44.4556 3.45964 45.2778 3.46107 46.1145V121.791C3.46107 123.501 4.36902 125.076 5.83802 125.921L38.7531 144.871Z" fill="white"/>
<path d="M76.269 23.9717L124.823 50.9429C125.552 51.3479 126.159 51.9404 126.582 52.6592C127.005 53.378 127.228 54.1968 127.228 55.0308V108.661C127.228 110.36 126.308 111.925 124.823 112.749L76.269 139.719C75.575 140.104 74.794 140.307 74 140.307C73.206 140.307 72.425 140.104 71.731 139.719L23.177 112.749C22.448 112.344 21.8406 111.751 21.4177 111.032C20.9949 110.313 20.7719 109.495 20.772 108.661V55.0308C20.772 53.3328 21.692 51.7679 23.177 50.9429L71.731 23.9727C72.425 23.587 73.206 23.3848 74 23.3848C74.794 23.3848 75.575 23.587 76.269 23.9727V23.9717Z" fill="#9012FE"/>
<g opacity="0.8">
<path opacity="0.4" d="M76.7307 12.4036L134.737 44.7585C135.609 45.2453 136.335 45.956 136.841 46.8174C137.347 47.6788 137.614 48.6596 137.614 49.6584V114.033C137.614 115.033 137.348 116.014 136.842 116.876C136.336 117.737 135.609 118.449 134.737 118.936L76.7307 151.291C75.8958 151.756 74.9558 152.001 73.9998 152.001C73.0438 152.001 72.1037 151.756 71.2688 151.291L13.2627 118.936C12.3902 118.449 11.6635 117.737 11.1577 116.876C10.6519 116.014 10.3855 115.033 10.3857 114.033V49.6594C10.3856 48.6604 10.6522 47.6794 11.158 46.8179C11.6637 45.9563 12.3903 45.2454 13.2627 44.7585L71.2688 12.4036C72.1037 11.9378 73.0438 11.6934 73.9998 11.6934C74.9558 11.6934 75.8958 11.9378 76.7307 12.4036Z" fill="#129AFE"/>
</g>
<path d="M78.2197 122.368V109.432C77.7112 109.557 77.1894 109.62 76.6658 109.62H71.3337C70.8104 109.62 70.289 109.556 69.7808 109.432V122.368H78.2197Z" fill="#FFAF10"/>
<path d="M73.5177 122.368V109.62H71.3337C70.8104 109.62 70.289 109.556 69.7808 109.432V122.368H73.5177Z" fill="#EF9614"/>
<path d="M73.9939 103.837C70.8585 103.84 67.7488 103.272 64.8169 102.16V103.348C64.817 104.203 64.9856 105.05 65.313 105.84C65.6404 106.63 66.1202 107.348 66.725 107.952C67.3298 108.557 68.0478 109.036 68.8379 109.363C69.628 109.69 70.4747 109.858 71.3298 109.858H76.6578C77.5129 109.858 78.3597 109.69 79.1497 109.363C79.9397 109.036 80.6574 108.556 81.2621 107.952C81.8668 107.347 82.3465 106.63 82.6738 105.84C83.0012 105.05 83.1698 104.203 83.1699 103.348V102.16C80.2384 103.271 77.129 103.84 73.9939 103.837Z" fill="#FFD00D"/>
<path d="M72.2869 103.779C69.7303 103.613 67.2127 103.068 64.8169 102.16V103.348C64.8173 104.204 64.9861 105.05 65.3138 105.841C65.6416 106.631 66.1218 107.349 66.7269 107.953C67.3321 108.558 68.0505 109.037 68.8409 109.364C69.6314 109.691 70.4785 109.859 71.3339 109.858H76.6659C77.0279 109.858 77.3819 109.827 77.7269 109.77C76.2774 109.532 74.9511 108.81 73.9635 107.722C72.9759 106.635 72.3851 105.245 72.2869 103.779Z" fill="#FFAF10"/>
<path d="M83.3896 127.23V123.138C83.3896 122.477 82.8477 121.936 82.1847 121.936H65.8016C65.1386 121.936 64.5967 122.477 64.5967 123.138V127.23H83.3896Z" fill="#FFCB19"/>
<path d="M71.8296 127.23V123.138C71.8296 122.477 72.3726 121.936 73.0356 121.936H65.8016C65.1386 121.936 64.5967 122.477 64.5967 123.138V127.23H71.8296Z" fill="#FFA831"/>
<path d="M96.7839 147.751V127.967C96.7831 127.647 96.6559 127.341 96.4302 127.115C96.2044 126.889 95.8984 126.761 95.5789 126.76H52.4209C52.1014 126.761 51.7953 126.889 51.5696 127.115C51.3438 127.341 51.2166 127.647 51.2158 127.967V147.751H96.7839Z" fill="#A05F33"/>
<path d="M54.9529 147.751V127.967C54.9537 127.647 55.0808 127.341 55.3065 127.115C55.5323 126.889 55.8383 126.761 56.1578 126.76H52.4209C52.1014 126.761 51.7953 126.889 51.5696 127.115C51.3438 127.341 51.2166 127.647 51.2158 127.967V147.751H54.9529Z" fill="#87502A"/>
<path d="M90.1719 142.443C90.1708 142.763 90.0434 143.069 89.8175 143.295C89.5916 143.521 89.2853 143.648 88.9658 143.649H59.0459C58.7265 143.648 58.4207 143.521 58.1949 143.295C57.9692 143.069 57.8419 142.763 57.8408 142.443V132.311C57.8416 131.991 57.969 131.684 58.1949 131.458C58.4209 131.232 58.7272 131.105 59.0469 131.104H88.9669C89.2864 131.105 89.5925 131.232 89.8182 131.458C90.044 131.685 90.1711 131.991 90.1719 132.311V142.443Z" fill="#293D7C"/>
<path d="M62.6569 142.443V132.311C62.6577 131.991 62.7849 131.684 63.0109 131.458C63.2368 131.232 63.5432 131.105 63.8629 131.104H59.0459C58.7264 131.105 58.4203 131.232 58.1946 131.458C57.9688 131.685 57.8416 131.991 57.8408 132.311V142.443C57.8419 142.763 57.9692 143.069 58.1949 143.295C58.4207 143.521 58.7265 143.648 59.0459 143.649H63.8629C63.5434 143.648 63.2372 143.521 63.0112 143.295C62.7853 143.069 62.6579 142.763 62.6569 142.443Z" fill="#1A2B63"/>
<path d="M101.847 147.51H46.1527C45.833 147.511 45.5268 147.638 45.3008 147.865C45.0748 148.091 44.9476 148.397 44.9468 148.717V150.977C53.5258 155.841 63.4388 158.621 73.9998 158.621C84.5618 158.621 94.4737 155.841 103.053 150.976V148.717C103.052 148.397 102.925 148.091 102.699 147.865C102.473 147.638 102.167 147.511 101.847 147.51Z" fill="#BF7E52"/>
<path d="M52.2998 148.716C52.3009 148.396 52.4282 148.09 52.6542 147.864C52.8801 147.638 53.1862 147.511 53.5057 147.51H46.1527C45.8332 147.511 45.5271 147.638 45.3011 147.864C45.0752 148.09 44.9478 148.396 44.9468 148.716V150.972C47.3139 152.312 49.7711 153.487 52.3008 154.488L52.2998 148.716Z" fill="#AA6B3F"/>
<path d="M114.567 41.252H105.223V43.282C105.222 43.5377 105.121 43.7827 104.94 43.9634C104.759 44.1441 104.514 44.2458 104.258 44.2461H100.212C100.148 44.2464 100.087 44.2717 100.042 44.3169C99.9973 44.3621 99.972 44.4233 99.972 44.4871V47.2839H112.61C112.094 57.8519 107.32 67.319 99.9709 74V77.8511C99.971 79.2306 99.8618 80.6078 99.644 81.97C111.15 73.872 118.684 60.4871 118.684 45.3721C118.683 44.2801 118.249 43.2331 117.477 42.4607C116.706 41.6883 115.659 41.2535 114.567 41.252Z" fill="#FFAF10"/>
<path d="M48.0289 77.8511V74.001C40.6809 67.319 35.9059 57.8519 35.3899 47.2839H48.0289V44.4871C48.0287 44.4233 48.0031 44.3621 47.9579 44.3171C47.9127 44.2722 47.8516 44.2471 47.7878 44.2471H43.7418C43.4858 44.2468 43.2404 44.1448 43.0594 43.9636C42.8785 43.7825 42.7769 43.537 42.7769 43.281V41.252H33.4329C32.3409 41.2535 31.2943 41.6883 30.5225 42.4607C29.7506 43.2331 29.3167 44.2801 29.3159 45.3721C29.3159 60.4871 36.8498 73.872 48.3558 81.97C48.1381 80.6078 48.0289 79.2306 48.0289 77.8511Z" fill="#FFD00D"/>
<path d="M47.7881 44.2461V77.844C47.7881 92.328 59.5231 104.069 74.0001 104.069C88.4771 104.069 100.212 92.328 100.212 77.844V44.2461H47.7881Z" fill="#FFCB19"/>
<path d="M53.03 77.8501V44.0039H47.791V77.8501C47.791 92.3361 59.532 104.08 74.016 104.08C74.894 104.08 75.76 104.033 76.616 103.948C63.372 102.625 53.03 91.4451 53.03 77.8501Z" fill="#FFA831"/>
<path d="M56.1621 72.603C56.1621 62.741 64.1521 54.7461 74.0061 54.7461C83.8621 54.7461 91.8511 62.741 91.8511 72.603C91.8511 82.465 83.8611 90.459 74.0061 90.459C64.1511 90.459 56.1621 82.465 56.1621 72.603Z" fill="#DB722C"/>
<path d="M60.7357 72.5901C60.7357 63.5101 67.5117 56.0193 76.2767 54.8943C75.5178 54.7949 74.7533 54.744 73.9878 54.7422C64.1408 54.7422 56.1577 62.7321 56.1577 72.5901C56.1577 82.4471 64.1408 90.4373 73.9878 90.4373C74.7648 90.4373 75.5277 90.3821 76.2777 90.2861C67.5117 89.1611 60.7357 81.6701 60.7357 72.5901Z" fill="#C95E23"/>
<path d="M80.1996 83.7415C79.9046 83.7415 79.6036 83.6614 79.3036 83.5044L74.4486 80.9495C74.3049 80.8887 74.1497 80.86 73.9937 80.8655C73.7737 80.8655 73.6107 80.9105 73.5367 80.9495L68.6827 83.5044C68.4079 83.6557 68.1003 83.7375 67.7867 83.7424C67.3397 83.7424 66.9397 83.5595 66.6607 83.2275C66.3507 82.8605 66.2337 82.3505 66.3287 81.7915L67.2566 76.3794C67.2966 76.1424 67.1466 75.6795 66.9746 75.5115L63.0476 71.6785C62.5356 71.1785 62.3506 70.5605 62.5386 69.9805C62.7266 69.4005 63.2397 69.0105 63.9467 68.9075L69.3737 68.1174C69.6117 68.0834 70.0047 67.7975 70.1117 67.5815L72.5386 62.6565C72.8546 62.0165 73.3847 61.6484 73.9937 61.6484C74.6017 61.6484 75.1327 62.0155 75.4477 62.6565L77.8756 67.5815C77.9816 67.7975 78.3757 68.0834 78.6127 68.1174L84.0407 68.9075C84.7467 69.0105 85.2607 69.4015 85.4477 69.9805C85.6357 70.5605 85.4506 71.1785 84.9396 71.6775L81.0126 75.5115C80.8396 75.6795 80.6896 76.1414 80.7306 76.3794L81.6576 81.7915C81.7526 82.3505 81.6357 82.8605 81.3257 83.2275C81.0467 83.5595 80.6456 83.7424 80.1996 83.7424V83.7415Z" fill="#FFD00D"/>
<path d="M70.3111 81.2749L71.3162 75.4109C71.3602 75.1529 71.1981 74.651 71.0111 74.469L66.7532 70.3159C66.2302 69.8059 66.0262 69.181 66.1752 68.584L63.9471 68.908C63.2401 69.011 62.7271 69.4019 62.5391 69.9819C62.3501 70.5619 62.5361 71.18 63.0471 71.679L66.9772 75.512C67.1492 75.68 67.2991 76.1429 67.2591 76.3809L66.3312 81.793C66.2362 82.351 66.3531 82.861 66.6631 83.229C66.9431 83.56 67.3431 83.7429 67.7901 83.7429C68.0851 83.7429 68.3861 83.6629 68.6861 83.5049L70.4872 82.5579C70.2942 82.1949 70.2291 81.7519 70.3111 81.2749Z" fill="#FFAF10"/>
<path d="M105.477 43.2812C105.476 43.6008 105.349 43.9069 105.123 44.1328C104.897 44.3588 104.591 44.4862 104.271 44.4873H43.7411C43.4217 44.486 43.1159 44.3585 42.8901 44.1326C42.6644 43.9067 42.5372 43.6006 42.5361 43.2812V36.2842C42.5372 35.9647 42.6646 35.6586 42.8905 35.4326C43.1164 35.2067 43.4225 35.0792 43.7421 35.0781H104.272C104.591 35.0794 104.897 35.2069 105.123 35.4329C105.349 35.6588 105.476 35.9648 105.477 36.2842V43.2812Z" fill="#FFD00D"/>
<path d="M49.9001 43.2812V36.2842C49.9012 35.9643 50.0289 35.6579 50.2552 35.4319C50.4816 35.2059 50.7883 35.0787 51.1082 35.0781H43.7432C43.4235 35.0789 43.117 35.2064 42.8909 35.4324C42.6647 35.6583 42.5372 35.9645 42.5361 36.2842V43.2812C42.5372 43.6009 42.6647 43.9071 42.8909 44.1331C43.117 44.359 43.4235 44.4865 43.7432 44.4873H51.1082C50.7885 44.4865 50.482 44.359 50.2559 44.1331C50.0297 43.9071 49.9022 43.6009 49.9011 43.2812H49.9001Z" fill="#FFAF10"/>
<path d="M42.8977 114.926C42.7464 114.926 42.599 114.878 42.4761 114.79C42.3532 114.702 42.2611 114.577 42.2128 114.434C40.8248 110.324 39.7858 109.284 35.6748 107.897C35.5315 107.848 35.4069 107.756 35.3187 107.633C35.2305 107.51 35.1831 107.363 35.1831 107.212C35.1831 107.06 35.2305 106.913 35.3187 106.79C35.4069 106.667 35.5315 106.575 35.6748 106.527C39.7848 105.14 40.8248 104.101 42.2118 99.9897C42.2602 99.8464 42.3522 99.7218 42.4751 99.6335C42.598 99.5453 42.7455 99.498 42.8967 99.498C43.048 99.498 43.1955 99.5453 43.3184 99.6335C43.4412 99.7218 43.5334 99.8464 43.5818 99.9897C44.9708 104.1 46.0087 105.14 50.1207 106.527C50.264 106.575 50.3886 106.667 50.4768 106.79C50.565 106.913 50.6124 107.06 50.6124 107.212C50.6124 107.363 50.565 107.51 50.4768 107.633C50.3886 107.756 50.264 107.848 50.1207 107.897C46.0087 109.285 44.9708 110.323 43.5828 114.434C43.5344 114.577 43.4423 114.702 43.3195 114.79C43.1966 114.878 43.049 114.926 42.8977 114.926Z" fill="#FFD00D"/>
<path d="M102.82 106.973C102.699 106.973 102.581 106.935 102.483 106.865C102.385 106.795 102.311 106.695 102.273 106.581C101.167 103.301 100.339 102.473 97.0626 101.367C96.9488 101.328 96.8501 101.254 96.7803 101.156C96.7104 101.058 96.6729 100.941 96.6729 100.821C96.6729 100.7 96.7104 100.583 96.7803 100.485C96.8501 100.387 96.9488 100.313 97.0626 100.274C100.339 99.1669 101.167 98.3391 102.273 95.0601C102.311 94.9458 102.385 94.8464 102.483 94.7761C102.581 94.7058 102.698 94.668 102.819 94.668C102.94 94.668 103.057 94.7058 103.155 94.7761C103.253 94.8464 103.327 94.9458 103.366 95.0601C104.471 98.3391 105.299 99.1669 108.576 100.274C108.69 100.313 108.789 100.386 108.859 100.484C108.93 100.582 108.968 100.7 108.968 100.821C108.968 100.941 108.93 101.059 108.859 101.157C108.789 101.255 108.69 101.328 108.576 101.367C105.299 102.474 104.471 103.302 103.366 106.581C103.327 106.695 103.253 106.795 103.155 106.865C103.057 106.935 102.939 106.973 102.819 106.973H102.82Z" fill="white"/>
<path d="M80.517 136.179H67.4969C67.1771 136.179 66.8705 136.052 66.6443 135.826C66.4181 135.6 66.291 135.293 66.291 134.973C66.291 134.654 66.4181 134.347 66.6443 134.121C66.8705 133.894 67.1771 133.768 67.4969 133.768H80.517C80.8368 133.768 81.1436 133.894 81.3698 134.121C81.5959 134.347 81.723 134.654 81.723 134.973C81.723 135.293 81.5959 135.6 81.3698 135.826C81.1436 136.052 80.8368 136.179 80.517 136.179Z" fill="white"/>
<path d="M77.624 140.498H70.391C70.233 140.498 70.0765 140.467 69.9304 140.407C69.7843 140.347 69.6514 140.259 69.5394 140.147C69.4274 140.036 69.3385 139.904 69.2777 139.758C69.2169 139.612 69.1855 139.456 69.1851 139.298C69.1851 138.636 69.725 138.098 70.391 138.098H77.624C78.29 138.098 78.829 138.636 78.829 139.298C78.829 139.961 78.289 140.498 77.624 140.498Z" fill="white"/>
<path d="M59.2869 54.3767C59.1733 54.3766 59.0625 54.3408 58.9703 54.2744C58.8781 54.208 58.809 54.1143 58.7728 54.0066C57.7328 50.9216 56.9529 50.1418 53.8699 49.1008C53.7619 49.0647 53.6679 48.9955 53.6013 48.9031C53.5348 48.8107 53.499 48.6996 53.499 48.5857C53.499 48.4718 53.5348 48.3607 53.6013 48.2683C53.6679 48.1759 53.7619 48.1069 53.8699 48.0708C56.9529 47.0308 57.7318 46.2508 58.7728 43.1648C58.8094 43.0575 58.8786 42.9642 58.9708 42.8982C59.063 42.8322 59.1735 42.7969 59.2869 42.7969C59.4002 42.7969 59.5107 42.8322 59.6029 42.8982C59.6951 42.9642 59.7644 43.0575 59.8009 43.1648C60.8419 46.2508 61.6208 47.0298 64.7048 48.0718C64.8125 48.1081 64.9061 48.1772 64.9724 48.2695C65.0387 48.3618 65.0742 48.4726 65.0742 48.5862C65.0742 48.6998 65.0387 48.8105 64.9724 48.9028C64.9061 48.9951 64.8125 49.0645 64.7048 49.1008C61.6208 50.1418 60.8419 50.9208 59.8009 54.0078C59.7645 54.1153 59.6953 54.2087 59.6031 54.2749C59.511 54.3411 59.4004 54.3766 59.2869 54.3767Z" fill="white"/>
</g>
<defs>
<clipPath id="clip0">
<rect width="148" height="152" fill="white"/>
</clipPath>
</defs>
</svg>
