<svg width="101" height="100" viewBox="0 0 101 100" fill="none" xmlns="http://www.w3.org/2000/svg">
<g clip-path="url(#clip0)">
<path d="M50.5 100C78.1142 100 100.5 77.6142 100.5 50C100.5 22.3858 78.1142 0 50.5 0C22.8858 0 0.5 22.3858 0.5 50C0.5 77.6142 22.8858 100 50.5 100Z" fill="#1D2D66"/>
<path d="M88.92 26.9406C88.16 29.2206 83.34 32.9406 62.82 33.4406C46.4022 33.6487 30.0018 32.2959 13.84 29.4006C11.14 28.7206 11.82 26.9806 12.7 25.7606C19.6368 24.3848 26.6883 23.6683 33.76 23.6206C45.02 23.2406 58.1 23.4606 68.84 24.0406C75.3297 24.236 81.7983 24.8775 88.2 25.9606C88.74 26.3006 89.02 26.6406 88.92 26.9406Z" fill="#77A042"/>
<path fill-rule="evenodd" clip-rule="evenodd" d="M40.3497 19.7919C40.8097 26.8119 45.5677 32.4119 51.0497 32.5039V32.5239L51.3797 32.5159L54.3337 32.4459L54.2957 31.8859C58.3697 30.1699 61.0897 25.1539 60.7037 19.3019C60.3177 13.4499 56.9537 8.57791 52.6677 7.06391L52.6317 6.50391L49.6777 6.57591H49.6737L49.3477 6.58391V6.60391C43.8957 6.95991 39.8877 12.7699 40.3497 19.7919Z" fill="#FA9816"/>
<path d="M55.5083 32.3732C61.0706 31.6422 64.8204 25.2718 63.8837 18.1446C62.947 11.0173 57.6786 5.83211 52.1163 6.56312C46.554 7.29412 42.8042 13.6645 43.7409 20.7918C44.6776 27.919 49.946 33.1042 55.5083 32.3732Z" fill="#FFCC01"/>
<path d="M55.1311 29.505C59.457 28.9365 62.3732 23.9816 61.6446 18.4379C60.9161 12.8943 56.8187 8.86109 52.4928 9.4296C48.167 9.99812 45.2508 14.953 45.9793 20.4967C46.7079 26.0403 50.8053 30.0735 55.1311 29.505Z" fill="#FA9816"/>
<path fill-rule="evenodd" clip-rule="evenodd" d="M53.5159 27.4946C54.0699 21.2666 50.6579 15.7006 45.8559 14.8706L45.8599 14.8526L45.5699 14.8146L42.9659 14.4746L42.9219 14.9706C39.1119 15.9206 36.0399 19.9546 35.5779 25.1466C35.2596 27.4278 35.597 29.7525 36.5507 31.8491C37.5044 33.9457 39.0351 35.7276 40.9639 36.9866L40.9179 37.4846L43.5219 37.8246H43.5259L43.8119 37.8626L43.8139 37.8426C48.6499 38.2786 52.9619 33.7226 53.5159 27.4946Z" fill="#FA9816"/>
<path d="M50.6751 26.1535C50.8263 19.7676 46.9089 14.4951 41.9254 14.3771C36.9418 14.2592 32.7794 19.3404 32.6282 25.7263C32.477 32.1122 36.3944 37.3847 41.378 37.5027C46.3615 37.6206 50.524 32.5394 50.6751 26.1535Z" fill="#FFCC01"/>
<path d="M48.6697 26.1061C48.7872 21.1391 45.7403 17.0383 41.8644 16.9466C37.9884 16.8549 34.7511 20.8071 34.6336 25.7741C34.5161 30.7411 37.563 34.8419 41.4389 34.9336C45.3149 35.0253 48.5522 31.0731 48.6697 26.1061Z" fill="#FA9816"/>
<path fill-rule="evenodd" clip-rule="evenodd" d="M61.8577 32.0843C64.6897 38.5263 71.0717 42.1643 76.2557 40.3783L76.2637 40.3983L76.5697 40.2783L79.3217 39.2023L79.0957 38.6883C82.3397 35.6863 83.1817 30.0423 80.8217 24.6723C78.4617 19.3023 73.6317 15.8743 69.0877 15.9163L68.8617 15.4023L66.1117 16.4783H66.1077L65.8037 16.5983L65.8117 16.6183C60.8077 18.8123 59.0257 25.6423 61.8577 32.0843Z" fill="#FA9816"/>
<path d="M80.4015 38.7324C85.3796 36.1457 86.7283 28.8777 83.4138 22.4989C80.0993 16.1201 73.3767 13.046 68.3985 15.6327C63.4204 18.2195 62.0717 25.4874 65.3862 31.8662C68.7007 38.245 75.4233 41.3191 80.4015 38.7324Z" fill="#FFCC01"/>
<path d="M79.0678 36.1664C82.9394 34.1547 83.988 28.5018 81.4099 23.5403C78.8319 18.5788 73.6034 16.1875 69.7318 18.1992C65.8602 20.211 64.8116 25.8639 67.3897 30.8254C69.9677 35.7869 75.1962 38.1782 79.0678 36.1664Z" fill="#FA9816"/>
<path fill-rule="evenodd" clip-rule="evenodd" d="M36.7199 25.5706C33.2399 19.4526 26.5179 16.4906 21.5439 18.8006L21.5339 18.7806L21.2419 18.9326L18.6159 20.2866L18.8919 20.7726C15.9759 24.0926 15.7179 29.7926 18.6179 34.8926C21.5179 39.9926 26.6739 42.9026 31.1899 42.3946L31.4699 42.8826L34.0939 41.5306H34.0979L34.3879 41.3806L34.3779 41.3606C39.1279 38.6626 40.1979 31.6866 36.7199 25.5706Z" fill="#FA9816"/>
<path d="M31.906 42.6077C36.5916 39.5226 37.1855 32.1544 33.2325 26.1504C29.2794 20.1464 22.2763 17.7801 17.5906 20.8652C12.9049 23.9502 12.311 31.3184 16.2641 37.3224C20.2172 43.3265 27.2203 45.6927 31.906 42.6077Z" fill="#FFCC01"/>
<path d="M30.3154 40.1923C33.9595 37.793 34.4211 32.0622 31.3463 27.3922C28.2716 22.7222 22.8249 20.8814 19.1808 23.2807C15.5367 25.68 15.0751 31.4108 18.1498 36.0808C21.2246 40.7508 26.6713 42.5916 30.3154 40.1923Z" fill="#FA9816"/>
<path fill-rule="evenodd" clip-rule="evenodd" d="M72.8043 33.5758C73.4283 26.5678 69.5882 20.3038 64.1842 19.3718L64.1883 19.3518L63.8623 19.3078L60.9323 18.9238L60.8823 19.4838C56.5943 20.5498 53.1363 25.0898 52.6163 30.9318C52.0963 36.7738 54.6762 42.1038 58.6762 44.2578L58.6282 44.8178L61.5563 45.2018H61.5603L61.8842 45.2418V45.2218C67.3282 45.7118 72.1803 40.5858 72.8043 33.5758Z" fill="#FA9816"/>
<path d="M69.6071 32.068C69.7772 24.8815 65.3685 18.948 59.76 18.8153C54.1514 18.6825 49.4669 24.4007 49.2968 31.5873C49.1267 38.7738 53.5354 44.7072 59.1439 44.84C64.7525 44.9728 69.437 39.2545 69.6071 32.068Z" fill="#FFCC01"/>
<path d="M67.3499 32.0142C67.4821 26.4244 64.0534 21.8094 59.6915 21.7062C55.3297 21.603 51.6866 26.0508 51.5543 31.6405C51.4221 37.2303 54.8509 41.8454 59.2127 41.9485C63.5746 42.0517 67.2177 37.6039 67.3499 32.0142Z" fill="#FA9816"/>
<path fill-rule="evenodd" clip-rule="evenodd" d="M65.4278 31.6192C62.4978 38.0172 64.0218 45.2032 68.8038 47.8892L68.7938 47.9092L69.0858 48.0572L71.7198 49.3992L71.9538 48.8892C76.3538 49.3152 81.1278 46.1932 83.5718 40.8612C86.0158 35.5292 85.3638 29.6412 82.3118 26.2752L82.5458 25.7652L79.9138 24.4252L79.9098 24.4232L79.6198 24.2752L79.6118 24.2952C74.6458 22.0152 68.3598 25.2212 65.4278 31.6192Z" fill="#FA9816"/>
<path d="M86.9189 41.3519C89.4812 34.6356 87.3092 27.5698 82.0676 25.5701C76.826 23.5704 70.4996 27.394 67.9373 34.1104C65.375 40.8268 67.547 47.8926 72.7886 49.8922C78.0303 51.8919 84.3566 48.0683 86.9189 41.3519Z" fill="#FFCC01"/>
<path d="M84.8093 40.5478C86.8023 35.3237 85.1133 29.8281 81.0369 28.2729C76.9604 26.7177 72.0401 29.6919 70.0471 34.916C68.0541 40.1401 69.7431 45.6357 73.8196 47.1909C77.896 48.7461 82.8163 45.7719 84.8093 40.5478Z" fill="#FA9816"/>
<path d="M27.0688 76.4124C29.213 70.9365 26.5122 64.7592 21.0363 62.615C15.5604 60.4708 9.3831 63.1716 7.23888 68.6475C5.09467 74.1234 7.79553 80.3007 13.2714 82.4449C18.7473 84.5892 24.9246 81.8883 27.0688 76.4124Z" fill="#FFCC01" fill-opacity="0.5"/>
<path d="M92.1719 72.5284C95.9816 72.5284 99.0699 69.4401 99.0699 65.6304C99.0699 61.8208 95.9816 58.7324 92.1719 58.7324C88.3623 58.7324 85.2739 61.8208 85.2739 65.6304C85.2739 69.4401 88.3623 72.5284 92.1719 72.5284Z" fill="#FFCC01"/>
<path d="M14.8779 17.9374C17.8911 17.9374 20.3339 15.4947 20.3339 12.4814C20.3339 9.46813 17.8911 7.02539 14.8779 7.02539C11.8646 7.02539 9.42188 9.46813 9.42188 12.4814C9.42188 15.4947 11.8646 17.9374 14.8779 17.9374Z" fill="#FFCC01" fill-opacity="0.5"/>
<path fill-rule="evenodd" clip-rule="evenodd" d="M42.7483 49.1636C49.6783 47.9356 54.7223 42.5956 54.2123 37.1356L54.2323 37.1316L54.1883 36.8076L53.7943 33.8776L53.2423 33.9776C51.0923 30.1156 45.8063 27.9616 40.0323 28.9836C34.2583 30.0056 29.7843 33.8896 28.7483 38.3136L28.1963 38.4136L28.5903 41.3396V41.3436L28.6343 41.6676L28.6543 41.6636C29.6043 47.0436 35.8183 50.3916 42.7483 49.1636Z" fill="#FA9816"/>
<path d="M43.3704 45.6835C50.3522 43.972 54.9292 38.1674 53.5935 32.7186C52.2578 27.2699 45.5151 24.2402 38.5333 25.9518C31.5515 27.6633 26.9744 33.4679 28.3101 38.9167C29.6459 44.3654 36.3886 47.3951 43.3704 45.6835Z" fill="#FFCC01"/>
<path d="M42.8327 43.4916C48.2633 42.1602 51.8234 37.6457 50.7845 33.4082C49.7456 29.1706 44.5011 26.8147 39.0706 28.146C33.6401 29.4774 30.08 33.9919 31.1189 38.2294C32.1577 42.467 37.4022 44.8229 42.8327 43.4916Z" fill="#FA9816"/>
<path d="M88.0795 90.0998C88.5199 90.8268 88.7003 91.6818 88.5913 92.5247C88.4823 93.3677 88.0903 94.1487 87.4795 94.7398C87.1181 95.094 86.6898 95.3727 86.2195 95.5598C85.7533 95.7365 85.2581 95.8246 84.7595 95.8198L40.7595 95.3198L15.9595 95.0398C15.2479 95.0393 14.5498 94.8458 13.9395 94.4798C13.3233 94.1043 12.8245 93.564 12.4995 92.9198C12.2849 92.4674 12.156 91.9791 12.1195 91.4798C12.1027 90.9772 12.1772 90.4757 12.3395 89.9998C12.5018 89.5312 12.7607 89.1019 13.0995 88.7398C13.4349 88.3672 13.8434 88.0676 14.2995 87.8598C14.3395 87.8598 19.8795 85.0198 19.9395 79.9398C19.8634 76.6764 19.4342 73.4308 18.6595 70.2598C17.1184 63.4629 16.38 56.5087 16.4595 49.5398C16.4679 48.5905 16.5279 47.6425 16.6395 46.6998V46.6598C16.6195 36.9598 9.01952 29.8798 9.01952 29.8798C7.23952 28.0998 8.85952 26.7598 12.6995 25.7598C11.8195 26.9798 11.1395 28.7198 13.8395 29.3998C30.0013 32.2951 46.4017 33.6479 62.8195 33.4398C83.3395 32.9398 88.1595 29.2198 88.9195 26.9398C89.0195 26.6398 88.7395 26.2998 88.1995 25.9598C88.7932 26.0622 89.367 26.2579 89.8995 26.5398C90.6611 26.9914 91.2785 27.6504 91.6795 28.4398C91.6995 28.4598 91.6995 28.4598 91.6995 28.4798C92.7195 30.9798 89.0595 34.2798 85.1195 46.6998L85.0995 46.7198C85.2487 47.9138 85.3155 49.1166 85.2995 50.3198C85.3872 57.8565 84.4246 65.3687 82.4395 72.6398C81.6445 75.2363 81.1939 77.9259 81.0995 80.6398C81.0595 85.7598 86.5195 88.7198 86.5595 88.7198C87.1852 89.0287 87.7117 89.5068 88.0795 90.0998Z" fill="#8BBB4C"/>
<path d="M66.0659 70.8809C65.3973 69.6206 64.3938 68.5693 63.1659 67.8429C62.0077 67.1997 60.7697 66.7121 59.4839 66.3929C60.8172 65.9835 62.0578 65.3177 63.1359 64.4329C64.0328 63.6617 64.7583 62.7113 65.2659 61.6429C65.7679 60.5993 66.0361 59.4588 66.0519 58.3009C66.073 56.7064 65.6069 55.1434 64.7159 53.8209C63.7495 52.4037 62.3877 51.302 60.7999 50.6529C60.0573 50.344 59.2844 50.1134 58.4939 49.9649L58.5639 43.6369L52.7499 43.5709L52.6839 49.4469L48.9339 49.4049L48.9979 43.5289L43.1839 43.4629L43.1199 49.3369L34.2599 49.2369L34.2039 54.1729L35.5439 54.1889C36.1709 54.148 36.7994 54.2435 37.3859 54.4689C37.6843 54.6227 37.9234 54.8709 38.0659 55.1749C38.2309 55.8347 38.2877 56.5169 38.2339 57.1949L38.0099 77.1349C38.0474 77.8061 37.9751 78.4789 37.7959 79.1269C37.6492 79.4313 37.4039 79.6773 37.0999 79.8249C36.5055 80.0239 35.8765 80.0988 35.2519 80.0449L33.9119 80.0309L33.8579 84.9229L42.7179 85.0229L42.6519 90.9429L48.4659 91.0069L48.5319 85.0869L52.2759 85.1309L52.2079 91.0509L58.0319 91.1149L58.1039 84.7349C58.9988 84.5779 59.8763 84.3341 60.7239 84.0069C62.6084 83.2965 64.2418 82.0464 65.4199 80.4129C66.5243 78.9011 67.1266 77.081 67.1419 75.2089C67.1678 73.6963 66.7968 72.2034 66.0659 70.8789V70.8809ZM46.7459 55.1409L50.5139 55.1829C52.0559 55.1292 53.5978 55.2935 55.0939 55.6709C55.8847 55.9145 56.5699 56.4185 57.0379 57.1009C57.4951 57.826 57.7224 58.6723 57.6899 59.5289C57.6928 60.3787 57.4345 61.2088 56.9499 61.9069C56.4088 62.6183 55.6561 63.14 54.7999 63.3969C53.3825 63.7898 51.9107 63.9498 50.4419 63.8709L46.6479 63.8269L46.7459 55.1409ZM57.1399 77.3509C56.527 78.1751 55.6619 78.7769 54.6759 79.0649C53.4883 79.3608 52.2652 79.4901 51.0419 79.4489L48.5339 79.4209C48.0102 79.4568 47.4841 79.404 46.9779 79.2649C46.8798 79.2158 46.7932 79.1466 46.7236 79.0619C46.654 78.9771 46.603 78.8787 46.5739 78.7729C46.4889 78.132 46.4582 77.485 46.4819 76.8389L46.5699 69.1009L51.0179 69.1509C52.4915 69.1005 53.9624 69.309 55.3639 69.7669C56.2465 70.0803 57.0014 70.6756 57.5119 71.4609C58.0049 72.2688 58.2458 73.2054 58.2039 74.1509C58.218 75.3067 57.8432 76.4336 57.1399 77.3509Z" fill="#6F963C"/>
<path d="M91.78 28.4004L91.7 28.4804C85.672 32.9983 78.7739 36.2192 71.44 37.9404C59.66 40.4804 28.06 36.9604 21.58 36.3604C15.1 35.7804 24.772 40.1944 23.79 61.7664C23.42 69.8904 25.278 85.0144 31.356 88.4744C37.605 91.7952 44.3234 94.1449 51.28 95.4424L15.96 95.0424C15.2484 95.0419 14.5503 94.8484 13.94 94.4824C13.3238 94.107 12.825 93.5666 12.5 92.9224C12.2854 92.47 12.1565 91.9818 12.12 91.4824C12.1032 90.9798 12.1777 90.4783 12.34 90.0024C12.5023 89.5338 12.7612 89.1045 13.1 88.7424C13.4354 88.3698 13.8439 88.0703 14.3 87.8624C14.34 87.8624 19.88 85.0224 19.94 79.9424C19.8639 76.679 19.4347 73.4334 18.66 70.2624C17.1189 63.4655 16.3805 56.5113 16.46 49.5424C16.4684 48.5932 16.5284 47.6451 16.64 46.7024V46.6624C16.62 36.9624 9.02002 29.8824 9.02002 29.8824C17.08 32.8224 57.5 36.9624 71.24 35.0224C78.4316 34.2499 85.3884 32.0104 91.68 28.4424C91.711 28.4238 91.7448 28.4103 91.78 28.4024V28.4004Z" fill="#77A042"/>
<path d="M65.264 12.1713L62.164 12.7913C61.8552 12.8479 61.576 13.011 61.375 13.2521C61.174 13.4933 61.064 13.7973 61.064 14.1113C61.064 14.4252 61.174 14.7292 61.375 14.9704C61.576 15.2116 61.8552 15.3747 62.164 15.4313L65.264 16.0513C66.7486 16.3393 68.1153 17.0588 69.1932 18.1196C70.271 19.1804 71.0122 20.5354 71.324 22.0153L71.952 25.0653C72.0192 25.3712 72.1888 25.6449 72.4329 25.8412C72.677 26.0375 72.9808 26.1445 73.294 26.1445C73.6071 26.1445 73.9109 26.0375 74.155 25.8412C74.3991 25.6449 74.5688 25.3712 74.636 25.0653L75.264 22.0153C75.5766 20.5356 76.318 19.1808 77.3957 18.1198C78.4733 17.0588 79.8396 16.3387 81.324 16.0493L84.424 15.4333C84.7328 15.3767 85.0119 15.2136 85.2129 14.9724C85.4139 14.7312 85.524 14.4272 85.524 14.1133C85.524 13.7993 85.4139 13.4953 85.2129 13.2541C85.0119 13.013 84.7328 12.8499 84.424 12.7933L81.324 12.1733C79.8391 11.8851 78.4721 11.1653 77.3942 10.1041C76.3164 9.04297 75.5753 7.68747 75.264 6.20727L74.636 3.15927C74.5688 2.85337 74.3991 2.57961 74.155 2.38334C73.9109 2.18708 73.6071 2.08008 73.294 2.08008C72.9808 2.08008 72.677 2.18708 72.4329 2.38334C72.1888 2.57961 72.0192 2.85337 71.952 3.15927L71.324 6.20927C71.0121 7.68925 70.2709 9.04448 69.1931 10.1056C68.1153 11.1667 66.7486 11.8866 65.264 12.1753V12.1713ZM9.48995 23.0053L7.40995 23.4253C7.20204 23.4671 7.01501 23.5795 6.88064 23.7436C6.74627 23.9077 6.67285 24.1132 6.67285 24.3253C6.67285 24.5373 6.74627 24.7429 6.88064 24.9069C7.01501 25.071 7.20204 25.1835 7.40995 25.2253L9.48995 25.6493C10.4922 25.8519 11.4124 26.3455 12.1356 27.0683C12.8588 27.7911 13.3529 28.7111 13.556 29.7133L13.978 31.7893C14.0217 31.9956 14.1349 32.1806 14.2988 32.3133C14.4626 32.4461 14.6671 32.5185 14.878 32.5185C15.0888 32.5185 15.2933 32.4461 15.4571 32.3133C15.621 32.1806 15.7342 31.9956 15.778 31.7893L16.2 29.7113C16.4035 28.7094 16.8977 27.7896 17.6209 27.0669C18.344 26.3441 19.2639 25.8504 20.266 25.6473L22.346 25.2273C22.5539 25.1855 22.7409 25.073 22.8753 24.9089C23.0096 24.7449 23.0831 24.5393 23.0831 24.3273C23.0831 24.1152 23.0096 23.9097 22.8753 23.7456C22.7409 23.5815 22.5539 23.4691 22.346 23.4273L20.266 23.0053C19.2635 22.8025 18.343 22.3086 17.6198 21.5854C16.8966 20.8622 16.4027 19.9418 16.2 18.9393L15.778 16.8613C15.7342 16.655 15.621 16.47 15.4571 16.3372C15.2933 16.2045 15.0888 16.1321 14.878 16.1321C14.6671 16.1321 14.4626 16.2045 14.2988 16.3372C14.1349 16.47 14.0217 16.655 13.978 16.8613L13.558 18.9413C13.3545 19.943 12.8603 20.8626 12.1371 21.5851C11.414 22.3075 10.4939 22.8008 9.49195 23.0033L9.48995 23.0053Z" fill="white"/>
</g>
<defs>
<clipPath id="clip0">
<rect width="100" height="100" fill="white" transform="translate(0.5)"/>
</clipPath>
</defs>
</svg>
