<svg width="1110" height="459" viewBox="0 0 1110 459" fill="none" xmlns="http://www.w3.org/2000/svg">
<g clip-path="url(#clip0)">
<rect width="1110" height="459" rx="10" fill="#310E9E"/>
<g opacity="0.5" clip-path="url(#clip1)">
<path d="M589 463.059C610.436 463.417 631.853 463.152 653.173 461.957C674.451 460.808 695.655 458.577 716.707 455.271C737.657 451.984 758.362 447.246 778.665 441.095C798.893 434.967 818.54 427.058 837.386 417.457C856.223 407.829 874.08 396.372 890.707 383.252C907.352 369.996 922.74 355.221 936.671 339.115C950.69 322.889 963.442 305.593 974.812 287.39C986.251 269.076 996.622 250.111 1005.86 230.584L1016.39 235.401C1007.64 255.709 997.704 275.488 986.653 294.63C975.533 313.892 962.952 332.262 949.021 349.572C934.974 366.993 919.35 383.066 902.354 397.586C885.227 412.115 866.733 424.924 847.128 435.837C827.542 446.795 806.902 455.778 785.771 463.087C764.646 470.312 743.048 476.059 721.132 480.289C699.326 484.506 677.322 487.612 655.207 489.588C633.147 491.606 611.055 492.652 589 493.061V463.059Z" fill="#44AAFC"/>
<path d="M823.788 214.274L817.314 217.562L817.892 218.663C811.313 225.814 810.254 237.419 815.118 247.095C820.139 257.058 830.64 263.367 840.687 262.093L841.247 263.158L846.971 260.248C857.772 255.04 862.368 240.832 855.622 227.437C848.876 214.042 834.552 209.002 823.788 214.274Z" fill="#FA902C"/>
<path d="M837.224 262.585C827.112 265.872 815.544 259.865 810.351 249.567C805.159 239.268 807.313 226.58 816.108 220.68C826.155 213.943 840.835 218.397 847.456 231.541C854.078 244.685 848.774 258.833 837.224 262.585Z" fill="#FA902C"/>
<path d="M840.835 260.744C830.723 264.031 819.155 258.029 813.962 247.726C808.77 237.423 810.906 224.706 819.719 218.83C829.766 212.088 840.849 217.951 847.461 231.095C854.073 244.239 852.385 256.992 840.835 260.744Z" fill="#FAC02C"/>
<path d="M817.028 222.498C826.201 216.505 839.443 220.666 845.417 232.517C851.391 244.369 846.721 257.234 836.299 260.753C827.075 263.873 816.417 258.429 811.632 248.93C806.846 239.431 808.904 227.808 817.028 222.498ZM815.178 218.839C805.718 225.348 803.48 239.036 809.084 250.167C814.688 261.297 827.117 267.834 838.14 264.417C850.873 260.442 856.838 244.996 849.542 230.509C842.245 216.021 826.123 211.307 815.178 218.839Z" fill="#FAE22C"/>
<path d="M838.838 236.907C837.432 236.651 835.985 236.772 834.644 237.256L834.496 236.963C835.107 236.456 835.629 235.852 836.045 235.173C837.196 233.285 837.247 230.923 836.184 228.985C835.213 227.055 833.821 225.93 832.022 225.623C830.871 225.442 829.692 225.549 828.592 225.939L826.03 220.857L823.894 221.945L825.24 227.599L823.066 228.873L820.713 224.196L818.577 225.284L820.056 230.63L815.127 233.513L817.356 237.935L818.498 237.312C819.206 237.019 820.019 237.358 820.311 238.069C820.311 238.074 820.315 238.079 820.315 238.083L825.138 247.652C825.517 248.414 825.304 249.261 824.675 249.544L823.483 250.065L825.711 254.487L831.015 252.357L834.473 256.816L836.609 255.728L834.256 251.055L836.568 250.125L840.364 254.663L842.5 253.575L839.952 248.521C841.006 247.866 841.908 246.987 842.592 245.946C843.623 244.337 843.605 242.445 842.528 240.306C841.547 238.293 840.304 237.163 838.838 236.907ZM826.765 232.825C827.154 232.574 827.639 232.523 828.074 232.685C828.559 232.955 828.943 233.383 829.151 233.899L829.678 234.936C829.97 235.415 830.085 235.977 830.016 236.531C829.896 236.986 829.572 237.353 829.142 237.535L827.796 238.214L825.443 233.541L826.765 232.825ZM831.902 246.378L829.433 241.473L830.973 240.738C831.384 240.506 831.879 240.473 832.314 240.655C832.804 240.934 833.183 241.366 833.4 241.887L834.025 243.165C834.316 243.635 834.436 244.197 834.358 244.746C834.214 245.188 833.872 245.532 833.433 245.676L831.902 246.378Z" fill="#FA902C"/>
<path d="M836.702 237.995C835.296 237.739 833.849 237.86 832.508 238.344L832.36 238.051C832.97 237.544 833.493 236.94 833.909 236.261C835.06 234.373 835.111 232.011 834.048 230.072C833.077 228.143 831.685 227.018 829.886 226.711C828.735 226.53 827.556 226.637 826.455 227.027L823.894 221.945L820.713 223.945L823.103 228.687L820.93 229.961L818.577 225.284L815.613 227.143L817.925 231.718L813 234.601L815.224 239.023L816.367 238.4C817.074 238.107 817.888 238.446 818.179 239.157C818.179 239.162 818.184 239.167 818.184 239.171L823.006 248.74C823.385 249.502 823.173 250.349 822.544 250.632L821.351 251.153L823.58 255.574L828.883 253.445L831.195 258.025L834.482 256.816L832.124 252.139L834.464 251.209L836.854 255.956L840.391 254.658L837.844 249.6C838.903 248.944 839.809 248.066 840.498 247.024C841.529 245.415 841.51 243.523 840.433 241.384C839.411 239.381 838.186 238.251 836.702 237.995ZM824.629 233.913C825.018 233.662 825.503 233.611 825.938 233.773C826.423 234.043 826.807 234.471 827.015 234.987L827.542 236.033C827.833 236.512 827.949 237.074 827.88 237.628C827.759 238.083 827.436 238.451 827.006 238.632L825.66 239.311L823.307 234.634L824.629 233.913ZM829.771 247.489L827.297 242.584L828.837 241.849C829.248 241.617 829.743 241.584 830.178 241.766C830.668 242.045 831.047 242.477 831.264 242.998L831.907 244.276C832.198 244.746 832.318 245.309 832.24 245.857C832.096 246.299 831.754 246.643 831.315 246.787L829.771 247.489Z" fill="#FAF02C"/>
<path d="M732.113 382.168L728.858 378.601L728.257 379.173C722.51 376.216 714.913 377.625 709.619 382.512C704.163 387.547 702.036 395.455 704.653 401.714L704.098 402.248L706.97 405.391C712.236 411.436 722.135 411.826 729.464 405.061C736.792 398.296 737.417 388.165 732.113 382.168Z" fill="#FA902C"/>
<path d="M703.705 399.524C699.784 393.597 701.536 385.051 707.182 379.839C712.827 374.627 721.303 373.739 726.648 378.351C732.765 383.633 732.561 393.908 725.367 400.547C718.172 407.187 708.181 406.317 703.705 399.524Z" fill="#FA902C"/>
<path d="M705.527 401.539C701.611 395.606 703.358 387.06 709.004 381.853C714.65 376.646 723.125 375.753 728.475 380.365C734.582 385.633 732.839 393.849 725.645 400.479C718.45 407.109 710.007 408.317 705.527 401.539Z" fill="#FAC02C"/>
<path d="M725.649 379.29C731.124 384.125 730.855 393.419 724.368 399.408C717.881 405.396 708.833 404.703 704.708 398.617C701.056 393.224 702.609 385.367 707.811 380.568C713.012 375.77 720.799 374.989 725.649 379.29ZM727.651 377.43C721.793 372.497 712.652 373.52 706.562 379.141C700.473 384.762 698.549 393.977 702.711 400.454C707.538 407.953 718.473 409.018 726.403 401.705C734.332 394.391 734.434 383.107 727.66 377.43H727.651Z" fill="#FAE22C"/>
<path d="M720.383 395.957C720.295 395.004 719.957 394.093 719.403 393.312L719.564 393.163C719.999 393.465 720.475 393.693 720.984 393.842C721.608 394.019 722.265 394.042 722.903 393.912C723.679 393.754 724.392 393.372 724.96 392.814C725.931 392.019 726.449 390.792 726.347 389.537C726.255 388.76 725.968 388.021 725.524 387.379L728.299 384.813L727.221 383.632L723.855 385.492L722.653 384.32L725.215 381.958L724.133 380.777L720.988 382.693L718.26 380.033L715.842 382.27L716.443 382.893C716.758 383.297 716.688 383.883 716.286 384.199L716.282 384.204L711.038 389.039C710.719 389.406 710.164 389.444 709.799 389.118C709.781 389.104 709.767 389.086 709.748 389.072L709.198 388.397L706.78 390.629L709.092 393.67L706.872 396.734L707.95 397.915L710.511 395.553L711.533 396.892L709.318 400.147L710.4 401.332L713.174 398.775C713.78 399.337 714.501 399.761 715.287 400.016C716.503 400.388 717.706 400.016 718.875 398.956C719.985 397.952 720.48 396.948 720.383 395.957ZM720.808 387.43C721.039 387.635 721.164 387.937 721.136 388.249C721.058 388.616 720.854 388.946 720.558 389.179L719.985 389.709C719.731 389.983 719.393 390.16 719.028 390.215C718.718 390.22 718.422 390.081 718.228 389.834L717.553 389.086L720.11 386.724L720.808 387.43ZM713.091 393.186L715.773 390.708L716.517 391.568C716.739 391.792 716.85 392.103 716.813 392.419C716.725 392.787 716.517 393.117 716.221 393.349L715.523 393.995C715.278 394.26 714.955 394.437 714.598 394.493C714.293 394.488 714.007 394.335 713.831 394.079L713.091 393.186Z" fill="#FA902C"/>
<path d="M719.301 394.773C719.213 393.82 718.876 392.909 718.325 392.132L718.487 391.984C718.922 392.286 719.398 392.514 719.907 392.658C720.531 392.834 721.188 392.862 721.821 392.732C722.598 392.574 723.314 392.193 723.879 391.635C724.937 390.658 725.404 389.561 725.266 388.38C725.173 387.604 724.891 386.865 724.447 386.223L727.221 383.656L725.372 381.959L722.778 384.358L721.576 383.187L724.133 380.825L722.413 379.249L719.907 381.574L717.183 378.914L714.761 381.15L715.366 381.773C715.681 382.178 715.611 382.764 715.209 383.08C715.204 383.08 715.204 383.085 715.2 383.085L709.98 387.901C709.651 388.269 709.092 388.297 708.727 387.966C708.713 387.957 708.704 387.943 708.69 387.934L708.139 387.26L705.721 389.491L708.033 392.532L705.522 394.857L706.873 396.735L709.434 394.373L710.451 395.712L707.876 398.13L709.337 400.176L712.111 397.623C712.722 398.186 713.443 398.609 714.229 398.865C715.445 399.237 716.647 398.888 717.817 397.805C718.908 396.782 719.403 395.773 719.301 394.773ZM719.731 386.251C719.962 386.455 720.083 386.758 720.059 387.069C719.981 387.436 719.773 387.767 719.477 387.999L718.894 388.51C718.649 388.78 718.325 388.957 717.969 389.017C717.66 389.017 717.364 388.878 717.174 388.631L716.499 387.887L719.056 385.526L719.731 386.251ZM712.01 392.007L714.696 389.529L715.44 390.389C715.662 390.612 715.773 390.923 715.736 391.24C715.648 391.607 715.44 391.932 715.144 392.17L714.446 392.816C714.197 393.085 713.864 393.262 713.498 393.313C713.189 393.304 712.907 393.151 712.731 392.895L712.01 392.007Z" fill="#FAF02C"/>
<path d="M1027.76 430.824L1024.14 427.16L1023.53 427.792C1017.29 424.886 1009.27 426.7 1003.84 432.121C998.24 437.7 996.303 446.209 999.345 452.755L998.749 453.369L1001.94 456.591C1007.79 462.788 1018.33 462.807 1025.86 455.303C1033.38 447.799 1033.66 436.98 1027.76 430.824Z" fill="#FA902C"/>
<path d="M998.259 450.491C993.848 444.344 995.355 435.176 1001.14 429.401C1006.93 423.626 1015.92 422.32 1021.8 427.002C1028.52 432.353 1028.73 443.275 1021.34 450.658C1013.94 458.041 1003.3 457.511 998.259 450.491Z" fill="#FA902C"/>
<path d="M1000.28 452.527C995.868 446.38 997.375 437.212 1003.17 431.433C1008.96 425.653 1017.94 424.356 1023.82 429.038C1030.53 434.394 1029.02 443.228 1021.64 450.57C1014.26 457.911 1005.32 459.562 1000.28 452.527Z" fill="#FAC02C"/>
<path d="M1020.77 428.03C1026.78 432.949 1026.89 442.848 1020.24 449.492C1013.59 456.136 1003.93 455.768 999.29 449.464C995.18 443.884 996.516 435.46 1001.84 430.136C1007.17 424.813 1015.43 423.674 1020.77 428.03ZM1022.82 425.98C1016.39 420.977 1006.71 422.441 1000.46 428.676C994.213 434.911 992.521 444.786 997.223 451.514C1002.67 459.292 1014.33 459.971 1022.48 451.853C1030.62 443.736 1030.26 431.763 1022.82 425.98H1022.82Z" fill="#FAE22C"/>
<path d="M1015.86 445.982C1015.72 444.969 1015.32 444.006 1014.71 443.193L1014.87 443.025C1015.34 443.332 1015.87 443.555 1016.41 443.69C1017.92 444.044 1019.51 443.565 1020.57 442.43C1021.65 441.352 1022.11 440.161 1021.93 438.887C1021.79 438.064 1021.47 437.288 1020.97 436.623L1023.82 433.778L1022.62 432.564L1019.12 434.712L1017.79 433.513L1020.42 430.895L1019.22 429.682L1015.95 431.853L1012.96 429.156L1010.48 431.634L1011.15 432.276C1011.5 432.69 1011.45 433.308 1011.04 433.662C1011.03 433.666 1011.03 433.671 1011.02 433.671L1005.65 439.045C1005.34 439.455 1004.76 439.529 1004.36 439.218C1004.33 439.194 1004.3 439.166 1004.26 439.138L1003.65 438.441L1001.19 440.905L1003.77 444.039L1001.54 447.363L1002.73 448.577L1005.36 445.959L1006.5 447.354L1004.28 450.92L1005.48 452.129L1008.34 449.274C1009.01 449.851 1009.8 450.269 1010.65 450.506C1011.96 450.855 1013.23 450.432 1014.43 449.232C1015.51 448.126 1016 447.033 1015.86 445.982ZM1015.96 436.893C1016.21 437.102 1016.36 437.423 1016.34 437.753C1016.27 438.144 1016.06 438.492 1015.76 438.748L1015.17 439.334C1014.92 439.636 1014.57 439.841 1014.18 439.915C1013.85 439.934 1013.53 439.794 1013.31 439.538L1012.56 438.771L1015.19 436.154L1015.96 436.893ZM1007.98 443.342L1010.76 440.594L1011.58 441.477C1011.83 441.705 1011.96 442.035 1011.93 442.37C1011.85 442.765 1011.64 443.118 1011.34 443.379L1010.62 444.095C1010.37 444.397 1010.02 444.597 1009.64 444.662C1009.31 444.671 1008.99 444.518 1008.8 444.253L1007.98 443.342Z" fill="#FA902C"/>
<path d="M1014.66 444.767C1014.53 443.749 1014.13 442.787 1013.51 441.978L1013.67 441.81C1014.15 442.117 1014.67 442.34 1015.21 442.475C1015.88 442.638 1016.58 442.638 1017.25 442.475C1018.07 442.271 1018.82 441.838 1019.4 441.22C1020.48 440.137 1020.93 438.951 1020.75 437.672C1020.62 436.849 1020.29 436.073 1019.79 435.413L1022.64 432.563L1020.61 430.838L1017.94 433.497L1016.61 432.302L1019.24 429.68L1017.35 428.076L1014.77 430.675L1011.76 427.955L1009.26 430.419L1009.93 431.061C1010.28 431.479 1010.23 432.102 1009.81 432.456L1004.45 437.821C1004.14 438.23 1003.56 438.305 1003.16 437.993C1003.13 437.97 1003.1 437.942 1003.07 437.914L1002.46 437.217L999.974 439.695L1002.56 442.829L1000.02 445.395L1001.55 447.366L1004.17 444.749L1005.31 446.144L1002.64 448.808L1004.28 450.928L1007.12 448.092C1007.79 448.668 1008.58 449.087 1009.43 449.324C1010.73 449.672 1012 449.249 1013.2 448.05C1014.32 446.911 1014.81 445.818 1014.66 444.767ZM1014.76 435.682C1015.02 435.892 1015.16 436.208 1015.14 436.538C1015.07 436.928 1014.87 437.277 1014.57 437.533L1013.98 438.114C1013.72 438.416 1013.37 438.621 1012.98 438.695C1012.65 438.714 1012.33 438.574 1012.12 438.319L1011.36 437.556L1013.99 434.934L1014.76 435.682ZM1006.78 442.126L1009.56 439.379L1010.39 440.262C1010.63 440.49 1010.76 440.82 1010.73 441.155C1010.65 441.55 1010.45 441.903 1010.15 442.164L1009.42 442.88C1009.18 443.182 1008.82 443.382 1008.44 443.447C1008.11 443.456 1007.8 443.303 1007.6 443.038L1006.78 442.126Z" fill="#FAF02C"/>
<path d="M770.804 143.496L773.685 142.436C774.388 142.18 774.753 141.399 774.499 140.692C774.36 140.311 774.064 140.013 773.685 139.874L770.804 138.814C770.43 138.679 770.134 138.381 770 138.005L768.946 135.108C768.687 134.401 767.91 134.039 767.207 134.299C766.833 134.439 766.541 134.732 766.403 135.108L765.344 138.005C765.21 138.381 764.914 138.679 764.539 138.814L761.659 139.874C760.956 140.139 760.595 140.925 760.859 141.631C760.997 142.003 761.289 142.296 761.659 142.436L764.539 143.496C764.914 143.631 765.21 143.928 765.344 144.305L766.403 147.201C766.662 147.908 767.438 148.271 768.141 148.01C768.516 147.871 768.807 147.578 768.946 147.201L770 144.305C770.134 143.928 770.43 143.631 770.804 143.496Z" fill="white"/>
<path d="M890.295 232.388L893.18 231.328C893.883 231.063 894.244 230.277 893.98 229.571C893.841 229.199 893.55 228.906 893.18 228.766L890.295 227.706C889.921 227.572 889.625 227.274 889.491 226.897L888.436 224.001C888.177 223.294 887.401 222.931 886.698 223.192C886.323 223.331 886.032 223.624 885.893 224.001L884.839 226.897C884.7 227.274 884.405 227.572 884.03 227.706L881.149 228.766C880.447 229.031 880.086 229.817 880.35 230.524C880.488 230.896 880.78 231.189 881.149 231.328L884.03 232.388C884.405 232.523 884.7 232.821 884.839 233.197L885.893 236.094C886.152 236.801 886.929 237.163 887.632 236.903C888.006 236.763 888.298 236.47 888.436 236.094L889.491 233.197C889.625 232.821 889.921 232.528 890.295 232.388Z" fill="white"/>
<path d="M1083.17 238.832L1086.05 237.772C1086.76 237.511 1087.12 236.73 1086.86 236.023C1086.72 235.647 1086.43 235.354 1086.05 235.214L1083.17 234.154C1082.8 234.01 1082.51 233.717 1082.37 233.341L1081.31 230.444C1081.06 229.737 1080.28 229.375 1079.58 229.635C1079.2 229.775 1078.91 230.068 1078.77 230.444L1077.71 233.341C1077.58 233.717 1077.28 234.015 1076.91 234.154L1074.03 235.214C1073.32 235.475 1072.96 236.256 1073.22 236.963C1073.36 237.339 1073.65 237.632 1074.03 237.772L1076.91 238.832C1077.28 238.971 1077.58 239.269 1077.71 239.645L1078.77 242.542C1079.03 243.249 1079.81 243.611 1080.51 243.351C1080.88 243.211 1081.18 242.918 1081.31 242.542L1082.37 239.645C1082.51 239.273 1082.8 238.976 1083.17 238.832Z" fill="white"/>
<path d="M718.894 283.072L721.775 282.012C722.478 281.751 722.838 280.97 722.579 280.264C722.441 279.887 722.149 279.594 721.775 279.455L718.894 278.395C718.52 278.255 718.224 277.958 718.085 277.581L717.031 274.684C716.772 273.978 715.995 273.615 715.292 273.875C714.918 274.015 714.627 274.308 714.488 274.684L713.434 277.581C713.295 277.958 712.999 278.255 712.624 278.395L709.744 279.455C709.041 279.715 708.68 280.496 708.939 281.203C709.078 281.579 709.369 281.872 709.744 282.012L712.624 283.072C712.999 283.211 713.295 283.509 713.434 283.886L714.488 286.782C714.747 287.489 715.524 287.851 716.226 287.591C716.601 287.452 716.892 287.159 717.031 286.782L718.085 283.886C718.224 283.509 718.52 283.216 718.894 283.072Z" fill="white"/>
<path d="M964.173 275.274C961.662 287.906 933.855 289.924 931.012 315.189C931.012 315.189 937.429 305.923 942.733 312.329C945.248 315.361 942.067 322.558 921.297 330.462C859.945 353.835 895.737 407.596 850.346 422.199C850.346 422.199 906.085 438.04 914.089 374.776C916.035 359.372 933.379 347.214 938.063 355.546C941.063 360.878 935.261 367.555 929.407 367.899C929.407 367.899 957.45 375.157 973.54 354.23C989.631 333.303 972.523 324.674 985.793 312.553C999.063 300.432 1014.36 299.883 1016.37 290.533C1018.39 281.183 980.92 265.338 980.92 265.338L964.173 275.274Z" fill="url(#paint0_linear)"/>
<path d="M931.987 379.709C931.987 379.709 932.63 393.811 917.959 407.917C917.959 407.917 953.589 405.323 931.987 379.709Z" fill="url(#paint1_linear)"/>
<path d="M917.959 324.823C917.959 324.823 906.002 324.926 897.702 334.122C884.959 348.242 874.177 347.405 865.146 344.527C870.843 341.18 875.86 336.786 879.942 331.579C888.307 320.704 899.889 312.423 917.959 324.823Z" fill="url(#paint2_linear)"/>
<path d="M965.44 282.723C965.44 282.723 962.883 286.963 955.119 293.207C947.356 299.451 945.456 301.023 943.981 304.049C943.981 304.049 949.552 300.739 952.766 307.164C955.979 313.59 957.061 322.945 935.381 334.861C913.7 346.777 904.864 346.777 895.418 366.044C895.418 366.044 903.149 352.482 928.468 347.791C953.788 343.1 948.868 361.102 948.868 361.102C948.868 361.102 963.872 358.908 963.743 346.252C963.613 333.596 968.787 330.932 973.452 333.234C973.452 333.234 968.029 309.522 999.294 298.879C1030.56 288.237 970.299 274.414 970.299 274.414L965.44 282.723Z" fill="#FAF02C"/>
<path d="M1034.94 252.92L1032.08 258.229L1032.54 258.443L1007.06 304.049L950.727 278.515L963.613 237.6L963.109 236.977L968.306 222.708C975.704 199.191 983.328 181.923 991.818 169.086C999.599 157.309 1008.12 149.27 1017.9 143.561C1022 141.194 1026.29 139.191 1030.73 137.577C1036.62 135.452 1042.66 133.779 1048.8 132.561C1052.12 138.242 1054.97 144.179 1057.35 150.317C1059.64 156.249 1061.2 162.447 1061.97 168.765C1064.55 190.664 1057.2 215.59 1034.94 252.92Z" fill="white"/>
<path opacity="0.5" d="M1032.08 258.228L1032.54 258.442L1007.06 304.048L986.917 294.912C990.615 287.538 995.239 278.383 1000.97 267.229C1003.07 263.166 1005.32 258.828 1007.71 254.211C1008.72 252.272 1009.68 250.361 1010.59 248.469C1032.03 203.998 1025.71 173.897 991.818 169.076C999.599 157.299 1008.12 149.26 1017.9 143.551L1053.77 162.148L1061.97 168.76C1064.57 190.663 1057.22 215.589 1034.95 252.914L1032.08 258.228Z" fill="#30A1BB"/>
<path d="M1036.45 274.92L1013.71 312.58C1013.17 313.468 1008.62 312.339 1003.59 310.051C1000.06 308.447 997.177 306.694 995.933 305.467C995.401 304.941 995.165 304.537 995.309 304.235L1015.33 265.328C1016.69 262.79 1018.7 260.665 1021.15 259.168L1030.63 253.152C1031.88 252.366 1033.57 252.403 1035.04 252.961C1036.74 253.612 1038.13 254.974 1038.18 256.569L1038.47 267.021C1038.57 269.796 1037.87 272.54 1036.45 274.92Z" fill="url(#paint3_linear)"/>
<path opacity="0.5" d="M1018.69 230.04C1028.95 230.04 1037.26 221.676 1037.26 211.359C1037.26 201.042 1028.95 192.678 1018.69 192.678C1008.43 192.678 1000.11 201.042 1000.11 211.359C1000.11 221.676 1008.43 230.04 1018.69 230.04Z" fill="#30A1BB"/>
<path d="M1059.32 199.703C1059.29 199.661 1049.41 189.009 1032.67 180.412C1031.26 179.687 1029.81 178.98 1028.31 178.288C1009.18 169.705 992.396 169.114 991.827 169.1C999.318 157.765 1007.5 149.889 1016.83 144.217C1021.24 141.557 1025.89 139.335 1030.73 137.577C1036.6 135.467 1042.61 133.797 1048.72 132.584H1048.81C1048.83 132.612 1048.85 132.64 1048.86 132.668C1052.15 138.317 1054.99 144.217 1057.35 150.317C1057.38 150.377 1057.4 150.442 1057.42 150.507C1057.47 150.652 1057.53 150.805 1057.59 150.972C1057.87 151.73 1058.14 152.488 1058.4 153.255C1058.51 153.581 1058.62 153.906 1058.72 154.227C1059.03 155.194 1059.33 156.166 1059.62 157.142C1059.62 157.151 1059.62 157.156 1059.62 157.165C1059.89 158.128 1060.14 159.086 1060.37 160.048C1060.46 160.397 1060.54 160.75 1060.62 161.099C1060.7 161.447 1060.77 161.754 1060.84 162.084C1060.91 162.415 1060.98 162.745 1061.05 163.079C1061.11 163.414 1061.18 163.744 1061.24 164.074C1061.31 164.404 1061.34 164.628 1061.39 164.907C1061.46 165.297 1061.53 165.683 1061.59 166.078C1061.64 166.399 1061.68 166.72 1061.73 167.041C1061.77 167.361 1061.83 167.78 1061.88 168.152L1061.99 169.082C1062 169.096 1062 169.114 1061.99 169.128C1062.03 169.458 1062.07 169.793 1062.1 170.128C1062.13 170.463 1062.17 170.811 1062.19 171.151C1062.21 171.49 1062.25 171.839 1062.27 172.183C1062.29 172.527 1062.32 172.871 1062.34 173.215C1062.34 173.466 1062.36 173.713 1062.38 173.959L1062.4 174.675C1062.4 174.712 1062.4 174.745 1062.4 174.787C1062.4 175.089 1062.4 175.396 1062.4 175.716C1062.4 175.772 1062.4 175.833 1062.4 175.884C1062.4 176.172 1062.4 176.456 1062.4 176.739C1062.4 177.204 1062.4 177.702 1062.4 178.176C1062.4 178.408 1062.4 178.641 1062.4 178.869C1062.4 178.971 1062.4 179.064 1062.4 179.162C1062.4 179.445 1062.4 179.729 1062.4 180.008C1062.4 180.064 1062.4 180.119 1062.4 180.18C1062.4 180.491 1062.39 180.798 1062.36 181.11C1062.36 181.379 1062.34 181.649 1062.32 181.919C1062.29 182.188 1062.29 182.337 1062.28 182.546C1062.28 182.835 1062.24 183.128 1062.21 183.421C1062.18 183.713 1062.16 184.034 1062.13 184.35C1062.09 184.815 1062.04 185.28 1061.99 185.778C1061.95 186.108 1061.91 186.447 1061.87 186.787C1061.83 187.126 1061.78 187.493 1061.73 187.851C1061.74 187.898 1061.74 187.94 1061.73 187.986C1061.7 188.27 1061.65 188.553 1061.62 188.837C1061.54 189.344 1061.46 189.851 1061.38 190.362L1061.24 191.18C1061.24 191.283 1061.21 191.385 1061.18 191.483C1061.15 191.715 1061.1 191.948 1061.06 192.171C1061.01 192.394 1060.97 192.687 1060.91 192.942C1060.86 193.198 1060.8 193.528 1060.74 193.821C1060.69 194.114 1060.63 194.361 1060.57 194.63C1060.47 195.137 1060.36 195.648 1060.24 196.16C1060.15 196.546 1060.06 196.936 1059.96 197.322C1059.87 197.708 1059.8 198.02 1059.71 198.373C1059.71 198.457 1059.67 198.54 1059.64 198.624C1059.56 198.922 1059.49 199.228 1059.41 199.554C1059.37 199.545 1059.34 199.624 1059.32 199.703Z" fill="url(#paint4_linear)"/>
<path opacity="0.5" d="M1048.81 132.561C1048.82 132.588 1048.84 132.616 1048.85 132.644C1052.14 138.298 1054.99 144.207 1057.35 150.317C1057.38 150.377 1057.4 150.442 1057.42 150.507C1057.47 150.651 1057.53 150.805 1057.59 150.972C1057.87 151.73 1058.14 152.488 1058.4 153.255C1058.51 153.58 1058.62 153.906 1058.72 154.227C1059.03 155.194 1059.33 156.166 1059.62 157.142C1059.62 157.151 1059.62 157.156 1059.62 157.165C1059.89 158.128 1060.14 159.085 1060.37 160.048C1060.46 160.397 1060.54 160.75 1060.62 161.099C1060.7 161.447 1060.77 161.754 1060.84 162.084C1060.91 162.414 1060.98 162.744 1061.05 163.079C1061.11 163.414 1061.18 163.744 1061.24 164.074C1061.31 164.404 1061.34 164.627 1061.39 164.906C1061.46 165.297 1061.53 165.683 1061.59 166.078C1061.64 166.399 1061.68 166.72 1061.73 167.041C1061.77 167.361 1061.83 167.78 1061.88 168.152L1061.99 169.082C1062 169.096 1062 169.114 1061.99 169.128C1062.03 169.458 1062.07 169.793 1062.1 170.128C1062.13 170.462 1062.17 170.811 1062.19 171.151C1062.21 171.49 1062.25 171.839 1062.27 172.183C1062.29 172.527 1062.32 172.871 1062.34 173.215C1062.34 173.466 1062.36 173.712 1062.38 173.959L1062.4 174.675C1062.4 174.712 1062.4 174.745 1062.4 174.786C1062.4 175.089 1062.4 175.395 1062.4 175.716C1062.4 175.772 1062.4 175.833 1062.4 175.884C1062.4 176.172 1062.4 176.456 1062.4 176.739C1062.4 177.204 1062.4 177.702 1062.4 178.176C1062.4 178.408 1062.4 178.641 1062.4 178.869C1062.4 178.971 1062.4 179.064 1062.4 179.161C1062.4 179.445 1062.4 179.729 1062.4 180.008C1062.4 180.063 1062.4 180.119 1062.4 180.18C1062.4 180.491 1062.39 180.798 1062.36 181.11C1062.36 181.379 1062.34 181.649 1062.32 181.919C1062.29 182.188 1062.29 182.337 1062.28 182.546C1062.28 182.835 1062.24 183.127 1062.21 183.42C1062.18 183.713 1062.16 184.034 1062.13 184.35C1062.09 184.815 1062.04 185.28 1061.99 185.778C1061.95 186.108 1061.91 186.447 1061.87 186.787C1061.83 187.126 1061.78 187.493 1061.73 187.851C1061.74 187.898 1061.74 187.94 1061.73 187.986C1061.7 188.27 1061.65 188.553 1061.62 188.837C1061.54 189.344 1061.46 189.85 1061.38 190.362L1061.24 191.18C1061.24 191.282 1061.21 191.385 1061.18 191.482C1061.15 191.715 1061.1 191.947 1061.06 192.171C1061.01 192.394 1060.97 192.687 1060.91 192.942C1060.86 193.198 1060.8 193.528 1060.74 193.821C1060.69 194.114 1060.63 194.36 1060.57 194.63C1060.47 195.137 1060.36 195.648 1060.24 196.16C1060.15 196.546 1060.06 196.936 1059.96 197.322C1059.87 197.708 1059.8 198.019 1059.71 198.373C1059.71 198.457 1059.67 198.54 1059.64 198.624C1059.56 198.921 1059.49 199.228 1059.41 199.554C1059.41 199.633 1059.37 199.712 1059.35 199.791C1059.32 199.749 1049.43 189.097 1032.7 180.501C1045.91 184.257 1061.6 156.421 1048.81 132.561Z" fill="#B22443" stroke="#FD485A" stroke-miterlimit="10"/>
<path d="M1016.56 224.406C1026.82 224.406 1035.14 216.042 1035.14 205.724C1035.14 195.407 1026.82 187.043 1016.56 187.043C1006.3 187.043 997.986 195.407 997.986 205.724C997.986 216.042 1006.3 224.406 1016.56 224.406Z" fill="#4643E0"/>
<path d="M1029.37 208.899C1029.17 209.68 1028.91 210.442 1028.58 211.177C1025.58 217.849 1017.76 220.801 1011.13 217.779C1005.14 215.05 1002.07 208.308 1003.92 201.966C1004.6 199.646 1005.9 197.559 1007.68 195.922C1013.06 190.984 1021.4 191.37 1026.31 196.782C1029.27 200.051 1030.43 204.598 1029.37 208.899Z" fill="#1CE5FF"/>
<path opacity="0.5" d="M973.12 288.665L955.822 280.821L966.235 254.501L971.469 250.781C966.022 266.222 973.984 275.66 973.984 275.66L973.12 288.665Z" fill="#30A1BB"/>
<path d="M1006.83 256.202L984.683 303.087C984.249 304.017 979.852 302.905 974.858 300.641C971.409 299.079 968.551 297.354 967.238 296.122C966.651 295.578 966.369 295.132 966.484 294.839L985.409 246.485C986.482 243.807 988.281 241.487 990.597 239.785L999.382 233.146C1000.63 232.216 1002.46 232.281 1004.01 232.992C1005.55 233.704 1006.85 235.033 1007.01 236.614L1008.14 247.75C1008.49 250.637 1008.03 253.561 1006.83 256.202Z" fill="url(#paint5_linear)"/>
<path d="M958.499 287.558C958.152 288.539 953.778 287.478 948.729 285.186C946.76 284.308 944.859 283.289 943.033 282.141C941.091 280.886 939.94 279.788 940.097 279.221L951.98 236.628C952.72 233.973 954.227 231.593 956.303 229.789L964.043 222.982C965.116 222.052 966.817 222.052 968.306 222.722C969.887 223.4 971.284 224.763 971.584 226.395L973.628 237.642C974.201 240.492 974.016 243.444 973.096 246.201L958.499 287.558Z" fill="url(#paint6_linear)"/>
<path opacity="0.5" d="M1006.83 256.202L984.684 303.087C984.249 304.017 979.852 302.906 974.858 300.641C971.409 299.079 968.551 297.354 967.238 296.122C973.559 300.772 982.547 294.504 992.553 271.857C1002.56 249.21 1006.4 234.355 1004.03 233.002C1005.59 233.709 1006.88 235.043 1007.04 236.624L1008.17 247.759C1008.5 250.646 1008.04 253.566 1006.83 256.202Z" fill="#B22443" stroke="#FD485A" stroke-miterlimit="10"/>
<path opacity="0.5" d="M958.5 287.557C958.153 288.538 953.779 287.478 948.73 285.186C946.76 284.307 944.86 283.289 943.033 282.14C948.031 284.67 956.206 274.329 960.918 261.762C965.629 249.195 971.552 224.199 968.316 222.707C969.897 223.386 971.293 224.748 971.594 226.38L973.638 237.627C974.211 240.477 974.026 243.429 973.106 246.187L958.5 287.557Z" fill="#B22443" stroke="#FD485A" stroke-miterlimit="10"/>
<path opacity="0.5" d="M1036.45 274.92L1013.71 312.58C1013.17 313.468 1008.62 312.338 1003.59 310.051C1000.06 308.447 997.176 306.694 995.933 305.467C1002.38 309.814 1010.11 305.369 1019.13 290.323C1028.08 275.408 1038.42 254.988 1035.03 252.961C1036.73 253.612 1038.13 254.974 1038.17 256.569L1038.47 267.021C1038.57 269.796 1037.87 272.54 1036.45 274.92Z" fill="#B22443" stroke="#FD485A" stroke-miterlimit="10"/>
<path d="M1016.89 192.468C1013.49 192.389 1010.19 193.626 1007.68 195.928L1023.62 216.924C1025.8 215.539 1027.53 213.539 1028.58 211.173C1028.91 210.438 1029.17 209.676 1029.37 208.895L1016.89 192.468ZM1005.56 198.438C1004.85 199.526 1004.3 200.712 1003.93 201.962L1016.86 218.984C1018.15 218.956 1019.44 218.738 1020.67 218.328L1005.56 198.438Z" fill="#0BFFFF"/>
<path opacity="0.2" d="M1004.46 204.338C1005.15 202.018 1006.45 199.931 1008.22 198.294C1013.61 193.371 1021.95 193.77 1026.84 199.187C1028.09 200.563 1029.02 202.186 1029.61 203.953C1028.64 196.7 1022 191.608 1014.78 192.585C1012.12 192.943 1009.64 194.11 1007.66 195.928C1005.88 197.564 1004.58 199.652 1003.9 201.972C1003.14 204.557 1003.18 207.314 1004.02 209.876C1003.78 208.021 1003.93 206.133 1004.46 204.338Z" fill="#4643E0"/>
<path d="M911.421 323.511C911.421 323.511 898.937 316.63 892.117 330.745C892.117 330.745 898.548 324.478 911.421 323.511Z" fill="#FAF02C"/>
<path d="M933.402 384.646C933.402 384.646 935.168 392.086 929.532 400.148C929.532 400.148 934.618 399.473 935.843 394.424C937.068 389.375 933.402 384.646 933.402 384.646Z" fill="#FAF02C"/>
<path d="M1037.12 104.209C1031.43 105.534 1025.84 107.198 1020.36 109.202C1013.7 111.624 1007.29 114.698 1001.23 118.366L1000.4 118.882L1000.06 119.096C998.975 119.779 998.647 121.211 999.322 122.299C1000 123.387 1001.43 123.717 1002.51 123.039L1002.86 122.815L1003.62 122.35C1009.43 118.836 1015.58 115.902 1021.96 113.586C1027.27 111.652 1032.68 110.034 1038.18 108.751C1039.41 108.43 1040.16 107.166 1039.84 105.919C1039.53 104.711 1038.33 103.962 1037.12 104.227V104.209ZM974.47 141.892C974.058 142.399 973.647 142.919 973.268 143.398L973.092 143.621L972.482 144.393C972.047 144.961 971.612 145.537 971.168 146.132L971.095 146.23L970.535 146.978C970.073 147.625 969.61 148.285 969.148 148.95L968.662 149.638C968.038 150.535 967.414 151.456 966.813 152.376L965.514 154.352L965.477 154.436C962.18 159.625 959.165 164.995 956.451 170.514C955.883 171.662 956.35 173.057 957.492 173.629C957.811 173.791 958.162 173.875 958.518 173.875C959.397 173.875 960.196 173.378 960.589 172.587C963.243 167.175 966.193 161.912 969.425 156.826L970.632 154.966C971.219 154.078 971.825 153.185 972.426 152.321C972.574 152.107 972.722 151.902 972.889 151.693L972.926 151.642C973.388 151.014 973.823 150.377 974.276 149.754L974.798 149.061L974.881 148.945C975.316 148.369 975.732 147.811 976.153 147.267C976.329 147.039 976.523 146.802 976.722 146.546L976.907 146.313C977.272 145.849 977.665 145.346 978.062 144.863C978.872 143.873 978.728 142.403 977.743 141.59C976.759 140.776 975.297 140.92 974.488 141.91L974.47 141.892ZM1092.49 176.483C1092.49 176.116 1092.49 175.744 1092.49 175.395C1092.49 175.261 1092.49 175.121 1092.49 174.996C1092.49 174.707 1092.49 174.414 1092.49 174.163V173.568C1092.49 173.215 1092.46 172.866 1092.44 172.518C1092.43 172.169 1092.41 171.783 1092.39 171.43C1092.39 171.43 1092.33 170.425 1092.31 170.137C1092.22 168.854 1091.12 167.882 1089.85 167.966C1088.57 168.054 1087.6 169.161 1087.69 170.449C1087.69 170.732 1087.76 171.709 1087.76 171.709C1087.76 172.039 1087.8 172.387 1087.82 172.736C1087.84 173.085 1087.85 173.387 1087.86 173.712V174.312C1087.86 174.549 1087.86 174.819 1087.86 175.098C1087.86 175.214 1087.86 175.33 1087.86 175.475C1087.86 175.823 1087.86 176.167 1087.86 176.525V177.641C1087.86 177.883 1087.86 178.106 1087.86 178.376C1087.86 178.645 1087.86 179.013 1087.86 179.343V179.389C1087.86 179.612 1087.86 179.831 1087.86 180.082C1087.86 180.412 1087.86 180.742 1087.83 181.063V181.226C1087.83 181.63 1087.8 182.039 1087.77 182.444L1087.72 183.309C1087.72 183.588 1087.69 183.867 1087.68 184.141C1087.64 184.606 1087.61 185.024 1087.58 185.434L1087.49 186.498C1087.44 187.042 1087.39 187.563 1087.33 188.074L1087.14 189.744C1087.09 190.185 1087.03 190.627 1086.97 191.083C1086.95 191.287 1086.92 191.487 1086.89 191.71L1086.77 192.51C1086.67 193.17 1086.57 193.835 1086.46 194.495L1086.34 195.253C1086.29 195.527 1086.24 195.802 1086.18 196.109C1086.12 196.415 1086.1 196.601 1086.04 196.862L1085.85 197.871C1085.79 198.178 1085.73 198.522 1085.66 198.856L1085.47 199.786C1085.43 199.944 1085.39 200.135 1085.35 200.34L1085.17 201.162C1085.12 201.4 1085.06 201.627 1085.01 201.869C1084.9 202.353 1084.79 202.818 1084.68 203.264L1084.43 204.264C1084.37 204.515 1084.31 204.766 1084.24 205.026L1083.95 206.142L1080.93 217.733C1080.61 218.974 1081.36 220.244 1082.59 220.564C1083.83 220.885 1085.09 220.137 1085.41 218.895L1088.38 207.351C1088.46 207.035 1088.63 206.379 1088.67 206.235C1088.74 205.951 1088.82 205.668 1088.88 205.393L1089.12 204.403C1089.24 203.938 1089.36 203.445 1089.47 202.939C1089.53 202.678 1089.59 202.418 1089.64 202.181C1089.67 202.051 1089.76 201.632 1089.82 201.362C1089.88 201.093 1089.91 200.925 1089.95 200.753L1090.15 199.823C1090.22 199.461 1090.29 199.098 1090.35 198.768L1090.54 197.768C1090.6 197.494 1090.65 197.22 1090.69 196.978C1090.75 196.662 1090.81 196.341 1090.85 196.048L1090.98 195.3C1091.09 194.602 1091.2 193.905 1091.31 193.207L1091.42 192.412C1091.45 192.18 1091.49 191.947 1091.51 191.724C1091.58 191.259 1091.63 190.794 1091.69 190.329C1091.75 189.864 1091.88 188.642 1091.88 188.632C1091.94 188.074 1092 187.521 1092.05 186.94L1092.14 185.861C1092.18 185.429 1092.21 184.992 1092.24 184.466C1092.24 184.169 1092.28 183.871 1092.3 183.588L1092.35 182.728C1092.37 182.291 1092.39 181.849 1092.41 181.435V181.291C1092.41 180.933 1092.41 180.57 1092.44 180.245C1092.44 180.003 1092.44 179.752 1092.44 179.492V179.45C1092.44 179.106 1092.44 178.762 1092.44 178.432C1092.44 178.101 1092.44 177.911 1092.44 177.664V176.502L1092.49 176.483ZM1035.74 123.759C1036.97 123.411 1037.69 122.123 1037.33 120.886C1036.99 119.649 1035.71 118.933 1034.48 119.287C1033.25 119.635 1032.53 120.923 1032.89 122.16C1033.17 123.164 1034.08 123.852 1035.12 123.848C1035.33 123.848 1035.54 123.82 1035.74 123.759ZM1075.9 186.117C1074.62 185.973 1073.47 186.898 1073.33 188.181C1073.19 189.465 1074.11 190.622 1075.38 190.766H1075.66C1076.93 190.841 1078.03 189.86 1078.1 188.577C1078.18 187.293 1077.2 186.191 1075.92 186.117H1075.9ZM1076.22 172.411C1074.94 172.429 1073.93 173.489 1073.94 174.772C1073.96 176.056 1075.02 177.079 1076.29 177.06H1076.36C1077.64 177.018 1078.64 175.949 1078.6 174.661C1078.56 173.373 1077.5 172.373 1076.22 172.411ZM1008.43 130.296C1007.34 130.961 1006.99 132.389 1007.64 133.486C1008.31 134.583 1009.73 134.936 1010.82 134.276C1011.91 133.611 1012.26 132.184 1011.6 131.087C1011.6 131.087 1011.6 131.087 1011.6 131.082C1010.94 129.985 1009.52 129.636 1008.43 130.296ZM1021.12 123.871C1019.94 124.364 1019.38 125.721 1019.87 126.907C1020.23 127.776 1021.07 128.344 1022.01 128.344C1022.31 128.344 1022.61 128.283 1022.88 128.167C1024.06 127.679 1024.63 126.316 1024.14 125.131C1023.66 123.945 1022.3 123.378 1021.12 123.866V123.871ZM1075.22 163.279C1076.47 163.037 1077.3 161.819 1077.05 160.555C1076.81 159.295 1075.6 158.467 1074.34 158.713C1073.09 158.955 1072.27 160.173 1072.51 161.438C1072.72 162.521 1073.66 163.312 1074.76 163.321C1074.92 163.321 1075.07 163.307 1075.23 163.279H1075.22ZM1064.69 132.709C1063.55 133.277 1063.07 134.671 1063.64 135.82C1064.2 136.973 1065.59 137.447 1066.73 136.88C1067.88 136.313 1068.35 134.918 1067.79 133.769V133.765C1067.22 132.616 1065.84 132.147 1064.7 132.709H1064.69ZM1048.16 116.078C1046.91 116.334 1046.1 117.562 1046.35 118.817C1046.57 119.9 1047.52 120.681 1048.62 120.681C1048.78 120.681 1048.93 120.667 1049.09 120.635C1050.34 120.379 1051.14 119.152 1050.89 117.892C1050.64 116.636 1049.42 115.823 1048.16 116.078ZM1073.29 146.764C1072.86 145.556 1071.54 144.928 1070.33 145.36C1069.13 145.793 1068.51 147.127 1068.94 148.336C1069.37 149.545 1070.69 150.172 1071.9 149.74C1071.9 149.74 1071.9 149.74 1071.91 149.735C1073.09 149.298 1073.71 147.978 1073.29 146.778V146.764ZM1057.93 120.519C1056.82 121.156 1056.44 122.578 1057.08 123.694C1057.71 124.81 1059.13 125.191 1060.24 124.554C1061.34 123.917 1061.72 122.495 1061.09 121.379C1061.09 121.379 1061.09 121.374 1061.09 121.374C1060.44 120.268 1059.03 119.891 1057.93 120.533V120.519ZM943.838 222.606C942.784 221.88 941.346 222.155 940.624 223.21C939.903 224.27 940.176 225.716 941.225 226.441C942.27 227.162 943.694 226.902 944.42 225.86C945.155 224.809 944.901 223.359 943.856 222.619C943.852 222.615 943.847 222.61 943.838 222.606ZM950.824 212.981C949.862 213.827 949.765 215.297 950.607 216.264C951.448 217.231 952.909 217.328 953.871 216.482C954.828 215.636 954.93 214.171 954.088 213.204C953.247 212.233 951.786 212.135 950.824 212.981ZM934.244 248.563C933.014 248.214 931.737 248.94 931.391 250.172C931.044 251.409 931.765 252.692 932.995 253.04C933.199 253.096 933.407 253.124 933.619 253.124C934.895 253.12 935.927 252.078 935.922 250.79C935.922 249.758 935.238 248.847 934.244 248.563ZM937.989 235.131C936.759 234.782 935.483 235.508 935.136 236.74C934.789 237.976 935.51 239.26 936.74 239.608C936.944 239.669 937.152 239.697 937.365 239.697C938.641 239.701 939.681 238.665 939.686 237.381C939.69 236.335 938.997 235.41 937.989 235.131ZM1044.15 282.945C1043.05 282.295 1041.63 282.662 1040.98 283.768C1040.33 284.875 1040.7 286.298 1041.8 286.953C1042.9 287.604 1044.32 287.237 1044.96 286.13C1045.61 285.024 1045.25 283.601 1044.15 282.945ZM1037.11 294.964C1036 294.318 1034.59 294.694 1033.95 295.806C1033.31 296.917 1033.68 298.34 1034.79 298.981C1035.88 299.618 1037.28 299.256 1037.93 298.163C1038.59 297.061 1038.23 295.634 1037.13 294.973C1037.13 294.973 1037.12 294.969 1037.11 294.964ZM1030.07 307.001C1028.97 306.351 1027.55 306.718 1026.9 307.824C1026.26 308.931 1026.62 310.354 1027.72 311.009C1028.82 311.66 1030.24 311.293 1030.88 310.186C1031.54 309.08 1031.17 307.657 1030.07 307.001ZM1023.02 318.997C1021.92 318.346 1020.51 318.713 1019.86 319.82C1019.21 320.926 1019.57 322.349 1020.67 323.005C1021.77 323.656 1023.19 323.288 1023.84 322.182C1023.84 322.182 1023.84 322.182 1023.84 322.177C1024.49 321.071 1024.12 319.648 1023.02 318.997Z" fill="#4169C9"/>
</g>
<g clip-path="url(#clip2)">
<path d="M163.62 244.582H153.38L135.756 72H181.244L163.62 244.582Z" fill="url(#paint7_linear)"/>
<path d="M153.38 286.418H163.62L181.244 459H135.756L153.38 286.418Z" fill="url(#paint8_linear)"/>
<path d="M179.418 270.62V260.379L352 242.756V288.243L179.418 270.62Z" fill="url(#paint9_linear)"/>
<path d="M137.582 260.379V270.62L-35 288.243V242.756L137.582 260.379Z" fill="url(#paint10_linear)"/>
<path d="M176.877 254.347L169.653 247.044L279.204 112.566L311.434 144.797L176.877 254.347Z" fill="url(#paint11_linear)"/>
<path d="M140.043 276.654L147.346 283.878L37.7956 418.435L5.56543 386.205L140.043 276.654Z" fill="url(#paint12_linear)"/>
<path d="M169.653 283.878L176.877 276.654L311.434 386.205L279.204 418.435L169.653 283.878Z" fill="url(#paint13_linear)"/>
<path d="M147.346 247.044L140.043 254.347L5.56543 144.797L37.7956 112.566L147.346 247.044Z" fill="url(#paint14_linear)"/>
<path d="M174.893 190.202C174.893 190.202 178.703 183.375 183.466 186.312C191.246 191.075 188.785 201.792 188.785 201.792L186.959 197.029C186.959 197.029 189.341 204.571 185.53 209.731L185.927 204.729C185.927 204.729 182.911 211.874 177.592 212.668C172.273 213.462 171.4 213.462 170.844 216.637C170.288 219.812 174.575 221.956 173.226 221.718C168.383 220.924 168.859 214.732 168.859 214.732L168.066 219.177C168.066 219.177 161.874 207.27 162.271 201.713C162.668 196.156 165.287 192.345 165.287 192.345L162.112 193.536C162.191 193.615 171.717 178.532 174.893 190.202Z" fill="#333333"/>
<path d="M179.576 206.793C182.117 202.188 186.007 197.028 176.957 192.265C175.528 191.471 172.035 192.107 170.685 192.027C169.733 191.948 169.653 192.98 168.78 193.139C162.509 194.091 159.016 199.013 159.016 199.013C159.016 199.013 164.732 207.745 147.664 218.939C145.679 220.209 159.889 242.516 161.318 234.26C166.002 206.158 178.068 209.492 179.576 206.793Z" fill="#EABFA5"/>
<path d="M164.732 195.045C164.732 195.045 167.51 194.252 170.606 198.3C170.924 198.697 170.765 199.332 170.289 199.412C168.939 199.809 166.478 200.285 164.255 199.491C160.207 198.141 164.732 195.045 164.732 195.045Z" fill="#D84744"/>
<path d="M170.289 199.41C169.812 199.014 169.098 198.775 168.304 198.775C167.272 198.775 166.319 199.252 165.764 199.887C167.59 200.046 169.257 199.728 170.289 199.41Z" fill="#822A2A"/>
<path d="M170.051 198.935C170.051 198.935 167.352 196.315 164.414 195.997C164.414 195.997 167.034 196.791 164.256 196.871C164.256 196.871 163.462 196.474 163.859 195.839C163.859 195.759 164.335 195.442 164.653 195.204C164.811 195.045 165.049 194.965 165.288 195.045C166.32 195.124 169.098 195.68 170.051 198.935Z" fill="#EEF9F9"/>
<path d="M162.906 198.776C163.144 199.094 163.62 199.332 164.176 199.57C164.652 199.729 165.208 199.888 165.764 199.888C165.764 199.888 166.24 199.491 165.684 199.014C165.129 198.459 163.461 198.3 162.906 198.776Z" fill="#EEF9F9"/>
<path d="M164.255 199.57C165.526 199.967 166.875 200.047 167.987 199.888C167.351 199.57 166.478 199.332 165.526 199.332C165.049 199.332 164.573 199.411 164.097 199.491C164.097 199.491 164.176 199.491 164.255 199.57Z" fill="#FFABAB"/>
<path d="M158.54 207.906C159.175 214.416 155.523 228.784 154.65 232.039C154.729 232.198 154.888 232.277 154.967 232.436L162.35 228.625C165.684 214.733 171.083 210.684 174.972 208.938C173.464 208.224 171.956 207.509 170.447 206.795C161.318 202.27 158.857 198.936 158.857 198.936C158.857 198.936 161.239 202.508 158.54 207.906Z" fill="#D8A98F"/>
<path d="M179.656 205.444C179.656 205.444 181.561 205.92 180.133 207.905C178.704 209.89 174.179 209.969 175.29 207.429C176.401 204.888 179.656 205.444 179.656 205.444Z" fill="#EABFA5"/>
<path d="M173.702 195.601C173.702 195.601 177.513 193.775 178.545 198.618C178.545 198.618 177.592 195.442 173.702 195.601Z" fill="#822A2A"/>
<path d="M175.29 194.41C175.29 194.41 180.609 192.981 180.053 197.903C180.053 197.982 179.18 194.251 175.29 194.41Z" fill="#333333"/>
<path d="M170.13 191.949C170.13 191.949 173.147 192.108 173.305 193.775C173.226 193.775 173.702 190.282 170.13 191.949Z" fill="#333333"/>
<path d="M171.797 194.25C171.797 194.25 172.194 192.107 168.463 193.377C168.463 193.456 170.924 192.98 171.797 194.25Z" fill="#822A2A"/>
<path d="M169.574 194.33L168.939 193.774C168.939 193.774 169.257 193.06 170.924 193.695C172.591 194.33 173.781 193.933 173.781 193.933L170.685 196.156L169.574 194.33Z" fill="#F7CAB2"/>
<path d="M167.986 194.568L168.939 193.775C169.336 193.457 169.892 193.616 170.05 194.092L170.606 196.156C170.685 196.156 169.892 195.124 167.986 194.568Z" fill="#D8A98F"/>
<path d="M179.259 206.316C179.259 206.316 179.577 208.142 176.957 208.142C176.957 208.142 178.227 207.587 177.989 207.11C177.751 206.634 177.036 206.634 177.036 206.634C177.036 206.634 178.307 206.555 178.465 206.872C178.624 207.19 178.545 207.587 178.545 207.587L179.259 206.316Z" fill="#D8A98F"/>
<path d="M176.004 204.968C176.004 204.968 179.973 204.492 180.37 201.713C180.37 201.713 181.878 201.316 183.149 200.046C184.419 198.855 181.005 206.476 181.005 206.476C181.005 206.476 180.211 205.047 176.639 206.715L176.004 204.968Z" fill="#333333"/>
<path d="M182.196 112.485C183.228 114.47 186.006 114.073 187.991 112.644C189.896 111.215 190.372 108.992 190.055 107.087C189.261 102.086 183.387 99.8631 177.988 102.483C171.003 105.738 169.335 112.406 169.097 118.36C169.018 121.297 170.288 126.616 165.843 127.965C163.064 128.838 161.635 126.536 161 124.631C160.603 123.361 160.683 121.456 162.667 120.979C164.572 120.503 165.922 122.646 163.54 122.646C163.62 123.361 163.779 123.996 163.858 124.71C164.017 124.631 164.096 124.552 164.255 124.472C165.843 123.678 164.414 121.853 162.905 122.646C162.747 122.726 162.667 122.805 162.508 122.885C161.556 123.361 161.715 124.949 162.826 124.949C164.731 124.949 167.192 124.472 167.748 122.567C168.303 120.741 166.478 119.074 164.652 118.677C162.429 118.28 160.047 119.392 158.857 121.138C157.348 123.361 158.301 125.822 159.492 127.727C160.762 129.712 162.588 130.902 165.446 130.426C168.065 130.029 170.209 128.362 171.161 126.219C172.273 123.599 171.717 120.741 171.796 118.122C171.876 114.549 172.352 110.58 175.131 107.484C177.671 104.626 182.593 102.165 185.848 104.785C186.959 105.658 187.515 107.087 187.515 108.437C187.515 109.072 187.435 109.786 187.038 110.342C186.88 110.58 185.054 111.93 184.895 111.691C184.101 110.342 181.481 111.215 182.196 112.485Z" fill="#E5A920"/>
<path d="M204.82 139.873L200.295 126.457L198.866 122.17L194.421 108.754C194.183 107.96 193.151 107.564 192.198 107.881C191.246 108.199 190.69 109.072 190.928 109.866L191.007 110.024C187.753 111.136 184.895 113.2 183.148 115.82C181.958 117.566 180.926 119.789 180.529 122.329C179.973 125.743 177.274 128.839 173.384 130.109L173.146 130.188C170.606 131.061 167.986 130.982 165.684 130.109L163.143 129.077C162.032 128.68 160.682 128.6 159.492 129.077L161.397 134.713L162.826 139L164.731 144.636C165.922 144.239 167.033 143.445 167.589 142.413L169.018 140.032C170.288 137.968 172.431 136.301 174.972 135.507L175.21 135.428C179.02 134.157 183.069 134.951 185.609 137.412C187.435 139.159 189.658 140.27 191.642 140.984C194.659 142.016 198.152 141.937 201.407 140.905L201.486 141.064C201.724 141.858 202.756 142.255 203.709 141.937C204.503 141.62 205.058 140.667 204.82 139.873Z" fill="#E5A920"/>
<path d="M180.529 128.442C181.878 127.093 184.101 124.076 185.371 122.568C187.118 120.583 189.579 118.916 192.436 117.805C192.754 117.646 201.089 141.144 201.407 141.064L193.468 117.408L193.389 117.249C193.151 116.614 193.786 115.9 194.739 115.582C195.691 115.264 196.644 115.503 196.803 116.058L194.262 108.596C194.024 107.802 192.992 107.405 192.039 107.723C191.087 108.04 190.531 108.914 190.769 109.708L190.849 109.866C187.594 110.978 184.736 113.042 182.99 115.661C181.799 117.408 180.767 119.631 180.37 122.171C179.814 125.584 177.115 128.68 173.225 129.951L172.987 130.03C170.447 130.903 167.827 130.824 165.525 129.951L162.985 128.919C161.873 128.522 160.524 128.442 159.333 128.919L161.159 134.476C162.35 134.079 164.652 133.84 166.875 133.523C167.033 133.761 178.385 130.665 180.529 128.442Z" fill="#C68D1A"/>
<path d="M192.833 144.319C192.436 142.175 194.977 140.746 197.358 140.746C199.74 140.746 201.486 142.255 202.359 144.001C204.741 148.447 201.407 153.766 195.453 154.956C187.911 156.544 182.513 152.257 178.782 147.653C176.956 145.351 174.734 140.349 170.367 141.937C167.589 142.969 167.907 145.668 168.542 147.494C168.939 148.764 170.129 150.193 172.035 149.399C173.86 148.606 173.622 146.065 171.717 147.573C171.399 146.938 171.082 146.303 170.764 145.748C170.923 145.748 171.082 145.668 171.241 145.668C172.987 145.351 172.987 147.653 171.241 147.97C171.082 147.97 170.923 148.05 170.764 148.05C169.653 148.209 168.939 146.859 169.812 146.224C171.241 145.033 173.543 144.001 175.131 145.192C176.639 146.303 176.242 148.764 174.972 150.193C173.463 151.86 170.923 152.416 168.859 151.781C166.319 150.908 165.604 148.367 165.366 146.145C165.207 143.842 165.922 141.699 168.462 140.349C170.844 139.079 173.543 139.079 175.607 140.27C178.068 141.699 179.338 144.239 181.005 146.303C183.228 149.082 186.006 152.019 190.055 152.813C193.786 153.527 199.263 152.575 200.216 148.526C200.534 147.177 200.137 145.668 199.343 144.636C198.946 144.16 198.47 143.604 197.835 143.366C197.517 143.287 195.215 143.287 195.294 143.604C195.691 144.874 193.071 145.748 192.833 144.319Z" fill="#E5A920"/>
<path d="M192.674 124.471C193.071 124.471 193.389 124.233 193.627 123.916C193.706 123.757 193.865 123.519 193.945 123.201C193.945 123.122 193.945 122.963 193.865 122.884C193.627 122.566 192.436 121.296 191.325 121.296C191.325 121.137 191.246 120.979 191.166 120.899C191.007 120.74 189.578 119.947 188.626 120.343C188.546 120.264 188.546 120.185 188.467 120.105C188.467 120.105 188.388 120.105 188.388 120.026C188.15 119.867 186.721 119.788 185.927 120.423C185.847 120.343 185.768 120.343 185.689 120.343C185.689 120.343 185.689 120.343 185.609 120.343C185.133 120.343 184.022 120.82 183.545 121.693C183.466 121.693 183.386 121.693 183.386 121.693H183.307H183.228C182.672 121.931 181.878 122.963 181.719 123.916H181.64H181.561C181.481 123.916 181.481 123.995 181.402 123.995C180.926 124.471 180.449 126.139 180.687 127.012C180.687 127.091 180.767 127.171 180.767 127.25C181.005 127.964 181.481 128.361 182.196 128.441C182.275 128.52 182.354 128.52 182.513 128.599C183.069 128.838 183.704 128.758 184.101 128.361C184.498 127.964 184.815 127.329 184.974 126.774V126.694C185.054 126.615 185.054 126.456 185.054 126.377V126.297C185.45 126.059 185.768 125.662 185.927 125.424C186.006 125.345 186.086 125.186 186.086 125.107C186.562 125.027 186.959 124.789 187.118 124.71C187.197 124.63 187.356 124.63 187.356 124.471C187.832 124.551 188.229 124.551 188.467 124.551C188.626 124.551 188.705 124.551 188.785 124.471C189.182 124.789 189.658 124.948 189.896 125.027C190.055 125.107 190.134 125.107 190.293 125.027C190.61 125.503 191.087 125.821 191.325 126.059L191.404 126.139C191.563 126.297 191.722 126.377 191.96 126.297C192.119 126.297 192.198 126.218 192.278 126.059C192.674 125.662 192.833 125.107 192.674 124.471ZM188.229 136.379C188.308 136.379 188.308 136.3 188.388 136.22C189.261 136.617 190.531 136.3 190.849 135.982C190.928 135.903 190.928 135.823 191.007 135.744C192.039 135.823 193.071 134.791 193.23 134.553V134.474C193.23 134.395 193.23 134.315 193.23 134.236C194.262 133.918 194.897 132.41 194.897 132.251C194.897 132.172 194.897 132.013 194.818 131.854C195.612 131.219 195.85 129.473 195.85 129.076C195.85 128.996 195.77 128.838 195.691 128.758C195.532 128.599 195.215 128.441 195.056 128.361C194.659 128.203 194.262 128.282 193.945 128.52C193.706 127.964 193.23 127.567 192.516 127.488C192.357 127.488 192.278 127.488 192.119 127.488C191.96 127.567 191.801 127.726 191.801 127.964V128.044C191.722 128.282 191.563 128.917 191.563 129.473C191.404 129.552 191.325 129.631 191.246 129.79C191.087 129.949 190.849 130.346 190.69 130.822C190.452 130.822 190.214 130.981 190.134 131.219C190.214 131.06 190.293 130.981 190.293 130.902C190.134 130.981 189.737 131.219 189.42 131.616C189.261 131.537 189.182 131.537 189.023 131.616C188.785 131.616 188.388 131.695 187.991 131.934C187.911 131.854 187.753 131.775 187.594 131.775C187.356 131.695 186.879 131.616 186.403 131.616V131.537C186.324 131.457 186.244 131.299 186.165 131.299H186.086C185.609 130.981 185.054 130.663 184.418 130.584C183.863 130.505 183.386 130.822 183.069 131.378C182.99 131.537 182.91 131.616 182.91 131.695C182.434 132.172 182.275 132.807 182.513 133.521C182.513 133.601 182.593 133.68 182.593 133.759C182.99 134.633 184.339 135.665 185.054 135.744C185.133 135.744 185.133 135.744 185.212 135.744H185.292C185.292 135.744 185.371 135.744 185.371 135.665C186.086 136.379 187.356 136.617 187.911 136.538C188.07 136.459 188.15 136.459 188.229 136.379C188.15 136.379 188.229 136.379 188.229 136.379ZM188.785 131.934C188.785 131.934 188.785 131.854 188.864 131.854C188.785 131.854 188.785 131.854 188.785 131.934Z" fill="#C68D1A"/>
<path d="M186.165 122.488C186.165 122.488 185.609 121.614 186.085 120.979C186.562 120.265 188.07 120.503 187.991 120.503C187.276 121.059 186.641 121.694 186.165 122.488Z" fill="#EFB135"/>
<path d="M187.832 121.931C187.276 122.328 186.244 122.487 186.244 122.487C186.72 121.693 187.356 121.058 188.149 120.502C188.07 120.502 188.388 121.455 187.832 121.931Z" fill="#FCC34F"/>
<path d="M186.244 122.646C186.244 122.646 186.403 123.599 186.959 123.917C187.514 124.234 188.308 124.075 188.308 124.075C187.752 123.52 187.038 122.964 186.244 122.646Z" fill="#FCC34F"/>
<path d="M187.911 122.646C187.276 122.091 186.244 122.567 186.244 122.567C187.038 122.884 187.752 123.44 188.387 124.075C188.308 124.075 188.467 123.123 187.911 122.646Z" fill="#EFB135"/>
<path d="M188.308 122.25C188.308 122.25 187.991 121.297 188.626 120.901C189.34 120.504 190.769 121.218 190.69 121.297C189.817 121.377 188.943 121.774 188.308 122.25Z" fill="#EFB135"/>
<path d="M190.134 122.408C189.499 122.567 188.388 122.249 188.309 122.249C188.944 121.773 189.817 121.376 190.77 121.297C190.77 121.297 190.77 122.249 190.134 122.408Z" fill="#FCC34F"/>
<path d="M188.308 122.408C188.308 122.408 188.229 123.281 188.705 123.837C189.181 124.313 190.055 124.552 190.055 124.552C189.658 123.758 189.023 123.043 188.308 122.408Z" fill="#FCC34F"/>
<path d="M189.976 123.123C189.499 122.408 188.309 122.408 188.309 122.408C189.023 123.043 189.658 123.758 190.055 124.552C190.055 124.552 190.452 123.758 189.976 123.123Z" fill="#EFB135"/>
<path d="M190.532 122.885C190.532 122.885 190.453 121.853 191.246 121.853C192.04 121.774 193.39 123.123 193.31 123.203C192.278 122.806 191.326 122.726 190.532 122.885Z" fill="#EFB135"/>
<path d="M192.357 123.837C191.643 123.678 190.531 122.884 190.531 122.884C191.325 122.725 192.278 122.805 193.389 123.122C193.389 123.202 193.151 123.995 192.357 123.837Z" fill="#FCC34F"/>
<path d="M190.531 123.043C190.531 123.043 190.214 123.837 190.531 124.472C190.849 125.107 191.722 125.742 191.722 125.742C191.484 124.869 191.087 123.916 190.531 123.043Z" fill="#FCC34F"/>
<path d="M192.04 124.394C191.722 123.521 190.452 122.965 190.531 122.965C191.087 123.838 191.484 124.791 191.722 125.743C191.722 125.743 192.357 125.267 192.04 124.394Z" fill="#EFB135"/>
<path d="M182.196 127.887C182.196 127.887 181.402 127.887 181.164 126.855C180.926 125.743 181.719 124.314 181.719 124.394C181.64 125.664 181.799 126.855 182.196 127.887Z" fill="#EFB135"/>
<path d="M182.513 125.665C182.593 126.538 182.196 127.887 182.196 127.887C181.878 126.776 181.64 125.585 181.719 124.395C181.64 124.395 182.434 124.791 182.513 125.665Z" fill="#FCC34F"/>
<path d="M182.275 127.967C182.275 127.967 182.989 128.443 183.466 128.046C183.942 127.649 184.18 126.617 184.18 126.617C183.545 126.776 182.831 127.252 182.275 127.967Z" fill="#FCC34F"/>
<path d="M183.069 126.141C182.434 126.459 182.275 127.967 182.275 127.967C182.831 127.253 183.545 126.776 184.18 126.618C184.18 126.618 183.624 125.824 183.069 126.141Z" fill="#EFB135"/>
<path d="M182.91 125.345C182.91 125.345 182.116 125.028 182.116 124.075C182.116 123.043 183.228 122.17 183.307 122.17C182.989 123.202 182.91 124.313 182.91 125.345Z" fill="#EFB135"/>
<path d="M183.784 123.599C183.625 124.393 182.91 125.266 182.91 125.345C182.831 124.313 182.99 123.202 183.307 122.17C183.307 122.17 183.942 122.805 183.784 123.599Z" fill="#FCC34F"/>
<path d="M183.069 125.424C183.069 125.424 183.625 126.139 184.26 125.98C184.815 125.821 185.292 125.107 185.371 125.107C184.577 125.027 183.783 125.107 183.069 125.424Z" fill="#FCC34F"/>
<path d="M184.26 124.234C183.545 124.234 182.99 125.425 183.069 125.505C183.863 125.187 184.577 125.108 185.292 125.187C185.292 125.187 184.895 124.234 184.26 124.234Z" fill="#EFB135"/>
<path d="M184.339 123.52C184.339 123.52 183.625 122.885 183.942 122.091C184.26 121.218 185.53 120.821 185.53 120.901C184.974 121.694 184.577 122.568 184.339 123.52Z" fill="#EFB135"/>
<path d="M185.609 122.329C185.212 122.964 184.26 123.519 184.26 123.519C184.498 122.567 184.895 121.694 185.451 120.82C185.53 120.82 186.006 121.694 185.609 122.329Z" fill="#FCC34F"/>
<path d="M184.418 123.678C184.418 123.678 184.815 124.551 185.45 124.71C186.006 124.789 186.721 124.313 186.721 124.392C186.006 123.916 185.212 123.678 184.418 123.678Z" fill="#FCC34F"/>
<path d="M185.927 123.042C185.212 122.804 184.418 123.598 184.418 123.678C185.212 123.678 186.006 123.916 186.721 124.313C186.721 124.313 186.562 123.281 185.927 123.042Z" fill="#EFB135"/>
<path d="M189.975 133.92C189.975 133.92 190.054 134.952 190.848 135.111C191.642 135.349 192.674 134.317 192.674 134.317C191.722 134.396 190.848 134.237 189.975 133.92Z" fill="#EFB135"/>
<path d="M191.642 133.365C190.928 133.365 190.055 133.921 190.055 133.921C190.849 134.238 191.801 134.397 192.754 134.318C192.674 134.318 192.357 133.365 191.642 133.365Z" fill="#FCC34F"/>
<path d="M189.975 133.762C189.975 133.762 189.499 132.889 189.817 132.333C190.055 131.778 190.769 131.381 190.849 131.381C190.69 132.175 190.372 132.969 189.975 133.762Z" fill="#FCC34F"/>
<path d="M191.245 132.73C191.086 133.524 189.975 133.841 189.975 133.762C190.451 132.968 190.69 132.174 190.769 131.301C190.769 131.301 191.404 131.936 191.245 132.73Z" fill="#EFB135"/>
<path d="M191.881 132.808C191.881 132.808 192.198 133.761 192.992 133.681C193.786 133.602 194.501 132.094 194.421 132.094C193.548 132.57 192.675 132.808 191.881 132.808Z" fill="#EFB135"/>
<path d="M193.151 131.618C192.516 131.856 191.801 132.809 191.801 132.809C192.595 132.809 193.548 132.571 194.342 132.094C194.421 132.094 193.865 131.3 193.151 131.618Z" fill="#FCC34F"/>
<path d="M191.801 132.65C191.801 132.65 191.166 132.014 191.246 131.3C191.325 130.586 191.881 129.95 191.881 129.871C191.96 130.744 191.96 131.776 191.801 132.65Z" fill="#FCC34F"/>
<path d="M192.674 131.142C192.754 132.015 191.801 132.73 191.801 132.73C191.96 131.777 192.039 130.825 191.881 129.951C191.801 129.872 192.595 130.269 192.674 131.142Z" fill="#EFB135"/>
<path d="M193.23 130.903C193.23 130.903 193.786 131.777 194.421 131.3C195.136 130.903 195.374 128.998 195.294 128.998C194.739 129.951 193.945 130.586 193.23 130.903Z" fill="#EFB135"/>
<path d="M194.104 129.078C193.627 129.713 193.23 130.904 193.23 130.904C194.024 130.507 194.739 129.951 195.294 128.998C195.294 128.998 194.58 128.443 194.104 129.078Z" fill="#FCC34F"/>
<path d="M193.151 130.824C193.151 130.824 192.437 130.427 192.278 129.633C192.198 128.919 192.516 127.887 192.516 127.887C192.834 128.839 193.072 129.792 193.151 130.824Z" fill="#FCC34F"/>
<path d="M193.548 128.84C193.786 129.713 193.151 130.904 193.151 130.904C193.071 129.872 192.833 128.84 192.516 127.967C192.436 127.967 193.23 127.967 193.548 128.84Z" fill="#EFB135"/>
<path d="M183.545 132.016C183.545 132.016 182.91 132.492 183.307 133.445C183.784 134.477 185.212 135.112 185.212 135.112C184.498 134.08 183.942 133.048 183.545 132.016Z" fill="#EFB135"/>
<path d="M185.133 133.603C184.657 132.889 183.545 132.095 183.545 132.016C183.942 133.127 184.498 134.159 185.212 135.112C185.212 135.112 185.609 134.318 185.133 133.603Z" fill="#FCC34F"/>
<path d="M183.625 131.856C183.625 131.856 183.863 131.062 184.578 131.062C185.213 131.142 186.006 131.777 186.006 131.777C185.292 132.015 184.498 132.094 183.625 131.856Z" fill="#FCC34F"/>
<path d="M185.292 132.889C184.577 133.047 183.545 131.857 183.545 131.857C184.419 132.095 185.213 132.015 185.927 131.777C185.927 131.777 186.006 132.809 185.292 132.889Z" fill="#EFB135"/>
<path d="M185.689 133.523C185.689 133.523 185.213 134.317 185.848 135.032C186.483 135.826 187.912 135.905 187.912 135.826C187.039 135.191 186.245 134.397 185.689 133.523Z" fill="#EFB135"/>
<path d="M187.435 134.397C186.8 133.841 185.689 133.603 185.689 133.523C186.245 134.397 187.038 135.191 187.912 135.826C187.912 135.826 188.071 134.952 187.435 134.397Z" fill="#FCC34F"/>
<path d="M185.69 133.443C185.69 133.443 185.69 132.491 186.246 132.253C186.801 132.014 187.595 132.332 187.675 132.332C187.198 132.808 186.484 133.205 185.69 133.443Z" fill="#FCC34F"/>
<path d="M187.436 133.682C186.881 134.079 185.69 133.443 185.69 133.443C186.484 133.285 187.119 132.888 187.675 132.332C187.675 132.332 187.913 133.285 187.436 133.682Z" fill="#EFB135"/>
<path d="M187.912 134.158C187.912 134.158 187.753 135.111 188.467 135.587C189.182 136.143 190.531 135.587 190.531 135.587C189.499 135.27 188.626 134.793 187.912 134.158Z" fill="#EFB135"/>
<path d="M189.658 134.316C189.023 133.998 187.912 134.157 187.912 134.157C188.626 134.792 189.499 135.268 190.452 135.586C190.452 135.586 190.373 134.633 189.658 134.316Z" fill="#FCC34F"/>
<path d="M187.912 133.999C187.912 133.999 187.674 133.046 188.07 132.57C188.467 132.094 189.341 132.094 189.341 132.094C189.023 132.808 188.547 133.523 187.912 133.999Z" fill="#FCC34F"/>
<path d="M189.42 133.602C189.023 134.237 187.832 134.078 187.832 133.999C188.467 133.443 188.943 132.808 189.261 132.094C189.34 132.094 189.817 132.967 189.42 133.602Z" fill="#EFB135"/>
<path d="M168.094 152.013L157.801 121.305L152.683 123.02L162.976 153.728L168.094 152.013Z" fill="#846C5D"/>
<path d="M142.501 122.09L155.368 160.475L166.657 156.69L153.791 118.305L142.501 122.09Z" fill="#846C5D"/>
<path d="M147.762 127.514L156.339 153.104L162.511 151.035L153.933 125.445L147.762 127.514Z" fill="#FCC34F"/>
<path d="M195.771 250.852C192.913 250.217 191.008 248.709 189.738 247.042L184.578 254.266L179.815 234.182C178.386 228.545 172.194 224.02 166.24 220.924C152.824 224.894 153.3 212.748 153.538 210.366C150.918 194.648 162.429 181.312 172.511 168.769L161.238 164.879C118.45 203.936 114.481 268.873 114.481 268.873L166.399 276.573C158.301 266.888 167.431 261.649 162.826 261.093C161.874 261.014 164.255 259.108 164.414 258.156C164.573 257.283 163.62 256.648 163.858 255.854C165.763 249.9 169.574 246.883 169.574 246.883C169.891 271.969 185.689 277.605 185.689 277.605L195.771 250.852Z" fill="#3AC1B0"/>
<path d="M156.872 227.673C156.317 227.514 155.761 227.673 155.602 228.149C155.444 228.546 155.84 229.022 156.396 229.181C156.952 229.34 157.508 229.181 157.666 228.705C157.746 228.308 157.428 227.832 156.872 227.673ZM154.412 234.341C154.57 233.944 154.173 233.468 153.618 233.309C153.062 233.15 152.506 233.309 152.348 233.785C152.189 234.182 152.586 234.659 153.141 234.817C153.776 234.897 154.332 234.738 154.412 234.341ZM153.935 241.248C153.38 241.248 152.903 241.565 152.903 242.041C152.903 242.518 153.38 242.835 153.935 242.835C154.491 242.835 154.967 242.518 154.967 242.041C154.967 241.565 154.491 241.248 153.935 241.248ZM153.141 247.598C152.744 247.757 152.586 248.313 152.824 248.868C153.062 249.424 153.538 249.742 153.935 249.583C154.332 249.424 154.491 248.869 154.253 248.313C154.015 247.757 153.538 247.44 153.141 247.598ZM148.299 252.917C147.823 252.6 147.188 252.679 146.949 253.076C146.711 253.473 146.949 254.028 147.505 254.267C147.981 254.584 148.616 254.505 148.855 254.108C149.013 253.711 148.775 253.155 148.299 252.917Z" fill="#4ADDC7"/>
<path d="M147.664 260.537L147.505 259.743C149.172 259.346 149.331 255.774 149.172 254.424V254.266L151.315 251.487L151.395 251.408C151.474 251.408 156.158 249.264 157.269 248.47C157.507 248.153 156.793 246.089 156.237 244.66C155.285 242.12 154.173 238.944 154.253 236.325C154.411 232.117 157.349 229.736 158.301 229.021L157.11 226.322L157.507 226.163C157.507 226.163 159.651 225.37 160.603 224.655C160.762 224.576 160.762 224.417 160.762 224.417C160.762 224.02 160.127 223.385 159.809 223.147L160.286 222.512C160.445 222.591 161.556 223.464 161.556 224.417C161.556 224.734 161.397 225.052 161.08 225.29C160.286 225.925 158.857 226.481 158.222 226.798L159.413 229.339L159.095 229.498C159.095 229.498 155.285 231.8 155.126 236.325C155.046 238.786 156.158 241.882 157.031 244.342C157.984 246.962 158.539 248.55 157.746 249.106C156.634 249.82 152.506 251.725 151.792 252.043L149.966 254.424C150.045 255.377 150.125 259.902 147.664 260.537Z" fill="#39AA99"/>
<path d="M190.77 250.615L180.45 270.064C169.733 255.537 170.289 241.883 170.289 241.883C165.526 265.143 185.213 276.653 185.213 276.653L193.787 253.235L190.77 250.615Z" fill="#39AA99"/>
<path d="M118.371 267.047C118.609 270.223 121.785 265.698 121.785 265.698C121.785 265.698 122.34 252.758 122.023 251.17C121.864 249.583 118.371 267.047 118.371 267.047Z" fill="#39AA99"/>
<path d="M162.033 260.697C161.715 257.839 107.813 231.96 163.223 180.121C163.223 180.121 150.442 184.249 150.681 181.153C151.078 175.835 153.697 172.342 153.697 172.342C144.727 182.185 127.262 210.526 132.263 234.103C137.741 260.379 153.777 260.776 153.777 260.776C153.777 260.776 141.472 256.648 139.646 242.121C139.567 242.121 144.886 254.822 162.033 260.697Z" fill="#39AA99"/>
<path d="M157.111 224.576C157.905 224.814 154.491 221.877 154.015 220.29C153.618 218.94 153.856 217.829 154.253 217.035C153.459 215.05 153.3 212.827 153.38 211.398C151.474 213.462 145.521 220.528 145.521 226.402C145.521 226.402 149.013 216.558 152.586 215.765C152.586 215.765 150.998 222.512 157.111 224.576Z" fill="#39AA99"/>
<path d="M167.907 241.883C161.953 250.218 152.983 244.264 152.983 244.264L162.747 255.775C162.747 255.775 165.367 247.995 169.257 244.423L172.273 236.484C172.273 236.484 169.177 240.136 167.907 241.883Z" fill="#39AA99"/>
<path d="M178.465 255.14L184.022 252.6L176.48 254.346L178.068 261.729L178.465 255.14Z" fill="#39AA99"/>
<path d="M160.286 220.527L160.762 219.495L163.461 218.305L166.795 219.575L168.939 222.75C168.939 222.75 162.905 222.909 161.318 222.115C159.651 221.321 160.286 220.527 160.286 220.527Z" fill="#39AA99"/>
<path d="M158.619 221.083L163.144 218.701L164.731 224.973L170.606 223.226L170.288 218.622L163.223 217.828L158.619 221.083Z" fill="#4ADDC7"/>
<path d="M161.873 221.004C161.873 221.004 174.972 236.405 189.737 227.434C189.737 227.434 183.704 235.452 176.639 234.023C169.574 232.594 162.35 225.688 161.238 221.877L161.873 221.004Z" fill="#DB7631"/>
<path d="M160.365 219.892C160.365 219.892 170.13 249.502 196.326 225.449C196.326 225.449 198.152 222.591 197.835 214.255C197.835 213.779 197.358 213.541 196.962 213.779L188.944 218.542C188.944 218.542 185.61 236.959 172.829 232.037C163.779 228.624 160.365 219.892 160.365 219.892Z" fill="#B64E00"/>
<path d="M157.19 220.13C157.19 220.13 159.571 218.305 160.921 219.098C162.271 219.892 163.223 221.401 163.223 221.401L161.635 222.909C161.635 222.909 158.857 222.75 157.19 220.13Z" fill="#B64E00"/>
<path d="M155.999 216.32C155.999 216.32 155.999 218.94 158.619 220.528C158.619 220.528 160.683 221.639 159.571 221.877C158.46 222.115 156.634 220.766 155.84 218.622C155.046 216.479 155.999 216.32 155.999 216.32Z" fill="#DB7631"/>
<path d="M157.111 220.607L159.572 216.083L154.253 209.652L153.459 210.049C153.459 210.129 152.745 218.543 157.111 220.607Z" fill="#4ADDC7"/>
<path d="M161.159 164.88L172.432 168.77C177.036 162.975 181.481 158.37 184.101 155.751L188.944 155.036L190.769 152.893H192.119C192.119 152.893 192.913 152.258 192.754 151.702C192.119 149.876 190.928 150.591 190.452 149.638C189.579 147.891 188.626 145.907 188.229 145.113C187.753 143.843 187.753 142.096 186.006 142.334C175.845 143.525 180.052 150.273 177.592 152.575C170.764 156.783 164.652 161.546 159.174 166.785C159.809 166.071 160.444 165.515 161.159 164.88Z" fill="#EABFA5"/>
<path d="M199.263 230.77H188.308L185.53 234.342C185.53 234.342 185.768 236.565 187.514 236.962C188.308 237.12 188.785 236.565 189.023 235.93C189.34 238.39 192.119 241.407 192.992 242.36L189.658 247.043C190.928 248.71 192.913 250.219 195.691 250.854L198.628 243.154C200.692 238.47 199.263 230.77 199.263 230.77Z" fill="#EABFA5"/>
<path d="M114.163 265.458C114.163 265.458 129.247 250.614 165.684 264.03L164.176 268.078C164.176 268.078 198.867 283.955 207.679 311.184L158.698 331.11L163.303 345.319C163.303 345.319 161.318 348.098 157.507 343.97C153.697 339.842 146.87 324.521 146.87 324.521L184.26 303.007C184.26 303.007 164.493 285.305 142.821 289.988C142.821 289.988 119.562 325.156 128.929 371.516C128.929 371.516 129.882 394.141 123.372 393.03C116.942 391.918 120.752 371.675 120.752 371.675C120.752 371.675 100.192 326.902 114.163 265.458Z" fill="#333333"/>
<path d="M163.62 160.354C163.62 160.354 169.733 152.972 175.528 166.149L170.526 173.532C170.526 173.532 164.97 164.244 156.793 166.943L163.62 160.354Z" fill="#4ADDC7"/>
<path d="M188.547 246.01C188.547 246.01 192.834 250.932 197.676 250.376L193.627 261.49C193.627 261.49 186.642 261.649 183.784 251.567L188.547 246.01Z" fill="#4ADDC7"/>
<path opacity="0.2" d="M143.932 411.765C141.233 405.018 139.011 398.032 137.105 391.046C135.2 383.981 133.692 376.915 132.422 369.691L131.628 364.293L130.993 358.895C130.755 357.069 130.596 355.243 130.516 353.418C130.358 351.592 130.199 349.766 130.199 347.94C129.881 340.637 130.199 333.333 131.072 326.109L130.755 331.587C130.675 332.46 130.596 333.413 130.596 334.286V336.985V339.684C130.596 340.557 130.596 341.51 130.596 342.383L130.834 347.861C131.31 355.085 132.025 362.309 133.374 369.453C134.565 376.598 136.073 383.743 137.899 390.728C138.773 394.221 139.725 397.794 140.836 401.207C141.63 404.859 142.742 408.352 143.932 411.765Z" fill="#333333"/>
<path opacity="0.2" d="M146.235 397.634C144.965 394.856 143.853 391.998 142.901 389.14C141.869 386.282 141.075 383.345 140.281 380.408C139.487 377.47 138.852 374.454 138.296 371.517C137.741 368.5 137.423 365.483 137.185 362.467C137.503 363.975 137.661 365.483 137.979 366.992L138.376 369.214L138.852 371.437C139.487 374.375 140.202 377.391 140.996 380.249C141.71 383.186 142.583 386.123 143.456 388.981C143.853 390.41 144.33 391.918 144.806 393.347C145.203 394.697 145.679 396.126 146.235 397.634Z" fill="#333333"/>
<g opacity="0.3">
<path opacity="0.3" d="M209.504 299.674C211.171 302.294 212.68 304.993 214.188 307.692C215.696 310.391 217.205 313.09 218.634 315.789L219.031 316.503L218.316 316.821C216.173 317.773 214.109 318.726 211.965 319.679C209.822 320.631 207.679 321.505 205.615 322.378C201.328 324.124 197.041 325.871 192.675 327.379C196.723 325.156 200.931 323.092 205.059 321.108C207.123 320.155 209.266 319.123 211.33 318.17C213.474 317.218 215.538 316.265 217.681 315.392L217.284 316.424C215.935 313.645 214.585 310.867 213.235 308.089C211.965 305.31 210.695 302.532 209.504 299.674Z" fill="#333333"/>
</g>
<path d="M87.0935 103.992C85.1883 102.087 83.7594 100.499 83.68 97.7205C83.6006 95.3389 84.2357 92.9574 84.2357 90.4965C84.2357 88.9882 81.8541 88.9882 81.8541 90.4965C81.7747 93.5925 80.8221 96.8472 81.5366 99.9432C82.0923 102.325 83.68 103.992 85.4264 105.659C86.4584 106.77 88.2049 105.103 87.0935 103.992Z" fill="#3AC1B0"/>
<path d="M94.0795 145.829C93.762 146.623 92.6506 147.258 91.9361 147.734C91.0629 148.29 90.1897 148.845 89.3165 149.322C88.0463 150.116 89.2371 152.18 90.5072 151.386C92.5712 150.116 95.4291 148.845 96.3817 146.464C96.9374 145.035 94.6352 144.4 94.0795 145.829Z" fill="#3AC1B0"/>
<path d="M48.6713 135.509C47.798 136.62 47.0836 138.049 47.8774 139.478C48.6713 140.986 49.862 140.827 51.2116 140.907C51.0528 142.177 50.1796 143.447 50.0208 144.638C49.862 145.828 50.1796 146.702 50.9734 147.575C52.0054 148.686 53.6725 147.019 52.6405 145.908C51.7673 144.955 52.958 143.129 53.2756 142.177C53.5137 141.304 53.5931 140.51 53.4343 139.636C53.355 139.24 52.958 138.922 52.6405 138.843C51.5291 138.604 49.6239 139.081 50.3383 137.334C50.8146 136.302 53.0374 134.477 54.1488 135.429C55.2602 136.461 56.9273 134.794 55.8159 133.762C53.4343 131.381 50.4177 133.286 48.6713 135.509Z" fill="#3AC1B0"/>
<path d="M237.289 106.374C237.448 106.453 237.607 106.453 237.765 106.532C238.004 106.612 238.242 106.612 238.48 106.532C238.559 106.532 238.559 106.612 238.639 106.612C238.718 106.691 238.797 106.691 238.718 106.612C238.797 106.691 238.797 106.691 238.877 106.77C239.353 107.247 240.147 107.247 240.544 106.77C241.02 106.294 241.02 105.58 240.544 105.103C239.75 104.23 238.48 103.754 237.289 104.071C236.178 104.468 236.178 106.056 237.289 106.374Z" fill="#3AC1B0"/>
<path d="M240.941 137.652C239.432 138.208 237.289 139.319 235.384 139.636C236.892 138.128 239.115 136.54 240.623 136.223C242.132 135.826 241.496 133.524 239.988 133.921C238.083 134.397 236.733 135.667 235.225 136.858C233.876 137.811 232.764 138.684 232.05 140.192C231.732 140.827 231.97 141.7 232.764 141.939C234.669 142.415 236.813 141.859 238.797 141.065C238.083 141.78 237.368 142.494 237.051 143.05C236.257 144.4 235.463 146.067 235.463 147.734C235.543 149.242 237.924 149.242 237.845 147.734C237.686 143.923 242.608 142.256 242.528 138.763C242.449 138.049 241.655 137.334 240.941 137.652Z" fill="#3AC1B0"/>
<path d="M258.882 182.108V176.313C258.882 174.805 256.5 174.805 256.5 176.313V182.108C256.5 183.696 258.882 183.696 258.882 182.108Z" fill="#3AC1B0"/>
<path d="M266.741 201.557C266.026 201.557 265.312 201.874 264.835 202.43C264.439 202.906 264.359 203.621 264.835 204.097C265.232 204.494 266.106 204.573 266.503 204.097C266.582 204.018 266.582 204.018 266.661 203.938C266.661 203.938 266.661 203.938 266.741 203.938C267.376 203.938 267.931 203.382 267.931 202.747C267.852 202.112 267.376 201.557 266.741 201.557Z" fill="#3AC1B0"/>
<path d="M44.7812 219.18C44.5431 218.624 44.1462 218.227 43.4317 217.91C42.7966 217.592 42.0822 217.592 41.3677 217.433C40.4151 217.275 39.5419 216.957 38.5892 216.957C37.0809 216.957 37.0809 219.339 38.5892 219.339C39.5419 219.339 40.4945 219.656 41.3677 219.815C42.0028 219.894 42.7966 219.894 42.6379 220.688C42.4791 221.72 43.7492 222.911 44.6225 221.879C44.8606 221.561 45.1782 221.244 45.3369 220.847C45.972 220.132 45.4957 219.418 44.7812 219.18Z" fill="#3AC1B0"/>
<path d="M86.4586 191.315L85.4266 192.347C84.9503 192.824 84.9503 193.538 85.4266 194.014C85.9029 194.491 86.6173 194.491 87.0936 194.014C87.4112 193.697 87.8081 193.3 88.1256 192.982C88.6019 192.506 88.6019 191.792 88.1256 191.315C87.7287 190.918 86.9349 190.918 86.4586 191.315Z" fill="#3AC1B0"/>
<path d="M298.177 101.611C295.557 102.564 292.62 104.231 291.747 107.089C290.874 109.867 293.811 111.375 296.113 111.852C297.621 112.169 298.256 109.867 296.748 109.55C296.034 109.391 295.319 109.232 294.684 108.835C293.811 108.2 294.049 107.644 294.605 106.851C295.637 105.422 297.224 104.548 298.892 103.993C300.241 103.358 299.606 101.055 298.177 101.611Z" fill="#3AC1B0"/>
<path d="M304.369 130.269C303.813 129.952 303.019 130.11 302.702 130.666C302.543 130.984 302.384 131.381 302.146 131.698C301.829 132.254 301.987 132.968 302.543 133.365C303.099 133.683 303.893 133.524 304.21 132.968C304.369 132.651 304.528 132.254 304.766 131.936C305.083 131.381 304.925 130.666 304.369 130.269Z" fill="#3AC1B0"/>
<path d="M294.208 201.557C292.7 201.557 292.7 203.938 294.208 203.938C295.796 203.938 295.796 201.557 294.208 201.557Z" fill="#3AC1B0"/>
<path d="M282.539 251.171C282.38 252.124 282.3 253.156 282.142 254.188C281.983 255.061 281.903 256.41 281.268 257.045C280.157 258.077 281.824 259.745 282.935 258.713C284.761 257.125 284.444 254.029 284.841 251.806C285.079 250.298 282.777 249.663 282.539 251.171Z" fill="#3AC1B0"/>
<path d="M237.765 239.502C237.368 239.422 237.051 239.264 236.654 239.184C236.575 239.184 236.495 239.105 236.495 239.105C236.654 239.264 235.939 239.264 236.495 239.105C236.416 239.026 236.336 239.026 236.257 238.946C236.336 239.026 236.416 239.025 236.495 239.025C236.813 238.867 237.21 238.47 237.527 238.232C237.924 237.993 238.321 237.835 238.718 237.597C240.147 236.962 238.877 234.977 237.527 235.533C235.939 236.247 232.923 237.914 234.193 240.058C234.749 240.931 235.781 241.328 236.733 241.566C237.606 241.804 238.638 241.804 238.48 242.915C238.321 244.424 240.702 244.424 240.861 242.915C241.179 240.851 239.512 239.978 237.765 239.502Z" fill="#3AC1B0"/>
<path d="M70.5814 278.163C69.9463 278.718 68.5174 278.321 67.7235 278.321C66.2152 278.321 66.2152 280.703 67.7235 280.703C69.3112 280.703 70.9783 281.02 72.2484 279.83C73.4392 278.798 71.6927 277.131 70.5814 278.163Z" fill="#3AC1B0"/>
<path d="M126.706 175.2C126.071 175.359 125.674 176.073 125.913 176.629C126.071 177.264 126.706 177.502 127.262 177.502C127.262 177.502 127.342 177.502 127.342 177.582C127.58 177.661 127.659 177.82 127.818 177.899C128.135 178.217 128.453 178.534 128.85 178.772C129.326 179.169 130.041 179.249 130.517 178.772C130.914 178.375 130.993 177.502 130.517 177.105C129.326 176.153 128.294 174.803 126.706 175.2Z" fill="#3AC1B0"/>
<path d="M140.758 89.3066C140.678 88.7509 140.122 88.4333 139.646 88.4333C138.535 88.354 137.344 88.9097 136.471 89.6241C135.994 90.021 135.677 90.6561 136.074 91.2912C136.391 91.7675 137.185 92.085 137.741 91.6881C138.058 91.45 138.455 91.2118 138.852 91.053C138.932 91.053 138.932 91.053 139.011 90.9736C139.329 91.2118 139.805 91.3706 140.122 91.2118C140.758 91.053 141.075 90.418 140.916 89.7829C140.837 89.5447 140.837 89.386 140.758 89.3066Z" fill="#3AC1B0"/>
<path d="M7.3913 102.088C5.883 102.008 4.53346 102.644 3.02515 102.644C1.35807 102.644 -0.309004 102.723 -1.8967 101.929C-3.08746 101.294 -4.35762 102.882 -3.32562 103.834C-3.24623 103.914 -3.08747 104.072 -3.00808 104.152C-2.69054 104.39 -2.373 104.469 -2.05547 104.469C-0.864697 104.946 0.326072 105.025 1.75499 105.025C2.70761 105.025 3.73961 105.104 4.69223 104.946C5.64484 104.787 6.43869 104.39 7.3913 104.469C8.89961 104.549 8.89961 102.167 7.3913 102.088Z" fill="#3AC1B0"/>
<path d="M2.54863 180.6C0.643399 181.87 -1.81753 182.743 -2.77014 185.045C-3.0083 185.68 -2.53199 186.315 -1.9763 186.474C-1.26183 186.633 -0.785524 186.236 -0.547369 185.68C-0.229831 184.966 0.802169 184.489 1.35786 184.093C2.15171 183.616 2.94556 183.219 3.66002 182.664C5.00956 181.79 3.81879 179.726 2.54863 180.6Z" fill="#3AC1B0"/>
<path d="M16.6791 266.175C15.0914 265.937 13.7418 264.905 12.1541 265.063C11.5191 265.143 10.9634 265.54 10.9634 266.254C10.9634 266.81 11.5191 267.524 12.1541 267.445C13.5037 267.286 14.7738 268.318 16.044 268.477C16.6791 268.556 17.3141 268.318 17.4729 267.683C17.7111 267.127 17.3141 266.254 16.6791 266.175Z" fill="#3AC1B0"/>
<path d="M260.867 298.962C259.12 299.2 258.247 300.549 257.056 301.74C255.945 302.851 255.071 303.963 254.516 305.471C253.246 305.868 253.881 308.011 255.31 307.694C255.468 307.694 255.627 307.614 255.707 307.614C256.103 307.535 256.421 307.138 256.5 306.821C256.818 305.55 257.532 304.677 258.406 303.725C258.961 303.169 259.914 301.581 260.708 301.422C262.375 301.184 262.375 298.723 260.867 298.962Z" fill="#3AC1B0"/>
<path d="M266.82 338.256C266.106 337.939 265.391 337.542 264.677 337.224C264.121 336.907 263.406 337.066 263.009 337.621C262.692 338.177 262.851 338.971 263.406 339.288C264.121 339.606 264.835 340.003 265.55 340.32C266.106 340.638 266.82 340.479 267.217 339.923C267.534 339.368 267.376 338.574 266.82 338.256Z" fill="#3AC1B0"/>
<path d="M296.351 292.135C295.398 293.802 294.049 295.151 292.858 296.66C291.906 297.851 293.573 299.518 294.525 298.327C295.875 296.739 297.304 295.151 298.415 293.326C299.209 292.055 297.145 290.865 296.351 292.135Z" fill="#3AC1B0"/>
<path d="M323.024 189.251C321.754 190.521 322.151 192.189 322.151 193.776C322.151 195.285 324.533 195.285 324.533 193.776C324.533 192.982 324.136 191.474 324.691 190.918C325.803 189.807 324.136 188.14 323.024 189.251Z" fill="#3AC1B0"/>
<path d="M14.7742 333.336H10.0111C8.50281 333.336 8.50281 335.717 10.0111 335.717H14.7742C16.3619 335.717 16.3619 333.336 14.7742 333.336Z" fill="#3AC1B0"/>
<path d="M50.1001 329.762C50.1001 333.89 50.894 338.177 48.6712 341.829C47.8774 343.178 49.9414 344.369 50.7352 343.02C53.1961 338.892 52.4817 334.287 52.4817 329.683C52.4817 328.254 50.1001 328.254 50.1001 329.762Z" fill="#3AC1B0"/>
<path d="M46.5277 369.852C45.0194 369.852 45.0194 372.233 46.5277 372.233C48.1154 372.233 48.1154 369.852 46.5277 369.852Z" fill="#3AC1B0"/>
</g>
</g>
<defs>
<linearGradient id="paint0_linear" x1="850.346" y1="344.651" x2="1016.45" y2="344.651" gradientUnits="userSpaceOnUse">
<stop stop-color="#FB571D"/>
<stop offset="1" stop-color="#FACC2C"/>
</linearGradient>
<linearGradient id="paint1_linear" x1="917.959" y1="393.814" x2="938.941" y2="393.814" gradientUnits="userSpaceOnUse">
<stop stop-color="#FB571D"/>
<stop offset="1" stop-color="#FACC2C"/>
</linearGradient>
<linearGradient id="paint2_linear" x1="865.147" y1="332.438" x2="917.959" y2="332.438" gradientUnits="userSpaceOnUse">
<stop stop-color="#FB571D"/>
<stop offset="1" stop-color="#FACC2C"/>
</linearGradient>
<linearGradient id="paint3_linear" x1="1022.57" y1="284.505" x2="1008.47" y2="273.858" gradientUnits="userSpaceOnUse">
<stop stop-color="#FD2371"/>
<stop offset="1" stop-color="#FD6747"/>
</linearGradient>
<linearGradient id="paint4_linear" x1="1060.87" y1="195.169" x2="1013.88" y2="144.369" gradientUnits="userSpaceOnUse">
<stop stop-color="#FD2371"/>
<stop offset="1" stop-color="#FD6747"/>
</linearGradient>
<linearGradient id="paint5_linear" x1="996.778" y1="270.469" x2="980.357" y2="262.432" gradientUnits="userSpaceOnUse">
<stop stop-color="#FD2371"/>
<stop offset="1" stop-color="#FD6747"/>
</linearGradient>
<linearGradient id="paint6_linear" x1="965.249" y1="256.284" x2="949.105" y2="251.106" gradientUnits="userSpaceOnUse">
<stop stop-color="#FD2371"/>
<stop offset="1" stop-color="#FD6747"/>
</linearGradient>
<linearGradient id="paint7_linear" x1="158.49" y1="282.012" x2="158.49" y2="106.388" gradientUnits="userSpaceOnUse">
<stop stop-color="white"/>
<stop offset="0.9952" stop-color="#3AC1B0" stop-opacity="0"/>
</linearGradient>
<linearGradient id="paint8_linear" x1="158.49" y1="248.969" x2="158.49" y2="424.592" gradientUnits="userSpaceOnUse">
<stop stop-color="white"/>
<stop offset="0.9952" stop-color="#3AC1B0" stop-opacity="0"/>
</linearGradient>
<linearGradient id="paint9_linear" x1="141.969" y1="265.49" x2="317.592" y2="265.49" gradientUnits="userSpaceOnUse">
<stop stop-color="white"/>
<stop offset="0.9952" stop-color="#3AC1B0" stop-opacity="0"/>
</linearGradient>
<linearGradient id="paint10_linear" x1="175.012" y1="265.49" x2="-0.611531" y2="265.49" gradientUnits="userSpaceOnUse">
<stop stop-color="white"/>
<stop offset="0.9952" stop-color="#3AC1B0" stop-opacity="0"/>
</linearGradient>
<linearGradient id="paint11_linear" x1="146.807" y1="277.174" x2="270.992" y2="152.989" gradientUnits="userSpaceOnUse">
<stop stop-color="white"/>
<stop offset="0.9952" stop-color="#3AC1B0" stop-opacity="0"/>
</linearGradient>
<linearGradient id="paint12_linear" x1="170.173" y1="253.808" x2="45.9882" y2="377.993" gradientUnits="userSpaceOnUse">
<stop stop-color="white"/>
<stop offset="0.9952" stop-color="#3AC1B0" stop-opacity="0"/>
</linearGradient>
<linearGradient id="paint13_linear" x1="146.807" y1="253.808" x2="270.992" y2="377.993" gradientUnits="userSpaceOnUse">
<stop stop-color="white"/>
<stop offset="0.9952" stop-color="#3AC1B0" stop-opacity="0"/>
</linearGradient>
<linearGradient id="paint14_linear" x1="170.173" y1="277.174" x2="45.9882" y2="152.989" gradientUnits="userSpaceOnUse">
<stop stop-color="white"/>
<stop offset="0.9952" stop-color="#3AC1B0" stop-opacity="0"/>
</linearGradient>
<clipPath id="clip0">
<rect width="1110" height="459" rx="10" fill="white"/>
</clipPath>
<clipPath id="clip1">
<rect width="521" height="393" fill="white" transform="translate(589 100)"/>
</clipPath>
<clipPath id="clip2">
<rect width="387" height="387" fill="white" transform="translate(-35 72)"/>
</clipPath>
</defs>
</svg>
