<svg width="80" height="80" viewBox="0 0 80 80" fill="none" xmlns="http://www.w3.org/2000/svg">
<g clip-path="url(#clip0)">
<path d="M80 39.9998C80 40.483 79.9918 40.9646 79.9739 41.443C79.9282 42.7557 79.8171 44.0503 79.6473 45.3271C78.2155 56.0976 72.4964 65.5131 64.263 71.8036C63.2426 72.584 62.1846 73.3155 61.0907 73.9946C54.9683 77.8003 47.7406 79.9995 40.0002 79.9995C39.2492 79.9995 38.5015 79.9783 37.7603 79.9375C34.815 79.7742 31.9546 79.2942 29.2134 78.5269C19.251 75.7448 10.8576 69.2012 5.66086 60.5237C2.06578 54.5237 0.000488281 47.5018 0.000488281 39.9998C0.000488281 37.0283 0.323752 34.132 0.939258 31.3451C2.37435 24.8407 5.39148 18.9289 9.56941 14.0391C16.9065 5.4465 27.8175 0 40.0002 0C46.1569 0 51.9871 1.39101 57.1952 3.87426C64.9519 7.5722 71.3307 13.6962 75.3486 21.2635C76.3494 23.146 77.2033 25.1198 77.8972 27.1672C79.2604 31.1949 80 35.5116 80 39.9998Z" fill="#8EE7FE"/>
<path d="M64.2632 71.8045C63.2428 72.5849 62.1848 73.3163 61.091 73.9955C54.9685 77.8012 47.7408 80.0003 40.0005 80.0003C39.2494 80.0003 38.5017 79.9791 37.7605 79.9383C34.8152 79.775 31.9548 79.295 29.2136 78.5277C28.7238 77.7146 28.4609 76.8559 28.4609 75.9677C28.4609 70.9147 36.9393 66.8184 47.3963 66.8184C54.7514 66.8184 61.1269 68.8445 64.2632 71.8045Z" fill="#EF297B"/>
<path d="M80.0001 39.9992C80.0001 40.4824 79.9919 40.9641 79.9739 41.4424C79.9282 42.7551 79.8172 44.0498 79.6474 45.3265C77.494 46.804 74.8866 47.6693 72.0769 47.6693C64.6744 47.6693 58.6729 41.6677 58.6729 34.2653C58.6729 26.8613 64.6744 20.8613 72.0769 20.8613C73.205 20.8613 74.3021 21.0001 75.3487 21.263C76.3495 23.1454 77.2034 25.1193 77.8972 27.1666C79.2605 31.1943 80.0001 35.511 80.0001 39.9992Z" fill="#EF297B"/>
<path d="M77.8972 27.1679C65.1315 24.4708 49.2717 29.8559 33.9431 34.5311C8.22705 42.3745 6.17139 20.5422 0 15.543C1.43509 9.03856 11.6532 20.2238 33.9431 11.9501C41.7811 9.04068 49.1626 4.8905 57.1952 3.875C66.8833 8.49375 74.4196 16.8953 77.8972 27.1679Z" fill="#FD5B67"/>
<path d="M10.9411 41.3447C5.27032 41.3447 1.01516 54.424 15.4828 54.424C29.9505 54.424 43.6678 36.3393 79.9995 41.4456" fill="#EF297B"/>
<path d="M39.9995 70.4043C56.0481 70.4043 69.0581 57.3943 69.0581 41.3457C69.0581 25.2971 56.0481 12.2871 39.9995 12.2871C23.9509 12.2871 10.9409 25.2971 10.9409 41.3457C10.9409 57.3943 23.9509 70.4043 39.9995 70.4043Z" fill="#FFE26B"/>
<path d="M39.9996 64.5197C52.7987 64.5197 63.1745 54.1439 63.1745 41.3448C63.1745 28.5457 52.7987 18.1699 39.9996 18.1699C27.2005 18.1699 16.8247 28.5457 16.8247 41.3448C16.8247 54.1439 27.2005 64.5197 39.9996 64.5197Z" fill="#FEB247"/>
<path d="M39.9994 61.0222C50.8662 61.0222 59.6755 52.2129 59.6755 41.346C59.6755 30.4792 50.8662 21.6699 39.9994 21.6699C29.1325 21.6699 20.3232 30.4792 20.3232 41.346C20.3232 52.2129 29.1325 61.0222 39.9994 61.0222Z" fill="#FFE26B"/>
<path d="M33.3171 32.0328L32.0918 33.2581C31.7855 33.5262 31.4408 33.6028 31.1728 33.6028C30.2154 33.6028 29.5645 32.6072 29.5645 31.6116C29.5645 30.9223 29.9091 30.1948 30.5218 29.8118L35.0403 26.3654C35.3084 26.1357 35.6531 25.9824 36.0743 25.9824C37.1082 25.9824 38.2953 26.5952 38.2953 27.5907V52.4812C38.2953 53.5151 37.0317 54.0511 35.8062 54.0511C34.5425 54.0511 33.3171 53.515 33.3171 52.4812V32.0328Z" fill="#AF7118"/>
<path d="M79.9742 41.4424C79.8141 45.9714 78.9015 50.3077 77.3554 54.3305C76.5685 56.3811 75.6183 58.3517 74.5179 60.2227C71.2264 65.8308 66.6061 70.5638 61.091 73.994C51.5792 74.794 44.0968 77.2936 37.7605 79.9369C24.1133 79.1842 12.288 71.5891 5.66113 60.5231V47.9697C5.71991 50.3991 7.18112 52.8154 10.9329 53.8701L10.9411 53.8929V53.8717C12.1901 54.2227 13.6937 54.4235 15.4831 54.4235C29.9483 54.4235 43.6609 36.3469 79.9742 41.4424Z" fill="#FD5B67"/>
<path d="M77.3548 54.3312C76.5679 56.3818 75.6177 58.3524 74.5173 60.2234C62.8129 54.9092 39.915 62.5597 39.5967 62.6659C48.6252 57.3679 66.341 53.4414 77.3548 54.3312Z" fill="#EF297B"/>
</g>
<defs>
<clipPath id="clip0">
<rect width="80" height="80" fill="white"/>
</clipPath>
</defs>
</svg>
