<svg width="31" height="30" viewBox="0 0 31 30" fill="none" xmlns="http://www.w3.org/2000/svg">
<path d="M22.8354 13.256C23.573 13.2676 23.9429 13.2722 24.2474 13.456C24.5519 13.6397 24.7369 13.9676 25.1091 14.6281L26.2369 16.6234L27.3331 18.6374C27.694 19.3025 27.8745 19.635 27.8745 19.9978C27.8722 20.3583 27.6873 20.6885 27.3218 21.3467L26.2076 23.3443L25.064 25.3211C24.6873 25.9746 24.4978 26.3001 24.1933 26.4792C23.8865 26.6583 23.5166 26.6583 22.779 26.6583H20.5391L18.297 26.6234C17.5594 26.6118 17.1895 26.6048 16.885 26.4211C16.5805 26.2374 16.3955 25.9094 16.0233 25.2513L14.8955 23.2536L13.7993 21.2397C13.4384 20.5746 13.2579 20.242 13.2579 19.8815C13.2602 19.5188 13.4452 19.1885 13.8106 18.5327L14.9249 16.5327L16.0685 14.556C16.4452 13.9048 16.6346 13.5769 16.9414 13.3978C17.2459 13.2188 17.6158 13.2188 18.3534 13.2188H20.5955L22.8354 13.2536V13.256Z" fill="url(#paint0_linear)"/>
<g filter="url(#filter0_d)">
<path d="M23.8797 21.9391C23.3639 22.842 22.5216 23.4968 21.5379 23.7597C20.5541 24.0227 19.5093 23.8722 18.6331 23.3414C17.7558 22.8132 17.1177 21.9476 16.8588 20.9347C16.6 19.9218 16.7416 18.8444 17.2526 17.9391C17.768 17.0359 18.6101 16.3805 19.5939 16.1172C20.5777 15.8538 21.6227 16.0039 22.4992 16.5345C23.3771 17.0627 24.0157 17.9287 24.2745 18.9422C24.5334 19.9556 24.3914 21.0336 23.8797 21.9391Z" fill="white"/>
</g>
<path fill-rule="evenodd" clip-rule="evenodd" d="M23.2323 21.5492C22.8176 22.2757 22.1401 22.8026 21.3487 23.0141C20.5573 23.2256 19.7168 23.1044 19.012 22.6771C18.6619 22.467 18.3554 22.1877 18.1101 21.8554C17.8647 21.5231 17.6853 21.1441 17.582 20.7403C17.4787 20.3364 17.4536 19.9155 17.5082 19.5017C17.5628 19.0878 17.6959 18.6891 17.9 18.3283C18.3147 17.6019 18.9922 17.0749 19.7836 16.8634C20.575 16.6519 21.4155 16.7731 22.1203 17.2004C22.4704 17.4105 22.7768 17.6898 23.0222 18.0221C23.2676 18.3544 23.447 18.7334 23.5503 19.1372C23.6536 19.5411 23.6786 19.962 23.6241 20.3759C23.5695 20.7897 23.4364 21.1884 23.2323 21.5492ZM19.0955 22.5283C19.7622 22.9326 20.5574 23.0472 21.3061 22.8471C22.0549 22.6469 22.6958 22.1482 23.0879 21.4608C23.4773 20.7719 23.5853 19.9517 23.3882 19.1806C23.1911 18.4096 22.705 17.7508 22.0368 17.3492C21.7066 17.1491 21.3413 17.0181 20.9619 16.9636C20.5825 16.909 20.1964 16.9321 19.8256 17.0314C19.4549 17.1308 19.1068 17.3045 18.8011 17.5425C18.4955 17.7806 18.2383 18.0784 18.0443 18.419C17.6557 19.1077 17.5481 19.9274 17.7452 20.6979C17.9423 21.4684 18.4279 22.1267 19.0955 22.5283Z" fill="url(#paint1_linear)"/>
<path opacity="0.5" d="M22.2218 16.1699L22.9436 16.6048L22.8173 16.8257L22.0955 16.3909L22.2218 16.1699Z" fill="white"/>
<path opacity="0.5" d="M21.5564 15.4707L23.8616 16.8614L23.7353 17.0847L21.4301 15.6916L21.5564 15.4707Z" fill="white"/>
<path d="M21.2112 14.1172L21.5564 15.4707L23.8616 16.8614L23.1714 14.159L21.209 14.1195L21.2112 14.1172Z" fill="url(#paint2_linear)"/>
<path d="M21.2112 14.1172L21.5564 15.4707L23.8616 16.8614L23.1714 14.159L21.209 14.1195L21.2112 14.1172Z" fill="url(#paint3_linear)"/>
<path d="M25.1744 16.5118L23.8617 16.8606L21.5564 15.4699L24.1797 14.7676L25.1722 16.5118H25.1744Z" fill="url(#paint4_linear)"/>
<path d="M25.1744 16.5118L23.8617 16.8606L21.5564 15.4699L24.1797 14.7676L25.1722 16.5118H25.1744Z" fill="url(#paint5_linear)"/>
<path d="M25.1744 16.5118L23.8617 16.8606L21.5564 15.4699L24.1797 14.7676L25.1722 16.5118H25.1744Z" fill="url(#paint6_linear)"/>
<path fill-rule="evenodd" clip-rule="evenodd" d="M25.5601 17.0192L26.397 18.554C26.5751 18.8796 26.7127 19.1354 26.8075 19.354C26.9022 19.5773 26.9564 19.7773 26.9564 19.9889C26.9564 20.2029 26.9 20.4006 26.8007 20.6238C26.674 20.8937 26.5355 21.1575 26.3857 21.4145L25.5376 22.9424L24.6646 24.4494C24.4797 24.7703 24.3353 25.0215 24.1977 25.2122C24.0777 25.3944 23.9207 25.5476 23.7376 25.661C23.5571 25.7657 23.3631 25.8145 23.1285 25.8401C22.8962 25.8633 22.6097 25.8633 22.2488 25.8633H20.5413L18.8338 25.8354C18.4729 25.8285 18.1864 25.8238 17.9564 25.7982C17.7427 25.7821 17.535 25.7186 17.3473 25.6122C17.1652 25.4951 17.0098 25.3388 16.8917 25.154C16.7564 24.961 16.612 24.7075 16.4293 24.3866L15.5721 22.8633L14.7353 21.3285C14.5571 21.0029 14.4195 20.7471 14.3248 20.5261C14.2313 20.328 14.1806 20.1115 14.1759 19.8913C14.1759 19.6773 14.2323 19.4796 14.3315 19.2587C14.4263 19.0401 14.5661 18.7866 14.7466 18.4633L15.5947 16.9424L16.4676 15.4308C16.6526 15.1122 16.797 14.8633 16.9345 14.6703C17.0546 14.4881 17.2116 14.335 17.3947 14.2215C17.5752 14.1168 17.7691 14.068 18.006 14.0447C18.2361 14.0215 18.5203 14.0215 18.8834 14.0215H20.5909L22.2985 14.0471C22.6594 14.054 22.9458 14.0587 23.1782 14.0843C23.3912 14.1014 23.5981 14.1657 23.7849 14.2726C23.9654 14.3819 24.1007 14.5285 24.2406 14.7285C24.3759 14.9215 24.5203 15.175 24.703 15.4982L25.5601 17.0215V17.0192ZM23.7037 14.4192C23.3992 14.2331 23.0293 14.2285 22.2917 14.2168L20.5932 14.1889H18.8947C18.1549 14.1889 17.7849 14.1889 17.4804 14.3703C17.1759 14.5471 16.9864 14.875 16.6097 15.5261L15.7413 17.0261L14.8977 18.5401C14.53 19.1982 14.3473 19.5285 14.3451 19.8889C14.3451 20.2517 14.5255 20.5843 14.8864 21.2494L15.7188 22.775L16.5714 24.2889C16.9436 24.9471 17.1308 25.2773 17.433 25.461C17.7376 25.6424 18.1075 25.6494 18.8451 25.661L20.5436 25.6889H22.2421C22.9819 25.6889 23.3518 25.6889 23.6564 25.5099C23.9609 25.3308 24.1526 25.0052 24.527 24.3517L25.3955 22.8517L26.2391 21.3401C26.6067 20.6796 26.7894 20.3517 26.7917 19.9889C26.7917 19.6261 26.6112 19.2936 26.2503 18.6308L25.418 17.1029L24.5654 15.5913C24.1932 14.9308 24.006 14.6029 23.7037 14.4192Z" fill="white"/>
<g filter="url(#filter1_d)">
<path d="M19.7248 21.4126C20.4308 21.8381 21.1368 21.7707 21.43 21.2451C21.6376 20.8847 21.5473 20.487 21.1143 20.1521L21.1255 20.1312C21.491 20.3009 21.8699 20.2242 22.0549 19.8916C22.3413 19.3963 22.0955 18.7614 21.4571 18.3754C20.803 17.98 20.1218 18.0847 19.8105 18.6242L20.5594 19.0754C20.6654 18.8986 20.891 18.8661 21.1052 18.994C21.3037 19.1126 21.3714 19.3195 21.2699 19.4893C21.1707 19.6707 20.9361 19.6986 20.7037 19.5591L20.4105 19.38L20.0947 19.9381L20.3879 20.1126C20.6406 20.2661 20.7466 20.5009 20.6406 20.6777C20.5391 20.8637 20.3158 20.8986 20.0992 20.7707C19.8737 20.6312 19.7834 20.4126 19.8782 20.2405L19.0887 19.7637C18.7774 20.3172 19.0436 21.0009 19.7248 21.4149V21.4126Z" fill="url(#paint7_linear)"/>
</g>
<path d="M22.321 1.57213C23.0383 1.30237 23.3992 1.16516 23.7579 1.22795C24.1188 1.28841 24.4143 1.53725 25.0098 2.0326L26.8143 3.53725L28.5962 5.07213C29.1827 5.57678 29.4759 5.83027 29.6045 6.18143C29.7331 6.5326 29.6722 6.92329 29.5549 7.70236L29.194 10.0652L28.7947 12.421C28.6639 13.1977 28.5985 13.5884 28.3662 13.8768C28.1361 14.1675 27.7797 14.3093 27.0647 14.5931L24.8992 15.4512L22.718 16.2745C22.0007 16.5442 21.6398 16.6814 21.2812 16.6186C20.9203 16.5582 20.6248 16.3093 20.0293 15.814L18.2248 14.3093L16.4429 12.7745C15.8564 12.2698 15.5632 12.0163 15.4323 11.6652C15.306 11.314 15.3647 10.9233 15.4842 10.1442L15.8451 7.78143L16.2444 5.42562C16.3752 4.64888 16.4406 4.25818 16.6729 3.96981C16.903 3.67911 17.2594 3.53725 17.9744 3.25353L20.1398 2.39539L22.321 1.57213Z" fill="url(#paint8_linear)"/>
<g filter="url(#filter2_d)">
<path d="M26.4398 9.59324C26.3677 10.1361 26.1907 10.6585 25.9193 11.1296C25.648 11.6007 25.2877 12.0109 24.8599 12.3359C24.4321 12.6609 23.9454 12.8942 23.4286 13.0219C22.9118 13.1497 22.3754 13.1692 21.8511 13.0795C21.3269 12.9897 20.8254 12.7925 20.3764 12.4994C19.9273 12.2064 19.5399 11.8234 19.2369 11.3733C18.9339 10.9232 18.7216 10.4149 18.6124 9.87871C18.5033 9.34248 18.4996 8.78912 18.6015 8.25138C18.7998 7.20456 19.3863 6.27874 20.2362 5.67065C21.0862 5.06255 22.1326 4.8201 23.1532 4.99481C24.1737 5.16953 25.088 5.74763 25.7017 6.60629C26.3154 7.46495 26.5802 8.53649 26.4398 9.59324Z" fill="white"/>
</g>
<path fill-rule="evenodd" clip-rule="evenodd" d="M25.6729 9.46337C25.6128 9.8981 25.4691 10.3161 25.2501 10.6927C25.0311 11.0693 24.7413 11.3971 24.3978 11.6566C24.0542 11.9162 23.6638 12.1023 23.2495 12.2041C22.8352 12.3059 22.4053 12.3213 21.9852 12.2493C21.565 12.1774 21.163 12.0197 20.8028 11.7853C20.4426 11.551 20.1315 11.2447 19.8877 10.8847C19.644 10.5246 19.4724 10.1179 19.3832 9.68854C19.2941 9.25916 19.289 8.81573 19.3684 8.3843C19.524 7.53851 19.9945 6.78909 20.6792 6.29634C21.3638 5.80359 22.2084 5.60664 23.0321 5.74763C23.8558 5.88861 24.5933 6.35634 25.0868 7.05074C25.5803 7.74515 25.7907 8.6111 25.6729 9.46337ZM22.0255 11.9983C22.4171 12.0654 22.8177 12.0524 23.2044 11.96C23.5912 11.8676 23.9565 11.6975 24.2794 11.4596C24.6024 11.2216 24.8768 10.9203 25.0868 10.573C25.2969 10.2258 25.4386 9.8392 25.5037 9.43546C25.5689 9.03173 25.5563 8.61871 25.4666 8.21999C25.377 7.82127 25.212 7.44467 24.9812 7.11167C24.7504 6.77868 24.4582 6.49581 24.1214 6.27924C23.7845 6.06266 23.4096 5.91661 23.018 5.84942C22.2271 5.71373 21.4164 5.9075 20.7641 6.38812C20.1118 6.86874 19.6714 7.59682 19.5398 8.41221C19.4082 9.22759 19.5961 10.0635 20.0623 10.736C20.5285 11.4085 21.2347 11.8626 22.0255 11.9983Z" fill="url(#paint9_linear)"/>
<path fill-rule="evenodd" clip-rule="evenodd" d="M25.6729 9.46337C25.6128 9.8981 25.4691 10.3161 25.2501 10.6927C25.0311 11.0693 24.7413 11.3971 24.3978 11.6566C24.0542 11.9162 23.6638 12.1023 23.2495 12.2041C22.8352 12.3059 22.4053 12.3213 21.9852 12.2493C21.565 12.1774 21.163 12.0197 20.8028 11.7853C20.4426 11.551 20.1315 11.2447 19.8877 10.8847C19.644 10.5246 19.4724 10.1179 19.3832 9.68854C19.2941 9.25916 19.289 8.81573 19.3684 8.3843C19.524 7.53851 19.9945 6.78909 20.6792 6.29634C21.3638 5.80359 22.2084 5.60664 23.0321 5.74763C23.8558 5.88861 24.5933 6.35634 25.0868 7.05074C25.5803 7.74515 25.7907 8.6111 25.6729 9.46337ZM22.0255 11.9983C22.4171 12.0654 22.8177 12.0524 23.2044 11.96C23.5912 11.8676 23.9565 11.6975 24.2794 11.4596C24.6024 11.2216 24.8768 10.9203 25.0868 10.573C25.2969 10.2258 25.4386 9.8392 25.5037 9.43546C25.5689 9.03173 25.5563 8.61871 25.4666 8.21999C25.377 7.82127 25.212 7.44467 24.9812 7.11167C24.7504 6.77868 24.4582 6.49581 24.1214 6.27924C23.7845 6.06266 23.4096 5.91661 23.018 5.84942C22.2271 5.71373 21.4164 5.9075 20.7641 6.38812C20.1118 6.86874 19.6714 7.59682 19.5398 8.41221C19.4082 9.22759 19.5961 10.0635 20.0623 10.736C20.5285 11.4085 21.2347 11.8626 22.0255 11.9983Z" fill="url(#paint10_linear)"/>
<path opacity="0.5" d="M22.7721 4.63477L23.6247 4.77895L23.5819 5.04407L22.7292 4.89756L22.7721 4.63477Z" fill="white"/>
<path opacity="0.5" d="M21.8767 4.20898L24.606 4.6741L24.5609 4.93922L21.8339 4.4741L21.8767 4.20898Z" fill="white"/>
<path d="M21.0601 3.03157L21.8767 4.20831L24.606 4.67343L22.9661 2.32227L21.0579 3.03389L21.0601 3.03157Z" fill="url(#paint11_linear)"/>
<path d="M21.0601 3.03157L21.8767 4.20831L24.606 4.67343L22.9661 2.32227L21.0579 3.03389L21.0601 3.03157Z" fill="url(#paint12_linear)"/>
<path d="M25.7474 3.83469L24.6038 4.67655L21.8767 4.21144L24.1617 2.52539L25.7474 3.83469Z" fill="url(#paint13_linear)"/>
<path d="M25.7474 3.83469L24.6038 4.67655L21.8767 4.21144L24.1617 2.52539L25.7474 3.83469Z" fill="url(#paint14_linear)"/>
<path fill-rule="evenodd" clip-rule="evenodd" d="M26.3045 4.17938L27.6624 5.34683C27.899 5.54248 28.1271 5.74888 28.3459 5.96543C28.5069 6.12258 28.6331 6.31377 28.7158 6.5259C28.7925 6.7352 28.8083 6.9445 28.7947 7.20031C28.7684 7.5113 28.7285 7.82092 28.6752 8.12822L28.4 9.93055L28.0955 11.7259C28.0323 12.1073 27.9827 12.405 27.9173 12.6445C27.8672 12.867 27.7711 13.0756 27.6353 13.2561C27.4898 13.4288 27.3098 13.5668 27.1075 13.6608C26.8932 13.7724 26.618 13.8817 26.2684 14.0212L24.6173 14.6747L22.9549 15.3026C22.603 15.4352 22.3278 15.5398 22.0955 15.6026C21.8828 15.6683 21.6589 15.6858 21.4391 15.6538C21.2212 15.6107 21.015 15.5195 20.8346 15.3864C20.6316 15.2492 20.406 15.0608 20.1128 14.8166L18.7368 13.6678L17.3789 12.5003C17.1423 12.3047 16.9142 12.0983 16.6955 11.8817C16.5344 11.7246 16.4082 11.5334 16.3256 11.3212C16.2522 11.105 16.2252 10.8749 16.2466 10.6468C16.2624 10.4003 16.3075 10.1003 16.3662 9.71892L16.6414 7.91659L16.9459 6.12124C17.009 5.73985 17.0586 5.44217 17.1241 5.20264C17.1748 4.97997 17.2717 4.7713 17.4083 4.59101C17.5525 4.41895 17.731 4.28094 17.9316 4.18636C18.1481 4.07473 18.4211 3.96543 18.7729 3.82589L20.4241 3.17241L22.0865 2.5445C22.3685 2.43137 22.6552 2.33127 22.9459 2.2445C23.1585 2.17874 23.3824 2.16129 23.6023 2.19334C23.8143 2.23055 24.0015 2.32124 24.2068 2.46078C24.4098 2.59799 24.6353 2.78636 24.9286 3.03055L26.3045 4.17938ZM23.5752 2.37008C23.2143 2.30729 22.8534 2.4445 22.1361 2.71427L20.485 3.33985L18.8429 3.99101C18.1278 4.27241 17.7714 4.41427 17.5391 4.70496C17.309 4.99566 17.2436 5.38403 17.1105 6.16078L16.8105 7.94683L16.5353 9.73752C16.4158 10.5166 16.3549 10.9073 16.4857 11.2585C16.612 11.6096 16.9075 11.8631 17.494 12.3678L18.8451 13.5305L20.212 14.6701C20.8075 15.1678 21.1053 15.4143 21.4639 15.4771C21.8248 15.5399 22.1857 15.4026 22.903 15.1329L24.5541 14.5073L26.1962 13.8561C26.9113 13.5747 27.2677 13.4329 27.5 13.1422C27.7301 12.8515 27.7955 12.4631 27.9286 11.6864L28.2286 9.90031L28.5038 8.10962C28.6233 7.33055 28.6842 6.93985 28.5534 6.58869C28.4271 6.23752 28.1316 5.98403 27.5451 5.47938L26.194 4.31659L24.8271 3.17706C24.2316 2.67938 23.9338 2.43287 23.5752 2.37008Z" fill="white"/>
<g filter="url(#filter3_d)">
<path d="M21.0083 10.4145L23.6248 10.8633L23.7489 10.1006L22.4835 9.88427L22.4857 9.86567L22.8579 9.64474C23.5482 9.23776 23.8707 8.93311 23.9474 8.44241C24.0466 7.7866 23.6406 7.2052 22.8151 7.06567C22.0211 6.92846 21.4143 7.29125 21.297 8.03311L22.1767 8.18195C22.2218 7.88427 22.4384 7.75404 22.6955 7.79823C22.9504 7.84474 23.1151 8.03776 23.0722 8.30753C23.0316 8.55637 22.8399 8.6959 22.5647 8.86334L21.1211 9.72846L21.0083 10.4145Z" fill="url(#paint15_linear)"/>
<path d="M21.0083 10.4145L23.6248 10.8633L23.7489 10.1006L22.4835 9.88427L22.4857 9.86567L22.8579 9.64474C23.5482 9.23776 23.8707 8.93311 23.9474 8.44241C24.0466 7.7866 23.6406 7.2052 22.8151 7.06567C22.0211 6.92846 21.4143 7.29125 21.297 8.03311L22.1767 8.18195C22.2218 7.88427 22.4384 7.75404 22.6955 7.79823C22.9504 7.84474 23.1151 8.03776 23.0722 8.30753C23.0316 8.55637 22.8399 8.6959 22.5647 8.86334L21.1211 9.72846L21.0083 10.4145Z" fill="url(#paint16_linear)"/>
</g>
<path d="M7.37963 3.87224C8.15332 3.29084 8.54129 3.00247 8.99467 2.95131C9.44805 2.90015 9.8879 3.09782 10.7676 3.49084L13.4338 4.68154L16.0796 5.91875C16.9526 6.32573 17.3879 6.53038 17.6586 6.91177C17.9293 7.29317 17.9856 7.78619 18.0984 8.77224L18.439 11.7629L18.7345 14.7583C18.8315 15.7467 18.8811 16.2397 18.6984 16.6722C18.5157 17.1048 18.1323 17.4025 17.3653 17.9955L15.042 19.7932L12.6894 21.5536C11.9135 22.135 11.5255 22.4234 11.0721 22.4746C10.621 22.5257 10.1789 22.3281 9.30144 21.935L6.63527 20.7443L3.98715 19.5071C3.11422 19.1001 2.67888 18.8955 2.4082 18.5141C2.13753 18.1327 2.08114 17.6397 1.96835 16.6536L1.62775 13.6629L1.33226 10.6676C1.23527 9.67922 1.18565 9.18619 1.36835 8.75363C1.55332 8.32108 1.93452 8.0234 2.70144 7.43038L5.02475 5.6327L7.37963 3.87224Z" fill="url(#paint17_linear)"/>
<g filter="url(#filter4_d)">
<path d="M14.9721 12.1544C15.1205 13.5089 14.7409 14.8686 13.9169 15.9345C13.0928 17.0004 11.8919 17.6852 10.5782 17.8382C9.26427 17.9815 7.94895 17.5812 6.92118 16.7252C5.89342 15.8692 5.23729 14.6275 5.09695 13.2731C4.94859 11.919 5.32788 10.5596 6.15143 9.49372C6.97499 8.42788 8.17538 7.74288 9.48868 7.58933C10.8029 7.44536 12.1188 7.84538 13.1471 8.70144C14.1754 9.5575 14.8318 10.7995 14.9721 12.1544Z" fill="white"/>
</g>
<path fill-rule="evenodd" clip-rule="evenodd" d="M14.0067 12.263C14.0663 12.8029 14.0221 13.3496 13.8765 13.8719C13.731 14.3941 13.487 14.8816 13.1584 15.3065C12.8299 15.7314 12.4234 16.0853 11.962 16.348C11.5007 16.6107 10.9936 16.777 10.4699 16.8374C9.94628 16.8948 9.41686 16.8453 8.91185 16.6917C8.40684 16.5381 7.93613 16.2834 7.52662 15.9422C7.11711 15.6009 6.77681 15.1799 6.52518 14.703C6.27355 14.2262 6.11551 13.7029 6.06009 13.163C5.9409 12.0741 6.24607 10.981 6.90848 10.124C7.57089 9.26709 8.5363 8.71647 9.59242 8.59326C11.7872 8.34442 13.7608 9.98861 14.0044 12.2677L14.0067 12.263ZM10.4473 16.6119C12.5225 16.3793 14.018 14.4421 13.7879 12.2863C13.735 11.7758 13.5852 11.2811 13.3468 10.8303C13.1085 10.3796 12.7864 9.98161 12.3989 9.65919C12.0114 9.33678 11.5661 9.09621 11.0885 8.95123C10.6108 8.80624 10.1101 8.75968 9.61497 8.81419C7.53978 9.04675 6.0443 10.984 6.27437 13.1398C6.32724 13.6502 6.47712 14.145 6.71545 14.5957C6.95377 15.0465 7.27587 15.4444 7.66337 15.7669C8.05086 16.0893 8.49615 16.3298 8.97382 16.4748C9.45149 16.6198 9.95218 16.6664 10.4473 16.6119Z" fill="url(#paint18_linear)"/>
<g filter="url(#filter5_d)">
<path d="M10.5714 10.3652L9.42784 10.4955C9.47295 10.9094 9.10754 11.3094 8.63611 11.3629L8.73536 12.2931C9.191 12.2443 9.44363 12.049 9.54062 11.8745L9.58122 11.8699L9.90152 14.8699L11.0361 14.742L10.5714 10.3652Z" fill="url(#paint19_linear)"/>
</g>
<path opacity="0.5" d="M8.92709 7.42626L10.0008 7.30533L10.0369 7.63789L8.96318 7.76115L8.92709 7.42626ZM7.7113 7.22626L11.1466 6.83789L11.1827 7.17045L7.74739 7.55882L7.7113 7.22626Z" fill="white"/>
<path d="M6.3421 6.08259L7.71127 7.22213L11.1466 6.83608L8.40601 4.55469L6.33984 6.08492L6.3421 6.08259Z" fill="url(#paint20_linear)"/>
<path d="M12.2451 5.41537L11.1466 6.83397L7.7113 7.22467L9.9083 4.38281L12.2451 5.41537Z" fill="url(#paint21_linear)"/>
<path fill-rule="evenodd" clip-rule="evenodd" d="M13.0279 5.63741L15.0467 6.57927C15.4752 6.77927 15.8113 6.93509 16.0707 7.0909C16.3172 7.22467 16.5327 7.41191 16.7023 7.63974C16.8602 7.86532 16.9504 8.11648 17.0181 8.42811C17.0813 8.73276 17.1241 9.11183 17.1805 9.59555L17.4399 11.8746L17.6655 14.1583C17.7128 14.6444 17.7512 15.0235 17.7534 15.3351C17.7534 15.6537 17.7173 15.9211 17.6113 16.1746C17.4937 16.4348 17.3229 16.6657 17.1106 16.8514C16.8873 17.0607 16.5918 17.2886 16.2173 17.5793L14.4444 18.9514L12.6512 20.2932C12.2722 20.5769 11.9745 20.8002 11.7151 20.956C11.4809 21.1106 11.2169 21.2106 10.9414 21.249C10.6653 21.2731 10.3875 21.2351 10.1271 21.1374C9.76903 21.0073 9.41679 20.8606 9.07148 20.6979L7.0414 19.7909L5.0226 18.8467C4.59403 18.6467 4.2602 18.4909 3.99854 18.3351C3.75204 18.2013 3.53657 18.0141 3.36696 17.7862C3.20807 17.5499 3.10037 17.281 3.05117 16.9979C2.98029 16.6114 2.9261 16.2219 2.88877 15.8304L2.62937 13.5514L2.40381 11.2653C2.3584 10.8753 2.3298 10.4835 2.31809 10.0909C2.31584 9.7723 2.35193 9.50485 2.4602 9.25137C2.57712 8.99138 2.74717 8.76053 2.95869 8.57462C3.182 8.36532 3.47749 8.13741 3.85193 7.84671L5.62486 6.47462L7.41809 5.13276C7.79704 4.84904 8.09478 4.62578 8.35644 4.46765C8.5901 4.31423 8.85332 4.21504 9.12787 4.17695C9.40393 4.15284 9.68179 4.19093 9.94215 4.28858C10.3002 4.41871 10.6525 4.56537 10.9978 4.72811L13.0301 5.63509L13.0279 5.63741ZM9.14817 4.4002C8.69704 4.45137 8.30907 4.74206 7.53313 5.32113L5.75117 6.65602L3.98726 8.01881C3.22035 8.61183 2.83689 8.90718 2.65644 9.34206C2.47148 9.77462 2.5211 10.2676 2.61809 11.256L2.84366 13.5258L3.1008 15.7932C3.21358 16.7793 3.26997 17.2723 3.53839 17.6537C3.80907 18.0351 4.24666 18.2397 5.11734 18.6467L7.12486 19.5839L9.14591 20.4886C10.0256 20.8816 10.4655 21.0769 10.9188 21.0258C11.37 20.9746 11.7579 20.6839 12.5339 20.1049L14.3158 18.77L16.0797 17.4072C16.8467 16.8142 17.2301 16.5188 17.4106 16.0839C17.5955 15.6514 17.5459 15.1583 17.4489 14.17L17.2256 11.9002L16.9662 9.63276C16.8534 8.64671 16.797 8.15369 16.5286 7.7723C16.2579 7.3909 15.8226 7.18625 14.9497 6.77927L12.9422 5.84206L10.9211 4.93741C10.0414 4.54439 9.60155 4.34904 9.15042 4.4002H9.14817Z" fill="white"/>
<defs>
<filter id="filter0_d" x="15.7323" y="15.9902" width="9.66866" height="9.89603" filterUnits="userSpaceOnUse" color-interpolation-filters="sRGB">
<feFlood flood-opacity="0" result="BackgroundImageFix"/>
<feColorMatrix in="SourceAlpha" type="matrix" values="0 0 0 0 0 0 0 0 0 0 0 0 0 0 0 0 0 0 127 0" result="hardAlpha"/>
<feOffset dy="1"/>
<feGaussianBlur stdDeviation="0.5"/>
<feColorMatrix type="matrix" values="0 0 0 0 0 0 0 0 0 0 0 0 0 0 0 0 0 0 0.05 0"/>
<feBlend mode="normal" in2="BackgroundImageFix" result="effect1_dropShadow"/>
<feBlend mode="normal" in="SourceGraphic" in2="effect1_dropShadow" result="shape"/>
</filter>
<filter id="filter1_d" x="17.9595" y="18.1367" width="5.21389" height="5.55424" filterUnits="userSpaceOnUse" color-interpolation-filters="sRGB">
<feFlood flood-opacity="0" result="BackgroundImageFix"/>
<feColorMatrix in="SourceAlpha" type="matrix" values="0 0 0 0 0 0 0 0 0 0 0 0 0 0 0 0 0 0 127 0" result="hardAlpha"/>
<feOffset dy="1"/>
<feGaussianBlur stdDeviation="0.5"/>
<feColorMatrix type="matrix" values="0 0 0 0 0 0 0 0 0 0 0 0 0 0 0 0 0 0 0.05 0"/>
<feBlend mode="normal" in2="BackgroundImageFix" result="effect1_dropShadow"/>
<feBlend mode="normal" in="SourceGraphic" in2="effect1_dropShadow" result="shape"/>
</filter>
<filter id="filter2_d" x="17.5277" y="4.93945" width="9.94888" height="10.1954" filterUnits="userSpaceOnUse" color-interpolation-filters="sRGB">
<feFlood flood-opacity="0" result="BackgroundImageFix"/>
<feColorMatrix in="SourceAlpha" type="matrix" values="0 0 0 0 0 0 0 0 0 0 0 0 0 0 0 0 0 0 127 0" result="hardAlpha"/>
<feOffset dy="1"/>
<feGaussianBlur stdDeviation="0.5"/>
<feColorMatrix type="matrix" values="0 0 0 0 0 0 0 0 0 0 0 0 0 0 0 0 0 0 0.05 0"/>
<feBlend mode="normal" in2="BackgroundImageFix" result="effect1_dropShadow"/>
<feBlend mode="normal" in="SourceGraphic" in2="effect1_dropShadow" result="shape"/>
</filter>
<filter id="filter3_d" x="20.0083" y="7.03711" width="4.9538" height="5.82623" filterUnits="userSpaceOnUse" color-interpolation-filters="sRGB">
<feFlood flood-opacity="0" result="BackgroundImageFix"/>
<feColorMatrix in="SourceAlpha" type="matrix" values="0 0 0 0 0 0 0 0 0 0 0 0 0 0 0 0 0 0 127 0" result="hardAlpha"/>
<feOffset dy="1"/>
<feGaussianBlur stdDeviation="0.5"/>
<feColorMatrix type="matrix" values="0 0 0 0 0 0 0 0 0 0 0 0 0 0 0 0 0 0 0.05 0"/>
<feBlend mode="normal" in2="BackgroundImageFix" result="effect1_dropShadow"/>
<feBlend mode="normal" in="SourceGraphic" in2="effect1_dropShadow" result="shape"/>
</filter>
<filter id="filter4_d" x="4.06543" y="7.56055" width="11.9382" height="12.3062" filterUnits="userSpaceOnUse" color-interpolation-filters="sRGB">
<feFlood flood-opacity="0" result="BackgroundImageFix"/>
<feColorMatrix in="SourceAlpha" type="matrix" values="0 0 0 0 0 0 0 0 0 0 0 0 0 0 0 0 0 0 127 0" result="hardAlpha"/>
<feOffset dy="1"/>
<feGaussianBlur stdDeviation="0.5"/>
<feColorMatrix type="matrix" values="0 0 0 0 0 0 0 0 0 0 0 0 0 0 0 0 0 0 0.05 0"/>
<feBlend mode="normal" in2="BackgroundImageFix" result="effect1_dropShadow"/>
<feBlend mode="normal" in="SourceGraphic" in2="effect1_dropShadow" result="shape"/>
</filter>
<filter id="filter5_d" x="7.63611" y="10.3652" width="4.4" height="6.50465" filterUnits="userSpaceOnUse" color-interpolation-filters="sRGB">
<feFlood flood-opacity="0" result="BackgroundImageFix"/>
<feColorMatrix in="SourceAlpha" type="matrix" values="0 0 0 0 0 0 0 0 0 0 0 0 0 0 0 0 0 0 127 0" result="hardAlpha"/>
<feOffset dy="1"/>
<feGaussianBlur stdDeviation="0.5"/>
<feColorMatrix type="matrix" values="0 0 0 0 0 0 0 0 0 0 0 0 0 0 0 0 0 0 0.05 0"/>
<feBlend mode="normal" in2="BackgroundImageFix" result="effect1_dropShadow"/>
<feBlend mode="normal" in="SourceGraphic" in2="effect1_dropShadow" result="shape"/>
</filter>
<linearGradient id="paint0_linear" x1="24.2655" y1="13.4676" x2="14.5404" y2="24.313" gradientUnits="userSpaceOnUse">
<stop stop-color="#DDAA95"/>
<stop offset="1" stop-color="#C36448"/>
</linearGradient>
<linearGradient id="paint1_linear" x1="22.1293" y1="17.2074" x2="18.0954" y2="21.8861" gradientUnits="userSpaceOnUse">
<stop stop-color="#DDAA95"/>
<stop offset="1" stop-color="#C36448"/>
</linearGradient>
<linearGradient id="paint2_linear" x1="23.2616" y1="14.2149" x2="22.2493" y2="15.8879" gradientUnits="userSpaceOnUse">
<stop stop-color="#FFA843"/>
<stop offset="1" stop-color="#FE720A"/>
</linearGradient>
<linearGradient id="paint3_linear" x1="23.2661" y1="14.2172" x2="22.1156" y2="15.784" gradientUnits="userSpaceOnUse">
<stop stop-color="#DD9476"/>
<stop offset="1" stop-color="#B04F33"/>
</linearGradient>
<linearGradient id="paint4_linear" x1="24.0895" y1="14.7141" x2="23.0795" y2="16.3872" gradientUnits="userSpaceOnUse">
<stop stop-color="#FE720A"/>
<stop offset="1" stop-color="#FFA843"/>
</linearGradient>
<linearGradient id="paint5_linear" x1="24.085" y1="14.7094" x2="23.2292" y2="16.466" gradientUnits="userSpaceOnUse">
<stop stop-color="#DDAA95"/>
<stop offset="1" stop-color="#C36448"/>
</linearGradient>
<linearGradient id="paint6_linear" x1="24.085" y1="14.7094" x2="23.2292" y2="16.466" gradientUnits="userSpaceOnUse">
<stop stop-color="#B04F33"/>
<stop offset="1" stop-color="#D78C6D"/>
</linearGradient>
<linearGradient id="paint7_linear" x1="21.4684" y1="18.3823" x2="19.1463" y2="20.8652" gradientUnits="userSpaceOnUse">
<stop stop-color="#DDAA95"/>
<stop offset="1" stop-color="#C36448"/>
</linearGradient>
<linearGradient id="paint8_linear" x1="23.7782" y1="1.23027" x2="18.3805" y2="15.5191" gradientUnits="userSpaceOnUse">
<stop stop-color="#C0E3E6"/>
<stop offset="1" stop-color="#78A7AA"/>
</linearGradient>
<linearGradient id="paint9_linear" x1="23.0225" y1="5.85174" x2="20.9742" y2="11.6225" gradientUnits="userSpaceOnUse">
<stop stop-color="#FFD600"/>
<stop offset="1" stop-color="#FF9300"/>
</linearGradient>
<linearGradient id="paint10_linear" x1="23.0518" y1="5.675" x2="20.8844" y2="11.7784" gradientUnits="userSpaceOnUse">
<stop stop-color="#C0E3E6"/>
<stop offset="1" stop-color="#78A7AA"/>
</linearGradient>
<linearGradient id="paint11_linear" x1="23.0744" y1="2.33854" x2="22.7297" y2="4.35608" gradientUnits="userSpaceOnUse">
<stop stop-color="#FFA843"/>
<stop offset="1" stop-color="#FE720A"/>
</linearGradient>
<linearGradient id="paint12_linear" x1="23.0812" y1="2.33854" x2="22.5558" y2="4.30517" gradientUnits="userSpaceOnUse">
<stop stop-color="#7ACDD2"/>
<stop offset="1" stop-color="#78A7AA"/>
</linearGradient>
<linearGradient id="paint13_linear" x1="24.0557" y1="2.50679" x2="23.711" y2="4.52432" gradientUnits="userSpaceOnUse">
<stop stop-color="#FE720A"/>
<stop offset="1" stop-color="#FFA843"/>
</linearGradient>
<linearGradient id="paint14_linear" x1="24.0511" y1="2.50679" x2="23.893" y2="4.53862" gradientUnits="userSpaceOnUse">
<stop stop-color="#78A7AA"/>
<stop offset="1" stop-color="#7ACDD2"/>
</linearGradient>
<linearGradient id="paint15_linear" x1="22.8489" y1="7.07032" x2="21.5223" y2="10.324" gradientUnits="userSpaceOnUse">
<stop stop-color="#FFD600"/>
<stop offset="1" stop-color="#FF9300"/>
</linearGradient>
<linearGradient id="paint16_linear" x1="22.8489" y1="7.07032" x2="21.5223" y2="10.324" gradientUnits="userSpaceOnUse">
<stop stop-color="#C0E3E6"/>
<stop offset="1" stop-color="#78A7AA"/>
</linearGradient>
<linearGradient id="paint17_linear" x1="9.02174" y1="2.94898" x2="7.45666" y2="22.174" gradientUnits="userSpaceOnUse">
<stop stop-color="#FFD600"/>
<stop offset="1" stop-color="#FF9300"/>
</linearGradient>
<linearGradient id="paint18_linear" x1="9.63076" y1="8.81187" x2="9.15852" y2="16.5311" gradientUnits="userSpaceOnUse">
<stop stop-color="#FFD600"/>
<stop offset="1" stop-color="#FF9300"/>
</linearGradient>
<linearGradient id="paint19_linear" x1="9.64664" y1="9.035" x2="7.81323" y2="15.5437" gradientUnits="userSpaceOnUse">
<stop stop-color="#FFD600"/>
<stop offset="1" stop-color="#FF9300"/>
</linearGradient>
<linearGradient id="paint20_linear" x1="8.53909" y1="4.53608" x2="8.82899" y2="7.09695" gradientUnits="userSpaceOnUse">
<stop stop-color="#FFA843"/>
<stop offset="1" stop-color="#FE720A"/>
</linearGradient>
<linearGradient id="paint21_linear" x1="9.77296" y1="4.39677" x2="10.0629" y2="6.95763" gradientUnits="userSpaceOnUse">
<stop stop-color="#FE720A"/>
<stop offset="1" stop-color="#FFA843"/>
</linearGradient>
</defs>
</svg>
