<svg width="99" height="100" viewBox="0 0 99 100" fill="none" xmlns="http://www.w3.org/2000/svg">
<path d="M98.4025 51.0975C98.4025 78.1055 76.5083 99.9997 49.5003 99.9997C22.4924 99.9997 0.598145 78.1055 0.598145 51.0975C0.598145 24.0895 22.4924 2.19531 49.5003 2.19531C76.5083 2.19531 98.4025 24.0895 98.4025 51.0975Z" fill="#1D2D66"/>
<path d="M98.4024 51.0975C98.4024 52.0955 98.3725 53.0867 98.3136 54.07C92.7599 69.8811 77.6986 81.2169 59.9894 81.2169C37.5619 81.2169 19.3809 63.0358 19.3809 40.6083C19.3809 22.8991 30.7166 7.83783 46.5278 2.28413C47.511 2.22525 48.5022 2.19531 49.5002 2.19531C76.5082 2.19531 98.4024 24.0895 98.4024 51.0975Z" fill="#253B8A"/>
<path d="M75.4784 22.6333L77.7307 21.9736C78.0335 21.885 78.3147 22.166 78.2261 22.469L77.5664 24.7213C77.5449 24.7946 77.5449 24.8724 77.5664 24.9457L78.2261 27.198C78.3147 27.5008 78.0337 27.782 77.7307 27.6934L75.4784 27.0337C75.4051 27.0121 75.3273 27.0121 75.254 27.0337L73.0018 27.6934C72.699 27.782 72.4177 27.501 72.5063 27.198L73.166 24.9457C73.1876 24.8724 73.1876 24.7946 73.166 24.7213L72.5063 22.469C72.4177 22.1662 72.6988 21.885 73.0018 21.9736L75.254 22.6333C75.3273 22.6549 75.4051 22.6549 75.4784 22.6333Z" fill="#FD8F01"/>
<path d="M88.3874 42.6045L91.5197 41.6872C91.9409 41.5638 92.3319 41.9548 92.2086 42.376L91.2912 45.5083C91.2613 45.6101 91.2613 45.7185 91.2912 45.8205L92.2086 48.9528C92.3319 49.374 91.9409 49.765 91.5197 49.6417L88.3874 48.7243C88.2856 48.6944 88.1772 48.6944 88.0752 48.7243L84.9429 49.6417C84.5217 49.765 84.1307 49.374 84.2541 48.9528L85.1714 45.8205C85.2014 45.7187 85.2014 45.6103 85.1714 45.5083L84.2541 42.376C84.1307 41.9548 84.5217 41.5638 84.9429 41.6872L88.0752 42.6045C88.1772 42.6345 88.2856 42.6345 88.3874 42.6045Z" fill="#FDD78D"/>
<path d="M28.5586 29.8737V17.5982C28.5586 7.89441 36.4532 0 46.1568 0C55.8604 0 63.755 7.89441 63.755 17.5982V29.8737H59.763V17.5982C59.763 10.0958 53.6592 3.99202 46.1568 3.99202C38.6544 3.99202 32.5506 10.0958 32.5506 17.5982V29.8737H28.5586Z" fill="#0280E3"/>
<path d="M60.2913 12.8743H60.2145C59.4494 12.8743 58.7648 12.4244 58.434 11.7345C56.2396 7.15908 51.5614 3.99202 46.1572 3.99202C44.9138 3.99202 43.7091 4.15968 42.5639 4.47345C41.3055 4.81836 40.0693 3.84531 40.0693 2.54032C40.0693 1.6513 40.6538 0.857285 41.5111 0.622355C42.9917 0.216567 44.5496 0 46.1572 0C53.1654 0 59.23 4.11776 62.0584 10.0611C62.6795 11.3663 61.7366 12.8743 60.2913 12.8743Z" fill="#05A2F9"/>
<path d="M66.5357 27.7012L77.3375 38.503C78.4605 39.6259 79.0914 41.1491 79.0914 42.7371V58.8814C79.0914 77.0704 64.3463 91.8155 46.1573 91.8155C27.9683 91.8155 13.2231 77.0704 13.2231 58.8814V42.7371C13.2231 41.1491 13.8541 39.6259 14.977 38.503L25.7788 27.7012C26.9018 26.5782 28.4249 25.9473 30.013 25.9473H62.3016C63.8898 25.9473 65.4128 26.5782 66.5357 27.7012Z" fill="#EF941B"/>
<path d="M33.563 27.7012C34.686 26.5782 36.2091 25.9473 37.7971 25.9473H62.3013C63.8894 25.9473 65.4125 26.5782 66.5355 27.7012L77.3373 38.503C78.4602 39.6259 79.0912 41.1491 79.0912 42.7371V58.8814C79.0912 75.7534 66.4037 89.6622 50.0492 91.5878C33.6948 89.6622 21.0073 75.7534 21.0073 58.8814V42.7371C21.0073 41.1491 21.6383 39.6259 22.7612 38.503L33.563 27.7012Z" fill="#FFCC01"/>
<path d="M52.3445 47.1056V50.6985C52.3445 52.8573 51.0263 54.708 49.1509 55.4903V74.8502C49.1509 76.5037 47.8104 77.8442 46.1569 77.8442C44.5034 77.8442 43.1629 76.5037 43.1629 74.8502V55.4903C41.2874 54.7082 39.9692 52.8573 39.9692 50.6985V47.1056C39.9692 44.2396 42.2928 41.916 45.1589 41.916H47.1549C50.0209 41.916 52.3445 44.2396 52.3445 47.1056Z" fill="#172A7D"/>
<path d="M57.0155 55.1176C57.8712 54.2619 59.0315 53.7812 60.2414 53.7812H72.9804C74.1903 53.7812 75.3508 54.2619 76.2063 55.1176L84.4362 63.3475C85.2919 64.2032 85.7726 65.3635 85.7726 66.5735V73.417C85.7726 85.2319 77.6067 95.1397 66.6109 97.8044C55.6151 95.1397 47.4492 85.2319 47.4492 73.417V66.5735C47.4492 65.3635 47.9299 64.203 48.7855 63.3475L57.0155 55.1176Z" fill="#0AB59E"/>
<path d="M52.4048 66.7357L60.4042 58.7363H72.8174L80.8168 66.7359V73.4166C80.8168 82.3397 75.0335 90.0906 66.6108 92.6683C58.1878 90.0906 52.4048 82.3397 52.4048 73.4166V66.7357Z" fill="#0ED1B2"/>
<path d="M72.8176 58.7363L80.817 66.7359V73.4166C80.817 77.6294 79.528 81.5809 77.2807 84.8501C67.5194 80.9473 59.633 73.3529 55.3481 63.7928L60.4044 58.7365H72.8176V58.7363Z" fill="#5DE0C3"/>
<path d="M85.339 62.2351L67.6901 79.884C67.3979 80.1762 67.0147 80.3225 66.6316 80.3225C66.2486 80.3225 65.8653 80.1764 65.5731 79.884L57.1689 71.4798C56.5843 70.8952 56.5843 69.9473 57.1689 69.3629C57.7536 68.7782 58.7015 68.7782 59.2859 69.3629L66.6316 76.7086L83.222 60.1182C83.8067 59.5335 84.7546 59.5335 85.339 60.1182C85.9236 60.7026 85.9236 61.6505 85.339 62.2351Z" fill="#E3F0FB"/>
<path d="M85.3392 62.2356L73.9015 73.6734C73.3169 74.258 72.369 74.258 71.7845 73.6734C71.1999 73.0887 71.1999 72.1408 71.7845 71.5564L83.1778 60.1632C83.7574 59.5836 84.7095 59.5247 85.3063 60.0865C85.9237 60.668 85.9346 61.6402 85.3392 62.2356ZM61.047 56.7993L58.7947 56.1396C58.4919 56.051 58.2107 56.3321 58.2993 56.635L58.959 58.8873C58.9805 58.9606 58.9805 59.0384 58.959 59.1117L58.2993 61.364C58.2107 61.6668 58.4917 61.948 58.7947 61.8594L61.047 61.1997C61.1203 61.1782 61.1981 61.1782 61.2714 61.1997L63.5237 61.8594C63.8265 61.948 64.1077 61.667 64.0191 61.364L63.3594 59.1117C63.3378 59.0384 63.3378 58.9606 63.3594 58.8873L64.0191 56.635C64.1077 56.3323 63.8266 56.051 63.5237 56.1396L61.2714 56.7993C61.1981 56.8207 61.1203 56.8207 61.047 56.7993Z" fill="#FFF5F5"/>
</svg>
