<svg width="698" height="593" viewBox="0 0 698 593" fill="none" xmlns="http://www.w3.org/2000/svg">
<g clip-path="url(#clip0)">
<path d="M64.5711 96.8293C64.8986 85.7682 69.2221 75.199 76.7433 67.0735C84.2646 58.948 94.4755 53.815 105.49 52.6225C116.505 51.4299 127.58 54.2583 136.67 60.5854C145.76 66.9124 152.251 76.3108 154.944 87.0448C157.506 80.6861 162.175 75.3975 168.17 72.0618C174.165 68.726 181.125 67.5449 187.887 68.7156C194.649 69.8863 200.804 73.3379 205.325 78.4945C209.847 83.651 212.461 90.2003 212.731 97.0494C218.507 98.4744 223.561 101.963 226.937 106.855C230.314 111.748 231.78 117.707 231.058 123.605C230.336 129.504 227.476 134.934 223.019 138.87C218.561 142.806 212.815 144.976 206.865 144.969H69.5796C63.5506 144.976 57.7331 142.75 53.2526 138.721C48.7721 134.692 45.947 129.146 45.3239 123.157C44.7007 117.167 46.3238 111.16 49.8792 106.297C53.4345 101.434 58.6694 98.0602 64.5711 96.8293Z" fill="url(#paint0_linear)"/>
<path d="M672.774 251.168C672.415 239.54 667.857 228.434 659.941 219.9C652.025 211.365 641.286 205.978 629.705 204.732C618.124 203.487 606.483 206.466 596.929 213.121C587.376 219.777 580.554 229.658 577.724 240.943C575.035 234.249 570.127 228.679 563.82 225.165C557.514 221.651 550.19 220.406 543.074 221.637C535.959 222.869 529.482 226.502 524.726 231.931C519.971 237.36 517.226 244.254 516.949 251.462C510.877 252.959 505.564 256.625 502.013 261.766C498.461 266.907 496.916 273.169 497.669 279.37C498.423 285.571 501.422 291.282 506.102 295.426C510.781 299.57 516.818 301.86 523.072 301.864H667.509C673.851 301.874 679.972 299.533 684.687 295.295C689.401 291.056 692.373 285.222 693.029 278.921C693.684 272.62 691.975 266.3 688.234 261.184C684.492 256.069 678.984 252.522 672.774 251.229V251.168Z" fill="url(#paint1_linear)"/>
<path d="M362.348 54.0107C362.528 47.2054 365.173 40.6963 369.793 35.6905C374.412 30.6848 380.693 27.522 387.469 26.7887C394.246 26.0555 401.058 27.8015 406.644 31.703C412.23 35.6044 416.209 41.3967 417.845 48.0055C419.368 44.0406 422.221 40.7262 425.918 38.6277C429.614 36.5291 433.925 35.7764 438.115 36.498C442.305 37.2195 446.115 39.3706 448.895 42.5844C451.674 45.7981 453.251 49.8754 453.357 54.1208C456.9 54.9997 459.999 57.143 462.069 60.1464C464.139 63.1499 465.037 66.806 464.595 70.4254C464.152 74.0448 462.399 77.3773 459.665 79.7945C456.932 82.2118 453.408 83.5467 449.757 83.5476H365.421C361.712 83.5635 358.13 82.2019 355.369 79.7272C352.609 77.2525 350.868 73.8415 350.485 70.1567C350.102 66.4719 351.104 62.7764 353.296 59.7881C355.488 56.7998 358.714 54.7319 362.348 53.9863V54.0107Z" fill="url(#paint2_linear)"/>
<path d="M635.4 493.187C635.099 483.24 631.206 473.737 624.44 466.433C617.673 459.128 608.49 454.514 598.584 453.443C588.678 452.371 578.718 454.915 570.543 460.603C562.367 466.291 556.528 474.741 554.102 484.393C551.846 478.609 547.657 473.783 542.245 470.731C536.833 467.679 530.531 466.59 524.407 467.648C518.283 468.706 512.714 471.846 508.643 476.536C504.572 481.226 502.25 487.178 502.07 493.383C496.881 494.673 492.344 497.814 489.314 502.214C486.283 506.614 484.969 511.97 485.618 517.271C486.267 522.572 488.834 527.453 492.837 530.994C496.84 534.535 502.001 536.492 507.348 536.496H630.894C636.308 536.485 641.526 534.473 645.543 530.849C649.56 527.225 652.093 522.244 652.652 516.866C653.212 511.488 651.759 506.093 648.574 501.721C645.388 497.35 640.696 494.31 635.4 493.187Z" fill="url(#paint3_linear)"/>
<path d="M26.5483 336.524C26.9726 324.168 31.8443 312.379 40.2694 303.322C48.6944 294.264 60.1075 288.545 72.414 287.215C84.7204 285.884 97.0945 289.031 107.265 296.078C117.436 303.125 124.721 313.599 127.783 325.578C130.645 318.448 135.872 312.516 142.588 308.773C149.305 305.031 157.104 303.704 164.682 305.016C172.26 306.328 179.158 310.198 184.221 315.98C189.285 321.762 192.208 329.105 192.501 336.781C198.979 338.367 204.65 342.27 208.441 347.751C212.231 353.233 213.878 359.912 213.07 366.524C212.261 373.137 209.053 379.224 204.052 383.633C199.052 388.042 192.607 390.467 185.937 390.449H32.1568C25.403 390.457 18.8861 387.963 13.867 383.45C8.84787 378.936 5.68326 372.724 4.98544 366.014C4.28762 359.305 6.1062 352.576 10.0893 347.128C14.0725 341.68 19.937 337.902 26.5483 336.524Z" fill="url(#paint4_linear)"/>
<path d="M573.095 33.0222C572.849 24.7937 569.631 16.932 564.034 10.8882C558.438 4.84444 550.842 1.02676 542.647 0.139921C534.453 -0.746917 526.214 1.35696 519.451 6.06318C512.689 10.7694 507.859 17.7602 505.854 25.745C503.938 21.0249 500.46 17.103 496 14.6323C491.541 12.1617 486.368 11.2915 481.345 12.1666C476.321 13.0417 471.749 15.6094 468.39 19.442C465.031 23.2746 463.088 28.1408 462.884 33.2302C458.586 34.2887 454.824 36.8831 452.311 40.5232C449.797 44.1633 448.705 48.5969 449.242 52.9862C449.779 57.3754 451.907 61.4164 455.223 64.3453C458.54 67.2742 462.816 68.8882 467.244 68.8823H569.421C573.937 68.9244 578.307 67.2808 581.673 64.2734C585.039 61.2661 587.16 57.1118 587.62 52.6243C588.079 48.1369 586.845 43.6397 584.158 40.0138C581.471 36.3879 577.526 33.8945 573.095 33.0222Z" fill="url(#paint5_linear)"/>
<path d="M349 577.223C458.399 577.223 547.085 488.646 547.085 379.381C547.085 270.116 458.399 181.539 349 181.539C239.601 181.539 150.915 270.116 150.915 379.381C150.915 488.646 239.601 577.223 349 577.223Z" fill="#5F6BE9"/>
<path d="M489.059 506.499C566.416 429.237 566.416 303.97 489.059 226.708C411.702 149.446 286.282 149.446 208.925 226.708C131.568 303.97 131.568 429.237 208.925 506.499C286.282 583.761 411.702 583.761 489.059 506.499Z" fill="#929AFB"/>
<path opacity="0.15" d="M474.065 243.938L497.87 272.864L516.618 261.171C505.526 243.621 491.755 227.91 475.803 214.609L467.819 220.602L474.065 243.938Z" fill="#231F20"/>
<path opacity="0.15" d="M195.623 271.347L200.167 263.776C201.319 261.803 201.828 259.52 201.624 257.245C201.624 256.951 201.624 256.658 201.526 256.352V256.279L201.379 255.386V255.239C201.318 254.958 201.256 254.689 201.183 254.407C201.168 254.333 201.148 254.259 201.122 254.187C201.048 253.93 200.987 253.661 200.901 253.405C200.816 253.148 200.901 253.246 200.816 253.172C200.73 252.903 200.644 252.646 200.546 252.377L200.387 252.01C200.301 251.778 200.215 251.558 200.118 251.338C200.02 251.117 199.885 250.824 199.762 250.567L199.628 250.273C199.456 249.919 199.26 249.564 199.064 249.209C198.673 248.488 198.232 247.766 197.766 247.069C196.779 245.602 195.686 244.208 194.497 242.898C186.27 253.136 179.084 264.165 173.042 275.823C175.967 276.692 178.993 277.177 182.043 277.266C188.656 277.364 193.382 275.102 195.623 271.347Z" fill="#231F20"/>
<path opacity="0.15" d="M0 2.11523L268.522 560.955C288.996 569.945 323.615 574.837 346.979 574.837C371.042 574.837 406.26 569.59 427.286 560.075L698 2.11523H0Z" fill="url(#paint6_linear)"/>
<path opacity="0.2" d="M60.3096 2.11523L297.703 573.907L300.152 574.641C300.752 573.638 302.148 573.553 305.148 576.036C333.348 583.16 362.903 582.958 391.002 575.448C393.158 573.834 394.358 573.724 394.994 574.299L397.909 573.406L637.029 2.11523H60.3096Z" fill="url(#paint7_linear)"/>
<path opacity="0.2" d="M126.228 2.00586L320.835 576.941C332.567 579.62 334.563 581.039 347.016 581.039C359.997 581.039 362.495 579.485 374.704 576.562L571.956 2.00586H126.228Z" fill="url(#paint8_linear)"/>
<path d="M513.936 450.782L426.404 427.36C424.683 426.9 423.069 426.106 421.655 425.023C420.242 423.94 419.056 422.589 418.165 421.047C417.274 419.506 416.697 417.804 416.465 416.039C416.234 414.275 416.353 412.482 416.816 410.763L452.99 275.884C453.922 272.414 456.197 269.455 459.313 267.66C462.429 265.864 466.132 265.377 469.607 266.308L557.175 289.729C560.651 290.661 563.613 292.932 565.414 296.044C567.214 299.156 567.704 302.854 566.776 306.326L530.553 441.205C529.621 444.676 527.346 447.634 524.23 449.43C521.114 451.226 517.411 451.712 513.936 450.782Z" fill="#DCDDF7"/>
<path d="M509.063 354.405L508.524 354.271C509.218 353.083 509.75 351.808 510.104 350.479C511.097 346.5 510.484 342.291 508.396 338.76C506.309 335.229 502.915 332.66 498.947 331.606C494.98 330.553 490.756 331.1 487.189 333.13C483.622 335.16 480.997 338.51 479.881 342.456C479.533 343.79 479.356 345.162 479.355 346.541L478.84 346.382C476.237 345.678 473.495 345.659 470.881 346.326C468.268 346.993 465.872 348.325 463.926 350.191C461.979 352.056 460.55 354.393 459.775 356.974C459.001 359.555 458.908 362.292 459.506 364.919C460.104 367.546 461.372 369.974 463.187 371.968C465.002 373.961 467.303 375.451 469.865 376.293C472.427 377.136 475.164 377.302 477.81 376.775C480.456 376.249 482.92 375.048 484.963 373.289L485.894 373.534C484.045 375.98 481.62 379.074 479.551 381.349C479.314 381.608 479.147 381.923 479.068 382.265C478.988 382.607 478.998 382.963 479.097 383.3C479.195 383.637 479.379 383.942 479.63 384.188C479.881 384.433 480.191 384.609 480.53 384.7L484.449 385.752L488.368 386.792C488.71 386.883 489.071 386.884 489.414 386.795C489.757 386.706 490.072 386.53 490.327 386.284C490.582 386.038 490.769 385.73 490.87 385.39C490.971 385.051 490.982 384.691 490.902 384.346C490.241 381.349 489.678 377.447 489.298 374.414L490.217 374.659C491.108 377.2 492.642 379.467 494.669 381.241C496.697 383.015 499.149 384.236 501.788 384.784C504.427 385.333 507.163 385.191 509.73 384.372C512.298 383.553 514.61 382.085 516.443 380.111C518.275 378.137 519.566 375.723 520.189 373.103C520.812 370.484 520.746 367.749 519.999 365.162C519.251 362.575 517.847 360.226 515.922 358.341C513.997 356.456 511.618 355.1 509.014 354.405H509.063Z" fill="#3A4668"/>
<path d="M480.751 291.932H480.555C480.802 291.515 480.991 291.066 481.118 290.599C481.427 289.215 481.188 287.766 480.452 286.554C479.716 285.343 478.539 284.462 477.167 284.097C475.796 283.732 474.336 283.911 473.094 284.596C471.851 285.282 470.922 286.42 470.501 287.774C470.37 288.239 470.304 288.721 470.305 289.205H470.134C468.744 288.882 467.284 289.112 466.06 289.845C464.837 290.578 463.947 291.758 463.578 293.134C463.21 294.511 463.391 295.976 464.084 297.222C464.777 298.467 465.928 299.395 467.293 299.808C468.159 300.036 469.066 300.05 469.939 299.849C470.811 299.649 471.622 299.241 472.301 298.659L472.62 298.744C471.971 299.601 471.126 300.689 470.391 301.484C470.297 301.575 470.23 301.69 470.197 301.817C470.163 301.943 470.165 302.076 470.201 302.202C470.238 302.328 470.308 302.441 470.404 302.53C470.5 302.619 470.618 302.68 470.746 302.707L472.118 303.074L473.501 303.441C473.621 303.471 473.746 303.47 473.865 303.438C473.984 303.406 474.093 303.344 474.181 303.259C474.27 303.173 474.335 303.066 474.37 302.948C474.405 302.83 474.41 302.705 474.383 302.585C474.15 301.533 473.954 300.139 473.82 299.099L474.15 299.185C474.465 300.074 475.005 300.867 475.717 301.487C476.429 302.107 477.289 302.532 478.214 302.723C479.139 302.914 480.097 302.863 480.996 302.575C481.896 302.287 482.705 301.772 483.347 301.08C483.989 300.388 484.441 299.542 484.659 298.624C484.878 297.707 484.855 296.748 484.594 295.842C484.333 294.935 483.842 294.112 483.169 293.45C482.495 292.789 481.663 292.312 480.751 292.067V291.932Z" fill="#3A4668"/>
<path d="M514.94 422.248H514.757C515.003 421.831 515.193 421.383 515.32 420.915C515.629 419.532 515.39 418.083 514.654 416.871C513.917 415.659 512.74 414.779 511.369 414.414C509.998 414.049 508.538 414.228 507.296 414.913C506.053 415.598 505.124 416.736 504.703 418.09C504.577 418.552 504.515 419.03 504.519 419.509H504.336C503.419 419.264 502.455 419.26 501.537 419.497C500.619 419.734 499.777 420.205 499.095 420.863C498.413 421.521 497.912 422.344 497.643 423.252C497.373 424.16 497.343 425.123 497.556 426.046C497.769 426.969 498.217 427.821 498.857 428.52C499.497 429.219 500.308 429.741 501.21 430.035C502.111 430.328 503.074 430.384 504.004 430.196C504.933 430.008 505.799 429.584 506.515 428.963L506.834 429.049C506.185 429.905 505.34 430.993 504.605 431.788C504.511 431.879 504.444 431.993 504.41 432.118C504.375 432.244 504.376 432.377 504.411 432.502C504.446 432.627 504.515 432.741 504.609 432.831C504.704 432.92 504.821 432.983 504.948 433.011L506.332 433.378L507.703 433.745C507.823 433.778 507.95 433.779 508.071 433.748C508.192 433.717 508.303 433.656 508.393 433.57C508.483 433.483 508.549 433.376 508.584 433.256C508.62 433.137 508.625 433.01 508.597 432.889C508.364 431.837 508.168 430.443 508.034 429.403L508.352 429.489C508.665 430.383 509.204 431.182 509.917 431.807C510.63 432.431 511.492 432.861 512.421 433.055C513.349 433.248 514.312 433.198 515.216 432.91C516.119 432.622 516.933 432.105 517.577 431.41C518.222 430.715 518.675 429.865 518.894 428.944C519.112 428.022 519.088 427.059 518.824 426.149C518.56 425.239 518.064 424.413 517.386 423.751C516.708 423.089 515.869 422.614 514.952 422.371L514.94 422.248Z" fill="#3A4668"/>
<path opacity="0.15" d="M532.684 299.931C530.138 298.628 527.36 297.841 524.508 297.614C521.657 297.387 518.788 297.725 516.068 298.608C513.348 299.491 510.828 300.902 508.655 302.76C506.482 304.617 504.698 306.886 503.405 309.434L483.469 346.982C476.674 323.442 465.866 301.249 451.52 281.377L416.816 410.764C416.353 412.483 416.234 414.276 416.465 416.04C416.697 417.805 417.274 419.507 418.165 421.048C419.056 422.59 420.242 423.941 421.655 425.024C423.069 426.107 424.683 426.901 426.404 427.361L439.005 430.737L441.222 431.324L513.936 450.783C517.411 451.713 521.114 451.227 524.23 449.431C527.346 447.635 529.621 444.677 530.553 441.206L564.155 315.953L532.684 299.931Z" fill="#231F20"/>
<path d="M528.925 500.377L450.443 455.124C447.337 453.318 445.077 450.354 444.158 446.884C443.24 443.414 443.738 439.722 445.544 436.619L515.442 315.683C517.233 312.58 520.179 310.31 523.638 309.368C527.098 308.426 530.79 308.889 533.909 310.656L612.391 355.909C615.496 357.715 617.757 360.679 618.675 364.149C619.594 367.619 619.095 371.311 617.289 374.414L547.391 495.35C545.601 498.453 542.655 500.723 539.195 501.665C535.736 502.607 532.044 502.144 528.925 500.377Z" fill="#DCDDF7"/>
<path d="M557.849 416.94L549.999 380.249C549.872 379.654 549.622 379.093 549.265 378.601C548.909 378.108 548.453 377.696 547.927 377.39C547.402 377.083 546.818 376.89 546.213 376.822C545.608 376.754 544.996 376.813 544.415 376.995L508.548 388.15C507.51 388.476 506.63 389.176 506.08 390.114C505.53 391.052 505.349 392.161 505.572 393.225L513.434 429.917C513.56 430.511 513.809 431.072 514.164 431.565C514.52 432.058 514.974 432.471 515.498 432.778C516.023 433.085 516.605 433.28 517.209 433.35C517.813 433.419 518.425 433.362 519.006 433.183L554.873 422.028C555.914 421.702 556.796 421 557.346 420.059C557.896 419.118 558.076 418.006 557.849 416.94Z" fill="#E5415C"/>
<path d="M539.75 476.32L537.215 464.456C537.175 464.263 537.095 464.08 536.979 463.92C536.863 463.76 536.715 463.626 536.544 463.526C536.373 463.427 536.183 463.365 535.987 463.344C535.79 463.323 535.591 463.343 535.403 463.404L523.806 467C523.469 467.105 523.183 467.333 523.006 467.639C522.829 467.945 522.774 468.306 522.851 468.651L525.386 480.515C525.428 480.706 525.509 480.886 525.625 481.044C525.74 481.202 525.887 481.335 526.056 481.434C526.225 481.533 526.413 481.595 526.607 481.618C526.802 481.641 526.999 481.624 527.186 481.567L538.783 477.959C539.12 477.856 539.407 477.631 539.586 477.327C539.765 477.024 539.824 476.664 539.75 476.32Z" fill="#E5415C"/>
<path d="M540.031 342.457L537.497 330.593C537.456 330.401 537.376 330.22 537.261 330.061C537.146 329.901 536.999 329.768 536.83 329.669C536.66 329.57 536.472 329.507 536.277 329.485C536.081 329.463 535.884 329.482 535.696 329.541L524.112 333.125C523.775 333.227 523.488 333.453 523.309 333.756C523.13 334.06 523.071 334.419 523.145 334.764L525.68 346.627C525.72 346.821 525.8 347.003 525.916 347.164C526.032 347.324 526.18 347.458 526.351 347.557C526.522 347.656 526.712 347.718 526.908 347.74C527.105 347.761 527.304 347.74 527.492 347.679L539.089 344.071C539.418 343.966 539.697 343.743 539.871 343.445C540.045 343.147 540.102 342.795 540.031 342.457Z" fill="#E5415C"/>
<path opacity="0.15" d="M499.119 458.537C496.698 456.134 494.779 453.275 493.472 450.126C492.164 446.977 491.495 443.6 491.502 440.191V404.723C491.502 404.552 491.502 404.38 491.502 404.209C491.502 403.512 491.502 402.803 491.502 402.093C491.467 389.243 490.154 376.427 487.583 363.836L445.483 436.632C443.677 439.735 443.178 443.428 444.097 446.898C445.015 450.367 447.276 453.331 450.381 455.137L521.724 496.281C521.592 486.417 517.617 476.993 510.642 470.01L499.119 458.537Z" fill="#231F20"/>
<path opacity="0.15" d="M530.688 437.023V436.95C530.641 435.62 530.363 434.308 529.868 433.073L526.439 424.792C525.715 422.84 524.48 421.117 522.863 419.802C521.979 419.039 521 418.393 519.949 417.882H519.888L519.716 417.797L519.006 417.454L518.761 417.344C518.022 417.014 517.261 416.736 516.483 416.512C512.281 415.331 507.889 414.978 503.552 415.473C501.906 415.61 500.27 415.851 498.654 416.194H498.507H498.299L497.074 416.451L496.78 416.525C494.87 416.965 493.731 417.332 493.707 417.344C488.746 418.813 484.014 420.966 479.649 423.741C478.249 424.607 476.903 425.559 475.62 426.59L475.546 426.651L475.179 426.945L474.616 427.398L474.138 427.801L473.305 428.535L473.195 428.633C472.387 429.367 471.971 429.856 471.971 429.856C468.971 432.673 466.626 436.113 465.101 439.934C464.688 441.014 464.404 442.139 464.256 443.285C464.073 444.339 464.044 445.415 464.17 446.477C464.285 447.748 464.621 448.99 465.162 450.146L468.395 457.937C469.184 460.052 470.565 461.894 472.375 463.245C472.375 463.245 472.656 463.478 473.232 463.857C473.55 464.065 473.967 464.322 474.456 464.615L474.861 464.823L475.118 464.958C476.191 465.521 477.325 465.96 478.498 466.266C482.783 467.431 487.255 467.747 491.662 467.196L493.168 467.012C493.78 466.927 494.392 466.829 495.029 466.707H495.115L496.217 466.523C502.907 465.152 509.293 462.578 515.063 458.928C515.063 458.928 516.165 458.268 517.818 457.044C519.13 456.09 520.389 455.065 521.59 453.975C522.263 453.363 522.606 453.021 522.606 453.021C525.613 450.227 527.982 446.819 529.549 443.028C530 442.009 530.297 440.929 530.431 439.824C530.624 438.903 530.711 437.963 530.688 437.023Z" fill="#231F20"/>
<path d="M271.657 427.361L184.125 450.783C180.65 451.713 176.947 451.227 173.831 449.431C170.715 447.635 168.44 444.676 167.508 441.206L131.322 306.327C130.391 302.856 130.877 299.158 132.675 296.046C134.474 292.933 137.436 290.662 140.91 289.73L228.442 266.309C230.163 265.846 231.958 265.727 233.725 265.958C235.491 266.19 237.195 266.766 238.739 267.656C240.282 268.545 241.635 269.73 242.719 271.142C243.804 272.554 244.599 274.166 245.059 275.885L281.245 410.764C282.177 414.235 281.69 417.933 279.892 421.045C278.094 424.158 275.132 426.43 271.657 427.361Z" fill="#DCDDF7"/>
<path d="M201.465 331.314C200.771 331.104 200.033 331.091 199.332 331.277C198.631 331.463 197.996 331.84 197.498 332.365C190.689 339.52 175.651 359.591 178.896 371.675C181.346 380.933 189.134 386.902 198.404 384.419C202.175 383.416 206.094 379.82 208.666 376.396C208.323 379.013 207.87 381.997 207.331 384.394C207.258 384.726 207.273 385.071 207.372 385.396C207.472 385.72 207.653 386.014 207.899 386.249C208.145 386.483 208.447 386.651 208.776 386.735C209.106 386.819 209.451 386.818 209.78 386.73L213.564 385.715L217.36 384.7C217.69 384.613 217.992 384.442 218.236 384.204C218.481 383.966 218.66 383.669 218.756 383.342C218.852 383.015 218.862 382.669 218.784 382.337C218.707 382.005 218.546 381.698 218.315 381.447C216.65 379.637 214.764 377.288 213.147 375.185C217.091 376.873 222.295 378.022 226.054 377.007C235.324 374.561 239.047 365.486 236.561 356.215C233.328 344.131 210.919 334.163 201.465 331.314Z" fill="#3A4668"/>
<path d="M157.16 301.093C156.917 301.017 156.656 301.011 156.41 301.076C156.163 301.141 155.939 301.274 155.764 301.46C153.315 303.967 148.086 311.024 149.237 315.268C150.107 318.521 152.825 320.625 156.095 319.745C157.55 319.188 158.804 318.208 159.695 316.931C159.573 317.849 159.414 318.901 159.23 319.732C159.203 319.849 159.206 319.971 159.24 320.086C159.274 320.202 159.337 320.306 159.424 320.39C159.51 320.473 159.616 320.533 159.732 320.564C159.849 320.594 159.971 320.594 160.087 320.564L161.422 320.197L162.757 319.842C162.871 319.81 162.975 319.75 163.06 319.666C163.144 319.583 163.205 319.479 163.239 319.365C163.272 319.252 163.275 319.131 163.249 319.016C163.222 318.9 163.167 318.793 163.087 318.705C162.499 318.069 161.863 317.237 161.275 316.503C162.686 317.169 164.266 317.391 165.806 317.139C169.063 316.271 170.373 313.091 169.479 309.801C168.353 305.594 160.479 302.096 157.16 301.093Z" fill="#3A4668"/>
<path d="M252.015 396.859C251.771 396.787 251.513 396.784 251.269 396.851C251.024 396.918 250.803 397.052 250.631 397.238C248.182 399.684 242.953 406.802 244.092 411.046C244.961 414.3 247.692 416.403 250.949 415.523C252.406 414.97 253.661 413.989 254.549 412.71C254.427 413.627 254.268 414.679 254.084 415.51C254.057 415.627 254.061 415.749 254.094 415.864C254.128 415.98 254.191 416.084 254.278 416.168C254.364 416.251 254.47 416.311 254.587 416.342C254.703 416.373 254.825 416.373 254.941 416.342L256.276 415.975L257.611 415.62C257.725 415.588 257.829 415.528 257.914 415.444C257.998 415.361 258.06 415.257 258.093 415.144C258.126 415.03 258.129 414.909 258.103 414.794C258.076 414.678 258.021 414.571 257.941 414.483C257.354 413.847 256.717 413.015 256.129 412.281C257.54 412.947 259.12 413.169 260.66 412.917C263.917 412.049 265.228 408.869 264.334 405.579C263.281 401.372 255.333 397.862 252.015 396.859Z" fill="#3A4668"/>
<path opacity="0.15" d="M281.245 410.763L246.517 281.303C232.42 300.829 221.734 322.597 214.911 345.685L195.465 309.568C194.165 307.011 192.373 304.736 190.191 302.873C188.009 301.01 185.48 299.595 182.749 298.711C180.018 297.827 177.14 297.49 174.278 297.721C171.417 297.951 168.629 298.743 166.075 300.052L134.028 316.405L167.508 441.156C168.44 444.627 170.715 447.585 173.831 449.381C176.947 451.177 180.65 451.663 184.125 450.733L206.057 444.862L228.026 439.077L260.501 430.394L271.657 427.409C273.383 426.948 275 426.152 276.417 425.065C277.834 423.978 279.022 422.622 279.913 421.076C280.804 419.529 281.38 417.822 281.608 416.052C281.837 414.283 281.714 412.485 281.245 410.763Z" fill="#231F20"/>
<path d="M165.261 310.951L86.1042 356.387C79.5614 360.143 77.3056 368.485 81.0659 375.02L151.246 496.983C155.006 503.517 163.358 505.77 169.901 502.015L249.058 456.578C255.601 452.822 257.856 444.48 254.096 437.946L183.917 315.983C180.156 309.448 171.804 307.195 165.261 310.951Z" fill="#DCDDF7"/>
<path d="M167.336 375.331C163.369 377.606 160.344 383.819 158.887 388.43C158.738 388.874 158.427 389.246 158.017 389.472C157.606 389.699 157.126 389.763 156.67 389.653C151.956 388.589 145.098 388.027 141.143 390.302C132.351 395.341 131.004 405.565 136.036 414.335C142.674 425.893 169.1 429.452 179.349 429.66C180.03 429.68 180.703 429.512 181.293 429.173C181.884 428.834 182.368 428.338 182.692 427.739C187.591 418.86 197.301 394.57 190.676 383.037C185.643 374.255 176.116 370.305 167.336 375.331Z" fill="#E5415C"/>
<path d="M225.527 428.683C224.143 429.49 223.078 431.655 222.576 433.269C222.525 433.428 222.416 433.563 222.272 433.646C222.127 433.73 221.956 433.757 221.792 433.722C220.139 433.342 217.739 433.147 216.355 433.942C213.282 435.703 212.804 439.286 214.567 442.369C216.894 446.405 226.139 447.652 229.74 447.726C229.987 447.74 230.233 447.685 230.449 447.566C230.666 447.447 230.844 447.269 230.964 447.053C232.679 443.946 236.071 435.446 233.756 431.398C231.944 428.328 228.601 426.921 225.527 428.683Z" fill="#E5415C"/>
<path d="M108.57 360.325C107.174 361.12 106.12 363.297 105.606 364.912C105.56 365.071 105.454 365.206 105.31 365.289C105.166 365.371 104.995 365.394 104.835 365.352C103.182 364.985 100.781 364.79 99.3976 365.585C96.3117 367.346 95.8464 370.929 97.6097 373.999C99.9364 378.048 109.182 379.295 112.782 379.368C113.031 379.394 113.281 379.344 113.5 379.224C113.719 379.104 113.896 378.919 114.007 378.696C115.733 375.589 119.125 367.077 116.811 363.041C114.974 359.959 111.643 358.564 108.57 360.325Z" fill="#E5415C"/>
<path opacity="0.15" d="M253.19 436.057L210.625 362.502C207.883 375.497 206.484 388.739 206.449 402.019C206.449 402.728 206.449 403.438 206.449 404.135C206.449 404.306 206.449 404.477 206.449 404.649V440.117C206.456 443.526 205.787 446.903 204.479 450.052C203.172 453.201 201.253 456.06 198.832 458.463L187.358 470.009C180.376 476.947 176.367 486.323 176.178 496.158L248.17 454.647C249.723 453.757 251.085 452.57 252.179 451.153C253.272 449.737 254.075 448.119 254.541 446.392C255.007 444.665 255.128 442.864 254.896 441.09C254.665 439.317 254.085 437.606 253.19 436.057Z" fill="#231F20"/>
<path opacity="0.15" d="M253.203 371.271C253.082 370.106 252.806 368.963 252.382 367.871V367.81L252.309 367.626C252.211 367.369 252.113 367.137 252.027 366.905L251.917 366.66C251.604 365.912 251.236 365.188 250.815 364.495C248.543 360.775 245.569 357.531 242.059 354.943C240.769 353.932 239.415 353.005 238.006 352.167H237.932H237.871C236.491 351.308 235.069 350.521 233.61 349.806C228.962 347.504 224.016 345.857 218.915 344.914C217.297 344.596 215.661 344.376 214.017 344.254H213.735C212.633 344.168 211.702 344.131 210.955 344.119H210.882C209.767 344.119 209.118 344.119 209.118 344.119C205.002 344.133 200.941 345.06 197.228 346.834C196.191 347.343 195.217 347.971 194.326 348.706C193.478 349.358 192.727 350.129 192.097 350.993C191.328 352.003 190.736 353.136 190.346 354.344L187.358 362.159C186.498 364.249 186.252 366.54 186.648 368.764C186.648 368.764 186.648 369.118 186.856 369.791C186.942 370.17 187.076 370.635 187.26 371.198L187.407 371.638C187.407 371.724 187.468 371.809 187.505 371.907C187.902 373.049 188.432 374.141 189.085 375.16C191.431 378.922 194.488 382.191 198.085 384.786C198.293 384.957 198.71 385.263 199.31 385.691C199.91 386.119 200.314 386.376 200.84 386.706L200.951 386.779L201.881 387.379C202.126 387.538 202.371 387.66 202.628 387.807C203.277 388.198 203.853 388.541 204.392 388.822L205.028 389.164C205.849 389.592 206.339 389.825 206.339 389.825C210.937 392.085 215.824 393.706 220.862 394.644C222.405 394.936 223.962 395.145 225.527 395.267L226.483 395.341C227.377 395.341 228.136 395.426 228.724 395.451H228.993C229.936 395.451 230.45 395.451 230.45 395.451C234.559 395.45 238.62 394.561 242.353 392.846C244.205 391.946 245.868 390.7 247.251 389.177V389.103C248.125 388.097 248.817 386.946 249.296 385.703L252.419 377.313C253.214 375.405 253.485 373.319 253.203 371.271Z" fill="#231F20"/>
<path opacity="0.15" d="M153.793 487.658C154.665 485.702 154.979 483.543 154.699 481.42C154.699 481.42 154.699 481.42 154.699 481.347C154.699 481.053 154.625 480.748 154.564 480.442C154.568 480.409 154.568 480.376 154.564 480.344C154.493 480.037 154.403 479.735 154.295 479.439V479.304C154.221 479.011 154.135 478.717 154.05 478.424L153.952 478.167C153.866 477.91 153.78 477.653 153.682 477.384L153.56 477.091L153.254 476.345C153.193 476.234 153.131 476.112 153.082 476.002C153.033 475.892 152.862 475.525 152.739 475.293L152.47 474.791L152.152 474.229L151.735 473.532L151.49 473.14C151.258 472.785 151.013 472.419 150.756 472.064C145.857 465.154 137.396 459.442 128.346 456.164L150.621 494.727L153.829 487.621L153.793 487.658Z" fill="#231F20"/>
<path d="M279.2 366.111C277.741 363.178 275.887 360.458 273.689 358.026C273.157 357.475 272.428 357.157 271.662 357.141C270.896 357.125 270.154 357.413 269.599 357.941C269.322 358.199 269.1 358.512 268.946 358.858C268.792 359.205 268.711 359.579 268.705 359.959C268.665 360.711 268.915 361.451 269.403 362.026C269.477 362.099 276.751 369.914 277.179 380.445C277.792 393.74 270.91 398.571 270.616 398.791C270.121 399.128 269.742 399.609 269.532 400.169C269.322 400.73 269.29 401.341 269.442 401.92C269.593 402.499 269.921 403.017 270.379 403.402C270.836 403.788 271.403 404.023 272 404.074H272.465C272.949 404.034 273.416 403.874 273.824 403.61C274.228 403.341 283.731 396.944 282.972 380.213C282.837 377.386 282.331 374.59 281.465 371.896C298.132 372.312 305.112 387.245 305.185 387.392C305.399 387.872 305.741 388.286 306.172 388.587C306.603 388.889 307.109 389.068 307.634 389.104C308.117 389.14 308.6 389.056 309.042 388.86C309.731 388.537 310.266 387.959 310.533 387.249C310.801 386.538 310.78 385.751 310.475 385.056C310.402 384.787 301.426 365.047 279.2 366.111Z" fill="url(#paint9_linear)"/>
<path d="M262.424 421.369C263.909 424.547 266.305 427.215 269.309 429.033C272.312 430.851 275.788 431.739 279.297 431.584C282.806 431.429 286.189 430.239 289.021 428.163C291.852 426.087 294.003 423.219 295.202 419.922C296.401 416.625 296.595 413.047 295.757 409.64C294.92 406.234 293.09 403.151 290.499 400.783C287.908 398.415 284.672 396.868 281.2 396.337C277.729 395.806 274.177 396.316 270.996 397.801C266.73 399.791 263.431 403.393 261.824 407.812C260.216 412.232 260.432 417.108 262.424 421.369Z" fill="#D84658"/>
<path d="M268.069 418.738C266.305 414.962 265.928 410.686 267.005 406.66C268.082 402.635 270.544 399.116 273.959 396.723C272.954 396.981 271.975 397.329 271.032 397.762C268.907 398.738 266.997 400.124 265.41 401.84C263.822 403.555 262.59 405.567 261.784 407.76C260.978 409.953 260.613 412.283 260.711 414.617C260.809 416.95 261.367 419.242 262.354 421.359C263.342 423.477 264.738 425.379 266.463 426.956C268.188 428.533 270.208 429.754 272.407 430.55C274.606 431.345 276.941 431.698 279.277 431.589C281.614 431.481 283.905 430.912 286.021 429.916C286.966 429.469 287.872 428.941 288.727 428.339C284.703 429.415 280.428 429.043 276.651 427.288C272.874 425.532 269.836 422.506 268.069 418.738Z" fill="#C12938"/>
<path d="M281.061 406.056C281.32 406.616 281.74 407.088 282.267 407.41C282.794 407.732 283.405 407.891 284.023 407.866C284.64 407.841 285.236 407.634 285.736 407.27C286.235 406.907 286.616 406.403 286.829 405.824C287.041 405.244 287.077 404.615 286.932 404.015C286.786 403.415 286.466 402.872 286.011 402.454C285.556 402.036 284.987 401.762 284.376 401.668C283.765 401.573 283.14 401.662 282.58 401.922C281.833 402.273 281.254 402.903 280.97 403.677C280.686 404.451 280.719 405.306 281.061 406.056Z" fill="#F36C80"/>
<path d="M296.895 360.545C286.89 369.106 276.885 366.892 276.885 366.892C276.885 366.892 276.396 357.414 286.192 348.962C288.962 346.516 292.281 344.774 295.869 343.882C299.457 342.989 303.207 342.974 306.801 343.838C306.801 343.838 306.214 352.607 296.895 360.545Z" fill="#15CEB3"/>
<path d="M296.895 360.545C286.89 369.106 276.886 366.893 276.886 366.893L306.802 343.838C306.802 343.838 306.214 352.607 296.895 360.545Z" fill="#17B079"/>
<path d="M297.74 404.918C299.226 408.096 301.622 410.763 304.625 412.582C307.629 414.4 311.105 415.288 314.613 415.133C318.122 414.978 321.506 413.788 324.337 411.712C327.168 409.636 329.319 406.768 330.519 403.471C331.718 400.174 331.911 396.596 331.074 393.189C330.237 389.782 328.407 386.7 325.816 384.332C323.225 381.964 319.989 380.417 316.517 379.886C313.045 379.355 309.494 379.864 306.312 381.349C302.047 383.34 298.748 386.941 297.14 391.361C295.533 395.781 295.749 400.657 297.74 404.918Z" fill="#D84658"/>
<path d="M303.385 402.288C301.621 398.512 301.244 394.237 302.322 390.211C303.399 386.185 305.86 382.667 309.275 380.273C308.271 380.532 307.291 380.88 306.349 381.313C304.224 382.289 302.313 383.675 300.726 385.39C299.139 387.106 297.907 389.118 297.1 391.311C296.294 393.503 295.929 395.833 296.027 398.167C296.125 400.501 296.684 402.793 297.671 404.91C298.658 407.028 300.054 408.93 301.779 410.507C303.505 412.084 305.525 413.305 307.724 414.1C309.923 414.895 312.258 415.249 314.594 415.14C316.93 415.032 319.222 414.463 321.337 413.467C322.287 413.028 323.194 412.5 324.044 411.889C320.019 412.966 315.745 412.594 311.968 410.838C308.191 409.083 305.152 406.056 303.385 402.288Z" fill="#C12938"/>
<path d="M316.378 389.593C316.637 390.153 317.056 390.625 317.583 390.947C318.11 391.269 318.722 391.428 319.339 391.403C319.957 391.378 320.553 391.171 321.052 390.807C321.552 390.444 321.932 389.94 322.145 389.361C322.358 388.781 322.394 388.152 322.248 387.552C322.103 386.952 321.782 386.409 321.327 385.991C320.872 385.573 320.303 385.3 319.692 385.205C319.082 385.11 318.457 385.199 317.896 385.459C317.149 385.81 316.571 386.44 316.287 387.214C316.002 387.988 316.035 388.843 316.378 389.593Z" fill="#F36C80"/>
<path opacity="0.15" d="M424.837 448.997C435.577 442.207 445.447 434.132 454.226 424.952C384.234 417.628 313.66 417.78 243.7 425.404C283.192 477.69 362.127 488.661 424.837 448.997Z" fill="#262C7A"/>
<path d="M173.532 164.086C172.656 163.948 171.823 163.614 171.095 163.107C170.368 162.601 169.765 161.936 169.332 161.163L167.263 155.549C167.181 155.325 167.023 155.137 166.817 155.018C166.61 154.898 166.368 154.855 166.133 154.896C165.898 154.937 165.685 155.059 165.531 155.241C165.377 155.423 165.292 155.653 165.291 155.891V161.872C165.149 162.747 164.811 163.579 164.303 164.306C163.794 165.032 163.127 165.634 162.352 166.067L159.389 167.706C159.206 167.81 159.06 167.967 158.971 168.156C158.882 168.346 158.853 168.558 158.889 168.764C158.926 168.971 159.025 169.161 159.173 169.308C159.322 169.456 159.513 169.554 159.719 169.59L163.075 170.128C163.951 170.265 164.784 170.601 165.51 171.11C166.236 171.619 166.836 172.287 167.263 173.063L169.344 178.665C169.419 178.895 169.574 179.091 169.781 179.216C169.989 179.341 170.235 179.387 170.473 179.345C170.712 179.303 170.927 179.177 171.08 178.989C171.233 178.801 171.312 178.564 171.304 178.322V172.342C171.444 171.467 171.781 170.636 172.29 169.912C172.799 169.187 173.467 168.588 174.243 168.159L177.218 166.508C177.401 166.403 177.547 166.245 177.635 166.055C177.724 165.864 177.751 165.651 177.714 165.445C177.676 165.238 177.575 165.048 177.425 164.901C177.275 164.754 177.083 164.658 176.875 164.624L173.532 164.086Z" fill="#F5ED32"/>
<path d="M144.78 132.47C143.328 132.238 141.949 131.677 140.75 130.829C139.55 129.98 138.562 128.868 137.861 127.577L134.432 118.319C134.293 117.955 134.031 117.65 133.692 117.458C133.352 117.266 132.956 117.198 132.572 117.266C132.187 117.334 131.839 117.534 131.586 117.831C131.333 118.128 131.192 118.504 131.187 118.894V128.752C130.951 130.201 130.388 131.578 129.539 132.778C128.69 133.978 127.579 134.968 126.289 135.674L121.391 138.389C121.084 138.556 120.837 138.815 120.686 139.129C120.534 139.443 120.486 139.797 120.547 140.141C120.607 140.484 120.775 140.8 121.025 141.043C121.276 141.286 121.596 141.445 121.942 141.496L127.465 142.376C128.916 142.612 130.295 143.175 131.496 144.023C132.697 144.871 133.689 145.981 134.396 147.269L137.812 156.527C137.951 156.892 138.213 157.196 138.553 157.388C138.892 157.58 139.288 157.648 139.673 157.58C140.057 157.512 140.406 157.312 140.658 157.015C140.911 156.718 141.052 156.342 141.057 155.952V146.095C141.291 144.646 141.855 143.27 142.704 142.072C143.553 140.874 144.665 139.886 145.955 139.184L150.854 136.457C151.16 136.291 151.407 136.033 151.559 135.72C151.711 135.407 151.761 135.053 151.702 134.71C151.642 134.367 151.476 134.051 151.227 133.807C150.979 133.563 150.659 133.403 150.315 133.35L144.78 132.47Z" fill="#F5ED32"/>
<path d="M527.602 134.842C528.48 134.703 529.314 134.366 530.041 133.858C530.769 133.349 531.371 132.682 531.803 131.906L533.872 126.305C533.947 126.074 534.102 125.879 534.309 125.754C534.517 125.629 534.762 125.583 535.001 125.624C535.24 125.666 535.455 125.793 535.608 125.981C535.761 126.169 535.84 126.405 535.832 126.647V132.628C535.969 133.503 536.305 134.335 536.815 135.06C537.324 135.785 537.993 136.384 538.771 136.811L541.734 138.462C541.916 138.565 542.062 138.723 542.152 138.912C542.241 139.101 542.27 139.314 542.233 139.52C542.197 139.726 542.098 139.916 541.949 140.064C541.801 140.212 541.61 140.31 541.403 140.345L538.048 140.884C537.174 141.021 536.342 141.356 535.616 141.862C534.891 142.369 534.29 143.034 533.86 143.807L531.778 149.421C531.692 149.637 531.533 149.817 531.329 149.93C531.126 150.043 530.889 150.083 530.66 150.043C530.43 150.003 530.221 149.885 530.068 149.709C529.915 149.534 529.827 149.311 529.819 149.078V143.097C529.679 142.223 529.344 141.391 528.837 140.665C528.33 139.938 527.665 139.336 526.892 138.902L523.917 137.263C523.734 137.16 523.588 137.003 523.499 136.813C523.409 136.624 523.381 136.411 523.417 136.205C523.453 135.999 523.553 135.809 523.701 135.661C523.85 135.513 524.04 135.415 524.247 135.38L527.602 134.842Z" fill="#F5ED32"/>
<path d="M534.693 63.4759C535.829 63.2936 536.91 62.8568 537.854 62.198C538.798 61.5393 539.58 60.6758 540.142 59.6721L542.836 52.3338C542.945 52.0459 543.151 51.8051 543.419 51.653C543.687 51.5009 544 51.447 544.303 51.5007C544.607 51.5544 544.882 51.7122 545.081 51.9469C545.281 52.1816 545.392 52.4785 545.395 52.7863V60.565C545.577 61.7117 546.019 62.8017 546.688 63.7515C547.356 64.7012 548.234 65.4855 549.253 66.0443L553.11 68.1846C553.346 68.3206 553.534 68.5259 553.648 68.7724C553.763 69.019 553.798 69.2949 553.75 69.5624C553.702 69.8299 553.572 70.076 553.379 70.2672C553.185 70.4584 552.938 70.5854 552.669 70.6307L548.31 71.3279C547.172 71.5106 546.09 71.949 545.146 72.61C544.202 73.271 543.42 74.1374 542.86 75.1438L540.166 82.4822C540.077 82.8053 539.867 83.0822 539.58 83.2567C539.293 83.4312 538.951 83.4902 538.622 83.4217C538.293 83.3533 538.003 83.1625 537.81 82.8881C537.617 82.6136 537.536 82.2761 537.583 81.944V74.1654C537.4 73.03 536.963 71.9505 536.303 71.008C535.644 70.0654 534.779 69.2841 533.774 68.7228L529.905 66.5824C529.669 66.4464 529.481 66.2412 529.366 65.9946C529.252 65.748 529.216 65.4722 529.265 65.2047C529.313 64.9372 529.442 64.691 529.636 64.4998C529.829 64.3086 530.077 64.1817 530.345 64.1363L534.693 63.4759Z" fill="#F5ED32"/>
<path d="M555.069 110.932C556.519 110.696 557.896 110.133 559.095 109.285C560.294 108.437 561.284 107.327 561.988 106.04L565.417 96.781C565.549 96.4123 565.808 96.1022 566.147 95.9052C566.486 95.7083 566.884 95.6371 567.27 95.7044C567.656 95.7716 568.007 95.9729 568.259 96.2728C568.511 96.5726 568.65 96.9519 568.649 97.3436V107.214C568.884 108.662 569.448 110.038 570.297 111.236C571.146 112.433 572.258 113.421 573.548 114.124L578.446 116.839C578.746 117.011 578.986 117.27 579.133 117.583C579.279 117.896 579.326 118.246 579.265 118.586C579.205 118.926 579.041 119.239 578.796 119.483C578.55 119.726 578.236 119.888 577.895 119.946L572.36 120.826C570.91 121.062 569.533 121.625 568.334 122.473C567.135 123.321 566.145 124.431 565.441 125.719L562.074 134.989C561.934 135.354 561.673 135.658 561.333 135.85C560.993 136.042 560.597 136.11 560.213 136.042C559.829 135.974 559.48 135.774 559.227 135.477C558.975 135.18 558.834 134.804 558.828 134.415V124.544C558.597 123.102 558.042 121.731 557.204 120.535C556.367 119.338 555.268 118.346 553.991 117.634L549.093 114.919C548.793 114.748 548.553 114.488 548.407 114.175C548.26 113.862 548.213 113.512 548.274 113.172C548.334 112.832 548.498 112.519 548.743 112.275C548.989 112.032 549.303 111.87 549.644 111.812L555.069 110.932Z" fill="#F5ED32"/>
<path d="M112.66 538.611C111.521 538.428 110.44 537.99 109.496 537.329C108.552 536.668 107.77 535.802 107.21 534.795L104.516 527.457C104.407 527.169 104.201 526.928 103.933 526.776C103.665 526.624 103.352 526.57 103.049 526.624C102.745 526.677 102.47 526.835 102.271 527.07C102.072 527.305 101.961 527.602 101.957 527.909V535.676C101.776 536.813 101.34 537.895 100.68 538.84C100.02 539.785 99.155 540.568 98.1487 541.131L94.2913 543.32C94.0557 543.456 93.8677 543.661 93.7532 543.908C93.6387 544.154 93.6031 544.43 93.6513 544.698C93.6995 544.965 93.8292 545.211 94.0226 545.402C94.216 545.594 94.4638 545.721 94.7321 545.766L99.0916 546.463C100.229 546.644 101.31 547.08 102.254 547.739C103.198 548.398 103.98 549.262 104.541 550.267L107.235 557.605C107.344 557.892 107.549 558.132 107.816 558.285C108.082 558.437 108.394 558.492 108.696 558.44C108.999 558.388 109.274 558.232 109.475 557.999C109.675 557.767 109.788 557.472 109.794 557.165V549.386C109.977 548.251 110.414 547.171 111.074 546.229C111.733 545.286 112.598 544.505 113.603 543.944L117.46 541.816C117.696 541.68 117.884 541.474 117.998 541.228C118.113 540.981 118.148 540.705 118.1 540.438C118.052 540.17 117.922 539.924 117.729 539.733C117.535 539.542 117.287 539.415 117.019 539.369L112.66 538.611Z" fill="#F5ED32"/>
<path d="M83.7354 223.453C82.5968 223.276 81.5139 222.841 80.5694 222.182C79.6249 221.522 78.8439 220.656 78.2861 219.649L75.5798 212.311C75.4771 212.017 75.2732 211.77 75.0045 211.613C74.7358 211.456 74.4199 211.399 74.1134 211.454C73.8069 211.508 73.5298 211.67 73.3318 211.91C73.1338 212.15 73.0277 212.452 73.0327 212.763V220.542C72.8498 221.679 72.4109 222.759 71.7491 223.702C71.0873 224.645 70.2198 225.425 69.2121 225.984L65.3547 228.125C65.1126 228.255 64.9178 228.458 64.7978 228.706C64.6778 228.953 64.6387 229.232 64.6861 229.502C64.7335 229.773 64.865 230.022 65.062 230.214C65.2589 230.405 65.5113 230.53 65.7833 230.571L70.1428 231.268C71.2822 231.447 72.3655 231.884 73.3099 232.546C74.2544 233.207 75.035 234.075 75.5921 235.084L78.2983 242.422C78.401 242.716 78.605 242.963 78.8737 243.12C79.1424 243.277 79.4583 243.334 79.7648 243.279C80.0713 243.225 80.3484 243.063 80.5464 242.823C80.7444 242.583 80.8504 242.281 80.8454 241.97V234.191C81.0231 233.048 81.4596 231.96 82.1217 231.011C82.7838 230.061 83.654 229.275 84.6661 228.712L88.5234 226.572C88.7655 226.441 88.9604 226.238 89.0804 225.991C89.2004 225.743 89.2395 225.465 89.192 225.194C89.1446 224.924 89.0131 224.675 88.8162 224.483C88.6193 224.291 88.3669 224.166 88.0948 224.125L83.7354 223.453Z" fill="#F5ED32"/>
<path d="M618.673 282.526C619.549 282.384 620.382 282.047 621.109 281.539C621.837 281.03 622.44 280.364 622.873 279.591L624.943 273.977C625.03 273.76 625.189 273.58 625.394 273.466C625.599 273.353 625.837 273.314 626.067 273.356C626.297 273.398 626.506 273.518 626.658 273.695C626.81 273.873 626.896 274.098 626.902 274.331V280.312C627.039 281.187 627.376 282.019 627.885 282.744C628.394 283.47 629.064 284.068 629.841 284.495L632.804 286.146C632.987 286.25 633.132 286.407 633.222 286.596C633.311 286.786 633.34 286.998 633.304 287.204C633.267 287.411 633.168 287.601 633.02 287.748C632.871 287.896 632.68 287.994 632.474 288.03L629.118 288.556C628.242 288.697 627.409 289.035 626.682 289.543C625.954 290.051 625.351 290.717 624.918 291.491L622.849 297.105C622.761 297.322 622.602 297.502 622.397 297.615C622.192 297.728 621.954 297.767 621.724 297.725C621.494 297.684 621.285 297.564 621.133 297.386C620.981 297.208 620.895 296.984 620.889 296.75V290.769C620.75 289.896 620.414 289.067 619.907 288.342C619.4 287.618 618.735 287.017 617.963 286.586L614.987 284.972C614.804 284.869 614.659 284.711 614.569 284.522C614.48 284.333 614.451 284.12 614.487 283.914C614.524 283.708 614.623 283.518 614.771 283.37C614.92 283.222 615.111 283.124 615.318 283.089L618.673 282.526Z" fill="#F5ED32"/>
<path d="M389.092 241.824C389.092 241.824 437.817 187.116 415.8 168.196C400.566 155.084 385.088 176.048 375.72 160.857C361.625 137.925 349 138.732 349 138.732C349 138.732 336.375 137.925 322.28 160.82C312.912 176.035 297.446 155.06 282.2 168.159C260.158 187.08 308.908 241.787 308.908 241.787L389.092 241.824Z" fill="#5F6BEB"/>
<path d="M402.44 238.265C402.434 235.373 401.664 232.535 400.208 230.035C398.753 227.535 396.663 225.464 394.149 224.029C380.524 215.819 364.913 211.48 349 211.48C333.087 211.48 317.476 215.819 303.85 224.029C301.337 225.464 299.247 227.535 297.791 230.035C296.336 232.535 295.566 235.373 295.56 238.265V245.53H402.44V238.265Z" fill="#FBB316"/>
<path d="M506.27 474.326L494.796 462.866C491.811 459.888 489.444 456.351 487.828 452.458C486.212 448.565 485.38 444.393 485.379 440.179V404.71C485.379 403.841 485.379 402.961 485.379 402.08C485.379 318.839 424.323 227.293 349 227.293C273.677 227.293 212.62 318.778 212.62 402.019C212.62 402.9 212.62 403.78 212.62 404.649V440.117C212.62 444.331 211.788 448.504 210.172 452.397C208.556 456.29 206.188 459.827 203.204 462.805L191.729 474.265C188.745 477.244 186.377 480.781 184.761 484.673C183.145 488.566 182.313 492.739 182.312 496.953C182.312 549.544 277.338 542.39 347.249 542.39C417.159 542.39 515.687 550.523 515.687 496.953C515.669 488.463 512.283 480.327 506.27 474.326Z" fill="#5F6BEB"/>
<path d="M349 545.985C427.012 545.985 490.253 538.439 490.253 529.131C490.253 519.823 427.012 512.277 349 512.277C270.988 512.277 207.747 519.823 207.747 529.131C207.747 538.439 270.988 545.985 349 545.985Z" fill="#4659C0"/>
<path d="M432.54 376.543C432.54 393.045 427.64 409.177 418.461 422.898C409.281 436.619 396.234 447.313 380.969 453.628C365.704 459.943 348.907 461.596 332.702 458.376C316.497 455.157 301.612 447.21 289.929 435.541C278.245 423.873 270.289 409.005 267.066 392.82C263.842 376.635 265.497 359.859 271.82 344.613C278.142 329.366 288.85 316.335 302.588 307.167C316.326 297.999 332.477 293.105 349 293.105C371.156 293.105 392.405 301.896 408.071 317.544C423.738 333.191 432.54 354.414 432.54 376.543Z" fill="#929AFB"/>
<path d="M417.159 376.544C417.159 390.008 413.162 403.17 405.672 414.365C398.183 425.56 387.538 434.285 375.083 439.438C362.629 444.59 348.924 445.938 335.703 443.312C322.481 440.685 310.336 434.201 300.804 424.681C291.272 415.16 284.78 403.03 282.151 389.825C279.521 376.62 280.87 362.932 286.029 350.493C291.188 338.054 299.924 327.422 311.133 319.942C322.341 312.461 335.519 308.469 349 308.469C367.076 308.472 384.411 315.645 397.192 328.411C409.974 341.177 417.156 358.49 417.159 376.544Z" fill="#FBB316"/>
<path d="M319.206 414.005V340.72C319.081 338.406 319.878 336.137 321.423 334.409C322.222 333.612 323.18 332.992 324.235 332.59C325.29 332.187 326.418 332.011 327.545 332.073H355.037C364.417 332.073 371.474 334.225 376.209 338.53C380.944 342.835 383.304 348.71 383.287 356.155C383.287 365.189 379.859 371.614 373.001 375.43V375.699C376.48 377.268 379.392 379.869 381.34 383.147C383.759 387.058 384.981 391.59 384.855 396.185C384.855 404.959 382.185 411.539 376.846 415.925C371.507 420.312 363.927 422.506 354.106 422.506H327.545C326.419 422.569 325.291 422.396 324.236 421.995C323.181 421.595 322.222 420.977 321.423 420.182C320.665 419.348 320.079 418.374 319.698 417.314C319.318 416.254 319.151 415.13 319.206 414.005ZM339.203 369.046H352.673C355.779 369.219 358.837 368.224 361.245 366.257C363.247 364.15 364.369 361.36 364.382 358.456C364.396 355.552 363.3 352.752 361.319 350.626C359.274 348.816 356.421 347.899 352.649 347.899H339.203C339.095 347.887 338.986 347.899 338.883 347.936C338.781 347.972 338.688 348.032 338.612 348.11C338.537 348.188 338.48 348.282 338.446 348.386C338.413 348.489 338.404 348.599 338.419 348.706V368.275C338.407 368.38 338.42 368.487 338.455 368.587C338.49 368.686 338.548 368.777 338.623 368.851C338.699 368.925 338.79 368.982 338.891 369.015C338.991 369.049 339.098 369.059 339.203 369.046ZM338.419 405.884C338.404 405.992 338.413 406.101 338.446 406.205C338.48 406.308 338.537 406.402 338.612 406.48C338.688 406.558 338.781 406.618 338.883 406.655C338.986 406.691 339.095 406.704 339.203 406.691H353.665C357.568 406.691 360.568 405.693 362.666 403.695C363.746 402.58 364.582 401.253 365.119 399.798C365.657 398.343 365.885 396.792 365.788 395.244C365.867 393.733 365.622 392.223 365.071 390.815C364.52 389.406 363.675 388.131 362.592 387.073C360.119 384.955 356.918 383.881 353.665 384.077H339.203C339.096 384.062 338.986 384.073 338.884 384.108C338.781 384.143 338.688 384.202 338.612 384.279C338.536 384.356 338.479 384.45 338.446 384.553C338.412 384.656 338.403 384.765 338.419 384.872V405.884Z" fill="#5F6BEB"/>
<path opacity="0.15" d="M286.547 563.684C289.15 563.445 291.645 562.529 293.783 561.027C295.921 559.525 297.627 557.489 298.732 555.123L311.186 528.655C312.303 526.284 312.777 523.662 312.563 521.05C312.348 518.438 311.451 515.928 309.961 513.771L293.074 489.689L293.001 489.603C291.484 487.469 289.432 485.77 287.05 484.678C284.669 483.585 282.042 483.137 279.433 483.378L253.398 485.726H253.154C250.546 485.962 248.047 486.877 245.904 488.38C243.802 489.837 242.115 491.813 241.006 494.116L240.92 494.275L228.479 520.755C227.368 523.121 226.897 525.737 227.112 528.341C227.327 530.946 228.22 533.449 229.703 535.602V535.676L232.152 539.113C246.484 549.597 262.165 558.104 278.771 564.406L286.535 563.708L286.547 563.684Z" fill="#231F20"/>
<path opacity="0.15" d="M451.753 521.953C450.992 521.758 450.219 521.615 449.439 521.525C448.729 521.21 447.996 520.948 447.247 520.742C443.056 519.621 438.59 520.207 434.831 522.372C431.073 524.537 428.328 528.103 427.201 532.288C426.953 533.234 426.789 534.2 426.711 535.175L426.454 535.089C422.48 534.017 418.249 534.481 414.603 536.389C410.958 538.297 408.167 541.508 406.788 545.38C405.409 549.253 405.543 553.503 407.164 557.281C408.784 561.06 411.772 564.089 415.53 565.763C432.615 559.678 448.779 551.274 463.57 540.788C464.345 536.739 463.558 532.546 461.366 529.052C459.174 525.559 455.74 523.023 451.753 521.953Z" fill="#231F20"/>
<path opacity="0.15" d="M222.086 391.037C223.629 391.33 225.187 391.538 226.752 391.661L227.707 391.734C228.601 391.734 229.36 391.82 229.948 391.844H230.218C231.16 391.844 231.675 391.844 231.675 391.844C235.784 391.843 239.844 390.955 243.578 389.239C245.43 388.339 247.092 387.094 248.476 385.57V385.497C249.35 384.49 250.041 383.34 250.521 382.097L253.643 373.706C254.452 371.776 254.723 369.663 254.427 367.591C254.306 366.426 254.03 365.283 253.607 364.191V364.13L253.533 363.946C253.435 363.69 253.337 363.457 253.252 363.225L253.141 362.98C252.829 362.232 252.461 361.508 252.039 360.815C249.767 357.095 246.794 353.851 243.284 351.263C241.993 350.253 240.639 349.325 239.23 348.487H239.157H239.096C237.716 347.629 236.294 346.841 234.834 346.127C230.972 344.225 226.904 342.773 222.711 341.797C217.684 356.959 214.502 372.67 213.233 388.591C216.139 389.655 219.129 390.473 222.172 391.037H222.086Z" fill="#231F20"/>
<path opacity="0.15" d="M485.379 440.179V416.391C482.983 417.467 480.667 418.714 478.448 420.121C477.048 420.988 475.703 421.939 474.42 422.971L474.346 423.032L473.979 423.325L473.415 423.778L472.938 424.182L472.105 424.915L471.995 425.013C471.187 425.747 470.77 426.236 470.77 426.236C467.77 429.054 465.425 432.494 463.901 436.314C463.488 437.394 463.204 438.519 463.056 439.665C462.873 440.72 462.844 441.795 462.97 442.858C463.085 444.129 463.421 445.37 463.962 446.527L467.195 454.318C467.984 456.432 469.365 458.275 471.174 459.626C471.174 459.626 471.456 459.858 472.032 460.237C472.35 460.445 472.766 460.702 473.256 460.996L473.66 461.203L473.918 461.338C474.991 461.901 476.124 462.34 477.297 462.647C481.582 463.812 486.055 464.128 490.461 463.576L491.968 463.393C492.58 463.307 493.192 463.209 493.829 463.087H493.915L494.809 462.928C491.814 459.943 489.44 456.397 487.822 452.493C486.204 448.589 485.374 444.404 485.379 440.179Z" fill="#231F20"/>
<path d="M467.452 548.444H467.182C467.609 547.56 467.953 546.638 468.211 545.692C469.338 541.506 468.754 537.044 466.587 533.288C464.42 529.532 460.849 526.79 456.657 525.664C452.466 524.539 447.999 525.122 444.238 527.286C440.478 529.45 437.732 533.018 436.605 537.204C436.359 538.154 436.195 539.124 436.115 540.102L435.858 540.017C433.316 539.338 430.647 539.282 428.079 539.854C425.51 540.425 423.117 541.606 421.104 543.298C419.09 544.99 417.514 547.142 416.511 549.572C415.507 552.001 415.105 554.637 415.339 557.255C415.573 559.873 416.436 562.395 417.854 564.609C419.272 566.823 421.204 568.663 423.486 569.972C425.768 571.281 428.332 572.021 430.961 572.129C433.59 572.237 436.207 571.71 438.589 570.593C434.193 575.95 429.221 580.794 425.89 580.378L424.666 585.05L439.618 588.976L454.594 593L455.819 588.315C452.708 587.019 450.847 580.341 449.696 573.504C451.193 575.664 453.191 577.431 455.518 578.656C457.846 579.88 460.435 580.525 463.066 580.536C465.696 580.548 468.291 579.925 470.629 578.72C472.967 577.516 474.98 575.766 476.496 573.619C478.012 571.472 478.987 568.991 479.338 566.387C479.689 563.783 479.405 561.133 478.511 558.662C477.618 556.19 476.14 553.971 474.204 552.192C472.268 550.413 469.931 549.127 467.391 548.444H467.452Z" fill="#B45701"/>
<path d="M462.945 547.245L462.676 547.184C463.099 546.299 463.443 545.378 463.705 544.432C464.83 540.246 464.244 535.785 462.076 532.03C459.909 528.275 456.336 525.535 452.145 524.411C447.954 523.287 443.487 523.872 439.728 526.037C435.968 528.202 433.224 531.77 432.099 535.956C431.851 536.902 431.688 537.868 431.609 538.843L431.352 538.757C428.81 538.079 426.141 538.023 423.572 538.594C421.004 539.165 418.611 540.347 416.597 542.039C414.583 543.73 413.008 545.882 412.004 548.312C411.001 550.742 410.599 553.377 410.833 555.995C411.067 558.613 411.929 561.136 413.347 563.35C414.766 565.564 416.698 567.403 418.979 568.712C421.261 570.021 423.826 570.761 426.455 570.87C429.084 570.978 431.701 570.451 434.083 569.334C429.686 574.691 424.715 579.534 421.372 579.118L420.147 583.79L435.123 587.814L450.1 591.838L451.324 587.166C448.214 585.869 446.353 579.191 445.202 572.355C446.699 574.515 448.697 576.282 451.024 577.506C453.352 578.73 455.941 579.376 458.572 579.387C461.202 579.398 463.797 578.775 466.135 577.571C468.473 576.367 470.485 574.617 472.002 572.469C473.518 570.322 474.493 567.841 474.844 565.237C475.194 562.633 474.911 559.983 474.017 557.512C473.124 555.041 471.646 552.822 469.71 551.043C467.774 549.264 465.437 547.978 462.896 547.294L462.945 547.245Z" fill="#FD8914"/>
<path d="M473.281 444.471L470.048 436.631L473.611 435.151C477.395 424.755 491.429 414.58 507.042 411.436C515.357 409.773 522.606 410.397 527.725 412.782L531.313 411.289L534.741 419.57C535.56 421.588 535.81 423.792 535.464 425.942C533.848 437.426 518.492 449.559 501.176 453.045C487.081 455.919 476.048 452.152 473.281 444.471Z" fill="#E37004"/>
<path d="M479.746 444.094L473.452 440.926L477.273 449.83C478.128 450.499 479.052 451.077 480.028 451.554C481.101 452.118 482.235 452.557 483.408 452.863L479.746 444.094Z" fill="#BBBBBB"/>
<path d="M502.425 443.016L492.629 444.96L496.303 453.803C497.907 453.652 499.501 453.411 501.078 453.081C502.731 452.758 504.366 452.35 505.977 451.858L502.425 443.016Z" fill="#BBBBBB"/>
<path d="M523.929 430.859L516.385 436.767L520.059 445.512C521.457 444.637 522.802 443.682 524.088 442.65C525.32 441.706 526.493 440.689 527.602 439.604L523.929 430.859Z" fill="#BBBBBB"/>
<path d="M531.962 414.824L530.884 420.878L534.558 429.611C535.008 428.592 535.305 427.512 535.44 426.407C535.619 425.472 535.689 424.52 535.648 423.569L531.962 414.824Z" fill="#BBBBBB"/>
<path d="M497.54 444.349C514.855 440.863 530.211 428.731 531.827 417.246C533.444 405.762 520.733 399.267 503.418 402.741C486.102 406.214 470.746 418.347 469.13 429.844C467.513 441.34 480.224 447.823 497.54 444.349Z" fill="#FD8914"/>
<path d="M498.519 437.354C510.017 435.043 520.218 426.995 521.296 419.363C522.373 411.731 513.948 407.426 502.425 409.738C490.902 412.049 480.738 420.097 479.66 427.729C478.583 435.361 487.032 439.666 498.519 437.354Z" fill="white"/>
<path d="M476.122 430.787L476.807 425.895L469.974 426.469C469.562 427.549 469.278 428.674 469.129 429.821C468.947 430.875 468.918 431.95 469.044 433.013L476.122 430.787Z" fill="white"/>
<path d="M484.204 439.409L479.501 436.963L473.452 440.877C474.296 441.616 475.23 442.244 476.232 442.748C477.353 443.327 478.531 443.79 479.746 444.13L484.204 439.409Z" fill="white"/>
<path d="M501.862 438.771L494.514 440.239L492.727 445.07C494.34 444.927 495.943 444.686 497.527 444.349C499.181 444.03 500.816 443.622 502.425 443.126L501.862 438.771Z" fill="white"/>
<path d="M518.614 429.293L512.944 433.769L516.385 436.827C517.82 435.929 519.202 434.949 520.524 433.892C521.722 432.975 522.859 431.982 523.929 430.92L518.614 429.293Z" fill="white"/>
<path d="M524.859 416.402L524.161 421.295L530.884 420.915C531.283 419.897 531.574 418.839 531.753 417.76C531.967 416.809 532.037 415.833 531.962 414.861L524.859 416.402Z" fill="white"/>
<path d="M499.229 408.317L506.577 406.838L508.438 401.945C506.792 402.083 505.156 402.324 503.54 402.667C501.887 402.992 500.253 403.4 498.642 403.89L499.229 408.317Z" fill="white"/>
<path d="M516.875 407.756L521.577 410.202L527.7 406.398C526.816 405.635 525.836 404.989 524.786 404.478C523.676 403.907 522.516 403.44 521.32 403.084L516.875 407.756Z" fill="white"/>
<path d="M482.343 417.883L488.012 413.394L484.559 410.324C481.778 412.085 479.192 414.135 476.844 416.44L482.343 417.883Z" fill="white"/>
<path d="M493.217 198.197L512.454 191.385L535.623 199.2L544.024 212.409L550.269 235.745L506.442 263.068L482.636 234.155L476.391 210.819L493.217 198.197Z" fill="#B45701"/>
<path d="M535.623 199.2L539.541 213.84L520.291 220.653L497.123 212.837L493.216 198.197L512.454 191.385L535.623 199.2Z" fill="#FDB515"/>
<path d="M482.636 234.154L519.581 246.617L520.291 220.651L497.123 212.836L482.636 234.154Z" fill="#FD983E"/>
<path d="M476.391 210.819L482.636 234.155L497.123 212.837L493.217 198.197L476.391 210.819Z" fill="#FDAB40"/>
<path d="M519.582 246.618L550.269 235.745L539.542 213.84L520.292 220.652L519.582 246.618Z" fill="#FD8914"/>
<path d="M506.442 263.067L519.581 246.617L482.636 234.154L506.442 263.067Z" fill="#FD8914"/>
<path d="M84.6905 459.271C82.7679 463.527 83.6373 469.055 87.7396 474.816C96.0176 486.435 114.3 494.74 128.591 493.345C135.779 492.648 140.592 489.676 142.539 485.322L146.47 476.614C148.417 472.358 147.559 466.83 143.433 461.032C135.167 449.401 116.872 441.096 102.581 442.491C95.2339 443.212 90.3357 446.392 88.4988 450.893C88.5233 450.807 84.6905 459.271 84.6905 459.271Z" fill="#F5AE34"/>
<path d="M143.408 461.093C151.686 472.725 146.812 483.267 132.522 484.662C118.231 486.056 99.9485 477.751 91.6705 466.12C83.3924 454.489 88.2662 443.971 102.557 442.527C116.847 441.084 135.142 449.438 143.408 461.093Z" fill="#FBDC3A"/>
<path d="M111.276 454.77L109.451 464.15L99.7773 460.53L110.333 472.076L135.118 469.654L128.946 457.693L125.334 462.597L111.276 454.77Z" fill="#F6EF31"/>
<path d="M137.151 461.668C143.433 470.499 139.735 478.522 128.885 479.574C118.035 480.626 104.186 474.327 97.9648 465.496C91.744 456.666 95.3197 448.655 106.169 447.64C117.019 446.625 130.905 452.838 137.151 461.668ZM110.333 472.101L135.118 469.655L128.995 457.693L125.321 462.586L111.264 454.758L109.439 464.139L99.7649 460.47L110.333 472.101Z" fill="#F5AE34"/>
<path d="M144.069 230.314C141.853 233.983 142.061 239.169 145.221 244.905C151.588 256.451 167.495 266.003 180.733 266.236C187.407 266.358 192.133 264.095 194.374 260.34L198.918 252.77C201.158 249.1 200.95 243.89 197.779 238.093C191.423 226.547 175.516 216.983 162.266 216.751C155.397 216.628 150.596 219.025 148.441 222.976L144.069 230.314Z" fill="#F5AE34"/>
<path d="M197.779 238.179C204.147 249.724 198.551 258.897 185.289 258.665C172.027 258.433 156.12 248.881 149.776 237.323C143.433 225.765 149.005 216.604 162.267 216.836C175.529 217.069 191.424 226.633 197.779 238.179Z" fill="#FBDC3A"/>
<path d="M168.953 228.994L166.283 237.409L157.797 233.067L166.246 244.772L189.256 245.187L184.86 233.544L181.027 237.666L168.953 228.994Z" fill="#F6EF31"/>
<path d="M191.999 238.068C196.897 246.837 192.599 253.809 182.521 253.638C172.443 253.466 160.369 246.189 155.581 237.42C150.793 228.65 155.005 221.691 165.071 221.862C175.137 222.034 187.174 229.299 191.999 238.068ZM166.283 244.77L189.293 245.186L184.909 233.604L181.076 237.726L168.99 228.993L166.32 237.408L157.834 233.066L166.283 244.77Z" fill="#F5AE34"/>
<path d="M609.452 520.449C607.284 516.51 602.484 514.101 595.627 514.223C582.352 514.468 566.445 524.008 560.114 535.566C556.943 541.326 556.747 546.488 558.976 550.242L563.506 557.825C565.747 561.568 570.474 563.83 577.148 563.72C590.41 563.476 606.317 553.936 612.66 542.378C615.82 536.642 616.028 531.493 613.811 527.787L609.452 520.449Z" fill="#F5AE34"/>
<path d="M595.627 514.223C608.889 513.991 614.473 523.164 608.117 534.709C601.762 546.255 585.842 555.819 572.605 556.052C559.367 556.284 553.747 547.123 560.114 535.565C566.482 524.008 582.352 514.468 595.627 514.223Z" fill="#FBDC3A"/>
<path d="M588.928 526.381L591.586 534.796L600.084 530.454L591.622 542.171L568.613 542.574L573.009 530.943L576.842 535.065L588.928 526.381Z" fill="#F6EF31"/>
<path d="M592.847 519.261C602.925 519.078 607.162 526.037 602.337 534.819C597.513 543.6 585.426 550.841 575.397 551.024C565.368 551.208 561.082 544.236 565.919 535.467C570.756 526.698 582.781 519.433 592.847 519.261ZM591.622 542.169L600.084 530.452L591.586 534.794L588.928 526.38L576.842 535.063L573.009 530.942L568.613 542.573L591.622 542.169Z" fill="#F5AE34"/>
<path d="M237.565 65.1285C234.662 68.0393 233.671 72.8337 235.262 78.8634C238.483 90.9839 250.961 103.459 263.158 106.725C269.281 108.364 274.179 107.361 277.118 104.413L283.045 98.4568C285.959 95.5582 286.963 90.7393 285.359 84.6974C282.151 72.5769 269.66 60.1017 257.476 56.8361C251.157 55.1483 246.173 56.2613 243.271 59.4045L237.565 65.1285Z" fill="#F5AE34"/>
<path d="M285.323 84.7208C288.543 96.8413 281.269 104.021 269.073 100.767C256.876 97.514 244.41 85.0266 241.238 72.9061C238.067 60.7856 245.292 53.594 257.488 56.8596C269.685 60.1251 282.126 72.6003 285.323 84.7208Z" fill="#FBDC3A"/>
<path d="M260.832 69.6172L256.436 76.7843L249.59 70.8158L254.709 83.5723L275.857 89.235L274.473 77.4815L269.979 80.4046L260.832 69.6172Z" fill="#F6EF31"/>
<path d="M280.02 83.303C282.47 92.5004 276.947 97.9797 267.689 95.5336C258.431 93.0875 248.953 83.5843 246.504 74.3747C244.055 65.165 249.59 59.698 258.848 62.1441C268.105 64.5902 277.584 74.0934 280.02 83.303ZM254.709 83.5721L275.857 89.2837L274.473 77.5301L269.979 80.4533L260.832 69.6292L256.435 76.7841L249.59 70.8156L254.709 83.5721Z" fill="#F5AE34"/>
<path d="M411.967 125.89L408.354 119.53L411.257 117.879C413.4 108.534 424.384 98.3096 437.487 93.9066C444.455 91.5828 450.761 91.3504 455.414 92.8548L458.341 91.1914L462.186 97.9427C463.108 99.5872 463.562 101.453 463.496 103.336C463.325 113.402 451.41 125.474 436.887 130.317C425.07 134.268 415.126 132.201 411.967 125.89Z" fill="#5F6BEB"/>
<path d="M417.49 124.887L411.734 122.82L415.984 130.073C416.799 130.571 417.665 130.981 418.567 131.296C419.551 131.669 420.574 131.928 421.617 132.067L417.49 124.887Z" fill="#BBBBBB"/>
<path d="M436.887 121.523L428.719 124.239L432.821 131.455C434.185 131.16 435.53 130.784 436.85 130.329C439.397 129.473 440.977 128.739 440.977 128.739L436.887 121.523Z" fill="#BBBBBB"/>
<path d="M454.08 108.766L448.189 114.661L452.255 121.803C453.356 120.895 454.406 119.927 455.402 118.905C456.36 117.957 457.263 116.957 458.108 115.908L454.08 108.766Z" fill="#BBBBBB"/>
<path d="M459.284 94.1758L459.002 99.4839L463.043 106.614C463.325 105.691 463.465 104.73 463.46 103.765C463.516 102.947 463.475 102.126 463.337 101.318L459.284 94.1758Z" fill="#BBBBBB"/>
<path d="M432.821 123.199C447.345 118.307 459.26 106.272 459.431 96.2182C459.603 86.1647 447.957 81.9451 433.495 86.8374C419.033 91.7296 407.057 103.752 406.885 113.745C406.714 123.737 418.298 128.03 432.821 123.199Z" fill="#8694FD"/>
<path d="M432.919 117.072C442.569 113.855 450.479 105.844 450.59 99.1662C450.7 92.4883 442.973 89.6752 433.323 92.8919C423.674 96.1085 415.775 104.12 415.665 110.797C415.555 117.475 423.282 120.288 432.919 117.072Z" fill="white"/>
<path d="M412.946 113.819V109.562L407.13 110.786C406.89 111.758 406.767 112.756 406.762 113.758C406.725 114.687 406.816 115.617 407.032 116.522L412.946 113.819Z" fill="white"/>
<path d="M420.821 120.374L416.522 118.809L411.734 122.82C412.539 123.337 413.408 123.748 414.318 124.043C415.345 124.425 416.408 124.703 417.49 124.875L420.821 120.374Z" fill="white"/>
<path d="M435.944 117.939L429.821 119.982L428.792 124.324C430.165 124.031 431.519 123.656 432.846 123.199C434.24 122.741 435.61 122.21 436.948 121.609L435.944 117.939Z" fill="white"/>
<path d="M449.341 107.947L444.932 112.399L448.189 114.662C449.329 113.736 450.412 112.743 451.435 111.69C452.368 110.775 453.24 109.798 454.043 108.767L449.341 107.947Z" fill="white"/>
<path d="M453.333 96.2306L453.259 100.487L459.002 99.435C459.236 98.5179 459.375 97.5795 459.419 96.6342C459.502 95.7965 459.456 94.951 459.284 94.127L453.333 96.2306Z" fill="white"/>
<path d="M430.421 92.0099L436.544 89.9674L437.658 85.6133C436.269 85.9099 434.899 86.2897 433.556 86.7507C430.997 87.6069 429.429 88.3285 429.429 88.3285L430.421 92.0099Z" fill="white"/>
<path d="M445.544 89.6372L449.843 91.2027L454.741 87.2767C453.897 86.7122 452.983 86.2599 452.022 85.9313C451.007 85.5542 449.957 85.2757 448.888 85.0996L445.544 89.6372Z" fill="white"/>
<path d="M416.914 102.052L421.323 97.5874L418.016 95.3125C415.812 97.1141 413.805 99.1435 412.028 101.367L416.914 102.052Z" fill="white"/>
<path d="M182.46 346.26L185.411 338.359L189.023 339.704C198.881 334.665 216.098 336.744 229.679 345.061C236.904 349.501 241.777 354.845 243.908 360.117L247.582 361.462L244.459 369.852C243.677 371.883 242.361 373.666 240.651 375.014C231.626 382.352 212.106 380.762 197.056 371.528C184.762 364.031 179.239 353.769 182.46 346.26Z" fill="#DA4658"/>
<path d="M187.444 350.382L184.995 343.777L181.725 352.901C182.139 355.174 182.969 357.351 184.174 359.322L187.444 350.382Z" fill="#BBBBBB"/>
<path d="M204.783 365.01L196.334 359.824L192.991 368.789C194.268 369.77 195.601 370.677 196.983 371.504C198.43 372.396 199.922 373.212 201.452 373.951L204.783 365.01Z" fill="#BBBBBB"/>
<path d="M228.822 370.733L219.27 369.926L215.964 378.805C217.583 379.114 219.218 379.331 220.862 379.453C222.409 379.592 223.963 379.641 225.515 379.6L228.822 370.733Z" fill="#BBBBBB"/>
<path d="M245.635 364.471L240.736 368.14L237.43 377.007C239.282 376.107 240.945 374.862 242.328 373.338L245.635 364.471Z" fill="#BBBBBB"/>
<path d="M200.302 362.661C215.352 371.895 234.871 373.448 243.896 366.147C252.921 358.845 248.023 345.428 232.973 336.194C217.923 326.96 198.379 325.406 189.379 332.671C180.378 339.936 185.252 353.463 200.302 362.661Z" fill="#F56C81"/>
<path d="M205.788 358.221C215.78 364.336 228.736 365.376 234.736 360.52C240.737 355.664 237.479 346.773 227.487 340.645C217.494 334.518 204.526 333.478 198.538 338.334C192.55 343.189 195.795 352.093 205.788 358.221Z" fill="white"/>
<path d="M193.86 338.163L197.681 335.069L192.256 330.85C191.219 331.358 190.245 331.986 189.354 332.721C188.506 333.374 187.755 334.144 187.125 335.008L193.86 338.163Z" fill="white"/>
<path d="M193.897 349.979L192.097 345.086L184.995 343.863C185.13 344.962 185.406 346.039 185.815 347.068C186.241 348.253 186.787 349.393 187.444 350.468L193.897 349.979Z" fill="white"/>
<path d="M207.269 361.523L200.889 357.609L196.297 359.933C197.574 360.924 198.912 361.835 200.302 362.661C201.736 363.558 203.22 364.375 204.747 365.107L207.269 361.523Z" fill="white"/>
<path d="M226.042 365.926L218.829 365.352L219.27 369.926C220.932 370.252 222.613 370.476 224.303 370.599C225.804 370.746 227.314 370.791 228.822 370.733L226.042 365.926Z" fill="white"/>
<path d="M239.365 360.803L235.544 363.897L240.724 368.178C241.711 367.703 242.646 367.13 243.516 366.466C244.32 365.918 245.035 365.249 245.635 364.484L239.365 360.803Z" fill="white"/>
<path d="M226.103 337.43L232.483 341.344L237.149 339.056C235.858 338.046 234.504 337.118 233.095 336.28C231.658 335.387 230.174 334.57 228.65 333.834L226.103 337.43Z" fill="white"/>
<path d="M239.414 349.023L241.226 353.916L248.317 355.334C248.196 354.17 247.92 353.026 247.496 351.934C247.079 350.759 246.546 349.628 245.904 348.559L239.414 349.023Z" fill="white"/>
<path d="M207.22 332.954L214.421 333.529L213.992 328.93C212.374 328.612 210.739 328.392 209.094 328.27C207.465 328.13 205.83 328.085 204.196 328.135L207.22 332.954Z" fill="white"/>
<path d="M306.422 524.693C306.202 522.077 305.294 519.567 303.789 517.415L286.902 493.333L286.829 493.248C285.312 491.114 283.26 489.415 280.879 488.322C278.497 487.23 275.87 486.781 273.261 487.022L247.227 489.371H246.982C244.374 489.607 241.875 490.522 239.732 492.025C237.63 493.482 235.943 495.458 234.834 497.761L234.748 497.92L222.307 524.399C221.197 526.766 220.725 529.381 220.94 531.986C221.155 534.59 222.048 537.094 223.531 539.247V539.32L228.16 545.913L240.406 563.39C241.917 565.552 243.973 567.276 246.367 568.386C248.761 569.497 251.407 569.955 254.035 569.713L280.424 567.365C283.027 567.126 285.522 566.21 287.66 564.708C289.798 563.206 291.504 561.17 292.609 558.804L305.063 532.337C306.171 529.962 306.635 527.339 306.41 524.729L306.422 524.693Z" fill="#DA4658"/>
<path d="M302.283 524.337L265.473 526.991L249.161 562.68C248.783 563.463 248.62 564.333 248.69 565.199C248.759 566.066 249.059 566.899 249.558 567.612C250.057 568.324 250.737 568.891 251.528 569.254C252.32 569.617 253.193 569.762 254.06 569.676L280.425 567.364C283.028 567.126 285.522 566.209 287.66 564.707C289.798 563.205 291.504 561.169 292.609 558.803L305.063 532.336C305.594 531.203 305.977 530.007 306.202 528.777C306.325 528.214 306.314 527.63 306.169 527.072C306.025 526.514 305.75 525.997 305.369 525.565C304.987 525.133 304.509 524.796 303.973 524.583C303.437 524.37 302.858 524.285 302.283 524.337Z" fill="#C42938"/>
<path d="M273.812 524.692C271.594 524.694 269.403 524.21 267.393 523.274C265.383 522.337 263.603 520.972 262.179 519.274L242.341 495.645L258.395 521.329C259.787 523.559 260.634 526.085 260.866 528.703C261.098 531.321 260.709 533.957 259.73 536.397L248.586 563.83L263.134 537.534C264.415 535.204 266.21 533.195 268.382 531.659C270.554 530.123 273.047 529.1 275.673 528.667L302.173 524.227L273.812 524.692Z" fill="#F56C81"/>
<path d="M275.796 502.506C272.55 501.002 269.146 501.442 268.191 503.497C267.236 505.552 269.085 508.389 272.318 509.93C275.551 511.471 278.967 511.006 279.922 508.952C280.877 506.897 279.028 504.059 275.796 502.506Z" fill="white"/>
<path d="M279.506 538.379C278.098 536.606 274.877 536.813 272.306 538.844C269.734 540.874 268.803 543.968 270.212 545.73C271.62 547.491 274.84 547.295 277.412 545.265C279.984 543.235 280.914 540.152 279.506 538.379Z" fill="white"/>
<path d="M286.315 551.172C284.906 549.399 281.686 549.606 279.126 551.637C276.567 553.667 275.612 556.761 277.02 558.535C278.428 560.308 281.649 560.088 284.221 558.058C286.792 556.028 287.723 552.945 286.315 551.172Z" fill="white"/>
<path d="M250.19 523.188C252.456 523.188 254.366 525.731 254.464 528.997C254.562 532.263 252.786 534.966 250.521 535.039C248.255 535.112 246.345 532.495 246.259 529.229C246.174 525.964 247.925 523.249 250.19 523.188Z" fill="white"/>
<path d="M231.442 524.997C233.708 524.936 235.618 527.529 235.716 530.807C235.814 534.084 234.038 536.775 231.773 536.836C229.507 536.897 227.597 534.305 227.511 531.027C227.426 527.749 229.177 525.058 231.442 524.997Z" fill="white"/>
<path d="M239.622 510.224C241.888 510.163 243.798 512.755 243.896 516.033C243.994 519.311 242.218 522.002 239.953 522.063C237.688 522.124 235.777 519.531 235.691 516.253C235.606 512.976 237.369 510.285 239.622 510.224Z" fill="white"/>
<path d="M241.153 538.146C243.418 538.073 245.329 540.678 245.414 543.943C245.5 547.209 243.749 549.924 241.484 549.985C239.218 550.046 237.308 547.441 237.21 544.176C237.112 540.91 238.888 538.207 241.153 538.146Z" fill="white"/>
</g>
<defs>
<linearGradient id="paint0_linear" x1="138.229" y1="146.29" x2="138.229" y2="32.2763" gradientUnits="userSpaceOnUse">
<stop stop-color="#15CEB3" stop-opacity="0"/>
<stop offset="0.1" stop-color="#17CCB4" stop-opacity="0.02"/>
<stop offset="0.23" stop-color="#1CC5B8" stop-opacity="0.1"/>
<stop offset="0.38" stop-color="#25B9BE" stop-opacity="0.21"/>
<stop offset="0.54" stop-color="#31A9C7" stop-opacity="0.37"/>
<stop offset="0.72" stop-color="#4094D2" stop-opacity="0.58"/>
<stop offset="0.89" stop-color="#537CE0" stop-opacity="0.83"/>
<stop offset="1" stop-color="#5F6BE9"/>
</linearGradient>
<linearGradient id="paint1_linear" x1="-53283.6" y1="24351.1" x2="-53283.6" y2="14801.2" gradientUnits="userSpaceOnUse">
<stop stop-color="#15CEB3" stop-opacity="0"/>
<stop offset="0.1" stop-color="#17CCB4" stop-opacity="0.02"/>
<stop offset="0.23" stop-color="#1CC5B8" stop-opacity="0.1"/>
<stop offset="0.38" stop-color="#25B9BE" stop-opacity="0.21"/>
<stop offset="0.54" stop-color="#31A9C7" stop-opacity="0.37"/>
<stop offset="0.72" stop-color="#4094D2" stop-opacity="0.58"/>
<stop offset="0.89" stop-color="#537CE0" stop-opacity="0.83"/>
<stop offset="1" stop-color="#5F6BE9"/>
</linearGradient>
<linearGradient id="paint2_linear" x1="-11997.8" y1="3953.72" x2="-11997.8" y2="694.898" gradientUnits="userSpaceOnUse">
<stop stop-color="#15CEB3" stop-opacity="0"/>
<stop offset="0.1" stop-color="#17CCB4" stop-opacity="0.02"/>
<stop offset="0.23" stop-color="#1CC5B8" stop-opacity="0.1"/>
<stop offset="0.38" stop-color="#25B9BE" stop-opacity="0.21"/>
<stop offset="0.54" stop-color="#31A9C7" stop-opacity="0.37"/>
<stop offset="0.72" stop-color="#4094D2" stop-opacity="0.58"/>
<stop offset="0.89" stop-color="#537CE0" stop-opacity="0.83"/>
<stop offset="1" stop-color="#5F6BE9"/>
</linearGradient>
<linearGradient id="paint3_linear" x1="15406.4" y1="37070.2" x2="15406.4" y2="30085.3" gradientUnits="userSpaceOnUse">
<stop stop-color="#15CEB3" stop-opacity="0"/>
<stop offset="0.1" stop-color="#17CCB4" stop-opacity="0.02"/>
<stop offset="0.23" stop-color="#1CC5B8" stop-opacity="0.1"/>
<stop offset="0.38" stop-color="#25B9BE" stop-opacity="0.21"/>
<stop offset="0.54" stop-color="#31A9C7" stop-opacity="0.37"/>
<stop offset="0.72" stop-color="#4094D2" stop-opacity="0.58"/>
<stop offset="0.89" stop-color="#537CE0" stop-opacity="0.83"/>
<stop offset="1" stop-color="#5F6BE9"/>
</linearGradient>
<linearGradient id="paint4_linear" x1="109135" y1="33464" x2="109135" y2="22653.1" gradientUnits="userSpaceOnUse">
<stop stop-color="#15CEB3" stop-opacity="0"/>
<stop offset="0.1" stop-color="#17CCB4" stop-opacity="0.02"/>
<stop offset="0.23" stop-color="#1CC5B8" stop-opacity="0.1"/>
<stop offset="0.38" stop-color="#25B9BE" stop-opacity="0.21"/>
<stop offset="0.54" stop-color="#31A9C7" stop-opacity="0.37"/>
<stop offset="0.72" stop-color="#4094D2" stop-opacity="0.58"/>
<stop offset="0.89" stop-color="#537CE0" stop-opacity="0.83"/>
<stop offset="1" stop-color="#5F6BE9"/>
</linearGradient>
<linearGradient id="paint5_linear" x1="7135.81" y1="3938.58" x2="7135.81" y2="-843.215" gradientUnits="userSpaceOnUse">
<stop stop-color="#15CEB3" stop-opacity="0"/>
<stop offset="0.1" stop-color="#17CCB4" stop-opacity="0.02"/>
<stop offset="0.23" stop-color="#1CC5B8" stop-opacity="0.1"/>
<stop offset="0.38" stop-color="#25B9BE" stop-opacity="0.21"/>
<stop offset="0.54" stop-color="#31A9C7" stop-opacity="0.37"/>
<stop offset="0.72" stop-color="#4094D2" stop-opacity="0.58"/>
<stop offset="0.89" stop-color="#537CE0" stop-opacity="0.83"/>
<stop offset="1" stop-color="#5F6BE9"/>
</linearGradient>
<linearGradient id="paint6_linear" x1="349" y1="2.5433" x2="346.508" y2="580.328" gradientUnits="userSpaceOnUse">
<stop stop-color="#DEDFF9" stop-opacity="0"/>
<stop offset="1" stop-color="white"/>
</linearGradient>
<linearGradient id="paint7_linear" x1="164270" y1="1334.09" x2="163078" y2="276137" gradientUnits="userSpaceOnUse">
<stop stop-color="#DEDFF9" stop-opacity="0"/>
<stop offset="1" stop-color="white"/>
</linearGradient>
<linearGradient id="paint8_linear" x1="127185" y1="-339.623" x2="128727" y2="275462" gradientUnits="userSpaceOnUse">
<stop stop-color="#DEDFF9" stop-opacity="0"/>
<stop offset="1" stop-color="white"/>
</linearGradient>
<linearGradient id="paint9_linear" x1="268.644" y1="380.604" x2="310.757" y2="380.604" gradientUnits="userSpaceOnUse">
<stop offset="0.01" stop-color="#593023"/>
<stop offset="1" stop-color="#773C2D"/>
</linearGradient>
<clipPath id="clip0">
<rect width="698" height="593" fill="white"/>
</clipPath>
</defs>
</svg>
