<svg width="95" height="100" viewBox="0 0 95 100" fill="none" xmlns="http://www.w3.org/2000/svg">
<path d="M47.1686 99.4153C71.5836 99.4153 91.3756 79.6233 91.3756 55.2086C91.3756 30.794 71.5836 11.002 47.1686 11.002C22.7539 11.002 2.96191 30.7936 2.96191 55.2086C2.96191 79.6233 22.7539 99.4153 47.1686 99.4153Z" fill="#1D2D66"/>
<path d="M88.2542 82.3993C88.5386 79.8254 88.1052 77.2231 87.0021 74.8802C85.8989 72.5374 84.169 70.5455 82.0039 69.125C81.3833 74.0447 78.8701 78.529 74.9975 81.6262C71.125 84.7234 66.1981 86.1897 61.2622 85.714C62.2641 88.4186 64.0786 90.7469 66.4566 92.3791C68.8346 94.0113 71.6595 94.8674 74.5435 94.83C76.4578 94.8054 78.3465 94.3876 80.0925 93.6027L86.6422 96.231L85.5309 89.26C87.0396 87.2599 87.9804 84.8896 88.2542 82.3993Z" fill="#8A99A5"/>
<path d="M79.5199 68.5899C79.7982 66.0679 79.4916 63.5157 78.6238 61.1314C77.7561 58.7471 76.3507 56.5948 74.5166 54.8416C72.6823 53.0884 70.4685 51.7817 68.0472 51.0229C65.626 50.2642 63.0624 50.0738 60.5556 50.4666C56.7745 51.0587 53.3166 52.9461 50.7734 55.806C48.2301 58.6659 46.7596 62.3206 46.6132 66.1449C46.516 68.6804 47.0045 71.2042 48.0409 73.5202L44.9272 81.2799L53.1839 79.9602C55.5122 81.7095 58.2618 82.8117 61.1537 83.155C64.0456 83.4983 66.9768 83.0705 69.6499 81.9149C72.323 80.7594 74.643 78.9176 76.3746 76.5762C78.1059 74.2346 79.187 71.4766 79.5083 68.5822L79.5199 68.5899ZM61.0233 62.6542L58.5086 62.3736C58.6014 61.5354 58.902 60.7336 59.383 60.0409C59.8641 59.3482 60.5104 58.7866 61.2634 58.4069C62.0164 58.0272 62.8523 57.8414 63.6953 57.8665C64.5383 57.8915 65.3616 58.1266 66.0908 58.5503C66.8199 58.9741 67.4318 59.5731 67.8709 60.2931C68.3099 61.0131 68.5624 61.8313 68.6053 62.6736C68.6481 63.5158 68.4801 64.3554 68.1164 65.1163C67.7528 65.8772 67.2049 66.5353 66.5226 67.0309L64.1673 68.7492L63.9473 70.7136L61.4403 70.4292L61.7856 67.3609L65.0433 64.9829C65.3291 64.7779 65.5684 64.5149 65.7456 64.211C65.9228 63.9072 66.0337 63.5693 66.0713 63.2196C66.1269 62.7215 66.0337 62.2181 65.8035 61.773C65.5732 61.3279 65.2162 60.9609 64.7776 60.7186C64.4864 60.5574 64.1662 60.4554 63.8355 60.4183C63.5047 60.3811 63.1699 60.4097 62.8503 60.5022C62.3688 60.6413 61.9393 60.9199 61.6161 61.3029C61.2929 61.686 61.0906 62.1562 61.0346 62.6542H61.0233ZM61.1483 72.9476L63.6629 73.2319L63.3823 75.7466L60.8639 75.4659L61.1483 72.9476Z" fill="#8A99A5"/>
<path d="M11.867 56.5287C8.39459 58.0057 5.64962 60.7996 4.2341 64.2975C2.81858 67.7955 2.84804 71.7121 4.31603 75.1884L9.4437 87.283C9.80035 88.0594 10.4454 88.6662 11.2421 88.9748C12.0388 89.2833 12.9243 89.2694 13.7109 88.9358C14.4974 88.6023 15.123 87.9754 15.455 87.1882C15.787 86.401 15.7992 85.5154 15.489 84.7194L11.2187 74.6384C11.019 74.1554 10.7059 73.7276 10.3058 73.3913C9.90572 73.055 9.4305 72.8201 8.92037 72.7064C8.41033 72.5927 7.88044 72.6035 7.37545 72.7378C6.87047 72.8722 6.40523 73.126 6.01903 73.478C5.03316 70.6007 5.1738 67.4567 6.41264 64.6788C7.65148 61.901 9.89655 59.6955 12.696 58.5063C15.4954 57.3171 18.6414 57.2325 21.5008 58.2694C24.3601 59.3063 26.7206 61.3878 28.107 64.095C27.7508 64.1174 27.4008 64.1994 27.0717 64.3377C26.27 64.6787 25.6364 65.324 25.3101 66.1318C24.9837 66.9395 24.9913 67.8438 25.331 68.646L29.6014 78.727C29.9424 79.5288 30.5874 80.1627 31.395 80.4897C32.2026 80.8167 33.1069 80.8101 33.9097 80.4714C34.2519 80.3204 34.5661 80.1127 34.839 79.857L35.3434 81.0517C35.456 81.3188 35.4582 81.6196 35.3495 81.8883C35.2408 82.157 35.03 82.3717 34.7634 82.4854L27.5194 85.5537C27.1285 85.1276 26.632 84.8122 26.0801 84.6394C25.5282 84.4666 24.9406 84.4426 24.3764 84.5697C23.8123 84.6968 23.2917 84.9706 22.8673 85.3634C22.4429 85.7562 22.1297 86.2541 21.9594 86.8067C21.7316 87.547 21.7727 88.3441 22.0756 89.057C22.3784 89.7699 22.9234 90.3529 23.6144 90.703C24.3054 91.0532 25.098 91.1477 25.852 90.9699C26.6061 90.7921 27.2729 90.3534 27.7347 89.7314C28.1966 89.1096 28.4239 88.3445 28.3764 87.5714L35.6167 84.503C36.4182 84.1628 37.0518 83.5182 37.3782 82.711C37.7046 81.9038 37.6971 81.0001 37.3574 80.1984L30.523 64.095C29.0499 60.6199 26.2579 57.8714 22.7602 56.4528C19.2624 55.0342 15.3447 55.0615 11.867 56.5287ZM33.045 64.421L38.0134 76.144C38.5132 75.6872 38.8597 75.0873 39.0057 74.4261C39.1517 73.7649 39.09 73.0748 38.829 72.45L36.265 66.4047C35.9991 65.7818 35.5467 65.2566 34.9701 64.9014C34.3935 64.5462 33.721 64.3784 33.045 64.421ZM1.99103 80.9267L4.55503 86.9947C4.8215 87.6172 5.27401 88.142 5.8505 88.4971C6.42699 88.8522 7.09923 89.0204 7.77503 88.9784L2.8067 77.2364C2.30684 77.6923 1.96016 78.2917 1.81414 78.9523C1.66812 79.6129 1.72991 80.3025 1.99103 80.9267Z" fill="#8C5679"/>
<path d="M14.3324 59.5895L30.4777 52.2509L29.0554 43.7629L14.332 59.5895H14.3324ZM60.8337 58.8879L69.405 60.7385C70.9216 61.0518 72.5006 60.7539 73.7988 59.9096C75.097 59.0652 76.0095 57.7426 76.338 56.2292L83.779 22.0959C83.9445 21.3361 83.9578 20.551 83.8183 19.786C83.6787 19.0211 83.3891 18.2913 82.966 17.6389C82.543 16.9863 81.9948 16.4241 81.3532 15.9847C80.7115 15.5454 79.9891 15.2376 79.2277 15.0792L72.7804 13.7559L60.8337 58.8879Z" fill="#EF941B"/>
<path d="M77.9498 20.8587L70.4785 55.0377C69.7918 58.1707 66.8225 60.2074 63.8718 59.5624L26.3588 51.3514L14.3325 59.589C14.2383 59.6529 14.1272 59.6872 14.0134 59.6874C13.8996 59.6877 13.7883 59.6539 13.6938 59.5904C13.5995 59.5266 13.5264 59.436 13.4841 59.3303C13.4418 59.2246 13.4322 59.1086 13.4565 58.9974L24.3832 9.13571C25.0695 6.00305 28.0125 3.96238 30.9592 4.60738L73.8352 13.9794C76.7858 14.624 78.6368 17.715 77.9502 20.8594L77.9498 20.8587Z" fill="#FFCC01"/>
<path d="M36.3065 14.4728L66.2189 20.9771C66.6362 21.0676 67.0313 21.2401 67.3814 21.4845C67.7315 21.729 68.0295 22.0406 68.2582 22.4012C68.4869 22.7618 68.6416 23.1643 68.7134 23.5852C68.7852 24.0061 68.7727 24.4371 68.6765 24.8531L63.4162 47.6391C63.322 48.053 63.147 48.4442 62.9011 48.7901C62.6552 49.1361 62.3434 49.4301 61.9835 49.6551C61.6238 49.8804 61.223 50.0324 60.8044 50.1023C60.3857 50.1723 59.9573 50.1589 59.5439 50.0628L30.5229 43.2815C29.7101 43.0909 29.0027 42.5931 28.5487 41.8925C28.0948 41.1919 27.9297 40.3428 28.0879 39.5231L32.4532 17.0098C32.5348 16.5877 32.7001 16.1863 32.9392 15.8291C33.1783 15.4718 33.4864 15.166 33.8455 14.9296C34.2045 14.6932 34.6072 14.531 35.0298 14.4526C35.4525 14.3741 35.8866 14.381 36.3065 14.4728Z" fill="#EF941B"/>
<path d="M39.921 16.6424L65.4036 22.2707C65.8232 22.3617 66.2204 22.5353 66.5721 22.7814C66.9239 23.0275 67.2231 23.3411 67.4523 23.7041C67.6815 24.067 67.836 24.4719 67.9069 24.8952C67.9777 25.3185 67.9635 25.7517 67.865 26.1694L62.6046 47.6584C62.508 48.0711 62.331 48.4607 62.0836 48.805C61.8362 49.1492 61.5234 49.4412 61.163 49.6644C60.8027 49.8878 60.402 50.038 59.9837 50.1064C59.5653 50.1748 59.1376 50.1601 58.725 50.0631L34.1336 44.1577C33.3206 43.9681 32.6129 43.4703 32.1594 42.7693C31.706 42.0683 31.5422 41.2187 31.7026 40.3994L36.0676 19.1794C36.1494 18.7574 36.3148 18.3561 36.5539 17.9989C36.793 17.6417 37.101 17.3359 37.46 17.0994C37.819 16.8631 38.2217 16.7009 38.6443 16.6225C39.067 16.544 39.501 16.5509 39.921 16.6427V16.6424Z" fill="#FFCC01"/>
<path d="M83.2139 19.5104L83.4869 20.6671C83.5116 20.7839 83.576 20.8886 83.6691 20.9633C83.7623 21.038 83.8785 21.0781 83.9979 21.0767C84.1173 21.0754 84.2326 21.0327 84.324 20.956C84.4155 20.8792 84.4775 20.7731 84.4996 20.6557L84.7232 19.4801C84.8331 18.9127 85.1075 18.3901 85.5121 17.9774C85.9167 17.5647 86.4338 17.2801 86.9989 17.1591L88.1669 16.8821C88.2812 16.8541 88.3826 16.7887 88.4552 16.6964C88.5269 16.6031 88.5646 16.4877 88.5612 16.3701C88.561 16.2522 88.5195 16.1382 88.4439 16.0477C88.3683 15.9565 88.2639 15.8936 88.1479 15.8694L86.9799 15.6494C86.4136 15.5432 85.891 15.2725 85.4776 14.8712C85.0641 14.4699 84.778 13.9557 84.6549 13.3927L84.3819 12.2361C84.355 12.1201 84.2892 12.0169 84.1953 11.9437C84.1014 11.8706 83.9852 11.8318 83.8662 11.8341C83.7483 11.8344 83.6343 11.876 83.5439 11.9517C83.4519 12.0274 83.3879 12.1317 83.3616 12.2474L83.1456 13.4194C83.0379 13.991 82.765 14.5184 82.3606 14.9364C81.9593 15.3498 81.4445 15.6349 80.8812 15.7557L79.7209 16.0324C79.6059 16.0591 79.5039 16.1247 79.4326 16.2184C79.3582 16.3107 79.318 16.4259 79.3189 16.5444C79.3216 16.6637 79.3642 16.7787 79.4402 16.8707C79.5145 16.9634 79.6193 17.0266 79.7359 17.0491L80.9079 17.2651C81.4795 17.3704 82.0072 17.6422 82.4249 18.0464C82.8244 18.4475 83.0985 18.9562 83.2139 19.5104ZM3.90991 27.0877L4.18691 28.2257C4.21088 28.3432 4.27501 28.4486 4.36826 28.5238C4.46152 28.5991 4.57808 28.6395 4.69792 28.6382C4.81776 28.6369 4.93338 28.5938 5.02493 28.5165C5.11648 28.4391 5.17823 28.3323 5.19957 28.2144L5.42324 27.0424C5.52852 26.4761 5.79895 25.9536 6.20049 25.5406C6.60204 25.1276 7.11677 24.8426 7.67991 24.7214L8.84424 24.4447C8.95919 24.4161 9.06091 24.3491 9.13257 24.2547C9.20739 24.1633 9.24827 24.0487 9.24827 23.9306C9.24827 23.8124 9.20739 23.6979 9.13257 23.6064C9.05797 23.5159 8.95514 23.4531 8.84057 23.4281L7.67224 23.2081C7.10279 23.1021 6.57772 22.8292 6.16378 22.424C5.74984 22.0189 5.46573 21.4998 5.34757 20.9327L5.07424 19.7947C5.04415 19.6796 4.97776 19.5772 4.88491 19.5027C4.7915 19.4306 4.67659 19.3919 4.55857 19.3927C4.43957 19.3967 4.32524 19.4394 4.23257 19.5141C4.14209 19.5887 4.07929 19.6915 4.05424 19.8061L3.83424 20.9817C3.73048 21.554 3.45845 22.0822 3.05291 22.4991C2.65045 22.9114 2.13646 23.1974 1.57391 23.3221L0.413239 23.5951C0.298032 23.6252 0.195626 23.6917 0.121239 23.7847C0.0492389 23.8781 0.0105723 23.9927 0.0112389 24.1107C0.0115723 24.2287 0.053239 24.3427 0.128906 24.4331C0.204572 24.5244 0.308906 24.5871 0.424572 24.6114L1.60024 24.8314C2.16912 24.938 2.6935 25.2112 3.10681 25.6164C3.52012 26.0216 3.8037 26.5404 3.92157 27.1071L3.91024 27.0881L3.90991 27.0877Z" fill="white"/>
<path d="M50.9612 98.4304L51.2342 99.5907C51.2602 99.7071 51.3242 99.8114 51.4165 99.8867C51.5089 99.9628 51.6248 100.004 51.7445 100.004C51.8641 100.004 51.9801 99.9628 52.0725 99.8867C52.1648 99.8111 52.2268 99.7048 52.2468 99.5871L52.4708 98.4114C52.5805 97.8439 52.8547 97.3213 53.2593 96.9086C53.6639 96.4958 54.181 96.2113 54.7462 96.0904L55.9145 95.8134C56.029 95.7855 56.1308 95.7198 56.2034 95.6269C56.276 95.534 56.3151 95.4193 56.3145 95.3014C56.3144 95.1833 56.2752 95.0685 56.2028 94.9751C56.1268 94.8851 56.0224 94.8237 55.9068 94.8008L54.7388 94.5807C54.1698 94.4736 53.6453 94.2002 53.2315 93.7952C52.8177 93.3902 52.5332 92.8717 52.4138 92.3051L52.1408 91.1448C52.1129 91.0305 52.0474 90.929 51.9548 90.8564C51.8609 90.7827 51.7442 90.7438 51.6248 90.7464C51.507 90.7468 51.3929 90.7885 51.3025 90.8641C51.2108 90.9398 51.1468 91.0438 51.1205 91.1598L50.9045 92.3317C50.7969 92.9034 50.5238 93.4309 50.1192 93.8488C49.7171 94.2608 49.2028 94.5457 48.6402 94.6681L47.4795 94.9448C47.3648 94.9714 47.2628 95.0371 47.1915 95.1307C47.1172 95.2231 47.0769 95.3382 47.0775 95.4567C47.0808 95.5761 47.1235 95.6908 47.1988 95.7831C47.2732 95.8757 47.3782 95.9388 47.4948 95.9614L48.6668 96.1774C49.2323 96.2856 49.7538 96.5569 50.1669 96.9579C50.58 97.3589 50.8666 97.8721 50.9915 98.4341L50.9612 98.4304ZM12.8492 42.6674C13.2844 42.3427 13.6422 41.9256 13.897 41.446C14.1517 40.9665 14.2971 40.4365 14.3226 39.8941C14.3481 39.3517 14.2531 38.8104 14.0444 38.3091C13.8358 37.8078 13.5186 37.3589 13.1158 36.9948C12.7129 36.6308 12.2343 36.3607 11.7145 36.2038C11.1947 36.0468 10.6466 36.007 10.1096 36.0871C9.57253 36.1672 9.05992 36.3653 8.60857 36.6672C8.15722 36.969 7.77834 37.3671 7.49916 37.8328C7.12602 38.4559 6.94587 39.1756 6.98147 39.9011C7.01706 40.6265 7.26681 41.3251 7.69916 41.9088C8.13179 42.4952 8.72929 42.9395 9.41546 43.185C10.1016 43.4305 10.8454 43.466 11.5518 43.2871C12.0209 43.1681 12.4618 42.9575 12.8492 42.6674Z" fill="#FFCC01"/>
<path d="M93.9887 60.78C94.3778 60.4916 94.6725 60.0941 94.8354 59.6379C94.9983 59.1818 95.0222 58.6875 94.9039 58.2178C94.7856 57.7481 94.5306 57.3241 94.171 56.9996C93.8115 56.675 93.3637 56.4645 92.8844 56.3947C92.4051 56.3249 91.9158 56.399 91.4787 56.6075C91.0415 56.8161 90.6761 57.1498 90.4288 57.5662C90.1815 57.9827 90.0634 58.4632 90.0895 58.9469C90.1156 59.4306 90.2847 59.8956 90.5754 60.283C90.9626 60.8009 91.5394 61.1441 92.1793 61.2372C92.8192 61.3304 93.4699 61.166 93.9887 60.78Z" fill="white"/>
<path d="M17.0021 77.0282C17.2532 77.0316 17.5026 76.985 17.7356 76.8912C17.9686 76.7975 18.1807 76.6583 18.3595 76.4819C18.5383 76.3055 18.6803 76.0954 18.7773 75.8636C18.8742 75.6319 18.9241 75.3832 18.9242 75.132C18.9242 74.8808 18.8744 74.6321 18.7775 74.4004C18.6807 74.1686 18.5388 73.9584 18.36 73.7819C18.1812 73.6054 17.9692 73.4662 17.7362 73.3724C17.5032 73.2785 17.2539 73.2319 17.0027 73.2352C16.5041 73.2417 16.0281 73.4443 15.6778 73.7992C15.3274 74.1541 15.1309 74.6327 15.1309 75.1314C15.1308 75.63 15.3271 76.1087 15.6773 76.4637C16.0275 76.8187 16.5034 77.0215 17.0021 77.0282ZM81.1617 34.6155C81.449 34.6162 81.7329 34.5531 81.9928 34.4308C82.2528 34.3085 82.4823 34.13 82.6649 33.9082C82.8475 33.6864 82.9786 33.4269 83.0487 33.1483C83.1188 32.8697 83.1262 32.579 83.0704 32.2972C83.0149 32.0153 82.8975 31.7492 82.7267 31.5182C82.5559 31.2872 82.3359 31.097 82.0827 30.9614C81.8294 30.8257 81.5492 30.748 81.2623 30.7337C80.9753 30.7195 80.6888 30.7692 80.4234 30.8792C80.0682 31.0259 79.7647 31.2747 79.5511 31.5942C79.3375 31.9136 79.2236 32.2893 79.2237 32.6735C79.2235 33.1879 79.4275 33.6814 79.7909 34.0455C80.1543 34.4096 80.6473 34.6146 81.1617 34.6155ZM35.783 4.17219C36.1966 4.173 36.601 4.05108 36.9452 3.82185C37.2894 3.59262 37.5578 3.2664 37.7164 2.88452C37.8348 2.59908 37.8884 2.29095 37.8735 1.98229C37.8586 1.67364 37.7754 1.37212 37.6301 1.09944C37.4847 0.826752 37.2807 0.589673 37.0327 0.405251C36.7848 0.220829 36.499 0.0936471 36.196 0.0328524C35.91 -0.0244158 35.6151 -0.0211631 35.3304 0.0424012C35.0457 0.105965 34.7774 0.228433 34.5429 0.401924C34.3083 0.575414 34.1127 0.796085 33.9686 1.04974C33.8245 1.30339 33.7351 1.5844 33.7061 1.87469C33.6771 2.16498 33.7093 2.45812 33.8004 2.73524C33.8916 3.01237 34.0397 3.26734 34.2354 3.48375C34.431 3.70016 34.6698 3.87322 34.9363 3.99179C35.2029 4.11035 35.4913 4.1718 35.783 4.17219Z" fill="#FFCC01" fill-opacity="0.5"/>
</svg>
