<svg width="83" height="88" viewBox="0 0 83 88" fill="none" xmlns="http://www.w3.org/2000/svg">
<g clip-path="url(#clip0)">
<path d="M3 88L0 83.9999L3 80V88Z" fill="#103626"/>
<path d="M82 0L83 4H78L82 0Z" fill="#103626"/>
<path d="M82 0L0 84V55L54 0H82Z" fill="#1B5E42"/>
<path d="M11.7682 52.9814L10.2421 54.5349L14.4672 58.6857L13.4406 59.7306L9.21551 55.5799L7.70988 57.1125L6.86347 56.281L10.9218 52.1499L11.7682 52.9814ZM18.1579 50.0865C18.6571 50.577 19.0081 51.0952 19.211 51.6413C19.4138 52.1873 19.4554 52.7256 19.3358 53.2561C19.2185 53.7843 18.9511 54.2608 18.5336 54.6858C18.1207 55.1061 17.6513 55.3819 17.1253 55.5131C16.5993 55.6444 16.0605 55.617 15.5087 55.4308C14.9545 55.2424 14.4325 54.9098 13.9426 54.433L13.6918 54.1866C13.1925 53.6962 12.8415 53.1756 12.6386 52.625C12.4357 52.0697 12.3941 51.5291 12.5138 51.0033C12.6333 50.4728 12.9007 49.9962 13.3159 49.5736C13.7311 49.151 14.2017 48.8763 14.7277 48.7496C15.2537 48.6184 15.7949 48.6504 16.3514 48.8457C16.9078 49.0364 17.4345 49.3759 17.9314 49.8641L18.1579 50.0865ZM16.8877 50.9195C16.3559 50.3971 15.8584 50.0954 15.395 50.0144C14.9316 49.9333 14.5265 50.0692 14.1798 50.4222C13.8353 50.7729 13.7065 51.178 13.7935 51.6376C13.8781 52.0949 14.1828 52.5836 14.7077 53.1038L14.955 53.3468C15.4728 53.8555 15.9681 54.1549 16.4407 54.2451C16.9134 54.3353 17.3254 54.2016 17.6767 53.844C18.0212 53.4933 18.1488 53.0894 18.0596 52.6321C17.9681 52.1725 17.6599 51.6827 17.135 51.1625L16.8877 50.9195ZM20.5643 48.905L22.3512 50.6604L21.3246 51.7054L16.2531 46.7231L18.1968 44.7447C18.5709 44.3638 18.9691 44.0979 19.3913 43.9468C19.8157 43.7934 20.2333 43.7656 20.6439 43.8632C21.0522 43.9586 21.42 44.1671 21.7474 44.4887C22.2444 44.9769 22.4691 45.5331 22.4217 46.1573C22.3743 46.777 22.0551 47.3875 21.4643 47.9889L20.5643 48.905ZM19.7179 48.0735L20.635 47.14C20.9065 46.8637 21.0479 46.5896 21.0593 46.3179C21.073 46.0439 20.9591 45.7882 20.7176 45.551C20.4691 45.3069 20.1964 45.1827 19.8994 45.1784C19.6024 45.1742 19.325 45.2986 19.0671 45.5518L18.1261 46.5097L19.7179 48.0735ZM30.011 39.9371L27.0731 35.7093L28.0963 34.6678L32.0625 40.7752L31.0291 41.8271L26.8255 39.3197L29.4071 43.4781L28.3737 44.53L22.1969 40.6728L23.2201 39.6314L27.4958 42.4834L24.7155 38.1092L25.5846 37.2245L30.011 39.9371ZM34.8171 37.9712L33.7906 39.0162L28.7191 34.0339L29.7456 32.9889L34.8171 37.9712ZM39.8234 32.8753L38.7968 33.9203L33.4615 32.6763L36.7984 35.9544L35.7718 36.9994L30.7003 32.0171L31.7269 30.9722L37.0726 32.2195L33.7287 28.9345L34.7519 27.893L39.8234 32.8753ZM44.7714 27.8386L43.7448 28.8836L38.4096 27.6396L41.7465 30.9178L40.7199 31.9627L35.6484 26.9805L36.675 25.9355L42.0206 27.1828L38.6768 23.8978L39.6999 22.8564L44.7714 27.8386ZM46.4676 21.7156L44.4966 23.7219L45.8551 25.0564L48.1683 22.7018L49.0077 23.5265L45.6679 26.926L40.5964 21.9438L43.9294 18.5512L44.7758 19.3827L42.4694 21.7303L43.6781 22.9177L45.6491 20.9114L46.4676 21.7156ZM49.5978 19.2121L48.78 20.0446L50.6365 21.8685L49.61 22.9134L44.5385 17.9312L46.3897 16.0468C46.9783 15.4476 47.5657 15.1167 48.1522 15.054C48.7386 14.9912 49.2756 15.1994 49.7633 15.6784C50.1093 16.0183 50.3242 16.3778 50.4082 16.7569C50.492 17.1313 50.4531 17.538 50.2912 17.9768L53.4416 18.9156L53.4904 18.9635L52.3885 20.0851L49.5978 19.2121ZM47.9336 19.2131L48.7617 18.3702C49.0195 18.1078 49.1529 17.8395 49.162 17.5655C49.1687 17.2893 49.0548 17.0359 48.8203 16.8055C48.5811 16.5705 48.3257 16.4543 48.0541 16.4567C47.7848 16.4568 47.5121 16.5973 47.2361 16.8783L46.4114 17.7177L47.9336 19.2131Z" fill="white"/>
</g>
<defs>
<clipPath id="clip0">
<rect width="83" height="88" fill="white"/>
</clipPath>
</defs>
</svg>
