<svg width="111" height="100" viewBox="0 0 111 100" fill="none" xmlns="http://www.w3.org/2000/svg">
<g clip-path="url(#clip0)">
<path d="M56.7602 99.999C82.116 99.999 102.671 79.4441 102.671 54.0884C102.671 28.7326 82.116 8.17773 56.7602 8.17773C31.4045 8.17773 10.8496 28.7326 10.8496 54.0884C10.8496 79.4441 31.4045 99.999 56.7602 99.999Z" fill="#1D2D66"/>
<path d="M77.073 40.0071V48.358C77.0752 48.6473 77.0204 48.9341 76.9117 49.2021C76.8029 49.4701 76.6424 49.714 76.4393 49.9199L37.3965 88.3796L44.4952 75.5462L68.2402 48.9462L77.073 40.0071ZM77.504 14.2793V24.674C77.504 25.1823 77.3767 25.6825 77.1337 26.129L67.9562 43.1152L61.1109 43.4346L69.2237 20.1102L77.504 14.2793ZM35.4746 52.3437V57.039C35.4748 57.3087 35.5548 57.5723 35.7046 57.7965C35.8545 58.0208 36.0674 58.1956 36.3165 58.299C36.4821 58.3677 36.6593 58.4027 36.8387 58.4027H52.2884V51.5474L35.4746 52.3437Z" fill="#EF941B"/>
<path d="M55.7262 13.6202L35.5912 51.963C35.5022 52.1344 35.4579 52.3255 35.4625 52.5186C35.4671 52.7117 35.5204 52.9005 35.6176 53.0674C35.7147 53.2344 35.8524 53.3741 36.018 53.4735C36.1836 53.5729 36.3717 53.6288 36.5647 53.6361L48.2775 54.0267C48.4643 54.0316 48.647 54.0824 48.8095 54.1746C48.972 54.2668 49.1094 54.3977 49.2094 54.5555C49.3097 54.7132 49.3697 54.8931 49.3841 55.0794C49.3985 55.2657 49.3668 55.4527 49.2919 55.6239L35.4747 87.198C35.3952 87.3856 35.3674 87.591 35.3942 87.793C35.421 87.995 35.5014 88.1861 35.627 88.3465C35.7526 88.5068 35.919 88.6306 36.1086 88.705C36.2983 88.7793 36.5045 88.8015 36.7056 88.7692C36.975 88.7262 37.2201 88.5879 37.3962 88.3796L76.8094 40.7167C76.9405 40.5497 77.0225 40.3494 77.0461 40.1384C77.0696 39.9273 77.0339 39.7139 76.9428 39.5221C76.8517 39.3302 76.7088 39.1676 76.5303 39.0525C76.3517 38.9375 76.1445 38.8747 75.9322 38.8711H65.1372C64.9362 38.871 64.7388 38.8178 64.5649 38.7171C64.3911 38.6163 64.2469 38.4714 64.1469 38.2971C64.0468 38.1226 63.9948 37.9249 63.9959 37.7238C63.9971 37.5228 64.0514 37.3256 64.1534 37.1524L77.3365 14.7305C77.4382 14.5576 77.4925 14.3609 77.4939 14.1603C77.4953 13.9598 77.4438 13.7624 77.3446 13.5881C77.2453 13.4137 77.1019 13.2687 76.9287 13.1675C76.7555 13.0663 76.5587 13.0126 76.3581 13.0117H56.7353C56.5274 13.0106 56.3232 13.0667 56.1452 13.1741C55.9672 13.2814 55.8222 13.4358 55.7262 13.6202Z" fill="#FFCC01"/>
<path d="M92.074 19.1112L92.3437 20.2453C92.3671 20.3603 92.4298 20.4636 92.5211 20.5373C92.6124 20.6111 92.7265 20.6507 92.8439 20.6494C92.9612 20.6481 93.0744 20.606 93.1641 20.5302C93.2537 20.4545 93.3141 20.3498 93.335 20.2343L93.5556 19.0837C93.6598 18.5298 93.925 18.0189 94.3181 17.615C94.7114 17.2107 95.2149 16.9311 95.7659 16.8109L96.9081 16.5393C97.0204 16.5115 97.1199 16.4465 97.1906 16.355C97.2612 16.2634 97.2984 16.1506 97.2962 16.035C97.2945 15.9193 97.2533 15.8077 97.1796 15.7186C97.1058 15.6296 97.0039 15.5683 96.8906 15.545L95.7456 15.3303C95.1907 15.2266 94.6788 14.9615 94.2739 14.5681C93.8691 14.1748 93.5893 13.6707 93.4697 13.119L93.2 11.9847C93.1734 11.8717 93.1091 11.7711 93.0176 11.6997C92.9261 11.6282 92.8129 11.5902 92.6968 11.5918C92.5807 11.5933 92.4686 11.6343 92.3788 11.7079C92.289 11.7816 92.2269 11.8836 92.2028 11.9972L91.9884 13.1465C91.8824 13.7009 91.6158 14.2118 91.2218 14.6159C90.8276 15.0202 90.3235 15.3 89.7718 15.4206L88.6356 15.6909C88.5221 15.7168 88.421 15.7809 88.349 15.8723C88.277 15.9637 88.2384 16.077 88.2398 16.1934C88.2411 16.3098 88.2823 16.4222 88.3564 16.5119C88.4305 16.6016 88.5331 16.6632 88.6472 16.6865L89.7981 16.8997C90.353 17.0041 90.865 17.2696 91.27 17.6631C91.6746 18.0562 91.9543 18.5599 92.074 19.1112Z" fill="white"/>
<path d="M107.716 39.857L101.259 46.3911C101.235 46.4159 101.216 46.4453 101.203 46.4776C101.19 46.51 101.184 46.5446 101.185 46.5793C101.186 46.6141 101.193 46.6483 101.208 46.68C101.222 46.7117 101.243 46.7401 101.269 46.7636C101.303 46.7948 101.345 46.8164 101.391 46.8255L105.031 47.5777L103.405 51.9248C103.391 51.966 103.388 52.0098 103.396 52.0524C103.404 52.095 103.422 52.1349 103.45 52.1685C103.477 52.2021 103.512 52.2282 103.552 52.2446C103.593 52.2609 103.636 52.2669 103.679 52.262C103.737 52.2553 103.791 52.2292 103.832 52.188L109.984 45.7783C110.03 45.7295 110.055 45.6649 110.054 45.598C110.054 45.5311 110.028 45.467 109.981 45.4189C109.95 45.3872 109.912 45.364 109.869 45.3514L106.485 44.3623L108.141 40.1317C108.163 40.0761 108.166 40.0146 108.147 39.9576C108.129 39.9006 108.092 39.8516 108.042 39.8189C107.992 39.7862 107.932 39.7721 107.872 39.7791C107.813 39.786 107.758 39.8136 107.716 39.857Z" fill="#998321"/>
<path d="M99.9054 74.5864C99.8845 74.5939 97.2901 74.2199 96.5658 72.1795C96.2068 71.0914 95.9928 69.9608 95.9295 68.8167C95.7239 66.787 95.4804 64.2561 93.8111 59.5552C91.5392 53.1567 85.0389 51.6145 81.567 51.252L83.3542 45.5852C83.4141 45.3721 83.4301 45.1491 83.4011 44.9297C83.3722 44.7103 83.2988 44.4991 83.1856 44.309C83.0725 44.1188 82.9217 43.9537 82.7427 43.8236C82.5637 43.6935 82.36 43.6012 82.1442 43.5524C81.8558 43.4867 81.5549 43.5008 81.2739 43.593L66.0592 48.9955C65.6565 49.1452 65.3297 49.4485 65.1504 49.8389C65.0618 50.0323 65.0122 50.2413 65.0045 50.454C64.9968 50.6666 65.0311 50.8786 65.1054 51.078C65.2235 51.3892 65.4305 51.6589 65.7008 51.8533L70.7051 55.1477C68.2601 57.6114 64.1695 62.9764 66.4083 69.2814C67.3895 72.0548 68.6961 74.702 70.3008 77.1677C71.0691 78.3146 71.7123 79.5406 72.2195 80.8245C72.9367 82.8439 71.1567 84.7748 71.1395 84.7811C70.9141 85.0056 70.7615 85.2928 70.7018 85.6052C70.642 85.9177 70.6778 86.2409 70.8045 86.5327C70.8886 86.7261 71.0108 86.9011 71.1639 87.0467C71.3845 87.2545 71.6588 87.3964 71.9559 87.4564C72.253 87.5164 72.5609 87.492 72.8448 87.3861L100.225 77.6639C100.425 77.5949 100.61 77.4869 100.768 77.3462C100.926 77.2055 101.054 77.0349 101.146 76.8441C101.237 76.6534 101.29 76.4464 101.301 76.2352C101.312 76.0239 101.281 75.8125 101.21 75.6133C101.11 75.3376 100.935 75.0955 100.704 74.9141C100.474 74.7326 100.197 74.6192 99.9054 74.5864Z" fill="#8BBB4C"/>
<path d="M89.0667 66.7477C88.618 66.346 88.0672 66.0758 87.4748 65.967C86.9217 65.8808 86.3597 65.8679 85.8033 65.9286C86.2722 65.5719 86.6669 65.127 86.9651 64.6189C87.208 64.1828 87.357 63.7007 87.4026 63.2036C87.4495 62.7167 87.3895 62.2255 87.227 61.7642C87.0032 61.129 86.5909 60.5773 86.0451 60.1827C85.4553 59.7618 84.7549 59.5235 84.0308 59.4973C83.6911 59.4835 83.351 59.505 83.0158 59.5614L82.1217 57.043L79.8073 57.8645L80.6376 60.203L79.1448 60.733L78.3145 58.3945L76.0004 59.2164L76.8308 61.5545L73.3042 62.8067L74.0014 64.7711L74.5351 64.5817C74.7778 64.4742 75.041 64.4207 75.3064 64.4248C75.4467 64.4423 75.5776 64.5055 75.6783 64.6048C75.8401 64.8423 75.9623 65.1045 76.0398 65.3814L78.8579 73.3177C78.9708 73.5783 79.0401 73.8555 79.0636 74.1383C79.0498 74.2802 78.9883 74.4133 78.8895 74.5158C78.6831 74.6817 78.4449 74.8035 78.1895 74.8736L77.6561 75.0633L78.3473 77.0102L81.8739 75.7577L82.7101 78.1136L85.0242 77.2917L84.1879 74.9361L85.6776 74.4073L86.5139 76.763L88.8314 75.9398L87.9298 73.4008C88.2616 73.2081 88.5739 72.9835 88.862 72.7302C89.5057 72.1739 89.9712 71.4402 90.2001 70.6208C90.4173 69.8606 90.3905 69.0515 90.1236 68.3073C89.9136 67.7041 89.5492 67.1663 89.0667 66.7477ZM79.1139 63.3264L80.6136 62.7939C81.2172 62.5476 81.8525 62.3877 82.5008 62.3189C82.8498 62.3003 83.1948 62.4006 83.4795 62.6033C83.7664 62.8239 83.9798 63.126 84.0917 63.4702C84.2167 63.8067 84.2351 64.1733 84.1448 64.5205C84.0338 64.8812 83.8117 65.1976 83.5101 65.4245C83.0055 65.7867 82.4454 66.0646 81.8517 66.2473L80.3414 66.7836L79.1139 63.3264ZM86.4723 70.6142C86.3493 71.0303 86.0939 71.3949 85.7448 71.6527C85.3173 71.9433 84.8513 72.173 84.3604 72.3352L83.363 72.6895C83.1605 72.7802 82.9442 72.8358 82.7233 72.8542C82.6772 72.8493 82.6327 72.8346 82.5927 72.8111C82.5528 72.7877 82.5182 72.7561 82.4914 72.7183C82.3643 72.4767 82.2579 72.2247 82.1733 71.9652L81.0798 68.8855L82.8501 68.2567C83.4267 68.022 84.0399 67.8901 84.662 67.867C85.0577 67.8627 85.4438 67.9888 85.7608 68.2258C86.0738 68.4742 86.3058 68.8101 86.4273 69.1908C86.6014 69.6468 86.6173 70.1481 86.4723 70.6142Z" fill="#6F963C"/>
<path d="M73.9871 85.682C73.7905 85.3786 73.7027 85.0176 73.7379 84.6579C73.7732 84.2981 73.9294 83.961 74.1812 83.7016C74.2018 83.6945 75.9784 81.7645 75.2612 79.7451C74.7528 78.4614 74.1084 77.2359 73.339 76.0895C71.7358 73.6229 70.4293 70.9759 69.4465 68.2032C67.2077 61.8982 71.3018 56.532 73.7409 54.051L68.7459 50.7729C68.5655 50.6452 68.4128 50.4823 68.2972 50.294C68.1816 50.1057 68.1054 49.8959 68.0731 49.6773C68.0409 49.4586 68.0534 49.2358 68.1098 49.0221C68.1661 48.8084 68.2653 48.6084 68.4012 48.4341C68.5832 48.2013 68.8251 48.0223 69.1009 47.916L66.0593 48.996C65.852 49.0744 65.6629 49.1943 65.5035 49.3483C65.3442 49.5023 65.2179 49.6871 65.1324 49.8916C65.0469 50.0961 65.0041 50.3158 65.0064 50.5374C65.0088 50.759 65.0564 50.9778 65.1462 51.1804C65.2662 51.4513 65.458 51.6841 65.7009 51.8538L70.7052 55.1482C68.2602 57.612 64.1696 62.977 66.4084 69.282C67.3896 72.0553 68.6962 74.7026 70.3009 77.1682C71.0692 78.3151 71.7125 79.5411 72.2196 80.8251C72.9368 82.8445 71.1568 84.7754 71.1396 84.7816C70.9143 85.0061 70.7618 85.2933 70.702 85.6058C70.6423 85.9182 70.678 86.2414 70.8046 86.5332C70.8887 86.7266 71.0109 86.9016 71.164 87.0473C71.3846 87.2551 71.6589 87.397 71.956 87.457C72.2531 87.5169 72.561 87.4926 72.8449 87.3866L75.8862 86.3066C75.5458 86.4343 75.1721 86.442 74.8267 86.3284C74.4814 86.2148 74.1852 85.9868 73.9871 85.682Z" fill="#77A042"/>
<path d="M90.0029 44.8317L86.8626 44.0742L85.6464 48.8442L65.1592 56.1186L66.2317 59.1395L86.9061 51.7986L90.4126 53.4674L91.8161 50.5427L88.8911 49.182L90.0029 44.8317Z" fill="#876142"/>
<path d="M60.4758 96.4344L60.7452 97.5688C60.7691 97.6834 60.832 97.7862 60.9232 97.8596C61.0145 97.9329 61.1284 97.9723 61.2455 97.9711C61.3626 97.9698 61.4756 97.9279 61.5652 97.8525C61.6548 97.7771 61.7154 97.673 61.7368 97.5578L61.9571 96.4069C62.0617 95.8529 62.3271 95.3419 62.7202 94.9378C63.1133 94.5337 63.6168 94.2542 64.1677 94.1344L65.3099 93.8628C65.4221 93.8352 65.5216 93.7702 65.5921 93.6786C65.6626 93.587 65.6998 93.4742 65.6978 93.3587C65.6958 93.2431 65.6546 93.1317 65.5809 93.0426C65.5072 92.9535 65.4055 92.8921 65.2924 92.8685L64.1471 92.6538C63.592 92.55 63.0798 92.2849 62.6746 91.8916C62.2698 91.4983 61.9904 90.9942 61.8714 90.4425L61.6018 89.3084C61.5753 89.1953 61.511 89.0945 61.4194 89.023C61.3278 88.9514 61.2145 88.9133 61.0983 88.915C60.9822 88.9167 60.8702 88.9578 60.7805 89.0314C60.6908 89.1051 60.6288 89.2071 60.6046 89.3206L60.3899 90.47C60.284 91.0242 60.0175 91.5351 59.6236 91.9391C59.2295 92.3435 58.7253 92.6234 58.1736 92.7441L57.0374 93.0141C56.9531 93.034 56.8752 93.075 56.8111 93.1333C56.747 93.1916 56.6988 93.2653 56.6709 93.3473C56.6431 93.4294 56.6366 93.5172 56.6521 93.6024C56.6675 93.6877 56.7044 93.7676 56.7593 93.8347C56.833 93.9244 56.9352 93.9863 57.0489 94.01L58.1999 94.2231C58.7547 94.3276 59.2665 94.5931 59.6714 94.9866C60.0762 95.3795 60.356 95.8831 60.4758 96.4344ZM43.3283 21.3066C44.9255 20.1172 45.2558 17.8609 44.0661 16.2675C42.8764 14.6738 40.6174 14.3463 39.0205 15.5356C37.4233 16.7253 37.093 18.9813 38.2827 20.575C39.4724 22.1688 41.7314 22.4963 43.3283 21.3066Z" fill="#FFCC01"/>
<path d="M102.63 59.5488C103.693 58.7572 103.912 57.256 103.121 56.1953C102.329 55.135 100.826 54.9169 99.7631 55.7085C98.7003 56.5 98.4806 58.0013 99.2722 59.0619C100.064 60.1222 101.567 60.3403 102.63 59.5488Z" fill="white"/>
<path d="M27.2064 75.4649C27.6994 75.4649 28.1722 75.269 28.5207 74.9204C28.8693 74.5719 29.0652 74.0991 29.0652 73.6061C29.0652 73.1131 28.8693 72.6404 28.5207 72.2918C28.1722 71.9432 27.6994 71.7474 27.2064 71.7474C26.7134 71.7474 26.2407 71.9432 25.8921 72.2918C25.5435 72.6404 25.3477 73.1131 25.3477 73.6061C25.3477 74.0991 25.5435 74.5719 25.8921 74.9204C26.2407 75.269 26.7134 75.4649 27.2064 75.4649ZM90.0739 33.9133C90.5781 33.9133 91.0616 33.713 91.4181 33.3565C91.7746 33 91.9748 32.5165 91.9748 32.0124C91.9748 31.5082 91.7746 31.0247 91.4181 30.6682C91.0616 30.3117 90.5781 30.1114 90.0739 30.1114C89.5697 30.1114 89.0862 30.3117 88.7297 30.6682C88.3732 31.0247 88.173 31.5082 88.173 32.0124C88.173 32.5165 88.3732 33 88.7297 33.3565C89.0862 33.713 89.5697 33.9133 90.0739 33.9133ZM45.6077 4.08922C45.8783 4.09257 46.1469 4.04215 46.3979 3.94091C46.6488 3.83966 46.8772 3.68959 47.0698 3.49941C47.2623 3.30923 47.4152 3.08271 47.5196 2.83299C47.6239 2.58327 47.6776 2.31533 47.6776 2.04469C47.6776 1.77405 47.6239 1.5061 47.5196 1.25639C47.4152 1.00667 47.2623 0.78015 47.0698 0.589966C46.8772 0.399782 46.6488 0.249715 46.3979 0.148469C46.1469 0.0472224 45.8783 -0.00318949 45.6077 0.000156262C45.0698 0.00680609 44.5562 0.225139 44.1782 0.60784C43.8002 0.990541 43.5882 1.50678 43.5882 2.04469C43.5882 2.58259 43.8002 3.09883 44.1782 3.48154C44.5562 3.86424 45.0698 4.08257 45.6077 4.08922Z" fill="#FFCC01" fill-opacity="0.5"/>
<path d="M22.4058 17.9161L16.5077 23.8842C16.4777 23.9143 16.4563 23.952 16.446 23.9933C16.4357 24.0345 16.4367 24.0778 16.449 24.1185C16.4613 24.1593 16.4845 24.1959 16.5159 24.2245C16.5474 24.2531 16.586 24.2727 16.6277 24.2811L19.953 24.9683L18.4674 28.9392C18.4507 28.9895 18.4514 29.044 18.4695 29.0938C18.4876 29.1436 18.522 29.1858 18.5671 29.2137C18.6122 29.2415 18.6653 29.2533 18.718 29.2472C18.7706 29.241 18.8196 29.2173 18.8571 29.1799L24.4771 23.3245C24.5048 23.2951 24.5245 23.259 24.5343 23.2198C24.5442 23.1805 24.5438 23.1394 24.5333 23.1004C24.5228 23.0613 24.5026 23.0256 24.4744 22.9966C24.4462 22.9675 24.4111 22.9462 24.3724 22.9345L21.2808 22.0314L22.794 18.1667C22.8143 18.116 22.8164 18.0598 22.7998 18.0078C22.7833 17.9557 22.7491 17.911 22.7032 17.8814C22.6573 17.8517 22.6026 17.839 22.5483 17.8453C22.494 17.8517 22.4437 17.8767 22.4058 17.9161Z" fill="#FFCC01"/>
<path d="M41.2222 51.0674L41.1922 54.8683L27.7834 62.6674L0.8125 47.0961L0.8325 43.2952L14.2544 35.4961" fill="#6B8C3B"/>
<path d="M26.7088 47.1969C26.7138 45.3797 24.1751 43.8994 21.0382 43.8907C17.9013 43.8819 15.3541 45.3482 15.3491 47.1653C15.3441 48.9825 17.8829 50.4629 21.0198 50.4716C24.1566 50.4804 26.7038 49.0144 26.7088 47.1969Z" fill="#64AC45"/>
<path d="M17.3453 38.916C15.6531 39.9004 12.9034 39.8973 11.2016 38.916L6.72656 41.5157C8.42813 42.497 8.43812 44.092 6.74625 45.0732L24.7134 55.4451C26.4022 54.4638 29.1522 54.4638 30.8541 55.4451L35.3291 52.8454C33.6272 51.8441 33.6172 50.2691 35.3091 49.2879L17.345 38.916H17.3453ZM17.0116 49.5082C14.7856 48.2235 14.7756 46.1376 16.9847 44.836C19.1941 43.5348 22.7916 43.5513 25.0172 44.836C27.2431 46.121 27.2531 48.2066 25.0441 49.5082C22.8347 50.8098 19.2372 50.7929 17.0116 49.5082Z" fill="#8BBB4C"/>
<path d="M0.833496 43.2952L27.801 58.8664L41.2232 51.0673L14.2554 35.4961L0.833496 43.2952ZM30.8479 55.4458C29.146 54.4645 26.396 54.4645 24.7072 55.4458L6.74693 45.0739C8.43881 44.0927 8.41568 42.4977 6.72693 41.5164L11.2019 38.9167C12.9038 39.898 15.6538 39.9011 17.3457 38.9167L35.3097 49.2886C33.6176 50.2698 33.641 51.8617 35.3297 52.8461L30.8479 55.4458Z" fill="#77A042"/>
<path d="M29.5889 44.3435L16.167 52.1426L12.0586 49.7698L25.4805 41.9707L29.5889 44.3435Z" fill="#E1C89B"/>
<path d="M16.1532 52.1463L16.1335 55.9506L12.0254 53.5778L12.0454 49.7734L16.1535 52.1463H16.1532Z" fill="#C1AA7D"/>
<path d="M27.8003 58.8671V62.6681L41.2025 54.8693V51.0684L27.8003 58.8671Z" fill="#5E7733"/>
<path d="M1.66699 49.0419L1.68699 52.8429L15.1089 60.6416L42.0764 45.0707L42.0598 41.2695L28.6379 33.4707" fill="#6B8C3B"/>
<path d="M21.872 48.4498C25.0086 48.4411 27.5473 46.9607 27.5423 45.1436C27.5373 43.3264 24.9901 41.8601 21.8533 41.8692C18.7164 41.8779 16.1776 43.3579 16.1826 45.1754C16.1879 46.9926 18.7348 48.4586 21.8717 48.4498H21.872Z" fill="#77A042"/>
<path d="M25.5477 36.8906C27.2396 37.875 29.9896 37.8716 31.6883 36.8906L36.1633 39.4769C34.4612 40.4581 34.4512 42.0531 36.1433 43.0344L18.1658 53.4194C16.474 52.4384 13.7274 52.4384 12.0255 53.4194L7.56396 50.8231C9.2624 49.8222 9.2724 48.2469 7.58396 47.2656L25.5477 36.8906ZM25.8815 47.4828C28.104 46.1978 28.1174 44.1122 25.9049 42.8106C23.6924 41.5091 20.098 41.5259 17.8724 42.8106C15.6465 44.0956 15.6365 46.1813 17.849 47.4828C20.0615 48.7841 23.6555 48.7675 25.8815 47.4828Z" fill="#8BBB4C"/>
<path d="M42.0598 41.2695L15.0889 56.8307L1.66699 49.042L28.6379 33.4707L42.0598 41.2695ZM12.0254 53.4201C13.7273 52.4391 16.4739 52.4391 18.1661 53.4201L36.1429 43.0482C34.4511 42.0673 34.4745 40.472 36.1629 39.491L31.6879 36.8913C29.9892 37.8723 27.2395 37.8757 25.5473 36.8913L7.58355 47.2632C9.27231 48.2441 9.25231 49.836 7.56356 50.8204L12.0386 53.4201" fill="#77A042"/>
<path d="M13.3037 42.3181L26.7256 50.1169L30.8337 47.7444L17.4118 39.9453L13.3037 42.3181Z" fill="#E1C89B"/>
<path d="M26.7354 50.1194L26.7554 53.9238L30.8635 51.5509L30.8435 47.75L26.7354 50.1194Z" fill="#C1AA7D"/>
<path d="M15.0889 56.8401V60.641L1.68701 52.8423V49.041L15.0889 56.8401Z" fill="#5E7733"/>
</g>
<defs>
<clipPath id="clip0">
<rect width="109.375" height="100" fill="white" transform="translate(0.8125)"/>
</clipPath>
</defs>
</svg>
