<svg width="148" height="152" viewBox="0 0 148 152" fill="none" xmlns="http://www.w3.org/2000/svg">
<g clip-path="url(#clip0)">
<path opacity="0.12" d="M38.753 144.871C39.1384 145.106 39.4167 145.482 39.5286 145.919C39.6406 146.357 39.5773 146.821 39.3522 147.212C39.1272 147.604 38.7582 147.892 38.3239 148.015C37.8895 148.138 37.4242 148.087 37.027 147.873L4.112 128.925C2.86034 128.201 1.82124 127.161 1.09937 125.909C0.377501 124.657 -0.00166263 123.236 5.48035e-06 121.791V46.1145C-0.00148688 44.6691 0.377815 43.2488 1.09968 41.9966C1.82154 40.7444 2.86048 39.7045 4.112 38.9814L69.942 1.08545C71.1762 0.374294 72.5756 0 74 0C75.4244 0 76.8238 0.374294 78.058 1.08545L143.888 38.9814C145.139 39.7045 146.179 40.7444 146.9 41.9966C147.622 43.2488 148.001 44.6691 148 46.1145V121.791C148.002 123.236 147.622 124.657 146.901 125.909C146.179 127.161 145.14 128.201 143.888 128.925L110.973 147.873C110.576 148.087 110.11 148.138 109.676 148.015C109.242 147.892 108.873 147.604 108.648 147.212C108.423 146.821 108.359 146.357 108.471 145.919C108.583 145.482 108.862 145.106 109.247 144.871L142.162 125.921C142.886 125.502 143.487 124.9 143.904 124.175C144.321 123.45 144.54 122.628 144.539 121.792V46.1145C144.539 44.4055 143.631 42.8294 142.162 41.9844L76.332 4.08838C75.6228 3.67952 74.8186 3.46436 74 3.46436C73.1814 3.46436 72.3772 3.67952 71.668 4.08838L5.83802 41.9834C5.11396 42.4026 4.51304 43.0053 4.09577 43.7305C3.6785 44.4556 3.45957 45.2778 3.461 46.1145V121.791C3.461 123.501 4.36902 125.076 5.83802 125.921L38.753 144.871Z" fill="white"/>
<path d="M76.269 23.9717L124.823 50.9429C125.552 51.3479 126.159 51.9404 126.582 52.6592C127.005 53.378 127.228 54.1968 127.228 55.0308V108.661C127.228 110.36 126.308 111.925 124.823 112.749L76.269 139.719C75.5749 140.104 74.794 140.307 74 140.307C73.206 140.307 72.4251 140.104 71.731 139.719L23.177 112.749C22.448 112.344 21.8406 111.751 21.4177 111.032C20.9949 110.313 20.7719 109.495 20.772 108.661V55.0308C20.772 53.3328 21.692 51.7679 23.177 50.9429L71.731 23.9727C72.4251 23.587 73.206 23.3848 74 23.3848C74.794 23.3848 75.5749 23.587 76.269 23.9727V23.9717Z" fill="#9012FE"/>
<g opacity="0.8">
<path opacity="0.4" d="M76.7308 12.4036L134.737 44.7585C135.609 45.2453 136.335 45.956 136.841 46.8174C137.347 47.6788 137.614 48.6596 137.614 49.6584V114.033C137.614 115.033 137.348 116.014 136.842 116.876C136.336 117.737 135.609 118.449 134.737 118.936L76.7308 151.291C75.8959 151.756 74.9558 152.001 73.9998 152.001C73.0438 152.001 72.1036 151.756 71.2687 151.291L13.2628 118.936C12.3902 118.449 11.6635 117.737 11.1578 116.876C10.652 116.014 10.3855 115.033 10.3857 114.033V49.6594C10.3856 48.6604 10.6523 47.6794 11.158 46.8179C11.6638 45.9563 12.3904 45.2454 13.2628 44.7585L71.2687 12.4036C72.1036 11.9378 73.0438 11.6934 73.9998 11.6934C74.9558 11.6934 75.8959 11.9378 76.7308 12.4036Z" fill="#129AFE"/>
</g>
<path d="M57.7979 105.219C57.7979 84.4188 74.6479 67.5566 95.4339 67.5566C116.22 67.5566 133.07 84.4188 133.07 105.219C133.07 126.019 116.22 142.881 95.4339 142.881C74.6479 142.881 57.7979 126.019 57.7979 105.219Z" fill="#F8AA1C"/>
<path d="M119.819 105.22C119.819 103.846 119.703 102.498 119.485 101.186H130.232C129.844 97.7784 128.954 94.4474 127.592 91.3005L118.282 96.6785C117.333 94.1417 115.969 91.7804 114.245 89.6914L123.553 84.3135C121.508 81.5632 119.072 79.126 116.323 77.0793L110.95 86.3936C108.863 84.6687 106.503 83.3039 103.968 82.3555L109.343 73.0396C106.199 71.676 102.87 70.7853 99.4648 70.3965V81.1504C96.7949 80.7056 94.0698 80.7056 91.3998 81.1504V70.3965C87.9951 70.7853 84.6667 71.676 81.5228 73.0396L86.8958 82.3555C84.3605 83.3046 82.0009 84.6694 79.9138 86.3936L74.5408 77.0806C71.792 79.1272 69.3563 81.5638 67.3108 84.3135L76.6188 89.6914C74.8947 91.78 73.5307 94.1414 72.5828 96.6785L63.2738 91.2986C61.9103 94.4459 61.02 97.7776 60.6318 101.186H71.3788C70.9344 103.857 70.9344 106.584 71.3788 109.255H60.6318C61.0198 112.662 61.9094 115.994 63.2718 119.14L72.5838 113.76C73.5305 116.298 74.8943 118.66 76.6188 120.749L67.3118 126.125C69.3557 128.877 71.7912 131.314 74.5408 133.359L79.9148 124.045C82.0017 125.77 84.3613 127.136 86.8968 128.085L81.5228 137.401C84.6671 138.765 87.9958 139.656 91.4008 140.044V129.29C94.0704 129.735 96.7953 129.735 99.4648 129.29V140.044C102.87 139.656 106.199 138.765 109.343 137.401L103.968 128.085C106.504 127.136 108.863 125.771 110.95 124.045L116.324 133.359C119.073 131.314 121.509 128.877 123.553 126.125L114.245 120.749C115.969 118.66 117.334 116.299 118.282 113.761L127.592 119.14C128.954 115.993 129.844 112.662 130.232 109.255H119.485C119.703 107.942 119.819 106.595 119.819 105.22Z" fill="#F57823"/>
<path d="M73.5327 105.218C73.5327 93.1138 83.3377 83.3008 95.4337 83.3008C107.53 83.3008 117.335 93.1138 117.335 105.218C117.335 117.322 107.53 127.134 95.4337 127.134C83.3377 127.134 73.5327 117.322 73.5327 105.218Z" fill="#F8AA1C"/>
<path d="M90.8638 79.8982C90.8638 85.8022 89.5068 91.3883 87.0858 96.3633C80.9808 108.911 68.1138 117.561 53.2278 117.561C32.4398 117.561 15.5898 100.698 15.5898 79.8982C15.5898 65.0052 24.2298 52.1283 36.7698 46.0193C41.8961 43.5213 47.5253 42.2274 53.2278 42.2364C74.0138 42.2364 90.8638 59.0982 90.8638 79.8982Z" fill="#D33C3C"/>
<path d="M77.6127 79.8982C77.6127 78.5242 77.4978 77.1753 77.2798 75.8633H88.0267C87.6385 72.4561 86.7485 69.1251 85.3857 65.9783L76.0757 71.3562C75.1272 68.8195 73.7633 66.4582 72.0397 64.3691L81.3467 58.9912C79.3019 56.241 76.8666 53.8041 74.1177 51.7573L68.7438 61.0713C66.6571 59.3465 64.2974 57.9817 61.7618 57.0332L67.1368 47.7173C63.9929 46.3539 60.6645 45.4632 57.2598 45.0742V55.8271C54.5898 55.3823 51.8647 55.3823 49.1948 55.8271V45.0742C45.7897 45.4629 42.461 46.3536 39.3168 47.7173L44.6907 57.0332C42.1554 57.9824 39.7958 59.3471 37.7087 61.0713L32.3348 51.7583C29.5863 53.805 27.151 56.2416 25.1058 58.9912L34.4138 64.3691C32.6896 66.4578 31.3256 68.8192 30.3777 71.3562L21.0677 65.9763C19.7042 69.1236 18.8139 72.4553 18.4258 75.8633H29.1738C28.7293 78.5349 28.7293 81.2617 29.1738 83.9333H18.4258C18.8141 87.3405 19.704 90.6715 21.0668 93.8184L30.3777 88.4392C31.3249 90.9766 32.689 93.3381 34.4138 95.4263L25.1058 100.803C27.1499 103.555 29.5857 105.992 32.3358 108.038L37.7087 98.7231C39.7957 100.448 42.1553 101.813 44.6907 102.763L39.3168 112.079C42.461 113.443 45.7897 114.333 49.1948 114.722V103.967C51.8647 104.412 54.5899 104.412 57.2598 103.967V114.721C60.6648 114.333 63.9935 113.443 67.1378 112.079L61.7628 102.763C64.2985 101.814 66.6582 100.449 68.7448 98.7231L74.1177 108.037C76.8677 105.992 79.3036 103.554 81.3478 100.803L72.0397 95.4253C73.7641 93.3371 75.1285 90.976 76.0768 88.4392L85.3868 93.8171C86.749 90.6705 87.6385 87.3401 88.0267 83.9333H77.2798C77.4978 82.6203 77.6127 81.2732 77.6127 79.8982Z" fill="#F26262"/>
<path d="M31.3267 79.8984C31.3267 67.7944 41.1346 57.9824 53.2346 57.9824C65.3336 57.9824 75.1417 67.7944 75.1417 79.8984C75.1417 92.0034 65.3336 101.815 53.2346 101.815C41.1346 101.815 31.3267 92.0034 31.3267 79.8984Z" fill="#D33C3C"/>
<path d="M90.8443 79.8885C90.8524 85.591 89.5604 91.2202 87.0664 96.3484C81.9424 98.8458 76.3156 100.14 70.6154 100.131C49.8314 100.131 32.9854 83.2756 32.9854 62.4776C32.977 56.7752 34.2687 51.1459 36.7624 46.0176C41.8873 43.5199 47.5151 42.2257 53.2163 42.2344C73.9963 42.2344 90.8443 59.0935 90.8443 79.8885Z" fill="#BB3232"/>
<path d="M37.0259 58.4502C37.0259 37.6502 53.8759 20.7871 74.6619 20.7871C95.4479 20.7871 112.298 37.6492 112.298 58.4502C112.298 79.2502 95.4479 96.1123 74.6619 96.1123C53.8759 96.1123 37.0259 79.2502 37.0259 58.4502Z" fill="#F8E71C"/>
<path d="M99.0469 58.4509C99.0469 57.0759 98.9319 55.728 98.7129 54.416H109.46C109.072 51.0089 108.182 47.6779 106.82 44.531L97.5099 49.9089C96.5611 47.3721 95.1968 45.0108 93.4729 42.9219L102.781 37.5439C100.736 34.7936 98.3001 32.3567 95.5509 30.3101L90.1779 39.624C88.0912 37.8992 85.7315 36.5344 83.1959 35.5859L88.5709 26.27C85.4266 24.9065 82.0979 24.0158 78.6929 23.627V34.3799C76.0229 33.9351 73.2978 33.9351 70.6279 34.3799V23.627C67.2232 24.0157 63.8947 24.9065 60.7509 26.27L66.1239 35.585C63.5885 36.5344 61.2289 37.8995 59.1419 39.624L53.7689 30.311C51.02 32.3577 48.5844 34.7942 46.5389 37.5439L55.8469 42.9209C54.1231 45.0096 52.7595 47.371 51.8119 49.908L42.5019 44.5291C41.1384 47.6764 40.248 51.0081 39.8599 54.416H50.6069C50.1624 57.0877 50.1624 59.8144 50.6069 62.4861H39.8599C40.2478 65.8932 41.1375 69.2242 42.4999 72.3711L51.8119 66.991C52.7586 69.5286 54.1223 71.8905 55.8469 73.979L46.5399 79.356C48.5838 82.107 51.0192 84.5443 53.7689 86.5901L59.1429 77.2759C61.2298 79.0008 63.5894 80.3661 66.1249 81.3159L60.7509 90.6321C63.8952 91.9952 67.2239 92.8854 70.6289 93.2739V82.52C73.2988 82.9651 76.0239 82.9651 78.6938 82.52V93.2739C82.0985 92.8855 85.4269 91.9953 88.5709 90.6321L83.1959 81.3159C85.7316 80.3668 88.0913 79.0013 90.1779 77.2759L95.5519 86.5901C98.3015 84.5443 100.737 82.107 102.781 79.356L93.4729 73.979C95.1974 71.8904 96.5617 69.529 97.5099 66.9919L106.82 72.3711C108.182 69.2242 109.072 65.8932 109.46 62.4861H98.7129C98.9319 61.1731 99.0469 59.8259 99.0469 58.4509Z" fill="#F5A623"/>
<path d="M52.7598 58.4502C52.7598 46.3452 62.5657 36.5332 74.6617 36.5332C86.7577 36.5332 96.5627 46.3452 96.5627 58.4502C96.5627 70.5542 86.7578 80.3662 74.6628 80.3662C62.5658 80.3662 52.7607 70.5542 52.7607 58.4502H52.7598Z" fill="#F8E71C"/>
<path d="M67.7618 55.8743C71.1398 55.8743 73.7468 57.3662 73.7468 61.4702V61.9763C73.7468 66.2393 71.0868 67.8381 67.7878 67.8381C63.9318 67.8381 61.8027 65.6003 61.8027 63.1223C61.8027 62.1093 62.3348 61.8162 63.1868 61.8162C64.3568 61.8162 64.6227 62.2963 64.6227 62.9353C64.6227 64.4543 66.0057 65.3333 67.7347 65.3333C69.7297 65.3333 70.9268 64.2673 70.9268 61.9763V61.4692C70.9268 59.2042 69.7298 58.1123 67.7618 58.1123H63.9048C62.9738 58.1123 62.7078 57.6863 62.7078 57.0203C62.7078 56.8333 62.7337 56.5661 62.7607 56.3801L63.3727 49.1321C63.4257 48.5461 63.6127 48.1992 64.0107 48.1992H71.9108C72.4968 48.1992 72.7888 48.8392 72.7888 49.4512C72.7888 50.0912 72.4968 50.7041 71.9108 50.7041H65.7668L65.3948 55.8743H67.7618Z" fill="#F5A623"/>
<path d="M84.9771 54.1411C84.9771 51.7971 83.7771 50.7041 81.8021 50.7041C79.8011 50.7041 78.6531 51.7973 78.6531 54.1423V61.8962C78.6531 64.2412 79.8011 65.3333 81.8021 65.3333C83.7761 65.3333 84.9771 64.2412 84.9771 61.8962V54.1411ZM75.8311 61.8962V54.1423C75.8311 49.8253 78.413 48.1992 81.795 48.1992C85.15 48.1992 87.787 49.8253 87.787 54.1423V61.8962C87.787 66.2122 85.15 67.8381 81.795 67.8381C78.413 67.8381 75.8311 66.2122 75.8311 61.8962Z" fill="#F5A623"/>
</g>
<defs>
<clipPath id="clip0">
<rect width="148" height="152" fill="white"/>
</clipPath>
</defs>
</svg>
