<svg width="81" height="80" viewBox="0 0 81 80" fill="none" xmlns="http://www.w3.org/2000/svg">
<path d="M80.3335 39.9998C80.3335 40.483 80.3253 40.9646 80.3074 41.443C80.2617 42.7557 80.1506 44.0503 79.9808 45.3271C78.549 56.0976 72.8299 65.5131 64.5965 71.8036C63.576 72.584 62.5181 73.3155 61.4242 73.9946C55.3018 77.8003 48.0741 79.9995 40.3337 79.9995C39.5827 79.9995 38.835 79.9783 38.0938 79.9375C35.1485 79.7742 32.2881 79.2942 29.5469 78.5269C19.5845 75.7448 11.1911 69.2012 5.99436 60.5237C2.39928 54.5237 0.333984 47.5018 0.333984 39.9998C0.333984 37.0283 0.657248 34.132 1.27275 31.3451C2.70785 24.8407 5.72497 18.9289 9.90291 14.0391C17.24 5.4465 28.151 0 40.3337 0C46.4904 0 52.3206 1.39101 57.5287 3.87426C65.2854 7.5722 71.6642 13.6962 75.6821 21.2635C76.6829 23.146 77.5368 25.1198 78.2307 27.1672C79.5939 31.1949 80.3335 35.5116 80.3335 39.9998Z" fill="#456D9E"/>
<path d="M64.5967 71.8045C63.5763 72.5849 62.5183 73.3163 61.4245 73.9955C55.302 77.8012 48.0743 80.0003 40.334 80.0003C39.5829 80.0003 38.8352 79.9791 38.094 79.9383C35.1487 79.775 32.2883 79.295 29.5471 78.5277C29.0573 77.7146 28.7944 76.8559 28.7944 75.9677C28.7944 70.9147 37.2728 66.8184 47.7298 66.8184C55.0849 66.8184 61.4604 68.8445 64.5967 71.8045Z" fill="#2CBA8F"/>
<path d="M80.3336 39.9992C80.3336 40.4824 80.3254 40.9641 80.3074 41.4424C80.2617 42.7551 80.1507 44.0498 79.9809 45.3265C77.8275 46.804 75.2201 47.6693 72.4103 47.6693C65.0079 47.6693 59.0063 41.6677 59.0063 34.2653C59.0063 26.8613 65.0079 20.8613 72.4103 20.8613C73.5385 20.8613 74.6356 21.0001 75.6822 21.263C76.683 23.1454 77.5368 25.1193 78.2307 27.1666C79.594 31.1943 80.3336 35.511 80.3336 39.9992Z" fill="#2CBA8F"/>
<path d="M78.2307 27.1679C65.465 24.4708 49.6052 29.8559 34.2766 34.5311C8.56055 42.3745 6.50489 20.5422 0.333496 15.543C1.76859 9.03856 11.9867 20.2238 34.2766 11.9501C42.1146 9.04068 49.4961 4.8905 57.5287 3.875C67.2168 8.49375 74.7531 16.8953 78.2307 27.1679Z" fill="#74DAA4"/>
<path d="M11.2746 41.3447C5.60381 41.3447 1.34866 54.424 15.8163 54.424C30.284 54.424 44.0013 36.3393 80.333 41.4456" fill="#2CBA8F"/>
<path d="M40.333 70.4043C56.3816 70.4043 69.3916 57.3943 69.3916 41.3457C69.3916 25.2971 56.3816 12.2871 40.333 12.2871C24.2844 12.2871 11.2744 25.2971 11.2744 41.3457C11.2744 57.3943 24.2844 70.4043 40.333 70.4043Z" fill="#F2F4FF"/>
<path d="M40.3331 64.5197C53.1322 64.5197 63.508 54.1439 63.508 41.3448C63.508 28.5457 53.1322 18.1699 40.3331 18.1699C27.5339 18.1699 17.1582 28.5457 17.1582 41.3448C17.1582 54.1439 27.5339 64.5197 40.3331 64.5197Z" fill="#BBC0E0"/>
<path d="M40.3334 61.0222C51.2002 61.0222 60.0095 52.2129 60.0095 41.346C60.0095 30.4792 51.2002 21.6699 40.3334 21.6699C29.4665 21.6699 20.6572 30.4792 20.6572 41.346C20.6572 52.2129 29.4665 61.0222 40.3334 61.0222Z" fill="#F2F4FF"/>
<path d="M36.2864 25.7207C40.3331 25.7207 44.1006 28.372 44.1006 32.8023C44.1006 40.3374 33.0422 42.7792 33.0422 46.4071V47.2445H42.7401C43.5078 47.2445 44.1705 48.1514 44.1705 49.198C44.1705 50.2445 43.5078 51.2213 42.7401 51.2213H30.3214C29.519 51.2213 28.333 50.6631 28.333 49.7911V46.4073C28.333 40.8258 39.5658 37.8607 39.5658 32.942C39.5658 31.5117 38.6239 29.8373 36.3215 29.8373C34.6122 29.8373 33.2167 30.7442 33.2167 32.9071C33.2167 33.7442 32.3447 34.5815 30.8447 34.5815C29.6586 34.5815 28.7866 34.0233 28.7866 32.1396C28.7864 28.1625 32.4143 25.7207 36.2864 25.7207Z" fill="#5463AE"/>
<path d="M80.3076 41.4424C80.1476 45.9714 79.235 50.3077 77.6889 54.3305C76.902 56.3811 75.9518 58.3517 74.8514 60.2227C71.5599 65.8308 66.9396 70.5638 61.4245 73.994C51.9127 74.794 44.4303 77.2936 38.094 79.9369C24.4468 79.1842 12.6215 71.5891 5.99463 60.5231V47.9697C6.0534 50.3991 7.51462 52.8154 11.2664 53.8701L11.2746 53.8929V53.8717C12.5236 54.2227 14.0272 54.4235 15.8166 54.4235C30.2818 54.4235 43.9944 36.3469 80.3076 41.4424Z" fill="#74DAA4"/>
<path d="M77.6883 54.3312C76.9014 56.3818 75.9512 58.3524 74.8508 60.2234C63.1464 54.9092 40.2485 62.5597 39.9302 62.6659C48.9587 57.3679 66.6745 53.4414 77.6883 54.3312Z" fill="#2CBA8F"/>
</svg>
