<svg width="30" height="30" viewBox="0 0 30 30" fill="none" xmlns="http://www.w3.org/2000/svg">
<rect width="30" height="30" rx="15" fill="#6A6AFF"/>
<path d="M16.5419 14.9995L21.7763 9.76491C21.9203 9.62081 21.9998 9.42857 22 9.22358C22 9.01847 21.9206 8.826 21.7763 8.68213L21.3176 8.22354C21.1734 8.07911 20.9812 8 20.776 8C20.5711 8 20.3788 8.07911 20.2346 8.22354L15.0002 13.4578L9.76559 8.22354C9.62161 8.07911 9.42925 8 9.22415 8C9.01927 8 8.82691 8.07911 8.68293 8.22354L8.224 8.68213C7.92533 8.9808 7.92533 9.46659 8.224 9.76491L13.4585 14.9995L8.224 20.234C8.0799 20.3783 8.00057 20.5705 8.00057 20.7755C8.00057 20.9805 8.0799 21.1728 8.224 21.317L8.68281 21.7756C8.8268 21.9199 9.01927 21.9991 9.22403 21.9991C9.42914 21.9991 9.6215 21.9199 9.76548 21.7756L15.0001 16.5411L20.2345 21.7756C20.3787 21.9199 20.571 21.9991 20.7759 21.9991H20.7761C20.9811 21.9991 21.1733 21.9199 21.3175 21.7756L21.7762 21.317C21.9202 21.1729 21.9997 20.9805 21.9997 20.7755C21.9997 20.5705 21.9202 20.3783 21.7762 20.2341L16.5419 14.9995Z" fill="white"/>
</svg>
