<svg width="28" height="28" viewBox="0 0 28 28" fill="none" xmlns="http://www.w3.org/2000/svg">
<rect width="28" height="28" rx="14" fill="#6000FF"/>
<g clip-path="url(#clip0)">
<path d="M22.9532 11.9043C22.8347 11.5399 22.5114 11.2818 22.1304 11.2473L16.9344 10.7756L14.8808 5.96791C14.7292 5.61469 14.3842 5.38672 14.0003 5.38672C13.6163 5.38672 13.2712 5.61469 13.1205 5.96791L11.067 10.7756L5.87011 11.2473C5.48915 11.2825 5.16656 11.5405 5.04736 11.9043C4.92884 12.2688 5.0383 12.6686 5.32642 12.9213L9.25423 16.3654L8.09612 21.4662C8.01138 21.8412 8.15695 22.229 8.46815 22.454C8.63542 22.5755 8.83194 22.6362 9.02915 22.6362C9.19861 22.6362 9.36822 22.5912 9.51969 22.5005L14.0003 19.8215L18.48 22.5005C18.8087 22.6969 19.2219 22.6789 19.5324 22.454C19.8436 22.229 19.9892 21.8412 19.9044 21.4662L18.7463 16.3654L22.6741 12.9213C22.9621 12.6686 23.0717 12.2696 22.9532 11.9043Z" fill="white"/>
</g>
<defs>
<clipPath id="clip0">
<rect width="18" height="18" fill="white" transform="translate(5 5)"/>
</clipPath>
</defs>
</svg>
