<svg width="28" height="28" viewBox="0 0 28 28" fill="none" xmlns="http://www.w3.org/2000/svg">
<rect width="28" height="28" rx="14" fill="#8A0DF0"/>
<g clip-path="url(#clip0)">
<path d="M19.2734 12.4179H14.909L18.6766 5.78895C18.7698 5.62567 18.7693 5.42531 18.6751 5.26257C18.5803 5.09998 18.4067 5 18.2187 5H11.8906C11.6636 5 11.4622 5.14529 11.3906 5.36049L8.22656 14.8878C8.17245 15.0485 8.19978 15.2256 8.29865 15.3631C8.39808 15.5007 8.55724 15.582 8.72657 15.582H13.2003L10.3514 22.2651C10.2494 22.5025 10.335 22.7791 10.5533 22.9176C10.7681 23.0549 11.0566 23.0188 11.2299 22.8229L19.6674 13.2956C19.8054 13.1406 19.8395 12.9185 19.7545 12.7295C19.6695 12.54 19.4811 12.4179 19.2734 12.4179Z" fill="white"/>
</g>
<defs>
<clipPath id="clip0">
<rect width="18" height="18" fill="white" transform="translate(5 5)"/>
</clipPath>
</defs>
</svg>
