<svg width="16" height="16" viewBox="0 0 16 16" fill="none" xmlns="http://www.w3.org/2000/svg">
<g clip-path="url(#clip0)">
<path d="M8 16C12.4183 16 16 12.4183 16 8C16 3.58172 12.4183 0 8 0C3.58172 0 0 3.58172 0 8C0 12.4183 3.58172 16 8 16Z" fill="url(#paint0_linear)"/>
<path d="M13.6329 3.79302C13.3584 3.59136 13.0673 3.40645 12.7622 3.23848C12.5943 2.93344 12.4093 2.64234 12.2077 2.36783C11.0879 0.843436 9.59349 0.00390625 7.99986 0.00390625C6.40622 0.00390625 4.91186 0.843436 3.79204 2.36783C3.59038 2.64234 3.40544 2.93341 3.23747 3.23848C2.93244 3.40645 2.64136 3.59139 2.36682 3.79305C0.842459 4.91283 0.00292969 6.4072 0.00292969 8.00083C0.00292969 9.59446 0.842459 11.0888 2.36685 12.2086C2.64136 12.4103 2.93244 12.5952 3.2375 12.7632C3.40547 13.0683 3.59041 13.3593 3.79207 13.6339C4.91189 15.1583 6.40626 15.9978 7.99989 15.9978C9.59352 15.9978 11.0879 15.1583 12.2077 13.6339C12.4094 13.3594 12.5943 13.0683 12.7623 12.7632C13.0673 12.5952 13.3584 12.4103 13.6329 12.2087C15.1573 11.0889 15.9968 9.59449 15.9968 8.00086C15.9968 6.40723 15.1573 4.91283 13.6329 3.79302ZM7.99986 15.6213C7.56067 15.6213 7.09517 14.9671 6.72717 13.8508C7.14429 13.8998 7.56942 13.9253 7.99986 13.9253C8.43029 13.9253 8.85545 13.8999 9.27258 13.8508C8.90455 14.9671 8.43904 15.6213 7.99986 15.6213ZM7.99986 13.5488C7.52403 13.5488 7.0584 13.5166 6.60647 13.4555C6.35568 12.5687 6.1736 11.5042 6.06941 10.342C6.69325 10.3866 7.34047 10.4096 7.99986 10.4096C8.65924 10.4096 9.30646 10.3866 9.9303 10.342C9.82611 11.5042 9.64403 12.5687 9.39324 13.4555C8.94135 13.5166 8.47568 13.5488 7.99986 13.5488ZM7.99986 0.380377C8.43904 0.380377 8.90455 1.03459 9.27258 2.15089C8.85545 2.10182 8.43029 2.07638 7.99986 2.07638C7.56942 2.07638 7.14426 2.10182 6.72717 2.15089C7.09517 1.03459 7.56067 0.380377 7.99986 0.380377ZM7.99986 2.45288C8.47568 2.45288 8.94135 2.4851 9.39324 2.54615C9.64403 3.43296 9.82611 4.49743 9.9303 5.65966C9.30646 5.61504 8.65921 5.59208 7.99986 5.59208C7.34047 5.59208 6.69325 5.61508 6.06941 5.65966C6.1736 4.49743 6.35568 3.43293 6.60647 2.54615C7.0584 2.4851 7.52403 2.45288 7.99986 2.45288ZM5.96754 8.00083C5.96754 7.32959 5.99173 6.67183 6.03838 6.03939C6.67082 5.99274 7.32861 5.96855 7.99986 5.96855C8.6711 5.96855 9.32889 5.99274 9.96133 6.03939C10.008 6.67183 10.0322 7.32962 10.0322 8.00083C10.0322 8.67208 10.008 9.32984 9.96133 9.96228C9.32889 10.0089 8.6711 10.0331 7.99986 10.0331C7.32861 10.0331 6.67085 10.0089 6.03838 9.96228C5.99173 9.32984 5.96754 8.67208 5.96754 8.00083ZM5.65868 9.93128C4.49645 9.82709 3.43195 9.64501 2.54517 9.39421C2.48412 8.94229 2.4519 8.47666 2.4519 8.00083C2.4519 7.525 2.48412 7.05937 2.54517 6.60745C3.43195 6.35666 4.49645 6.17457 5.65868 6.07038C5.61407 6.69423 5.5911 7.34144 5.5911 8.00083C5.59107 8.66022 5.61407 9.30744 5.65868 9.93128ZM10.3411 6.07038C11.5033 6.17457 12.5678 6.35666 13.4546 6.60745C13.5156 7.05937 13.5478 7.525 13.5478 8.00083C13.5478 8.47666 13.5156 8.94229 13.4546 9.39421C12.5678 9.64501 11.5033 9.82709 10.3411 9.93128C10.3857 9.30744 10.4086 8.66022 10.4086 8.00083C10.4086 7.34144 10.3857 6.69423 10.3411 6.07038ZM10.3109 5.68984C10.2117 4.55067 10.0389 3.50019 9.80108 2.60987C10.7828 2.78377 11.6906 3.09636 12.4832 3.5176C12.9044 4.31013 13.217 5.21793 13.3909 6.19964C12.5005 5.96177 11.4501 5.78897 10.3109 5.68984ZM5.68883 5.68984C4.54966 5.78897 3.49918 5.96177 2.60886 6.19964C2.78273 5.21793 3.09535 4.3101 3.51656 3.5176C4.30909 3.09639 5.21689 2.78377 6.1986 2.6099C5.9608 3.50016 5.788 4.55064 5.68883 5.68984ZM2.14991 9.27352C1.03361 8.90552 0.3794 8.44002 0.3794 8.00083C0.3794 7.56165 1.03361 7.09614 2.14991 6.72814C2.10084 7.14527 2.0754 7.5704 2.0754 8.00083C2.0754 8.43126 2.10084 8.85642 2.14991 9.27352ZM5.68883 10.3119C5.78796 11.451 5.96076 12.5015 6.19863 13.3918C5.21692 13.218 4.30909 12.9053 3.51659 12.4841C3.09538 11.6916 2.78276 10.7838 2.60889 9.80206C3.49918 10.0399 4.54966 10.2127 5.68883 10.3119ZM10.3109 10.3119C11.4501 10.2127 12.5005 10.0399 13.3909 9.80206C13.217 10.7838 12.9044 11.6916 12.4832 12.4841C11.6906 12.9053 10.7828 13.2179 9.80108 13.3918C10.0389 12.5015 10.2117 11.451 10.3109 10.3119ZM13.8498 6.72814C14.9661 7.09617 15.6203 7.56165 15.6203 8.00083C15.6203 8.44002 14.9661 8.90549 13.8498 9.27352C13.8989 8.85642 13.9243 8.43126 13.9243 8.00083C13.9243 7.5704 13.8989 7.14524 13.8498 6.72814ZM15.5314 7.15302C15.1631 6.83892 14.5792 6.55653 13.793 6.31493C13.656 5.44811 13.4137 4.62223 13.0745 3.8658C14.3616 4.70395 15.2568 5.85489 15.5314 7.15302ZM12.1349 2.92623C11.3785 2.58703 10.5526 2.34468 9.68575 2.20777C9.44415 1.42157 9.16177 0.837632 8.84767 0.469287C10.1458 0.743859 11.2968 1.63904 12.1349 2.92623ZM7.15204 0.469255C6.83794 0.8376 6.55556 1.42154 6.31393 2.20773C5.4471 2.34464 4.62122 2.587 3.8648 2.9262C4.70298 1.63904 5.85388 0.743859 7.15204 0.469255ZM2.92522 3.86577C2.58602 4.6222 2.34367 5.44808 2.20676 6.3149C1.42056 6.5565 0.836624 6.83889 0.468279 7.15299C0.742883 5.85489 1.63807 4.70395 2.92522 3.86577ZM0.468279 8.84864C0.836624 9.16275 1.42056 9.44513 2.20676 9.68676C2.34367 10.5536 2.58602 11.3795 2.92522 12.1359C1.63807 11.2977 0.742883 10.1468 0.468279 8.84864ZM3.8648 13.0755C4.62122 13.4147 5.4471 13.657 6.31393 13.7939C6.55556 14.5801 6.83791 15.1641 7.15204 15.5324C5.85388 15.2578 4.70298 14.3626 3.8648 13.0755ZM8.84767 15.5324C9.1618 15.1641 9.44415 14.5801 9.68575 13.7939C10.5526 13.657 11.3785 13.4147 12.1349 13.0755C11.2968 14.3626 10.1458 15.2578 8.84767 15.5324ZM13.0745 12.1359C13.4137 11.3794 13.656 10.5536 13.793 9.68673C14.5792 9.44513 15.1631 9.16275 15.5314 8.84864C15.2568 10.1468 14.3616 11.2977 13.0745 12.1359Z" fill="url(#paint1_linear)"/>
<path d="M7.99991 15.1414C11.9438 15.1414 15.1409 11.9443 15.1409 8.00039C15.1409 4.05652 11.9438 0.859375 7.99991 0.859375C4.05603 0.859375 0.858887 4.05652 0.858887 8.00039C0.858887 11.9443 4.05603 15.1414 7.99991 15.1414Z" fill="url(#paint2_linear)"/>
<path d="M7.25254 8.3329L7.56225 8.64258C7.67553 8.75587 7.73916 8.9095 7.73916 9.06969C7.73916 9.40327 8.00959 9.67371 8.34318 9.67371C8.69107 9.67371 8.97311 9.95571 8.97311 10.3036C8.97311 10.756 8.87874 11.2033 8.69599 11.6171L7.58095 14.1423C7.42832 14.4879 6.97611 14.5724 6.70891 14.3052C6.31948 13.9158 6.10069 13.3876 6.10069 12.8369V12.5432C6.10069 11.7775 5.7965 11.0431 5.25507 10.5017L5.22207 10.4687C4.71251 9.95913 4.42627 9.26803 4.42627 8.54743V8.44218C4.42627 7.94232 4.83148 7.53711 5.33134 7.53711C6.05191 7.53711 6.74301 7.82338 7.25254 8.3329Z" fill="url(#paint3_linear)"/>
<path d="M8.34334 9.67326C8.00976 9.67326 7.73933 9.40283 7.73933 9.06925C7.73933 8.90906 7.67571 8.75542 7.56242 8.64214L7.25271 8.33246C6.98664 8.06639 6.67081 7.8619 6.32738 7.72656C6.44697 7.84659 6.5569 7.95593 6.56822 7.9675V8.38626C6.2876 8.44672 6.07715 8.69601 6.07715 8.99474C6.07715 9.20823 6.18472 9.39652 6.34849 9.50868L8.62275 11.7829L8.69613 11.6167C8.87884 11.2029 8.97324 10.7556 8.97324 10.3032C8.97327 9.95527 8.69123 9.67326 8.34334 9.67326Z" fill="url(#paint4_linear)"/>
<path d="M5.24867 0.485946C3.24572 1.21962 1.61801 2.73137 0.731333 4.65511C0.626234 4.88309 0.574219 5.13197 0.574219 5.38298C0.574219 5.85059 0.759976 6.29903 1.09061 6.62966L1.25412 6.79318C1.98683 7.52588 2.98062 7.93752 4.01682 7.93752C4.17162 7.93752 4.29711 7.81203 4.29711 7.65724C4.29711 7.50245 4.17162 7.37696 4.01682 7.37696H3.15521C2.75781 7.37696 2.43568 7.05482 2.43568 6.65743C2.43568 6.26003 2.75784 5.9379 3.15521 5.9379H3.82818C4.63511 5.9379 5.40898 5.61733 5.97958 5.04676L7.01864 4.0077C7.2449 3.78144 7.55179 3.65432 7.87176 3.65432C8.33466 3.65432 8.75675 3.38948 8.95809 2.97269C9.2049 2.46188 8.83273 1.86875 8.26542 1.86875H6.92478C6.53061 1.86875 6.21108 1.54922 6.21108 1.15506C6.21108 0.657617 5.71574 0.314872 5.24867 0.485946Z" fill="url(#paint5_linear)"/>
<path d="M8.26524 1.86871H6.9246C6.53043 1.86871 6.21091 1.54918 6.21091 1.15502C6.21091 1.13158 6.20946 1.10865 6.20733 1.08594C3.59378 1.76164 1.56077 3.88007 1.0083 6.54097C1.03472 6.57127 1.06182 6.60104 1.0904 6.62966L1.25392 6.79317C1.98662 7.52588 2.98041 7.93751 4.01661 7.93751C4.17141 7.93751 4.2969 7.81202 4.2969 7.65723C4.2969 7.50244 4.17141 7.37695 4.01661 7.37695H3.155C2.7576 7.37695 2.43547 7.05479 2.43547 6.65742C2.43547 6.26002 2.75763 5.93789 3.155 5.93789H3.82797C4.6349 5.93789 5.40877 5.61733 5.97938 5.04675L7.01843 4.00769C7.24469 3.78144 7.55158 3.65431 7.87155 3.65431C8.33445 3.65431 8.75651 3.38947 8.95789 2.97268C9.20469 2.46184 8.83255 1.86871 8.26524 1.86871Z" fill="url(#paint6_linear)"/>
<path d="M15.8135 6.27685C15.703 5.7738 15.2532 5.41797 14.7381 5.41797H13.6104H13.0075C11.983 5.41797 11.1523 6.24859 11.1523 7.27318V7.49891C11.1523 8.39886 11.8819 9.12839 12.7819 9.12839C13.2395 9.12839 13.6104 9.49934 13.6104 9.95694V12.1205C13.6104 12.6843 14.3424 12.9089 14.6557 12.4402C15.3069 11.4661 15.7498 10.3409 15.9209 9.12839C15.9727 8.76008 15.9997 8.3833 15.9997 8.00055C15.9997 7.40868 15.9354 6.83199 15.8135 6.27685Z" fill="url(#paint7_linear)"/>
<path d="M15.1407 4.38971H12.751C12.3236 4.38971 11.9771 4.04321 11.9771 3.61576C11.9771 3.18831 12.3236 2.8418 12.751 2.8418H14.1151C14.5138 3.31395 14.8589 3.83317 15.1407 4.38971Z" fill="url(#paint8_linear)"/>
<path d="M11.5787 0.84375C12.1182 1.92061 12.4224 3.13589 12.4224 4.42239C12.4224 8.84067 8.84066 12.4224 4.42238 12.4224C3.13589 12.4224 1.92061 12.1183 0.84375 11.5787C2.15725 14.2002 4.86824 16 8.00003 16C12.4183 16 16 12.4183 16 8.00005C16 4.86825 14.2001 2.15726 11.5787 0.84375Z" fill="url(#paint9_linear)"/>
</g>
<defs>
<linearGradient id="paint0_linear" x1="4.12596" y1="4.12596" x2="13.8222" y2="13.8222" gradientUnits="userSpaceOnUse">
<stop stop-color="#18CFFC"/>
<stop offset="1" stop-color="#4A98F7"/>
</linearGradient>
<linearGradient id="paint1_linear" x1="9.22257" y1="16.8086" x2="6.34398" y2="-3.92695" gradientUnits="userSpaceOnUse">
<stop stop-color="#18CFFC" stop-opacity="0"/>
<stop offset="1" stop-color="#65E1DC"/>
</linearGradient>
<linearGradient id="paint2_linear" x1="9.72712" y1="9.72761" x2="1.75639" y2="1.75688" gradientUnits="userSpaceOnUse">
<stop stop-color="#18CFFC" stop-opacity="0"/>
<stop offset="1" stop-color="#65E1DC"/>
</linearGradient>
<linearGradient id="paint3_linear" x1="2.91605" y1="8.41629" x2="15.5208" y2="17.36" gradientUnits="userSpaceOnUse">
<stop stop-color="#92F37F"/>
<stop offset="1" stop-color="#4AB272"/>
</linearGradient>
<linearGradient id="paint4_linear" x1="11.4655" y1="12.6227" x2="4.38996" y2="7.43884" gradientUnits="userSpaceOnUse">
<stop stop-color="#4AB272" stop-opacity="0"/>
<stop offset="1" stop-color="#009245"/>
</linearGradient>
<linearGradient id="paint5_linear" x1="5.48694" y1="4.79333" x2="18.0916" y2="13.7369" gradientUnits="userSpaceOnUse">
<stop stop-color="#92F37F"/>
<stop offset="1" stop-color="#4AB272"/>
</linearGradient>
<linearGradient id="paint6_linear" x1="6.03895" y1="5.45077" x2="2.46816" y2="1.87998" gradientUnits="userSpaceOnUse">
<stop stop-color="#92F37F" stop-opacity="0"/>
<stop offset="1" stop-color="#FFEE83"/>
</linearGradient>
<linearGradient id="paint7_linear" x1="12.3672" y1="8.68297" x2="18.0157" y2="9.67668" gradientUnits="userSpaceOnUse">
<stop stop-color="#92F37F"/>
<stop offset="1" stop-color="#4AB272"/>
</linearGradient>
<linearGradient id="paint8_linear" x1="13.2627" y1="3.59179" x2="18.9113" y2="4.58552" gradientUnits="userSpaceOnUse">
<stop stop-color="#92F37F"/>
<stop offset="1" stop-color="#4AB272"/>
</linearGradient>
<linearGradient id="paint9_linear" x1="9.47093" y1="8.84711" x2="20.4673" y2="-11.6046" gradientUnits="userSpaceOnUse">
<stop stop-color="#0469BC" stop-opacity="0"/>
<stop offset="1" stop-color="#0469BC"/>
</linearGradient>
<clipPath id="clip0">
<rect width="16" height="16" fill="white"/>
</clipPath>
</defs>
</svg>
