<svg width="56" height="60" viewBox="0 0 56 60" fill="none" xmlns="http://www.w3.org/2000/svg">
<g filter="url(#filter0_d)">
<rect width="56" height="56" rx="10" fill="#7400D3"/>
<path d="M23.8133 19H19.6518C19.376 19 19.1504 19.2256 19.1504 19.5014V23.6629C19.1504 23.9387 19.376 24.1643 19.6518 24.1643H23.8133C24.0891 24.1643 24.3147 23.9387 24.3147 23.6629V19.5014C24.3147 19.2256 24.0891 19 23.8133 19ZM23.3621 23.2117H20.1532V20.0028H23.3621V23.2117Z" fill="#D5D8F5"/>
<path d="M30.0808 19H25.9192C25.6435 19 25.4178 19.2256 25.4178 19.5014V23.6629C25.4178 23.9387 25.6435 24.1643 25.9192 24.1643H30.0808C30.3566 24.1643 30.5822 23.9387 30.5822 23.6629V19.5014C30.5822 19.2256 30.3566 19 30.0808 19ZM29.6296 23.2117H26.4206V20.0028H29.6296V23.2117Z" fill="#D5D8F5"/>
<path d="M23.8133 25.3184H19.6518C19.376 25.3184 19.1504 25.544 19.1504 25.8198V29.9813C19.1504 30.2571 19.376 30.4827 19.6518 30.4827H23.8133C24.0891 30.4827 24.3147 30.2571 24.3147 29.9813V25.8198C24.3147 25.544 24.0891 25.3184 23.8133 25.3184ZM23.3621 29.4799H20.1532V26.3211H23.3621V29.4799Z" fill="#D5D8F5"/>
<path d="M30.0808 25.3184H25.9192C25.6435 25.3184 25.4178 25.544 25.4178 25.8198V29.9813C25.4178 30.2571 25.6435 30.4827 25.9192 30.4827H30.0808C30.3566 30.4827 30.5822 30.2571 30.5822 29.9813V25.8198C30.5822 25.544 30.3566 25.3184 30.0808 25.3184ZM29.6296 29.4799H26.4206V26.3211H29.6296V29.4799Z" fill="#D5D8F5"/>
<path d="M36.3482 19H32.1866C31.9109 19 31.6852 19.2256 31.6852 19.5014V23.6629C31.6852 23.9387 31.9109 24.1643 32.1866 24.1643H36.3482C36.624 24.1643 36.8496 23.9387 36.8496 23.6629V19.5014C36.8496 19.2256 36.624 19 36.3482 19ZM35.897 23.2117H32.688V20.0028H35.897V23.2117Z" fill="#D5D8F5"/>
<path d="M36.3482 25.3184H32.1866C31.9109 25.3184 31.6852 25.544 31.6852 25.8198V29.9813C31.6852 30.2571 31.9109 30.4827 32.1866 30.4827H36.3482C36.624 30.4827 36.8496 30.2571 36.8496 29.9813V25.8198C36.8496 25.544 36.624 25.3184 36.3482 25.3184ZM35.897 29.4799H32.688V26.3211H35.897V29.4799Z" fill="#D5D8F5"/>
<path d="M23.8133 31.8359H19.6518C19.376 31.8359 19.1504 32.0616 19.1504 32.3373V36.4989C19.1504 36.7747 19.376 37.0003 19.6518 37.0003H23.8133C24.0891 37.0003 24.3147 36.7747 24.3147 36.4989V32.3373C24.3147 32.0616 24.0891 31.8359 23.8133 31.8359ZM23.3621 36.0476H20.1532V32.8387H23.3621V36.0476Z" fill="#D5D8F5"/>
<path d="M30.0808 31.8359H25.9192C25.6435 31.8359 25.4178 32.0616 25.4178 32.3373V36.4989C25.4178 36.7747 25.6435 37.0003 25.9192 37.0003H30.0808C30.3566 37.0003 30.5822 36.7747 30.5822 36.4989V32.3373C30.5822 32.0616 30.3566 31.8359 30.0808 31.8359ZM29.6296 36.0476H26.4206V32.8387H29.6296V36.0476Z" fill="#D5D8F5"/>
<path d="M36.3482 31.8359H32.1866C31.9109 31.8359 31.6852 32.0616 31.6852 32.3373V36.4989C31.6852 36.7747 31.9109 37.0003 32.1866 37.0003H36.3482C36.624 37.0003 36.8496 36.7747 36.8496 36.4989V32.3373C36.8496 32.0616 36.624 31.8359 36.3482 31.8359ZM35.897 36.0476H32.688V32.8387H35.897V36.0476Z" fill="#D5D8F5"/>
</g>
<defs>
<filter id="filter0_d" x="0" y="0" width="56" height="60" filterUnits="userSpaceOnUse" color-interpolation-filters="sRGB">
<feFlood flood-opacity="0" result="BackgroundImageFix"/>
<feColorMatrix in="SourceAlpha" type="matrix" values="0 0 0 0 0 0 0 0 0 0 0 0 0 0 0 0 0 0 127 0" result="hardAlpha"/>
<feOffset dy="4"/>
<feColorMatrix type="matrix" values="0 0 0 0 0.341176 0 0 0 0 0.0156863 0 0 0 0 0.603922 0 0 0 1 0"/>
<feBlend mode="normal" in2="BackgroundImageFix" result="effect1_dropShadow"/>
<feBlend mode="normal" in="SourceGraphic" in2="effect1_dropShadow" result="shape"/>
</filter>
</defs>
</svg>
