<svg width="56" height="60" viewBox="0 0 56 60" fill="none" xmlns="http://www.w3.org/2000/svg">
<g filter="url(#filter0_d)">
<rect width="56" height="56" rx="10" fill="#4E01CE"/>
<g clip-path="url(#clip0)">
<path d="M35.6415 32.043H24.7734C24.023 32.043 23.4146 32.6517 23.4146 33.4024C23.4146 34.1525 24.023 34.7612 24.7734 34.7612H35.6415C36.3916 34.7612 37.0001 34.1525 37.0001 33.4024C37.0001 32.652 36.3916 32.043 35.6415 32.043Z" fill="#D5D8F5"/>
<path d="M35.6415 26.6348H24.7734C24.023 26.6348 23.4146 27.2432 23.4146 27.9939C23.4146 28.7443 24.023 29.3527 24.7734 29.3527H35.6415C36.3916 29.3527 37.0001 28.7443 37.0001 27.9939C37.0001 27.2435 36.3916 26.6348 35.6415 26.6348Z" fill="#D5D8F5"/>
<path d="M24.7734 23.9426H35.6415C36.3916 23.9426 37.0001 23.3341 37.0001 22.5834C37.0001 21.8327 36.3916 21.2246 35.6415 21.2246H24.7734C24.023 21.2246 23.4146 21.833 23.4146 22.5834C23.4146 23.3339 24.023 23.9426 24.7734 23.9426Z" fill="#D5D8F5"/>
<path d="M20.3794 23.9755C21.1412 23.9755 21.7587 23.358 21.7587 22.5962C21.7587 21.8344 21.1412 21.2168 20.3794 21.2168C19.6176 21.2168 19 21.8344 19 22.5962C19 23.358 19.6176 23.9755 20.3794 23.9755Z" fill="#D5D8F5"/>
<path d="M20.3794 29.3714C21.141 29.3714 21.7585 28.754 21.7585 27.9924C21.7585 27.2307 21.141 26.6133 20.3794 26.6133C19.6177 26.6133 19.0003 27.2307 19.0003 27.9924C19.0003 28.754 19.6177 29.3714 20.3794 29.3714Z" fill="#D5D8F5"/>
<path d="M20.3794 34.7802C21.1412 34.7802 21.7587 34.1627 21.7587 33.4008C21.7587 32.639 21.1412 32.0215 20.3794 32.0215C19.6176 32.0215 19 32.639 19 33.4008C19 34.1627 19.6176 34.7802 20.3794 34.7802Z" fill="#D5D8F5"/>
</g>
</g>
<defs>
<filter id="filter0_d" x="0" y="0" width="56" height="60" filterUnits="userSpaceOnUse" color-interpolation-filters="sRGB">
<feFlood flood-opacity="0" result="BackgroundImageFix"/>
<feColorMatrix in="SourceAlpha" type="matrix" values="0 0 0 0 0 0 0 0 0 0 0 0 0 0 0 0 0 0 127 0" result="hardAlpha"/>
<feOffset dy="4"/>
<feColorMatrix type="matrix" values="0 0 0 0 0.279317 0 0 0 0 0.02625 0 0 0 0 0.7 0 0 0 1 0"/>
<feBlend mode="normal" in2="BackgroundImageFix" result="effect1_dropShadow"/>
<feBlend mode="normal" in="SourceGraphic" in2="effect1_dropShadow" result="shape"/>
</filter>
<clipPath id="clip0">
<rect width="18" height="18" fill="white" transform="translate(19 19)"/>
</clipPath>
</defs>
</svg>
