<svg width="32" height="32" viewBox="0 0 32 32" fill="none" xmlns="http://www.w3.org/2000/svg">
<rect width="32" height="32" rx="16" fill="#016778"/>
<g clip-path="url(#clip0)">
<path d="M21.4 15.4H16.6V10.6C16.6 10.2688 16.3312 10 16 10C15.6688 10 15.4 10.2688 15.4 10.6V15.4H10.6C10.2688 15.4 10 15.6688 10 16C10 16.3312 10.2688 16.6 10.6 16.6H15.4V21.4C15.4 21.7312 15.6688 22 16 22C16.3312 22 16.6 21.7312 16.6 21.4V16.6H21.4C21.7312 16.6 22 16.3312 22 16C22 15.6688 21.7312 15.4 21.4 15.4Z" fill="white"/>
</g>
<defs>
<clipPath id="clip0">
<rect width="12" height="12" fill="white" transform="translate(10 10)"/>
</clipPath>
</defs>
</svg>
