<svg width="12" height="12" viewBox="0 0 12 12" fill="none" xmlns="http://www.w3.org/2000/svg">
<path d="M5.7061 5.99998C5.71711 5.85853 5.67411 5.71406 5.56564 5.60608L1.10566 1.15359C0.908716 0.957156 0.589787 0.957156 0.392841 1.15359C0.195876 1.35005 0.195876 1.66849 0.392841 1.86544L4.53439 5.99998L0.392841 10.1345C0.195876 10.331 0.195876 10.6494 0.392841 10.8459C0.589806 11.0423 0.908734 11.0423 1.10566 10.8459L5.56565 6.39338C5.67411 6.28541 5.71662 6.14146 5.7061 5.99998ZM11.6138 5.60608L6.14553 0.147329C5.94856 -0.0491096 5.62964 -0.0491096 5.43269 0.147329C5.23572 0.343786 5.23572 0.662715 5.43269 0.858664L10.5825 5.99998L5.43267 11.1408C5.2357 11.3373 5.2357 11.6557 5.43267 11.8526C5.62964 12.0491 5.94856 12.0491 6.14551 11.8526L11.6132 6.39391C11.7217 6.28594 11.7642 6.14146 11.7532 6C11.7647 5.85853 11.7217 5.71406 11.6138 5.60608Z" fill="white"/>
</svg>
