<svg width="40" height="40" viewBox="0 0 40 40" fill="none" xmlns="http://www.w3.org/2000/svg">
<g clip-path="url(#clip0)">
<path d="M36.9922 18.9922L28.7891 14.3047C28.4141 14.0937 27.9921 14.0937 27.6172 14.3047L20 18.6406L12.3828 14.3047C12.0079 14.0937 11.5859 14.0937 11.2109 14.3047L3.00781 18.9922C2.65617 19.1798 2.42188 19.5782 2.42188 20.0001C2.42188 20.4219 2.65617 20.8203 3.00781 21.0079L9.45312 24.6876L17.0703 32.7266H22.9297L30.5469 24.6876L36.9922 21.0079C37.3438 20.8203 37.5781 20.4219 37.5781 20.0001C37.5781 19.5782 37.3438 19.1798 36.9922 18.9922Z" fill="url(#paint0_linear)"/>
<path d="M36.9922 28.3672L30.5469 24.6875L20.5859 30.3828C20.3984 30.5 20.211 30.5469 20 30.5469C19.789 30.5469 19.6016 30.4999 19.4141 30.3828L9.45312 24.6875L3.00781 28.3672C2.65617 28.5547 2.42188 28.9531 2.42188 29.375C2.42188 29.7969 2.65617 30.1952 3.00781 30.3828L19.4141 39.8359C19.6016 39.9531 19.789 40 20 40C20.211 40 20.3984 39.953 20.5859 39.8359L36.9922 30.3828C37.3438 30.1952 37.5781 29.7969 37.5781 29.375C37.5781 28.9531 37.3438 28.5547 36.9922 28.3672ZM3.01242 11.6423L19.4187 21.0173C19.5995 21.1203 19.7986 21.1719 20 21.1719C20.2014 21.1719 20.4005 21.1204 20.5813 21.0173L36.9876 11.6423C37.3538 11.434 37.5781 11.045 37.5781 10.625C37.5781 10.205 37.3538 9.81592 36.9876 9.60764L20.5813 0.154512C20.2197 -0.0515039 19.7802 -0.0515039 19.4186 0.154512L3.01234 9.60764C2.64617 9.81592 2.42188 10.205 2.42188 10.625C2.42188 11.045 2.64617 11.434 3.01242 11.6423Z" fill="url(#paint1_linear)"/>
</g>
<defs>
<linearGradient id="paint0_linear" x1="20" y1="32.7266" x2="20" y2="14.1465" gradientUnits="userSpaceOnUse">
<stop stop-color="#FFC2CC"/>
<stop offset="1" stop-color="#FFF2F4"/>
</linearGradient>
<linearGradient id="paint1_linear" x1="20" y1="40" x2="20" y2="-1.90735e-05" gradientUnits="userSpaceOnUse">
<stop stop-color="#FD3A84"/>
<stop offset="1" stop-color="#FFA68D"/>
</linearGradient>
<clipPath id="clip0">
<rect width="40" height="40" fill="white"/>
</clipPath>
</defs>
</svg>
