<svg width="40" height="40" viewBox="0 0 40 40" fill="none" xmlns="http://www.w3.org/2000/svg">
<g clip-path="url(#clip0)">
<path d="M39.7813 29.3619L27.2006 19.4556C26.8242 19.1598 26.2716 19.4286 26.2716 19.9068V26.4941H11.9527C8.49962 26.4941 4.95931 25.5365 2.34462 23.2658C1.93509 22.9101 1.30376 23.2724 1.40423 23.8055C1.58197 24.7495 1.94407 26.1713 2.66048 27.583C4.49853 31.206 7.62501 33.043 11.9527 33.043H26.1606V39.3318C26.1606 39.5492 26.2833 39.748 26.4778 39.8452C26.6687 39.941 26.9024 39.9235 27.0788 39.791L39.7706 30.2721C39.9133 30.1652 39.9982 29.998 40.0002 29.8197C40.0024 29.6413 39.9214 29.4723 39.7813 29.3619Z" fill="#1BBC86"/>
<path d="M39.7813 29.3601L38.1408 28.0684C26.187 37.0336 27.0084 36.4796 26.7345 36.4796C26.4196 36.4796 26.1606 36.2244 26.1606 35.9055V39.3299C26.1606 39.5473 26.2834 39.7461 26.4779 39.8433C26.6688 39.9391 26.9025 39.9216 27.0789 39.7891L39.7707 30.2702C39.9134 30.1633 39.9983 29.9961 40.0003 29.8177C40.0024 29.6395 39.9215 29.4705 39.7813 29.3601Z" fill="#149362"/>
<path d="M38.5954 16.1948C37.543 10.6017 34.0296 6.95737 28.0469 6.95737H13.839V0.668461C13.839 0.195961 13.2981 -0.0739609 12.9207 0.209242L0.228911 9.72807C-0.0721046 9.95385 -0.0781202 10.405 0.218208 10.6382C13.77 21.309 12.8692 20.6674 13.1541 20.6674C13.4685 20.6674 13.7281 20.4125 13.7281 20.0933V13.506H28.0469C31.508 13.506 35.0468 14.4683 37.655 16.7342C38.0655 17.0906 38.696 16.7269 38.5954 16.1948Z" fill="#E22437"/>
<path d="M13.1541 17.4909C12.8698 17.4909 13.707 18.0828 1.69813 8.62695L0.228911 9.72867C-0.0721046 9.95445 -0.0781202 10.4056 0.218208 10.6388L12.7989 20.5451C13.1741 20.8403 13.7279 20.573 13.7279 20.0939V16.9167C13.728 17.2358 13.4687 17.4909 13.1541 17.4909Z" fill="#C61A33"/>
<path d="M38.5954 16.1939C38.4711 15.5338 38.2562 14.6401 37.8937 13.6798C37.5109 13.5853 34.6259 10.3281 28.0468 10.3281H17.2404C17.0923 10.3616 16.8701 10.3801 16.5576 10.3801C14.4715 10.3801 13.8746 11.5266 13.728 12.4308V13.5053H28.0469C31.508 13.5053 35.0468 14.4676 37.655 16.7335C38.0655 17.0897 38.696 16.726 38.5954 16.1939Z" fill="#C61A33"/>
<path d="M23.0366 29.6185H11.953C7.15566 29.6185 3.90035 27.3415 2.21941 23.1845C1.793 22.9767 1.31753 23.3444 1.40441 23.8054C2.45769 29.3993 5.97019 33.0428 11.9529 33.0428H26.1607V32.2287C26.0564 31.216 25.5011 29.6185 23.0366 29.6185Z" fill="#149362"/>
</g>
<defs>
<clipPath id="clip0">
<rect width="40" height="40" fill="white"/>
</clipPath>
</defs>
</svg>
