<svg width="40" height="40" viewBox="0 0 40 40" fill="none" xmlns="http://www.w3.org/2000/svg">
<g clip-path="url(#clip0)">
<path d="M23.2895 0H11.0545L0.858398 21.3809H10.4014L1.49708 40L23.3961 16.9979H14.1077L23.2895 0Z" fill="#FABE02"/>
<path d="M14.1071 16.9979L23.2889 0H20.462L11.2798 16.9979H14.1071Z" fill="#F59A1D"/>
<path d="M20.5683 16.998L4.35103 34.0331L1.49707 40.0001L23.3961 16.998H20.5683Z" fill="#F59A1D"/>
<path d="M39.3235 12.2773H31.4776L24.6182 25.9875H30.7376L25.0279 37.9276L39.0706 23.1768H33.1145L39.3235 12.2773Z" fill="#FABE02"/>
<path d="M33.1139 23.1768L39.3229 12.2773H36.4956L30.2866 23.1768H33.1139Z" fill="#F59A1D"/>
<path d="M27.8818 31.9611L25.0278 37.9285L39.0705 23.1777H36.2432L27.8818 31.9611Z" fill="#F59A1D"/>
</g>
<defs>
<clipPath id="clip0">
<rect width="40" height="40" fill="white"/>
</clipPath>
</defs>
</svg>
