<svg width="40" height="40" viewBox="0 0 40 40" fill="none" xmlns="http://www.w3.org/2000/svg">
<g clip-path="url(#clip0)">
<path d="M35.3107 26.7117C34.2355 29.6255 32.6096 32.1591 30.4773 34.2413C28.0502 36.6113 24.8721 38.4946 21.0312 39.8379C20.9052 39.8819 20.7736 39.9179 20.6415 39.9444C20.4669 39.9789 20.2893 39.9975 20.1132 40H20.0787C19.8911 40 19.7025 39.9811 19.5154 39.9444C19.3832 39.9179 19.2535 39.8819 19.1281 39.8389C15.2826 38.4976 12.1005 36.6153 9.67101 34.2453C7.53783 32.1631 5.91216 29.631 4.83855 26.7172C2.88634 21.4194 2.99743 15.5832 3.08684 10.8932L3.08837 10.8212C3.10637 10.4339 3.11797 10.0271 3.12438 9.57792C3.15703 7.37242 4.91057 5.54777 7.11639 5.42478C11.7154 5.16813 15.2731 3.66819 18.313 0.70524L18.3395 0.680826C18.8443 0.217874 19.4803 -0.00917667 20.1132 0.000283821C20.7236 0.00821841 21.3315 0.234964 21.8182 0.680826L21.8442 0.70524C24.8847 3.66819 28.4424 5.16813 33.0414 5.42478C35.2472 5.54777 37.0008 7.37242 37.0334 9.57792C37.0398 10.0302 37.0514 10.4364 37.0694 10.8212L37.0703 10.8517C37.1594 15.5505 37.2699 21.3983 35.3107 26.7117Z" fill="#00DD80"/>
<path d="M35.3107 26.7114C34.2356 29.6253 32.6096 32.1588 30.4774 34.2411C28.0503 36.6111 24.8722 38.4943 21.0312 39.8377C20.9052 39.8816 20.7737 39.9176 20.6415 39.9442C20.467 39.9787 20.2894 39.9973 20.1133 39.9997V0C20.7236 0.0079346 21.3315 0.23468 21.8183 0.680543L21.8442 0.704957C24.8847 3.66791 28.4424 5.16785 33.0414 5.4245C35.2473 5.54749 37.0008 7.37214 37.0334 9.57765C37.0399 10.0299 37.0515 10.4361 37.0695 10.8209L37.0704 10.8514C37.1595 15.5502 37.27 21.398 35.3107 26.7114Z" fill="#00AA63"/>
<path d="M30.0469 19.9982C30.0469 25.4831 25.5935 29.9478 20.1132 29.9674H20.0781C14.5815 29.9674 10.1089 25.495 10.1089 19.9982C10.1089 14.5017 14.5815 10.0293 20.0781 10.0293H20.1132C25.5935 10.0488 30.0469 14.5136 30.0469 19.9982Z" fill="white"/>
<path d="M30.0471 19.9982C30.0471 25.4831 25.5936 29.9478 20.1133 29.9674V10.0293C25.5936 10.0488 30.0471 14.5136 30.0471 19.9982Z" fill="#E1EBF0"/>
<path d="M24.6032 18.5661L20.1135 23.0564L19.1433 24.0266C18.9142 24.2558 18.6136 24.3702 18.3133 24.3702C18.0127 24.3702 17.7124 24.2558 17.4829 24.0266L15.397 21.9398C14.9386 21.4814 14.9386 20.7389 15.397 20.2802C15.8548 19.8219 16.5982 19.8219 17.0565 20.2802L18.3133 21.537L22.9437 16.9065C23.4021 16.4478 24.1455 16.4478 24.6032 16.9065C25.0616 17.3649 25.0616 18.1083 24.6032 18.5661Z" fill="#B4D2D7"/>
<path d="M24.603 18.5661L20.1133 23.0564V19.7364L22.9435 16.9065C23.4019 16.4478 24.1453 16.4478 24.603 16.9065C25.0614 17.3649 25.0614 18.1083 24.603 18.5661Z" fill="#6FA5AA"/>
</g>
<defs>
<clipPath id="clip0">
<rect width="40" height="40" fill="white"/>
</clipPath>
</defs>
</svg>
