<svg width="32" height="32" viewBox="0 0 32 32" fill="none" xmlns="http://www.w3.org/2000/svg">
<path fill-rule="evenodd" clip-rule="evenodd" d="M31.8038 21.6288C32.5944 16.6068 28.1335 11.4074 19.3906 14.7998C16.4474 15.9528 14.393 15.7975 13.2388 14.3674C13.3311 17.2277 15.9107 18.2808 19.7715 17.4549C21.8144 17.0115 24.3536 16.302 26.61 16.5847C29.1319 16.9117 31.8154 18.8351 31.8038 21.6288Z" fill="url(#paint0_linear)"/>
<path fill-rule="evenodd" clip-rule="evenodd" d="M31.8037 21.6286C31.8152 18.8349 29.1318 16.9114 26.6041 16.5844C24.3477 16.3073 21.8085 17.0112 19.7655 17.4547C15.9048 18.2806 13.3194 17.2274 13.2329 14.3672C12.3211 17.305 14.0639 19.9158 17.0417 20.1818C19.8059 20.4313 23.3378 19.0289 26.3271 19.4058C28.999 19.7273 32.0518 22.8148 29.2126 26.4677C29.6511 25.9743 30.0667 25.4588 30.436 24.9211C30.5456 24.7715 30.6495 24.6107 30.7476 24.45C31.3016 23.5631 31.6594 22.5986 31.8037 21.6286Z" fill="url(#paint1_linear)"/>
<path fill-rule="evenodd" clip-rule="evenodd" d="M29.2123 26.4794C32.0516 22.8265 28.9988 19.739 26.3269 19.4175C23.3433 19.0406 19.8057 20.4375 17.0415 20.1936C14.0694 19.922 12.3266 17.3112 13.2326 14.3789C12.1766 16.646 13.2096 19.1736 15.3333 20.2712C17.532 21.4019 20.8445 20.2157 23.8973 19.9386C24.636 19.8721 25.3689 19.8554 26.0499 19.9386C28.7276 20.2656 31.4572 22.9928 29.2123 26.4794Z" fill="url(#paint2_linear)"/>
<path fill-rule="evenodd" clip-rule="evenodd" d="M29.2126 26.4776C31.4575 22.9966 28.7278 20.2639 26.0559 19.9313C25.3691 19.8481 24.642 19.8648 23.9033 19.9313C24.0476 20.3914 24.1053 20.857 24.0938 21.3171C25.5884 20.8847 27.0773 21.2117 28.1219 22.0155C29.3569 22.9578 29.9628 24.593 29.2126 26.4776Z" fill="url(#paint3_linear)"/>
<path fill-rule="evenodd" clip-rule="evenodd" d="M2.6377 28.0027C11.3806 33.1522 25.3059 30.0647 28.1221 22.0162C27.0776 21.2069 25.5829 20.8854 24.094 21.3178C24.0247 24.178 21.2085 26.8774 17.2035 28.3685C14.4623 29.3995 11.1614 29.8651 7.83153 29.4439C6.08871 29.2166 4.33435 28.7565 2.6377 28.0027Z" fill="url(#paint4_linear)"/>
<path fill-rule="evenodd" clip-rule="evenodd" d="M28.1221 22.0156C25.3059 30.0697 11.3806 33.1516 2.6377 28.0021C6.85624 31.1727 13.4466 32.4975 18.8828 31.8268C22.9917 31.3113 26.639 29.3435 29.2128 26.4722C29.963 24.5931 29.3571 22.9579 28.1221 22.0156Z" fill="url(#paint5_linear)"/>
<path fill-rule="evenodd" clip-rule="evenodd" d="M7.82559 29.4439C11.1612 29.8651 14.4622 29.3995 17.1976 28.3685C16.0203 28.302 14.8834 28.0248 13.8504 27.5703C11.7729 28.496 9.50493 29.0004 7.21387 29.0448C7.41008 29.1833 7.61206 29.3164 7.82559 29.4439Z" fill="url(#paint6_linear)"/>
<path fill-rule="evenodd" clip-rule="evenodd" d="M7.21954 29.0457C9.5106 29.0014 11.7786 28.497 13.8561 27.5713C4.39179 24.0348 -0.501958 14.0185 2.7413 4.79492C-0.357685 9.86681 -0.784733 15.942 1.23509 21.4462C2.37196 24.5282 4.47835 27.1777 7.21954 29.0457Z" fill="url(#paint7_linear)"/>
<path fill-rule="evenodd" clip-rule="evenodd" d="M2.74149 4.79492C-0.501774 14.0185 4.39197 24.0348 13.8563 27.5768C11.6229 26.5791 9.85126 24.7499 9.00871 22.4274C7.78527 19.0516 8.80673 15.2879 11.5999 12.9044C9.19915 13.4199 6.68303 12.7547 4.89981 11.1306C3.12237 9.48988 2.30289 7.11746 2.74149 4.79492Z" fill="url(#paint8_linear)"/>
<path fill-rule="evenodd" clip-rule="evenodd" d="M2.74181 4.79492C2.30322 7.11746 3.12269 9.48988 4.90013 11.1251C6.68335 12.7492 9.19947 13.4144 11.6002 12.8989C10.5556 12.9931 9.53418 12.8989 8.59352 12.6273C5.99084 11.8956 3.90176 9.94996 3.09383 7.45559C2.81683 6.62967 2.6841 5.72615 2.74181 4.79492Z" fill="url(#paint9_linear)"/>
<path fill-rule="evenodd" clip-rule="evenodd" d="M3.08789 7.46128C3.89582 9.95566 5.98489 11.9013 8.58758 12.6329C8.72031 12.2782 8.87036 11.9456 9.02617 11.6019C7.67577 11.2139 6.45234 10.5377 5.43089 9.64524C4.59987 8.91356 3.90159 8.03222 3.38798 7.05664C3.28987 7.17859 3.19177 7.32271 3.08789 7.46128Z" fill="url(#paint10_linear)"/>
<path fill-rule="evenodd" clip-rule="evenodd" d="M3.39404 7.05012C3.90766 8.02569 4.60594 8.91258 5.43695 9.63872C10.1172 1.6401 20.6145 -1.32543 29.0689 2.96489C21.2204 -2.24003 9.01492 -0.42191 3.39404 7.05012Z" fill="url(#paint11_linear)"/>
<path fill-rule="evenodd" clip-rule="evenodd" d="M29.0694 2.9652C20.615 -1.32511 10.1177 1.64596 5.4375 9.63903C6.45895 10.5315 7.68239 11.2077 9.03279 11.5957C11.9356 3.6082 21.1633 0.149338 29.0694 2.9652Z" fill="url(#paint12_linear)"/>
<path fill-rule="evenodd" clip-rule="evenodd" d="M29.0684 2.96455C21.1622 0.148681 11.9345 3.60754 9.03174 11.5951C10.3013 8.95104 12.2404 6.76708 14.6007 5.18731C17.4284 3.27496 20.8448 2.23287 24.3651 2.26058C25.9232 2.2883 27.5045 2.51556 29.0684 2.96455Z" fill="url(#paint13_linear)"/>
<path fill-rule="evenodd" clip-rule="evenodd" d="M24.365 2.2664C20.839 2.23314 17.4283 3.27523 14.6006 5.19312C14.9122 5.10443 15.2412 5.05455 15.5643 5.0102C18.998 2.98699 23.1993 2.58235 26.9792 3.90159C26.1598 3.27523 25.2941 2.73756 24.365 2.2664Z" fill="url(#paint14_linear)"/>
<path fill-rule="evenodd" clip-rule="evenodd" d="M26.9794 3.90233C23.1936 2.57754 18.9982 2.98773 15.5645 5.01094C18.4845 4.68944 21.3354 6.21378 22.5357 8.84673C25.6463 7.05078 29.6513 7.68823 32.0001 10.3433C30.9324 7.79355 29.1781 5.57633 26.9794 3.90233Z" fill="url(#paint15_linear)"/>
<path fill-rule="evenodd" clip-rule="evenodd" d="M31.9941 10.3428C29.6453 7.68764 25.6403 7.05019 22.5298 8.84614C25.7442 7.72644 29.3337 8.29737 31.9941 10.3428Z" fill="url(#paint16_linear)"/>
<defs>
<linearGradient id="paint0_linear" x1="14.7254" y1="12.083" x2="37.9988" y2="25.9671" gradientUnits="userSpaceOnUse">
<stop stop-color="#ED1C24"/>
<stop offset="1" stop-color="#FCEE21"/>
</linearGradient>
<linearGradient id="paint1_linear" x1="11.1255" y1="12.4719" x2="34.3987" y2="26.356" gradientUnits="userSpaceOnUse">
<stop stop-color="#ED1C24"/>
<stop offset="1" stop-color="#FCEE21"/>
</linearGradient>
<linearGradient id="paint2_linear" x1="5.51369" y1="11.222" x2="28.7874" y2="25.1063" gradientUnits="userSpaceOnUse">
<stop stop-color="#ED1C24"/>
<stop offset="1" stop-color="#FCEE21"/>
</linearGradient>
<linearGradient id="paint3_linear" x1="-0.942236" y1="34.7619" x2="26.502" y2="22.2572" gradientUnits="userSpaceOnUse">
<stop stop-color="#E900DD"/>
<stop offset="0.4975" stop-color="#D40076"/>
<stop offset="1" stop-color="#A90004"/>
</linearGradient>
<linearGradient id="paint4_linear" x1="3.92766" y1="31.7495" x2="31.3714" y2="19.245" gradientUnits="userSpaceOnUse">
<stop stop-color="#E900DD"/>
<stop offset="0.4975" stop-color="#D40076"/>
<stop offset="1" stop-color="#A90004"/>
</linearGradient>
<linearGradient id="paint5_linear" x1="9.63091" y1="30.733" x2="37.0745" y2="18.2286" gradientUnits="userSpaceOnUse">
<stop stop-color="#E900DD"/>
<stop offset="0.4975" stop-color="#D40076"/>
<stop offset="1" stop-color="#A90004"/>
</linearGradient>
<linearGradient id="paint6_linear" x1="1.31136" y1="2.41318" x2="11.8072" y2="29.8593" gradientUnits="userSpaceOnUse">
<stop stop-color="#FF54FF"/>
<stop offset="0.4926" stop-color="#9C00BF"/>
<stop offset="1" stop-color="#5A00A9"/>
</linearGradient>
<linearGradient id="paint7_linear" x1="-0.625617" y1="4.81327" x2="9.87049" y2="32.26" gradientUnits="userSpaceOnUse">
<stop stop-color="#FF54FF"/>
<stop offset="0.4926" stop-color="#9C00BF"/>
<stop offset="1" stop-color="#5A00A9"/>
</linearGradient>
<linearGradient id="paint8_linear" x1="3.78917" y1="6.54161" x2="14.2852" y2="33.9883" gradientUnits="userSpaceOnUse">
<stop stop-color="#FF54FF"/>
<stop offset="0.4926" stop-color="#9C00BF"/>
<stop offset="1" stop-color="#5A00A9"/>
</linearGradient>
<linearGradient id="paint9_linear" x1="6.61995" y1="8.95045" x2="17.1163" y2="36.3977" gradientUnits="userSpaceOnUse">
<stop stop-color="#FF54FF"/>
<stop offset="0.4926" stop-color="#9C00BF"/>
<stop offset="1" stop-color="#5A00A9"/>
</linearGradient>
<linearGradient id="paint10_linear" x1="34.607" y1="-4.49974" x2="5.77263" y2="11.1627" gradientUnits="userSpaceOnUse">
<stop stop-color="#AE24FE"/>
<stop offset="0.4926" stop-color="#662AED"/>
<stop offset="1" stop-color="#0026BF"/>
</linearGradient>
<linearGradient id="paint11_linear" x1="30.4748" y1="-3.07742" x2="1.64098" y2="12.5848" gradientUnits="userSpaceOnUse">
<stop stop-color="#AE24FE"/>
<stop offset="0.4926" stop-color="#662AED"/>
<stop offset="1" stop-color="#0026BF"/>
</linearGradient>
<linearGradient id="paint12_linear" x1="28.156" y1="-0.709308" x2="-0.678059" y2="14.953" gradientUnits="userSpaceOnUse">
<stop stop-color="#AE24FE"/>
<stop offset="0.4926" stop-color="#662AED"/>
<stop offset="1" stop-color="#0026BF"/>
</linearGradient>
<linearGradient id="paint13_linear" x1="23.5041" y1="2.88193" x2="-5.33014" y2="18.5443" gradientUnits="userSpaceOnUse">
<stop stop-color="#AE24FE"/>
<stop offset="0.4926" stop-color="#662AED"/>
<stop offset="1" stop-color="#0026BF"/>
</linearGradient>
<linearGradient id="paint14_linear" x1="32.2466" y1="9.88357" x2="15.4499" y2="1.10654" gradientUnits="userSpaceOnUse">
<stop stop-color="#67FFE5"/>
<stop offset="0.3226" stop-color="#00B8BF"/>
<stop offset="0.6989" stop-color="#006D84"/>
<stop offset="1" stop-color="#004554"/>
</linearGradient>
<linearGradient id="paint15_linear" x1="30.4521" y1="9.11964" x2="13.6543" y2="0.342041" gradientUnits="userSpaceOnUse">
<stop stop-color="#67FFE5"/>
<stop offset="0.3226" stop-color="#00B8BF"/>
<stop offset="0.6989" stop-color="#006D84"/>
<stop offset="1" stop-color="#004554"/>
</linearGradient>
<linearGradient id="paint16_linear" x1="27.5094" y1="9.39325" x2="10.7113" y2="0.61556" gradientUnits="userSpaceOnUse">
<stop stop-color="#67FFE5"/>
<stop offset="0.3226" stop-color="#00B8BF"/>
<stop offset="0.6989" stop-color="#006D84"/>
<stop offset="1" stop-color="#004554"/>
</linearGradient>
</defs>
</svg>
